<svg width="40" height="40" viewBox="0 0 40 40" fill="none" xmlns="http://www.w3.org/2000/svg">
<g clip-path="url(#clip0_111_797)">
<path d="M22 29.8V32H23.46C23.6447 33.0047 24.0293 33.9387 24.578 34.7553L23.3333 36L25.3333 38L26.578 36.7553C27.3947 37.304 28.3293 37.688 29.3333 37.8733V39.3333H32V37.8733C33.004 37.6887 33.9387 37.304 34.7553 36.7553L36 38L38 36L36.7553 34.7553C37.304 33.9387 37.688 33.0047 37.8733 32H39.3333V29.3333H37.8733C37.6887 28.3287 37.304 27.3947 36.7553 26.578L38 25.3333L36 23.3333L34.7553 24.578C33.9387 24.0293 33.004 23.6453 32 23.46V22H29.798" stroke="#6A6A6C" stroke-width="1.5" stroke-miterlimit="10"/>
<path d="M20 30C25.5228 30 30 25.5228 30 20C30 14.4772 25.5228 10 20 10C14.4772 10 10 14.4772 10 20C10 25.5228 14.4772 30 20 30Z" stroke="#6A6A6C" stroke-width="1.5" stroke-miterlimit="10"/>
<path d="M23.4678 7.81413C23.8464 7.92146 24.2178 8.0468 24.5811 8.18746" stroke="#6A6A6C" stroke-width="1.5" stroke-miterlimit="10"/>
<path d="M11.1699 29.0808C10.8732 28.7922 10.5912 28.4895 10.3232 28.1742" stroke="#6A6A6C" stroke-width="1.5" stroke-miterlimit="10"/>
<path d="M20.0002 32.6667C17.2942 32.6667 14.7868 31.8187 12.7295 30.3734" stroke="#6A6A6C" stroke-width="1.5" stroke-miterlimit="10"/>
<path d="M26.1719 8.93522C28.2079 10.0739 29.8979 11.7572 31.0425 13.7886" stroke="#6A6A6C" stroke-width="1.5" stroke-miterlimit="10"/>
<path d="M30.667 32.6667C31.7716 32.6667 32.667 31.7712 32.667 30.6667C32.667 29.5621 31.7716 28.6667 30.667 28.6667C29.5624 28.6667 28.667 29.5621 28.667 30.6667C28.667 31.7712 29.5624 32.6667 30.667 32.6667Z" stroke="#6A6A6C" stroke-width="1.5" stroke-miterlimit="10"/>
<path d="M11.566 14.6313C10.3 14.424 9.33398 13.3247 9.33398 12C9.33398 10.5273 10.528 9.33333 12.0007 9.33333C13.3233 9.33333 14.422 10.2967 14.6313 11.5613" stroke="#6A6A6C" stroke-width="1.5" stroke-miterlimit="10"/>
<path d="M30 6V2" stroke="#6A6A6C" stroke-width="1.5" stroke-miterlimit="10"/>
<path d="M32.9434 7.05717L35.73 4.27051" stroke="#6A6A6C" stroke-width="1.5" stroke-miterlimit="10"/>
<path d="M34 10H38" stroke="#6A6A6C" stroke-width="1.5" stroke-miterlimit="10"/>
<path d="M10 34V38" stroke="#6A6A6C" stroke-width="1.5" stroke-miterlimit="10"/>
<path d="M7.05815 32.9427L4.27148 35.7294" stroke="#6A6A6C" stroke-width="1.5" stroke-miterlimit="10"/>
<path d="M6 30H2" stroke="#6A6A6C" stroke-width="1.5" stroke-miterlimit="10"/>
<path d="M21.1303 10.0633C20.8843 8.90867 20.423 7.82733 19.7943 6.87267L21.3337 5.33333L18.667 2.66667L17.1277 4.206C16.1897 3.58733 15.1337 3.13467 14.0003 2.88667V0.666666H10.0003V2.88667C8.86699 3.13467 7.81099 3.58733 6.87299 4.206L5.33366 2.66667L2.66699 5.33333L4.20633 6.87267C3.58766 7.81067 3.13499 8.86667 2.88699 10H0.666992V14H2.88699C3.13499 15.1333 3.58766 16.1893 4.20633 17.1273L2.66699 18.6667L5.33366 21.3333L6.87299 19.794C7.83033 20.4247 8.90833 20.886 10.0657 21.1313" stroke="#6A6A6C" stroke-width="1.5" stroke-miterlimit="10"/>
</g>
<defs>
<clipPath id="clip0_111_797">
<rect width="40" height="40" fill="white"/>
</clipPath>
</defs>
</svg>
