<svg width="40" height="40" viewBox="0 0 40 40" fill="none" xmlns="http://www.w3.org/2000/svg">
<g clip-path="url(#clip0_111_814)">
<path d="M26.3063 20H37.6663C38.587 20 39.333 19.254 39.333 18.3333C39.333 17.4127 38.587 16.6667 37.6663 16.6667H19.9997L18.333 18.3333L19.9997 20H23.333" stroke="#6A6A6C" stroke-width="1.5" stroke-miterlimit="10"/>
<path d="M35.6553 30.6667C36.6639 28.208 37.3599 26.0553 37.3326 23.3333V20" stroke="#6A6A6C" stroke-width="1.5" stroke-miterlimit="10"/>
<path d="M30 15.3333V16.6667" stroke="#6A6A6C" stroke-width="1.5" stroke-miterlimit="10"/>
<path d="M29.9998 20L30.0005 23.452C30.0005 23.7867 29.7305 24 29.4531 24C29.2918 24 29.1231 23.9313 29.0078 23.7707L25.7538 19.228C25.4638 18.82 24.9498 18.582 24.3911 18.694C23.8978 18.7927 23.4851 19.1893 23.3704 19.6793C23.2864 20.04 23.3484 20.3833 23.5098 20.6633L26.8218 26.4253C27.5065 27.616 29.1385 29.708 30.1798 30.6667" stroke="#6A6A6C" stroke-width="1.5" stroke-miterlimit="10"/>
<path d="M24.4238 16.6667L28.6525 13.2213C29.0925 12.8627 29.6432 12.6667 30.2112 12.6667C30.5118 12.6667 30.8105 12.7227 31.0912 12.83L35.2432 14.4187C35.8698 14.6587 36.3832 15.126 36.6805 15.7273L37.1458 16.6667" stroke="#6A6A6C" stroke-width="1.5" stroke-miterlimit="10"/>
<path d="M7.45898 6.84199L24.7683 3.29199L27.137 14.456" stroke="#6A6A6C" stroke-width="1.5" stroke-miterlimit="10"/>
<path d="M27.8838 5.43489L28.8211 9.85689" stroke="#6A6A6C" stroke-width="1.5" stroke-miterlimit="10"/>
<path d="M27.1748 2.09277L27.5595 3.90677" stroke="#6A6A6C" stroke-width="1.5" stroke-miterlimit="10"/>
<path d="M6.74117 31.8801L1.8125 8.00011L5.88983 7.16411" stroke="#6A6A6C" stroke-width="1.5" stroke-miterlimit="10"/>
<path d="M9.98525 16.0834L9.39859 13.2134C9.32325 12.8434 8.96525 12.6048 8.59859 12.6808L6.54059 13.1074C6.17325 13.1834 5.93725 13.5461 6.01325 13.9168L6.59992 16.7868C6.67525 17.1568 7.03325 17.3954 7.39992 17.3194L9.45792 16.8928C9.82459 16.8168 10.0606 16.4541 9.98525 16.0834Z" stroke="#6A6A6C" stroke-width="1.5" stroke-miterlimit="10"/>
<path d="M3.56884 29.2321L2.64551 24.8008" stroke="#6A6A6C" stroke-width="1.5" stroke-miterlimit="10"/>
<path d="M5.49827 38.4946L3.8916 30.7799" stroke="#6A6A6C" stroke-width="1.5" stroke-miterlimit="10"/>
<path d="M26.6662 33.984L7.99952 37.9773L7.06152 33.4326" stroke="#6A6A6C" stroke-width="1.5" stroke-miterlimit="10"/>
<path d="M12.1885 14.7689L22.5025 12.5309" stroke="#6A6A6C" stroke-width="1.5" stroke-miterlimit="10"/>
<path d="M26.667 36V32C26.667 31.2633 27.2637 30.6667 28.0003 30.6667H37.3337C38.0703 30.6667 38.667 31.2633 38.667 32V36" stroke="#6A6A6C" stroke-width="1.5" stroke-miterlimit="10"/>
<path d="M30.0003 32.6667H28.667V34H30.0003V32.6667Z" fill="#6A6A6C"/>
<path d="M14.8545 24.7686L21.8452 23.1559" stroke="#6A6A6C" stroke-width="1.5" stroke-miterlimit="10"/>
<path d="M8.31836 25.012L10.6664 26.25L12.7804 22.7373" stroke="#6A6A6C" stroke-width="1.5" stroke-miterlimit="10"/>
<path d="M20.0003 32H18.667V33.3333H20.0003V32Z" fill="#6A6A6C"/>
<path d="M23.3333 31.3333H22V32.6667H23.3333V31.3333Z" fill="#6A6A6C"/>
<path d="M16.6663 32.6667H15.333V34H16.6663V32.6667Z" fill="#6A6A6C"/>
</g>
<defs>
<clipPath id="clip0_111_814">
<rect width="40" height="40" fill="white"/>
</clipPath>
</defs>
</svg>
