<svg width="20" height="20" viewBox="0 0 20 20" fill="none" xmlns="http://www.w3.org/2000/svg">
<path d="M15.4286 8.33898C15.4286 6.88538 14.8616 5.51979 13.8319 4.49373C13.2219 3.8858 12.4932 3.44076 11.6982 3.17997V3.06849C11.6982 2.13204 10.9364 1.37024 10 1.37024C9.06355 1.37024 8.30179 2.13208 8.30179 3.06849V3.18595C6.13854 3.90845 4.57146 5.9712 4.57146 8.39144V10.2885C4.57146 12.1272 4.0463 13.9034 3.05095 15.4428H16.949C15.9537 13.9035 15.4286 12.1273 15.4286 10.2886V8.33898ZM13.0524 8.33902C13.0524 7.52167 12.7335 6.75386 12.1546 6.1769C11.5785 5.6028 10.8134 5.28666 10.0002 5.28666V4.09853C11.1299 4.09853 12.1929 4.53779 12.9932 5.33533C13.7975 6.13682 14.2404 7.20354 14.2404 8.33902H13.0524Z" fill="#C63E34"/>
<path d="M6.86858 16.631C7.16339 18.0901 8.45531 19.1921 10 19.1921C11.5448 19.1921 12.8367 18.09 13.1315 16.631H6.86858Z" fill="#C63E34"/>
<path d="M3.50454 7.70544H0V8.89357H3.50454V7.70544Z" fill="#C63E34"/>
<path d="M20 7.70544H16.4955V8.89357H20V7.70544Z" fill="#C63E34"/>
<path d="M19.0117 3.92379L15.7737 5.26501L16.2284 6.36273L19.4663 5.02151L19.0117 3.92379Z" fill="#C63E34"/>
<path d="M0.988603 3.92389L0.533905 5.02161L3.77183 6.36283L4.22653 5.26511L0.988603 3.92389Z" fill="#C63E34"/>
<path d="M3.34883 0.808339L2.50873 1.64844L4.98676 4.12647L5.82686 3.28637L3.34883 0.808339Z" fill="#C63E34"/>
<path d="M16.651 0.807977L14.1729 3.28601L15.013 4.12611L17.4911 1.64807L16.651 0.807977Z" fill="#C63E34"/>
</svg>
