<svg width="21" height="163" viewBox="0 0 21 163" fill="none" xmlns="http://www.w3.org/2000/svg">
<path d="M19.7032 153.326C20.1094 152.946 20.1094 152.312 19.7032 151.932C19.3133 151.552 18.6634 151.552 18.2897 151.932L11.0273 159.009L11.0273 144.887C11.0273 144.349 10.5886 143.906 10.02 143.906C9.4676 143.906 8.99644 144.333 8.99644 144.887L8.99644 159.025L1.73406 151.948C1.32788 151.568 0.694252 151.568 0.304325 151.948C-0.101849 152.344 -0.101849 152.961 0.304325 153.341L9.28889 162.096C9.67881 162.492 10.3287 162.492 10.7024 162.096L19.7032 153.326Z" fill="#C63E34"/>
<path d="M9 2.51563L9 3.51563L11 3.51563L11 2.51563L9 2.51563ZM11 7.54688L11 6.54688L9 6.54688L9 7.54688L11 7.54688ZM9 12.5781L9 13.5781L11 13.5781L11 12.5781L9 12.5781ZM11 17.6094L11 16.6094L9 16.6094L9 17.6094L11 17.6094ZM9 22.6406L9 23.6406L11 23.6406L11 22.6406L9 22.6406ZM11 27.6719L11 26.6719L9 26.6719L9 27.6719L11 27.6719ZM9 32.7031L9 33.7031L11 33.7031L11 32.7031L9 32.7031ZM11 37.7344L11 36.7344L9 36.7344L9 37.7344L11 37.7344ZM9 42.7656L9 43.7656L11 43.7656L11 42.7656L9 42.7656ZM11 47.7969L11 46.7969L9 46.7969L9 47.7969L11 47.7969ZM9 52.8281L9 53.8281L11 53.8281L11 52.8281L9 52.8281ZM11 57.8594L11 56.8594L9 56.8594L9 57.8594L11 57.8594ZM9 62.8906L9 63.8906L11 63.8906L11 62.8906L9 62.8906ZM11 67.9219L11 66.9219L9 66.9219L9 67.9219L11 67.9219ZM9 72.9531L9 73.9531L11 73.9531L11 72.9531L9 72.9531ZM11 77.9844L11 76.9844L9 76.9844L9 77.9844L11 77.9844ZM9 83.0156L9 84.0156L11 84.0156L11 83.0156L9 83.0156ZM11 88.0469L11 87.0469L9 87.0469L9 88.0469L11 88.0469ZM9 93.0781L9 94.0781L11 94.0781L11 93.0781L9 93.0781ZM11 98.1094L11 97.1094L9 97.1094L9 98.1094L11 98.1094ZM9 103.141L9 104.141L11 104.141L11 103.141L9 103.141ZM11 108.172L11 107.172L9 107.172L9 108.172L11 108.172ZM9 113.203L9 114.203L11 114.203L11 113.203L9 113.203ZM11 118.234L11 117.234L8.99999 117.234L8.99999 118.234L11 118.234ZM8.99999 123.266L8.99999 124.266L11 124.266L11 123.266L8.99999 123.266ZM11 128.297L11 127.297L8.99999 127.297L8.99999 128.297L11 128.297ZM8.99999 133.328L8.99999 134.328L11 134.328L11 133.328L8.99999 133.328ZM11 138.359L11 137.359L8.99999 137.359L8.99999 138.359L11 138.359ZM8.99999 143.391L8.99999 144.391L11 144.391L11 143.391L8.99999 143.391ZM11 148.422L11 147.422L8.99999 147.422L8.99999 148.422L11 148.422ZM8.99999 153.453L8.99999 154.453L11 154.453L11 153.453L8.99999 153.453ZM11 158.484L11 157.484L8.99999 157.484L8.99999 158.484L11 158.484ZM9 -4.37114e-08L9 2.51563L11 2.51563L11 4.37114e-08L9 -4.37114e-08ZM9 7.54688L9 12.5781L11 12.5781L11 7.54688L9 7.54688ZM9 17.6094L9 22.6406L11 22.6406L11 17.6094L9 17.6094ZM9 27.6719L9 32.7031L11 32.7031L11 27.6719L9 27.6719ZM9 37.7344L9 42.7656L11 42.7656L11 37.7344L9 37.7344ZM9 47.7969L9 52.8281L11 52.8281L11 47.7969L9 47.7969ZM9 57.8594L9 62.8906L11 62.8906L11 57.8594L9 57.8594ZM9 67.9219L9 72.9531L11 72.9531L11 67.9219L9 67.9219ZM9 77.9844L9 83.0156L11 83.0156L11 77.9844L9 77.9844ZM9 88.0469L9 93.0781L11 93.0781L11 88.0469L9 88.0469ZM9 98.1094L9 103.141L11 103.141L11 98.1094L9 98.1094ZM9 108.172L9 113.203L11 113.203L11 108.172L9 108.172ZM8.99999 118.234L8.99999 123.266L11 123.266L11 118.234L8.99999 118.234ZM8.99999 128.297L8.99999 133.328L11 133.328L11 128.297L8.99999 128.297ZM8.99999 138.359L8.99999 143.391L11 143.391L11 138.359L8.99999 138.359ZM8.99999 148.422L8.99999 153.453L11 153.453L11 148.422L8.99999 148.422ZM8.99999 158.484L8.99999 161L11 161L11 158.484L8.99999 158.484Z" fill="#C63E34"/>
</svg>
