<svg width="35" height="35" viewBox="0 0 35 35" fill="none" xmlns="http://www.w3.org/2000/svg">
<path d="M17.5681 1.29639C13.182 1.28455 8.9641 2.98327 5.81054 6.03164V1.29632C5.81054 0.58037 5.23017 0 4.51422 0C3.79827 0 3.21797 0.58037 3.21797 1.29632V9.07408C3.21782 9.63227 3.57504 10.1279 4.10467 10.3042L11.8824 12.8968C12.5625 13.1231 13.2973 12.7551 13.5235 12.075C13.7498 11.3949 13.3818 10.6601 12.7017 10.4339L6.95912 8.52318C12.2639 2.74645 21.2473 2.36379 27.024 7.66854C32.8007 12.9733 33.1834 21.9567 27.8786 27.7334C22.5739 33.5102 13.5905 33.8928 7.81377 28.5881C4.27215 25.3358 2.61679 20.5123 3.41508 15.7707C3.54063 15.0658 3.07108 14.3927 2.36629 14.2671C1.66151 14.1415 0.988324 14.6111 0.862695 15.3159C0.861328 15.3236 0.860036 15.3313 0.858821 15.339C0.703646 16.2673 0.625564 17.2069 0.625488 18.148C0.636046 27.4506 8.17462 34.9892 17.4772 34.9999C26.7841 35.0251 34.3493 27.5006 34.3744 18.1937C34.3995 8.8867 26.8751 1.32154 17.5681 1.29639Z" fill="#C63E34"/>
</svg>
