<svg width="30" height="30" viewBox="0 0 30 30" fill="none" xmlns="http://www.w3.org/2000/svg">
<path d="M15 0C6.70881 0 0 6.70939 0 15C0 23.2912 6.70939 30 15 30C23.2912 30 30 23.2906 30 15C30 6.70881 23.2905 0 15 0ZM15 27.6562C8.00432 27.6562 2.34375 21.9952 2.34375 15C2.34375 8.00432 8.00479 2.34375 15 2.34375C21.9957 2.34375 27.6562 8.00479 27.6562 15C27.6562 21.9957 21.9952 27.6562 15 27.6562Z" fill="#C63E34"/>
<path d="M15 12.5581C14.3528 12.5581 13.8281 13.0828 13.8281 13.73V21.2765C13.8281 21.9237 14.3528 22.4483 15 22.4483C15.6472 22.4483 16.1719 21.9236 16.1719 21.2764V13.73C16.1719 13.0828 15.6472 12.5581 15 12.5581Z" fill="#C63E34"/>
<path d="M15 11.1235C15.8737 11.1235 16.582 10.4152 16.582 9.5415C16.582 8.66777 15.8737 7.95947 15 7.95947C14.1263 7.95947 13.418 8.66777 13.418 9.5415C13.418 10.4152 14.1263 11.1235 15 11.1235Z" fill="#C63E34"/>
</svg>
