<svg width="34" height="34" viewBox="0 0 34 34" fill="none" xmlns="http://www.w3.org/2000/svg">
<path d="M3.95654 3.96462V33.4165C3.95654 33.7293 4.21014 33.9829 4.52299 33.9829H26.0455C26.3582 33.9829 26.6117 33.7293 26.6117 33.4165V9.6286C26.6117 9.616 26.6057 9.60527 26.6045 9.59291C26.6017 9.54321 26.5919 9.49422 26.5756 9.44733C26.5693 9.42913 26.5649 9.41163 26.5569 9.3939C26.5294 9.33231 26.4911 9.27609 26.4435 9.22803L20.7798 3.56428C20.7317 3.51646 20.6753 3.47819 20.6132 3.4509C20.5962 3.44367 20.5789 3.4376 20.5612 3.43224C20.5138 3.4159 20.4646 3.40611 20.4145 3.40284C20.4049 3.40447 20.3937 3.39841 20.3818 3.39841H4.52299C4.21014 3.39841 3.95654 3.65177 3.95654 3.96462ZM24.6782 9.06216H20.948V5.33197L24.6782 9.06216ZM5.0892 4.53106H19.8153V9.6286C19.8153 9.94122 20.0689 10.1948 20.3816 10.1948H25.4791V32.8503H5.0892V4.53106Z" fill="#E22122"/>
<path d="M27.7449 29.4518V30.5845H29.444C29.7568 30.5845 30.0104 30.3311 30.0104 30.0183V0.566444C30.0104 0.253593 29.7568 0 29.444 0H7.92142C7.60857 0 7.35498 0.253593 7.35498 0.566444V2.26554H8.48787V1.13266H28.8775V29.4518H27.7449Z" fill="#E22122"/>
<path d="M8.48779 11.3277H22.0808V12.4603H8.48779V11.3277Z" fill="#E22122"/>
<path d="M8.48779 7.92929H13.0189V9.06217H8.48779V7.92929Z" fill="#E22122"/>
<path d="M8.48779 14.7259H17.55V15.8588H8.48779V14.7259Z" fill="#E22122"/>
<path d="M18.6826 14.7259H22.0808V15.8588H18.6826V14.7259Z" fill="#E22122"/>
<path d="M8.48779 18.1241H22.0808V19.257H8.48779V18.1241Z" fill="#E22122"/>
<path d="M8.48779 24.9207H22.0808V26.0536H8.48779V24.9207Z" fill="#E22122"/>
<path d="M13.585 21.5226H22.0807V22.6552H13.585V21.5226Z" fill="#E22122"/>
<path d="M8.48779 21.5226H12.4524V22.6552H8.48779V21.5226Z" fill="#E22122"/>
<path d="M8.48779 28.3192H10.7533V29.4518H8.48779V28.3192Z" fill="#E22122"/>
<path d="M11.8862 28.3192H22.0811V29.4518H11.8862V28.3192Z" fill="#E22122"/>
</svg>
