<svg width="31" height="31" viewBox="0 0 31 31" fill="none" xmlns="http://www.w3.org/2000/svg">
<g clip-path="url(#clip0)">
<path d="M10.1703 21.2201C11.447 23.0202 12.7216 24.6302 13.5663 25.6671C13.6893 25.818 13.8045 25.958 13.9161 26.0928H11.3669C11.0816 26.0928 10.8503 26.3241 10.8503 26.6094C10.8503 26.8948 11.0816 27.1261 11.3669 27.1261H19.6335C19.9189 27.1261 20.1502 26.8948 20.1502 26.6094C20.1502 26.3241 19.9189 26.0928 19.6335 26.0928H17.0843C17.1959 25.958 17.3111 25.8179 17.4346 25.6671C18.2789 24.6337 19.553 23.0202 20.8302 21.2201C22.0974 19.47 23.238 17.6317 24.2433 15.7192C25.2983 13.6473 25.8336 11.9274 25.8336 10.6068C25.8371 7.86272 24.7482 5.23013 22.8075 3.2902C22.6778 3.15578 22.4858 3.10177 22.3051 3.14894C22.1244 3.19611 21.9832 3.33706 21.9358 3.51767C21.8884 3.69828 21.9421 3.8904 22.0764 4.02021C23.8233 5.76663 24.8033 8.13651 24.8003 10.6067C24.8003 11.763 24.3032 13.3254 23.3226 15.25C22.34 17.1182 21.2253 18.9139 19.987 20.6234C18.7274 22.4002 17.4682 23.9921 16.6338 25.0151C16.3564 25.355 16.1068 25.6557 15.894 25.9099C15.7946 26.0234 15.6511 26.0884 15.5003 26.0884C15.3495 26.0884 15.206 26.0233 15.1066 25.9099C14.8937 25.6558 14.6442 25.355 14.3667 25.0151C13.5323 23.9926 12.2732 22.4007 11.0136 20.6234C9.77531 18.9139 8.66058 17.1182 7.67796 15.25C6.69631 13.3254 6.20031 11.763 6.20031 10.6067C6.2 6.86435 8.43807 3.48473 11.8837 2.02434C14.1989 1.05352 16.807 1.05352 19.1222 2.02434C19.2922 2.09639 19.4877 2.07235 19.6352 1.96113C19.7826 1.84996 19.8595 1.66856 19.8369 1.48529C19.8143 1.30201 19.6957 1.14471 19.5257 1.07266C14.2643 -1.14652 8.2 1.3186 5.97919 6.5793C5.44062 7.85357 5.16441 9.22333 5.16701 10.6067C5.16701 11.9273 5.70231 13.6473 6.75734 15.7217C7.76254 17.6334 8.90319 19.4709 10.1703 21.2201Z" fill="#E22122"/>
<path d="M15.5003 5.94277C15.7857 5.94277 16.017 5.71148 16.017 5.42612C16.017 5.14076 15.7857 4.90947 15.5003 4.90947C13.0354 4.90941 10.9137 6.65062 10.4328 9.06815C9.95189 11.4857 11.2457 13.9062 13.523 14.8495C15.8002 15.7929 18.4267 14.9961 19.7961 12.9467C21.1656 10.8972 20.8966 8.16575 19.1537 6.42278C19.0239 6.28849 18.8318 6.2346 18.6512 6.28189C18.4706 6.32918 18.3295 6.47025 18.2822 6.65086C18.2349 6.83154 18.2888 7.02359 18.4231 7.15335C19.8175 8.54768 20.0327 10.7328 18.9373 12.3724C17.8418 14.012 15.7406 14.6494 13.9188 13.8949C12.097 13.1404 11.0619 11.2039 11.4465 9.26989C11.8311 7.33583 13.5284 5.94283 15.5003 5.94277Z" fill="#E22122"/>
<path d="M30.8055 28.4546L27.628 22.7712C27.3407 22.2662 26.8031 21.9559 26.2221 21.9595H22.5398C22.2545 21.9595 22.0232 22.1908 22.0232 22.4761C22.0232 22.7615 22.2545 22.9928 22.5398 22.9928H26.2221C26.429 22.9888 26.6219 23.0966 26.7269 23.2749L29.9034 28.9582C29.9899 29.1061 29.9881 29.2895 29.8987 29.4357C29.7932 29.61 29.6023 29.7145 29.3986 29.7095H1.60187C1.39831 29.7144 1.20771 29.6099 1.10224 29.4357C1.01287 29.2895 1.01112 29.1061 1.09758 28.9582L4.27406 23.2749C4.37886 23.0967 4.57165 22.9889 4.77829 22.9928H8.46058C8.74594 22.9928 8.97723 22.7615 8.97723 22.4761C8.97723 22.1908 8.74594 21.9595 8.46058 21.9595H4.77835C4.1971 21.9557 3.65908 22.266 3.37148 22.7712L0.194457 28.4546C-0.0704369 28.9225 -0.0643216 29.4964 0.210501 29.9586C0.500038 30.4507 1.03097 30.75 1.60187 30.7429H29.3986C29.9693 30.7498 30.5001 30.4506 30.7895 29.9586C31.0643 29.4964 31.0704 28.9225 30.8055 28.4546Z" fill="#E22122"/>
<path d="M25.317 24.5428H23.2504C23.1484 24.543 23.0486 24.5732 22.9636 24.6297L21.4136 25.663C21.1762 25.8214 21.1122 26.1423 21.2705 26.3797C21.4289 26.6171 21.7497 26.6811 21.9871 26.5228L23.4054 25.5763H25.317C25.6024 25.5763 25.8337 25.3449 25.8337 25.0596C25.8337 24.7741 25.6024 24.5428 25.317 24.5428Z" fill="#E22122"/>
<path d="M22.2173 28.1595C22.2173 28.4448 22.4486 28.6761 22.7339 28.6761H26.8673C27.1527 28.6761 27.384 28.4448 27.384 28.1595C27.384 27.8741 27.1527 27.6428 26.8673 27.6428H22.7339C22.4486 27.6428 22.2173 27.8741 22.2173 28.1595Z" fill="#E22122"/>
<path d="M9.3003 26.6095C9.52808 26.6098 9.72916 26.4608 9.79534 26.2429C9.86151 26.0249 9.77711 25.7893 9.5876 25.6629L8.03759 24.6296C7.95246 24.573 7.8525 24.5428 7.7503 24.5428H5.68364C5.39828 24.5428 5.16699 24.7741 5.16699 25.0594C5.16699 25.3448 5.39834 25.5761 5.68364 25.5761H7.5953L9.01513 26.5226C9.09959 26.579 9.19883 26.6092 9.3003 26.6095Z" fill="#E22122"/>
<path d="M4.13335 27.6428C3.84799 27.6428 3.6167 27.8741 3.6167 28.1595C3.6167 28.4448 3.84799 28.6761 4.13335 28.6761H8.26672C8.55208 28.6761 8.78337 28.4448 8.78337 28.1595C8.78337 27.8741 8.55208 27.6428 8.26672 27.6428H4.13335Z" fill="#E22122"/>
</g>
<defs>
<clipPath id="clip0">
<rect width="31" height="31" fill="white"/>
</clipPath>
</defs>
</svg>
