<svg width="30" height="30" viewBox="0 0 30 30" fill="none" xmlns="http://www.w3.org/2000/svg">
<path d="M27.5319 9.35555C27.642 9.24562 27.7038 9.09645 27.7038 8.94088C27.7038 8.78531 27.642 8.63613 27.5319 8.52621L24.4114 5.41131C24.1826 5.18303 23.8122 5.18303 23.5835 5.41131L21.9791 7.01279C20.5451 6.05314 18.9348 5.40439 17.2327 5.10152C17.7356 4.5593 18.0434 3.8342 18.0434 3.03861C18.0434 1.36313 16.6783 0 15.0004 0C13.3224 0 11.9573 1.36313 11.9573 3.03861C11.9573 3.83414 12.2651 4.5593 12.768 5.10152C11.0659 5.40439 9.45562 6.05314 8.0216 7.01279L6.41725 5.41131C6.1885 5.18303 5.81807 5.18303 5.58932 5.41131L2.46885 8.52621C2.35875 8.63613 2.29688 8.78531 2.29688 8.94088C2.29688 9.09645 2.35875 9.24562 2.46885 9.35555L4.1782 11.0619C3.03932 12.9763 2.4317 15.1679 2.4317 17.4527C2.4317 20.8044 3.73916 23.9554 6.11332 26.3254C8.48719 28.695 11.6433 30 15.0004 30C18.3574 30 21.5135 28.695 23.8873 26.3254C26.2615 23.9555 27.5689 20.8044 27.5689 17.4527C27.5689 15.1679 26.9613 12.9763 25.8224 11.0619L27.5319 9.35555ZM23.9974 6.65391L26.2885 8.94088L25.1626 10.0648C24.78 9.54258 24.3543 9.04623 23.8873 8.58006C23.5814 8.27473 23.2625 7.98703 22.9318 7.71756L23.9974 6.65391ZM15.0004 1.17188C16.0321 1.17188 16.8715 2.0093 16.8715 3.03861C16.8715 3.86385 16.3319 4.56574 15.5863 4.8116V3.4575C15.5863 3.13395 15.324 2.87156 15.0004 2.87156C14.6767 2.87156 14.4144 3.13395 14.4144 3.4575V4.8116C13.6687 4.56574 13.1292 3.86385 13.1292 3.03861C13.1292 2.0093 13.9686 1.17188 15.0004 1.17188ZM3.71221 8.94088L6.00328 6.65391L7.06887 7.71756C6.73822 7.98703 6.4193 8.27467 6.11338 8.58006C5.64639 9.04623 5.2207 9.54264 4.83809 10.0648L3.71221 8.94088ZM15.0004 28.8281C8.71611 28.8281 3.60357 23.7251 3.60357 17.4527C3.60357 11.1802 8.71611 6.07729 15.0004 6.07729C21.2846 6.07729 26.3971 11.1803 26.3971 17.4527C26.3971 23.7252 21.2845 28.8281 15.0004 28.8281Z" fill="#E22122"/>
<path d="M15.0001 7.91824C9.73402 7.91824 5.44971 12.1954 5.44971 17.4527C5.44971 22.7101 9.73402 26.9872 15.0001 26.9872C20.2662 26.9872 24.5506 22.71 24.5506 17.4527C24.5506 12.1954 20.2662 7.91824 15.0001 7.91824ZM15.0001 25.8153C10.3802 25.8153 6.62158 22.0639 6.62158 17.4527C6.62158 12.8415 10.3801 9.09006 15.0001 9.09006C19.6201 9.09006 23.3787 12.8415 23.3787 17.4527C23.3787 22.0639 19.6201 25.8153 15.0001 25.8153Z" fill="#E22122"/>
<path d="M15 11.4741C15.3236 11.4741 15.5859 11.2117 15.5859 10.8881V10.6883C15.5859 10.3646 15.3236 10.1023 15 10.1023C14.6764 10.1023 14.4141 10.3646 14.4141 10.6883V10.8881C14.4141 11.2117 14.6764 11.4741 15 11.4741Z" fill="#E22122"/>
<path d="M15 23.4313C14.6764 23.4313 14.4141 23.6937 14.4141 24.0173V24.2171C14.4141 24.5407 14.6764 24.8031 15 24.8031C15.3236 24.8031 15.5859 24.5407 15.5859 24.2171V24.0173C15.5859 23.6937 15.3236 23.4313 15 23.4313Z" fill="#E22122"/>
<path d="M21.5649 18.0386H21.7649C22.0885 18.0386 22.3508 17.7762 22.3508 17.4527C22.3508 17.1291 22.0885 16.8667 21.7649 16.8667H21.5649C21.2413 16.8667 20.979 17.1291 20.979 17.4527C20.979 17.7763 21.2413 18.0386 21.5649 18.0386Z" fill="#E22122"/>
<path d="M8.43576 16.8667H8.23584C7.91223 16.8667 7.6499 17.1291 7.6499 17.4527C7.6499 17.7762 7.91223 18.0386 8.23584 18.0386H8.43576C8.75938 18.0386 9.0217 17.7762 9.0217 17.4527C9.0217 17.1291 8.75938 16.8667 8.43576 16.8667Z" fill="#E22122"/>
<path d="M19.3691 12.2552L19.2278 12.3965C18.999 12.6253 18.999 12.9963 19.2278 13.2252C19.3422 13.3396 19.4921 13.3968 19.6421 13.3968C19.792 13.3968 19.942 13.3396 20.0564 13.2252L20.1977 13.0839C20.4265 12.8551 20.4265 12.484 20.1977 12.2552C19.969 12.0264 19.598 12.0264 19.3691 12.2552Z" fill="#E22122"/>
<path d="M9.94428 21.6802L9.80295 21.8215C9.57415 22.0504 9.57415 22.4214 9.80295 22.6502C9.91739 22.7646 10.0673 22.8219 10.2173 22.8219C10.3672 22.8219 10.5172 22.7646 10.6316 22.6502L10.7729 22.5089C11.0017 22.2801 11.0017 21.9091 10.7729 21.6802C10.5441 21.4514 10.1731 21.4514 9.94428 21.6802Z" fill="#E22122"/>
<path d="M20.0564 21.6802C19.8276 21.4515 19.4566 21.4515 19.2278 21.6802C18.999 21.909 18.999 22.28 19.2278 22.5089L19.3691 22.6502C19.4835 22.7646 19.6335 22.8219 19.7834 22.8219C19.9333 22.8219 20.0833 22.7646 20.1977 22.6502C20.4265 22.4214 20.4265 22.0504 20.1977 21.8216L20.0564 21.6802Z" fill="#E22122"/>
<path d="M10.6316 12.2552C10.4028 12.0264 10.0318 12.0264 9.80295 12.2552C9.57415 12.484 9.57415 12.855 9.80295 13.0839L9.94428 13.2252C10.0587 13.3396 10.2087 13.3968 10.3586 13.3968C10.5085 13.3968 10.6585 13.3396 10.7729 13.2252C11.0017 12.9964 11.0017 12.6254 10.7729 12.3965L10.6316 12.2552Z" fill="#E22122"/>
<path d="M18.5047 16.779H17.0236C16.828 16.1344 16.3186 15.625 15.674 15.4294V13.595C15.674 13.2714 15.4117 13.009 15.088 13.009C14.7644 13.009 14.5021 13.2714 14.5021 13.595V15.4294C13.672 15.6812 13.0659 16.4536 13.0659 17.3649C13.0659 18.4799 13.9731 19.387 15.088 19.387C15.9994 19.387 16.7718 18.781 17.0236 17.9508H18.5047C18.8283 17.9508 19.0906 17.6884 19.0906 17.3649C19.0906 17.0413 18.8283 16.779 18.5047 16.779ZM15.088 18.2151C14.6192 18.2151 14.2378 17.8337 14.2378 17.3649C14.2378 16.8961 14.6192 16.5147 15.088 16.5147C15.5569 16.5147 15.9383 16.8961 15.9383 17.3649C15.9382 17.8337 15.5569 18.2151 15.088 18.2151Z" fill="#E22122"/>
</svg>
