<svg width="30" height="30" viewBox="0 0 30 30" fill="none" xmlns="http://www.w3.org/2000/svg">
<g clip-path="url(#clip0)">
<path d="M27.3674 20.1565C26.246 19.5094 24.955 19.2991 23.6969 19.5525L19.143 15.0005L23.7003 10.4451C24.0405 10.5126 24.3821 10.5455 24.721 10.5454C26.5701 10.5453 28.3337 9.56703 29.2913 7.90911C29.9956 6.68977 30.1827 5.26931 29.8181 3.9093C29.4535 2.54936 28.581 1.41275 27.3612 0.708815C24.8434 -0.74411 21.6122 0.121294 20.1585 2.63818C19.5111 3.75908 19.3007 5.04966 19.5542 6.30719L15 10.8594L14.6303 10.4898C14.4014 10.261 14.0304 10.2611 13.8017 10.49C13.573 10.7188 13.5731 11.0898 13.8019 11.3185L14.1713 11.6877L11.6858 14.1722L7.31527 9.80343L9.79858 7.3169L10.0726 7.5908C10.3014 7.81953 10.6724 7.81941 10.9011 7.59062C11.1299 7.36178 11.1298 6.9908 10.901 6.76207L10.4424 6.30374C10.8784 4.10797 9.86783 1.84765 7.90531 0.715025C6.38495 -0.162331 4.53392 -0.226368 2.95397 0.543948C2.42985 0.79945 2.157 1.12983 2.14317 1.52594C2.12958 1.91473 2.36487 2.25161 2.84242 2.52721L4.41534 3.43492C4.68314 3.58947 4.68314 3.66435 4.68314 3.80015V4.47351C4.68314 4.89341 4.64143 4.96553 4.2776 5.17551L3.69423 5.51215C3.58028 5.57801 3.51144 5.61773 3.24334 5.463L1.67049 4.55529C1.19294 4.27964 0.783522 4.24454 0.453672 4.45071C0.117611 4.66075 -0.0321404 5.06208 0.00851966 5.64357C0.131262 7.39664 1.11226 8.96715 2.63268 9.84456C3.75399 10.4917 5.04522 10.7019 6.3031 10.4485L10.857 15.0006L6.2997 19.556C4.10318 19.12 1.84186 20.1302 0.708764 22.0919C0.00447712 23.3113 -0.182594 24.7317 0.18194 26.0917C0.546534 27.4517 1.41903 28.5883 2.63877 29.2922C3.46709 29.7702 4.37216 29.9974 5.26621 29.9973C7.08976 29.9971 8.86603 29.0518 9.84147 27.363C10.4889 26.2421 10.6993 24.9515 10.4458 23.694L14.9999 19.1417L19.5575 23.6974C19.1215 25.8932 20.1321 28.1535 22.0946 29.2861C22.909 29.7561 23.8181 29.9927 24.7299 29.9927C25.52 29.9926 26.3123 29.8148 27.0459 29.4572C27.57 29.2017 27.8429 28.8713 27.8567 28.4751C27.8702 28.0864 27.6351 27.7495 27.1575 27.4739L25.5846 26.5662C25.3168 26.4116 25.3167 26.3368 25.3167 26.201V25.5276C25.3167 25.1077 25.3584 25.0356 25.7223 24.8256L26.3056 24.4889C26.4197 24.4231 26.4884 24.3834 26.7565 24.5381L28.3294 25.4458C28.8068 25.7215 29.2164 25.7566 29.5463 25.5504C29.8823 25.3403 30.0321 24.9389 29.9914 24.3575C29.8688 22.6045 28.8878 21.034 27.3674 20.1565ZM3.21838 8.8297C2.05465 8.15811 1.29722 6.9642 1.18251 5.62658L2.65769 6.47792C3.0241 6.68942 3.59106 6.92465 4.27994 6.52707L4.86336 6.19043C5.58616 5.77328 5.8549 5.30797 5.85496 4.47356V3.80015C5.85496 3.00482 5.36768 2.63162 5.0011 2.42005L3.52638 1.569C4.7429 0.999587 6.15581 1.05829 7.31966 1.72989C8.8801 2.63044 9.66646 4.44714 9.2683 6.18967L6.18833 9.27356C5.17387 9.50797 4.12491 9.35283 3.21838 8.8297ZM21.1732 3.22423C22.304 1.26669 24.817 0.593572 26.7756 1.72379C27.7242 2.27124 28.4027 3.15522 28.6862 4.21279C28.9698 5.2703 28.8243 6.37492 28.2767 7.32305C27.5317 8.61281 26.1602 9.37381 24.7219 9.37369C24.4207 9.37369 24.1165 9.34006 23.8146 9.27116L20.7292 6.1923C20.4949 5.17844 20.65 4.13012 21.1732 3.22423ZM8.8269 26.7769C7.69621 28.7345 5.18301 29.4075 3.22453 28.2773C2.27588 27.7298 1.59731 26.8459 1.3138 25.7883C1.03029 24.7308 1.17583 23.6262 1.72345 22.678C2.4684 21.3882 3.83988 20.6273 5.27816 20.6273C5.57936 20.6273 5.88361 20.661 6.18551 20.7299L9.27099 23.8087C9.50523 24.8227 9.35015 25.871 8.8269 26.7769ZM9.80075 22.682L7.31316 20.1998L20.1994 7.31901L22.6869 9.80127L9.80075 22.682ZM15.8288 18.3133L18.3142 15.8289L22.6848 20.1977L20.2015 22.6842L15.8288 18.3133ZM27.3424 23.5232C26.9759 23.3117 26.409 23.0765 25.7202 23.474L25.1368 23.8107C24.4139 24.2278 24.1452 24.6932 24.1452 25.5274V26.201C24.1453 26.9963 24.6325 27.3695 24.9991 27.5811L26.4737 28.432C25.2573 29.0016 23.8442 28.9428 22.6804 28.2711C21.12 27.3706 20.3336 25.5539 20.7318 23.8113L23.8117 20.7275C24.8263 20.4932 25.8753 20.6483 26.7817 21.1714C27.9455 21.843 28.7029 23.0368 28.8176 24.3745L27.3424 23.5232Z" fill="#E22122"/>
<path d="M22.6744 6.79493L24.432 7.80926C24.5226 7.86158 24.6237 7.88771 24.7249 7.88771C24.826 7.88771 24.9271 7.86158 25.0177 7.80926L26.7753 6.79493C26.9567 6.69029 27.0683 6.49683 27.0683 6.28749V4.25882C27.0683 4.04949 26.9567 3.85603 26.7753 3.75139L25.0177 2.73706C24.8366 2.63248 24.6133 2.63242 24.432 2.73706L22.6744 3.75139C22.493 3.85603 22.3813 4.04949 22.3813 4.25882V6.28749C22.3813 6.49683 22.493 6.69023 22.6744 6.79493ZM23.5531 4.59711L24.7249 3.92089L25.8966 4.59711V5.94909L24.7249 6.62531L23.5531 5.94909V4.59711Z" fill="#E22122"/>
<path d="M7.32563 23.2051L5.56799 22.1908C5.38671 22.0862 5.16355 22.0862 4.98228 22.1908L3.22464 23.2051C3.04331 23.3098 2.93164 23.5032 2.93164 23.7126V25.7412C2.93164 25.9505 3.04337 26.144 3.22464 26.2486L4.98228 27.2629C5.07292 27.3153 5.17398 27.3414 5.27516 27.3414C5.37634 27.3414 5.47741 27.3153 5.56804 27.2629L7.32568 26.2486C7.50701 26.144 7.61868 25.9505 7.61868 25.7412V23.7126C7.61862 23.5032 7.5069 23.3098 7.32563 23.2051ZM6.44686 25.4028L5.2751 26.079L4.10334 25.4028V24.0508L5.2751 23.3746L6.44686 24.0508V25.4028Z" fill="#E22122"/>
<path d="M12.3517 9.62571C12.6753 9.62571 12.9376 9.36341 12.9376 9.03983C12.9376 8.71625 12.6753 8.45395 12.3517 8.45395H12.3513C12.0277 8.45395 11.7656 8.71625 11.7656 9.03983C11.7656 9.36341 12.0281 9.62571 12.3517 9.62571Z" fill="#E22122"/>
</g>
<defs>
<clipPath id="clip0">
<rect width="30" height="30" fill="white"/>
</clipPath>
</defs>
</svg>
