<svg width="18" height="18" viewBox="0 0 18 18" fill="none" xmlns="http://www.w3.org/2000/svg">
<g clip-path="url(#clip0)">
<path d="M13.6848 11.9073C13.0967 11.3268 12.3626 11.3268 11.7783 11.9073C11.3326 12.3493 10.8868 12.7913 10.4486 13.2408C10.3287 13.3644 10.2276 13.3906 10.0815 13.3082C9.7931 13.1509 9.48596 13.0235 9.20878 12.8512C7.91654 12.0384 6.83405 10.9934 5.87517 9.81728C5.39947 9.23296 4.97622 8.60744 4.68031 7.90326C4.62038 7.76093 4.63162 7.66729 4.74773 7.55117C5.19346 7.12042 5.62796 6.67844 6.0662 6.23645C6.67673 5.62217 6.67673 4.90301 6.06245 4.28498C5.71411 3.93289 5.36576 3.58829 5.01742 3.2362C4.65784 2.87662 4.302 2.5133 3.93868 2.15746C3.35061 1.58438 2.61647 1.58438 2.03215 2.16121C1.58268 2.60319 1.15193 3.05641 0.694963 3.49091C0.271707 3.89169 0.0582058 4.38237 0.0132582 4.95545C-0.0579087 5.88811 0.170575 6.76833 0.492699 7.62608C1.15193 9.40151 2.15576 10.9784 3.37309 12.4242C5.01742 14.3795 6.98013 15.9264 9.2762 17.0426C10.31 17.5445 11.3812 17.9303 12.5461 17.994C13.3477 18.0389 14.0444 17.8367 14.6025 17.2112C14.9845 16.7841 15.4153 16.3946 15.8198 15.9863C16.4191 15.3795 16.4229 14.6454 15.8273 14.0461C15.1156 13.3307 14.4002 12.619 13.6848 11.9073Z" fill="#ffffff"/>
<path d="M12.9694 8.92208L14.3515 8.68611C14.1343 7.41634 13.535 6.26643 12.6248 5.3525C11.6622 4.38987 10.4448 3.78308 9.10389 3.59579L8.90912 4.98542C9.94666 5.1315 10.8906 5.59971 11.6359 6.34509C12.3401 7.04927 12.8008 7.94073 12.9694 8.92208Z" fill="#ffffff"/>
<path d="M15.1306 2.9141C13.535 1.31846 11.5161 0.310887 9.28745 0L9.09268 1.38963C11.0179 1.65931 12.7634 2.53205 14.1418 3.90669C15.449 5.21392 16.3068 6.86574 16.6177 8.68237L17.9998 8.44639C17.6365 6.34135 16.6439 4.43108 15.1306 2.9141Z" fill="#ffffff"/>
</g>
<defs>
<clipPath id="clip0">
<rect width="18" height="18" fill="white"/>
</clipPath>
</defs>
</svg>
