<svg width="152" height="152" viewBox="0 0 152 152" fill="none" xmlns="http://www.w3.org/2000/svg">
<g clip-path="url(#clip0)">
<path d="M117.731 45.2313L101.215 45.4514C100.087 45.4644 99.1772 46.3773 99.1669 47.5056L98.8927 75.394L51.2167 27.7181C50.4069 26.9082 49.0922 26.9082 48.2823 27.7181L36.5441 39.4563C35.7342 40.2662 35.7342 41.5809 36.5441 42.3907L84.22 90.0667L56.3316 90.3409C55.2047 90.3526 54.2935 91.261 54.2789 92.3878L54.0588 108.904C54.05 109.464 54.2686 110.003 54.6647 110.399C55.0609 110.795 55.601 111.012 56.16 111.005L116.974 110.193C117.536 110.186 118.045 109.955 118.413 109.587C118.783 109.217 119.012 108.71 119.021 108.146L119.832 47.3325C119.84 46.7735 119.621 46.2349 119.225 45.8388C118.829 45.4426 118.29 45.2239 117.731 45.2313Z" fill="#F5F5F5" fill-opacity="0.5"/>
</g>
<defs>
<clipPath id="clip0">
<rect width="107.48" height="107.48" fill="white" transform="translate(0 76) rotate(-45)"/>
</clipPath>
</defs>
</svg>
