<svg width="40" height="41" viewBox="0 0 40 41" fill="none" xmlns="http://www.w3.org/2000/svg">
<g clip-path="url(#clip0)">
<path d="M20 40.6382C31.0457 40.6382 40 31.6839 40 20.6382C40 9.59249 31.0457 0.638184 20 0.638184C8.9543 0.638184 0 9.59249 0 20.6382C0 31.6839 8.9543 40.6382 20 40.6382Z" fill="#039BE5"/>
<path d="M9.14844 20.2085L28.4375 12.771C29.336 12.4507 30.1172 12.9897 29.8203 14.3413L26.5391 29.8101C26.2969 30.9038 25.6406 31.1773 24.7344 30.6538L19.7344 26.9663L17.3203 29.2866C17.0547 29.5523 16.8281 29.7788 16.3125 29.7788L16.6641 24.6929L25.9375 16.3257C26.3438 15.9741 25.8438 15.771 25.3125 16.1226L13.8594 23.3335L8.92188 21.7944C7.85157 21.4507 7.82813 20.7241 9.14844 20.2085Z" fill="white"/>
</g>
<defs>
<clipPath id="clip0">
<rect y="0.638184" width="40" height="40" fill="white"/>
</clipPath>
</defs>
</svg>
