<svg width="16" height="16" viewBox="0 0 16 16" fill="none" xmlns="http://www.w3.org/2000/svg">
<path d="M8.05572 15.8893C6.71763 15.8828 5.40294 15.5402 4.23399 14.8935L0 16L1.11421 11.8838C0.39567 10.6848 0.0111262 9.31765 0 7.92245C0.00443644 6.35444 0.475993 4.82279 1.35528 3.52041C2.23456 2.21804 3.48226 1.20318 4.94121 0.603653C6.40016 0.00412703 8.00514 -0.153253 9.55398 0.151335C11.1028 0.455923 12.5263 1.20886 13.6451 2.31531C14.7639 3.42176 15.5279 4.83224 15.8411 6.36911C16.1542 7.90598 16.0024 9.50051 15.4048 10.9519C14.8072 12.4032 13.7905 13.6465 12.4827 14.5251C11.1749 15.4038 9.63461 15.8784 8.05572 15.8893ZM8.05572 1.36082C6.87445 1.37425 5.71786 1.69829 4.70369 2.29996C3.68953 2.90163 2.85402 3.75944 2.28223 4.78606C1.71044 5.81267 1.42279 6.97142 1.44856 8.14434C1.47434 9.31725 1.81262 10.4624 2.42897 11.4633L2.58496 11.7178L1.91644 14.1411L4.45683 13.455L4.70196 13.5989C5.71541 14.1917 6.86842 14.5085 8.04458 14.5173C9.81762 14.5173 11.518 13.8178 12.7718 12.5727C14.0255 11.3277 14.7298 9.63898 14.7298 7.87819C14.7298 6.1174 14.0255 4.42872 12.7718 3.18365C11.518 1.93858 9.81762 1.23911 8.04458 1.23911L8.05572 1.36082ZM11.9555 10.7883C11.8095 11.0301 11.6141 11.2387 11.3819 11.4007C11.1496 11.5627 10.8857 11.6745 10.6073 11.7289C10.1911 11.8044 9.76275 11.7778 9.35935 11.6514C8.97979 11.5336 8.60772 11.3931 8.24514 11.2309C6.86769 10.5445 5.69298 9.51516 4.83566 8.24334C4.36979 7.65409 4.08712 6.94269 4.02229 6.19629C4.01566 5.88623 4.07472 5.57825 4.19564 5.29232C4.31657 5.00638 4.49666 4.74889 4.72424 4.53652C4.79128 4.46104 4.87351 4.40037 4.96564 4.35844C5.05777 4.31651 5.15773 4.29424 5.25906 4.29309H5.57104C5.6936 4.29309 5.86073 4.29308 6.01672 4.6361C6.17271 4.97912 6.58497 6.00818 6.64068 6.10777C6.66806 6.16085 6.68234 6.21964 6.68234 6.27928C6.68234 6.33892 6.66806 6.3977 6.64068 6.45079C6.59142 6.57103 6.52378 6.683 6.44012 6.78274C6.33984 6.90446 6.22842 7.0483 6.13929 7.13683C6.05015 7.22535 5.93873 7.336 6.05015 7.53517C6.35331 8.04327 6.72856 8.50537 7.16436 8.90725C7.63893 9.32369 8.18152 9.65673 8.76882 9.89204C8.96937 9.99163 9.09194 9.98056 9.20336 9.89204C9.31478 9.80352 9.70475 9.31666 9.83846 9.11749C9.97216 8.91831 10.1059 8.95151 10.2841 9.0179C10.4624 9.08429 11.4541 9.56009 11.6546 9.65968C11.8552 9.75926 11.9777 9.80352 12.0334 9.89204C12.0818 10.1816 12.0549 10.4787 11.9555 10.7551V10.7883Z" fill="#21A038"/>
</svg>
