<svg width="64" height="65" viewBox="0 0 64 65" fill="none" xmlns="http://www.w3.org/2000/svg">
<g clip-path="url(#clip0)">
<path d="M36.1104 60.6621C49.0141 60.6621 59.4746 49.9924 59.4746 36.8306C59.4746 23.6688 49.0141 12.999 36.1104 12.999C23.2066 12.999 12.7461 23.6688 12.7461 36.8306C12.7607 49.9861 23.2126 60.6472 36.1104 60.6621ZM18.0562 35.7473H14.9243C15.4779 24.6531 24.1716 15.7854 35.0483 15.2208V18.4153C35.0483 19.0135 35.5239 19.4985 36.1104 19.4985C36.6968 19.4985 37.1724 19.0135 37.1724 18.4153V15.2208C48.0491 15.7854 56.7428 24.6531 57.2964 35.7473H53.1025C52.516 35.7473 52.0405 36.2323 52.0405 36.8306C52.0405 37.4288 52.516 37.9138 53.1025 37.9138H57.2964C56.7428 49.0079 48.0491 57.8757 37.1724 58.4404V55.2459C37.1724 54.6476 36.6968 54.1626 36.1104 54.1626C35.5239 54.1626 35.0483 54.6476 35.0483 55.2459V58.4404C24.1717 57.8757 15.4779 49.0081 14.9243 37.9138H18.0562C18.6426 37.9138 19.1182 37.4288 19.1182 36.8306C19.1182 36.2323 18.6426 35.7473 18.0562 35.7473Z" fill="#C63E34"/>
<path d="M60.0214 22.767C59.7048 22.2075 59.3694 21.6594 59.0157 21.1234L61.6378 18.4489C62.0524 18.0259 62.0524 17.3402 61.6378 16.9171L55.6375 10.7968C55.2227 10.3739 54.5505 10.3739 54.1358 10.7968L51.5094 13.467C47.2611 10.5414 42.2946 8.88768 37.1723 8.6931V2.1665H44.6063C45.1928 2.1665 45.6684 1.68148 45.6684 1.08325C45.6684 0.485026 45.1928 0 44.6063 0H27.6141C27.0277 0 26.5521 0.485026 26.5521 1.08325C26.5521 1.68148 27.0277 2.1665 27.6141 2.1665H35.0482V8.70285C25.5767 9.0717 16.9542 14.3756 12.215 22.7483H6.37391C5.78742 22.7483 5.3119 23.2333 5.3119 23.8315C5.3119 24.4298 5.78742 24.9148 6.37391 24.9148H12.746C12.7736 24.9148 12.797 24.9007 12.8246 24.8986C13.2073 24.9036 13.5623 24.6961 13.7517 24.3569C20.5086 11.7609 35.997 7.13673 48.3462 14.0287C60.6954 20.9206 65.2286 36.719 58.4718 49.3151C51.7149 61.9111 36.2265 66.5352 23.8773 59.6433C19.6038 57.2583 16.0899 53.6741 13.7516 49.3151C13.564 48.9745 13.2096 48.7649 12.8266 48.768C12.799 48.768 12.7745 48.7518 12.7459 48.7518H6.37378C5.78728 48.7518 5.31177 49.2368 5.31177 49.835C5.31177 50.4332 5.78728 50.9183 6.37378 50.9183H12.2148C19.8362 64.3836 36.7164 68.9977 49.9177 61.2239C63.1192 53.4501 67.6427 36.2323 60.0214 22.767ZM53.2449 14.7688L54.8865 13.0944L59.3852 17.683L57.7412 19.3599C56.419 17.6597 54.9104 16.1193 53.2449 14.7688Z" fill="#C63E34"/>
<path d="M10.6221 36.8306C10.6221 36.2323 10.1466 35.7473 9.56006 35.7473H1.06397C0.477469 35.7473 0.00195312 36.2323 0.00195312 36.8306C0.00195312 37.4288 0.477469 37.9138 1.06397 37.9138H9.56006C10.1466 37.9138 10.6221 37.4288 10.6221 36.8306Z" fill="#C63E34"/>
<path d="M3.18799 31.4143H10.6221C11.2086 31.4143 11.6841 30.9293 11.6841 30.3311C11.6841 29.7328 11.2086 29.2478 10.6221 29.2478H3.18799C2.60149 29.2478 2.12598 29.7328 2.12598 30.3311C2.12598 30.9293 2.60136 31.4143 3.18799 31.4143Z" fill="#C63E34"/>
<path d="M11.6841 43.3301C11.6841 42.7319 11.2086 42.2468 10.6221 42.2468H3.18799C2.60149 42.2468 2.12598 42.7319 2.12598 43.3301C2.12598 43.9283 2.60149 44.4133 3.18799 44.4133H10.6221C11.2086 44.4133 11.6841 43.9283 11.6841 43.3301Z" fill="#C63E34"/>
<path d="M33.2358 44.096C33.6505 44.5189 34.3228 44.5189 34.7375 44.096L49.4995 29.0388C49.907 28.6085 49.8953 27.9228 49.4735 27.5071C49.0619 27.1017 48.4095 27.1017 47.9978 27.5071L33.9867 41.7984L27.6677 35.3531C27.2458 34.9375 26.5734 34.9493 26.166 35.3796C25.7686 35.7994 25.7686 36.4649 26.166 36.8848L33.2358 44.096Z" fill="#C63E34"/>
</g>
<defs>
<clipPath id="clip0">
<rect width="63.7255" height="65" fill="white"/>
</clipPath>
</defs>
</svg>
