<svg width="64" height="65" viewBox="0 0 64 65" fill="none" xmlns="http://www.w3.org/2000/svg">
<g clip-path="url(#clip0)">
<path d="M36.1102 60.6621C49.0139 60.6621 59.4745 49.9924 59.4745 36.8306C59.4745 23.6688 49.0139 12.999 36.1102 12.999C23.2065 12.999 12.746 23.6688 12.746 36.8306C12.7606 49.9861 23.2125 60.6472 36.1102 60.6621ZM18.056 35.7473H14.9242C15.4777 24.6531 24.1715 15.7854 35.0482 15.2208V18.4153C35.0482 19.0135 35.5237 19.4985 36.1102 19.4985C36.6967 19.4985 37.1722 19.0135 37.1722 18.4153V15.2208C48.049 15.7854 56.7427 24.6531 57.2963 35.7473H53.1024C52.5159 35.7473 52.0404 36.2323 52.0404 36.8306C52.0404 37.4288 52.5159 37.9138 53.1024 37.9138H57.2963C56.7427 49.0079 48.049 57.8757 37.1722 58.4404V55.2459C37.1722 54.6476 36.6967 54.1626 36.1102 54.1626C35.5237 54.1626 35.0482 54.6476 35.0482 55.2459V58.4404C24.1716 57.8757 15.4777 49.0081 14.9242 37.9138H18.056C18.6425 37.9138 19.118 37.4288 19.118 36.8306C19.118 36.2323 18.6425 35.7473 18.056 35.7473Z" fill="white"/>
<path d="M60.0214 22.767C59.7048 22.2075 59.3694 21.6594 59.0157 21.1234L61.6378 18.4489C62.0524 18.0259 62.0524 17.3402 61.6378 16.9171L55.6375 10.7968C55.2227 10.3739 54.5505 10.3739 54.1358 10.7968L51.5094 13.467C47.2611 10.5414 42.2946 8.88768 37.1723 8.6931V2.1665H44.6063C45.1928 2.1665 45.6684 1.68148 45.6684 1.08325C45.6684 0.485026 45.1928 0 44.6063 0H27.6141C27.0277 0 26.5521 0.485026 26.5521 1.08325C26.5521 1.68148 27.0277 2.1665 27.6141 2.1665H35.0482V8.70285C25.5767 9.0717 16.9542 14.3756 12.215 22.7483H6.37391C5.78742 22.7483 5.3119 23.2333 5.3119 23.8315C5.3119 24.4298 5.78742 24.9148 6.37391 24.9148H12.746C12.7736 24.9148 12.797 24.9007 12.8246 24.8986C13.2073 24.9036 13.5623 24.6961 13.7517 24.3569C20.5086 11.7609 35.997 7.13673 48.3462 14.0287C60.6954 20.9206 65.2286 36.719 58.4718 49.3151C51.7149 61.9111 36.2265 66.5352 23.8773 59.6433C19.6038 57.2583 16.0899 53.6741 13.7516 49.3151C13.564 48.9745 13.2096 48.7649 12.8266 48.768C12.799 48.768 12.7745 48.7518 12.7459 48.7518H6.37378C5.78728 48.7518 5.31177 49.2368 5.31177 49.835C5.31177 50.4332 5.78728 50.9183 6.37378 50.9183H12.2148C19.8362 64.3836 36.7164 68.9977 49.9177 61.2239C63.1192 53.4501 67.6427 36.2323 60.0214 22.767ZM53.2449 14.7688L54.8865 13.0944L59.3852 17.683L57.7412 19.3599C56.419 17.6597 54.9104 16.1193 53.2449 14.7688Z" fill="white"/>
<path d="M10.622 36.8303C10.622 36.2321 10.1464 35.7471 9.55994 35.7471H1.06384C0.477347 35.7471 0.00183105 36.2321 0.00183105 36.8303C0.00183105 37.4285 0.477347 37.9136 1.06384 37.9136H9.55994C10.1464 37.9136 10.622 37.4285 10.622 36.8303Z" fill="white"/>
<path d="M3.18787 31.4141H10.6219C11.2084 31.4141 11.684 30.929 11.684 30.3308C11.684 29.7326 11.2084 29.2476 10.6219 29.2476H3.18787C2.60137 29.2476 2.12585 29.7326 2.12585 30.3308C2.12585 30.929 2.60124 31.4141 3.18787 31.4141Z" fill="white"/>
<path d="M11.684 43.3298C11.684 42.7316 11.2084 42.2466 10.6219 42.2466H3.18787C2.60137 42.2466 2.12585 42.7316 2.12585 43.3298C2.12585 43.9281 2.60137 44.4131 3.18787 44.4131H10.6219C11.2084 44.4131 11.684 43.9281 11.684 43.3298Z" fill="white"/>
<path d="M33.2356 44.0961C33.6503 44.519 34.3225 44.519 34.7373 44.0961L49.4992 29.0389C49.9068 28.6086 49.8951 27.9229 49.4732 27.5072C49.0617 27.1018 48.4092 27.1018 47.9975 27.5072L33.9864 41.7985L27.6675 35.3532C27.2456 34.9376 26.5732 34.9494 26.1658 35.3797C25.7683 35.7995 25.7683 36.465 26.1658 36.8849L33.2356 44.0961Z" fill="white"/>
</g>
<defs>
<clipPath id="clip0">
<rect width="63.7255" height="65" fill="white"/>
</clipPath>
</defs>
</svg>
