<svg width="65" height="65" viewBox="0 0 65 65" fill="none" xmlns="http://www.w3.org/2000/svg">
<g clip-path="url(#clip0)">
<path d="M64.6276 10.1633C64.1325 9.66821 63.3276 9.66821 62.8325 10.1633C62.3361 10.6597 62.3361 11.4633 62.8325 11.9585C63.3276 12.4548 64.1325 12.4548 64.6276 11.9585C65.124 11.4633 65.124 10.6597 64.6276 10.1633Z" fill="white"/>
<path d="M61.0373 2.98169C60.541 2.48657 59.7373 2.48657 59.241 2.98169C58.7459 3.47808 58.7459 4.28169 59.241 4.77681C59.7373 5.2732 60.541 5.2732 61.0373 4.77681C61.5326 4.28169 61.5326 3.47808 61.0373 2.98169Z" fill="white"/>
<path d="M52.0606 1.18628C51.5642 0.691162 50.7606 0.691162 50.2642 1.18628C49.769 1.68267 49.769 2.48628 50.2642 2.9814C50.7606 3.47779 51.5642 3.47779 52.0606 2.9814C52.5558 2.48628 52.5558 1.68267 52.0606 1.18628Z" fill="white"/>
<path d="M7.61451 56.571C7.11812 56.076 6.3145 56.076 5.81812 56.571C5.323 57.0673 5.323 57.871 5.81812 58.3673C6.3145 58.8625 7.11812 58.8625 7.61451 58.3673C8.1095 57.871 8.1095 57.0673 7.61451 56.571Z" fill="white"/>
<path d="M17.936 46.0596C17.4341 45.57 16.6304 45.5798 16.1407 46.0816L9.39824 52.9917C8.90858 53.4934 8.91848 54.2972 9.4202 54.787C9.66712 55.0278 9.98705 55.1479 10.3067 55.1479C10.6369 55.1479 10.9667 55.0199 11.2154 54.7649L17.9579 47.8548C18.4476 47.3531 18.4376 46.5493 17.936 46.0596Z" fill="white"/>
<path d="M59.2413 29.9128L54.7634 25.4351C54.7567 25.4282 54.75 25.4215 54.7431 25.4148L49.376 20.0477C49.3698 20.0413 49.3636 20.0351 49.3572 20.0289L43.9905 14.6622C43.9845 14.656 43.9782 14.6498 43.972 14.6437L38.6038 9.27544C38.5978 9.26935 38.5917 9.26325 38.5855 9.25716L34.106 4.77761C33.8679 4.53957 33.5449 4.40576 33.2083 4.40576C32.8716 4.40576 32.5486 4.53957 32.3106 4.77761L17.9485 19.1393L16.1515 20.9352C13.6774 23.4108 13.6775 27.4379 16.1517 29.9121L19.7433 33.5036C19.983 33.7434 20.1151 34.0619 20.1151 34.4009C20.1151 34.7399 19.983 35.0587 19.7433 35.2983L17.9722 37.0693L2.59309 50.8428C2.59245 50.8433 2.59194 50.8439 2.59131 50.8444C2.46105 50.9596 2.34172 51.0712 2.22746 51.1853C-0.742487 54.1552 -0.742487 58.9877 2.22746 61.9577C3.66394 63.394 5.57674 64.1852 7.61358 64.1852C9.6503 64.1852 11.5632 63.3941 12.9995 61.9579C13.1156 61.8419 13.23 61.7196 13.3492 61.5843C13.3495 61.584 13.3497 61.5837 13.35 61.5833C13.3506 61.5826 13.3512 61.582 13.3517 61.5814L26.9549 46.041L28.7203 44.2755C29.2152 43.7806 30.0203 43.7807 30.5153 44.2756L34.1065 47.8653C35.3053 49.065 36.8993 49.7257 38.5946 49.7257C40.29 49.7257 41.884 49.065 43.0823 47.866L44.8791 46.0706L59.2412 31.7084C59.7369 31.2126 59.7369 30.4087 59.2413 29.9128ZM11.4415 59.9089C11.3591 60.0022 11.2816 60.0851 11.2045 60.1622C10.2475 61.1191 8.97237 61.646 7.61371 61.646C6.25506 61.646 4.97994 61.1191 4.02309 60.1622C2.04312 58.1822 2.04312 54.9606 4.02283 52.981C4.10167 52.9023 4.18559 52.8239 4.27941 52.7411C4.28068 52.74 4.28182 52.7387 4.28309 52.7375C4.28449 52.7363 4.28588 52.7354 4.28728 52.7341L18.798 39.7385L24.2902 45.2307L11.4415 59.9089ZM41.2871 46.0707C40.5679 46.7904 39.6117 47.1868 38.5948 47.1868C37.5779 47.1868 36.6218 46.7904 35.9021 46.0702L32.3107 42.4801C30.826 40.9954 28.4099 40.9955 26.9251 42.4801L26.0277 43.3775L20.6414 37.9913L21.5387 37.094C22.258 36.3745 22.6541 35.4182 22.6541 34.401C22.6541 33.3839 22.2579 32.4275 21.5387 31.7082L17.9472 28.1167C16.4626 26.6322 16.4627 24.2157 17.9468 22.7307L18.8455 21.8326L42.1856 45.1728L41.2871 46.0707ZM43.9815 43.3777L20.6413 20.0374L33.208 7.47067L35.9016 10.1642L29.6178 16.447C29.1219 16.9427 29.1219 17.7465 29.6176 18.2424C29.8656 18.4903 30.1905 18.6144 30.5155 18.6144C30.8403 18.6144 31.1652 18.4903 31.413 18.2425L37.6971 11.9596L41.2883 15.5509L35.0044 21.8337C34.5085 22.3293 34.5085 23.1332 35.0043 23.629C35.2522 23.877 35.5771 24.001 35.9021 24.001C36.227 24.001 36.5518 23.877 36.7997 23.6292L43.0837 17.3462L46.6737 20.9362L40.3899 27.219C39.894 27.7147 39.894 28.5185 40.3898 29.0144C40.6377 29.2623 40.9626 29.3864 41.2876 29.3864C41.6125 29.3864 41.9373 29.2623 42.1851 29.0145L48.4691 22.7316L52.0603 26.3229L45.7765 32.6057C45.2806 33.1013 45.2806 33.9052 45.7764 34.401C46.0243 34.649 46.3492 34.773 46.6742 34.773C46.9991 34.773 47.324 34.649 47.5718 34.4012L53.8558 28.1182L56.5484 30.8108L43.9815 43.3777Z" fill="white"/>
<path d="M48.4695 4.77748C47.9737 4.28186 47.1699 4.28186 46.674 4.77748L43.0837 8.36772C42.588 8.86347 42.588 9.66734 43.0837 10.1632C43.3318 10.411 43.6567 10.5351 43.9815 10.5351C44.3064 10.5351 44.6314 10.411 44.8792 10.1632L48.4695 6.57298C48.9652 6.07723 48.9652 5.27336 48.4695 4.77748Z" fill="white"/>
<path d="M41.2875 1.18613C40.7918 0.690626 39.9879 0.690499 39.4922 1.18613L37.6971 2.98125C37.2013 3.477 37.2012 4.28087 37.6971 4.77675C37.945 5.02469 38.2699 5.14859 38.5947 5.14859C38.9196 5.14859 39.2446 5.02456 39.4924 4.77675L41.2875 2.98163C41.7833 2.48587 41.7834 1.682 41.2875 1.18613Z" fill="white"/>
<path d="M57.4464 6.57289C56.9506 6.07727 56.1467 6.07727 55.6509 6.57289L48.4691 13.7546C47.9735 14.2504 47.9735 15.0544 48.4692 15.5501C48.7172 15.798 49.0421 15.922 49.3669 15.922C49.6918 15.922 50.0168 15.798 50.2646 15.5501L57.4464 8.36839C57.9421 7.87264 57.9421 7.06877 57.4464 6.57289Z" fill="white"/>
<path d="M61.0376 13.7548C60.5418 13.2588 59.7381 13.2589 59.2422 13.7545L53.8556 19.1399C53.3597 19.6357 53.3597 20.4394 53.8554 20.9354C54.1034 21.1834 54.4283 21.3074 54.7533 21.3074C55.0781 21.3074 55.403 21.1834 55.6508 20.9357L61.0374 15.5503C61.5332 15.0546 61.5332 14.2508 61.0376 13.7548Z" fill="white"/>
<path d="M62.8327 22.7316C62.3369 22.236 61.533 22.236 61.0373 22.7316L59.2422 24.5267C58.7464 25.0224 58.7464 25.8263 59.2422 26.3222C59.4901 26.57 59.815 26.694 60.1399 26.694C60.4647 26.694 60.7897 26.57 61.0375 26.3222L62.8327 24.5271C63.3284 24.0313 63.3284 23.2275 62.8327 22.7316Z" fill="white"/>
</g>
<defs>
<clipPath id="clip0">
<rect width="65" height="65" fill="white"/>
</clipPath>
</defs>
</svg>
