<svg width="65" height="65" viewBox="0 0 65 65" fill="none" xmlns="http://www.w3.org/2000/svg">
<g clip-path="url(#clip0)">
<path d="M64.6276 10.1633C64.1325 9.66821 63.3276 9.66821 62.8325 10.1633C62.3361 10.6597 62.3361 11.4633 62.8325 11.9585C63.3276 12.4548 64.1325 12.4548 64.6276 11.9585C65.124 11.4633 65.124 10.6597 64.6276 10.1633Z" fill="#C63E34"/>
<path d="M61.0373 2.98145C60.541 2.48633 59.7373 2.48633 59.241 2.98145C58.7459 3.47783 58.7459 4.28145 59.241 4.77657C59.7373 5.27296 60.541 5.27296 61.0373 4.77657C61.5326 4.28145 61.5326 3.47783 61.0373 2.98145Z" fill="#C63E34"/>
<path d="M52.0606 1.1864C51.5642 0.691284 50.7606 0.691284 50.2642 1.1864C49.769 1.68279 49.769 2.4864 50.2642 2.98152C50.7606 3.47791 51.5642 3.47791 52.0606 2.98152C52.5558 2.4864 52.5558 1.68279 52.0606 1.1864Z" fill="#C63E34"/>
<path d="M7.61451 56.5711C7.11812 56.0761 6.3145 56.0761 5.81812 56.5711C5.323 57.0675 5.323 57.8711 5.81812 58.3675C6.3145 58.8626 7.11812 58.8626 7.61451 58.3675C8.1095 57.8711 8.1095 57.0675 7.61451 56.5711Z" fill="#C63E34"/>
<path d="M17.936 46.0597C17.4341 45.5701 16.6304 45.5799 16.1407 46.0818L9.39824 52.9918C8.90858 53.4936 8.91848 54.2973 9.4202 54.7871C9.66712 55.0279 9.98705 55.148 10.3067 55.148C10.6369 55.148 10.9667 55.02 11.2154 54.765L17.9579 47.8549C18.4476 47.3532 18.4376 46.5495 17.936 46.0597Z" fill="#C63E34"/>
<path d="M59.2413 29.9131L54.7634 25.4353C54.7567 25.4285 54.75 25.4217 54.7431 25.415L49.376 20.0479C49.3698 20.0416 49.3636 20.0354 49.3572 20.0291L43.9905 14.6624C43.9845 14.6562 43.9782 14.65 43.972 14.6439L38.6038 9.27568C38.5978 9.26959 38.5917 9.26349 38.5855 9.2574L34.106 4.77785C33.8679 4.53981 33.5449 4.40601 33.2083 4.40601C32.8716 4.40601 32.5486 4.53981 32.3106 4.77785L17.9485 19.1396L16.1515 20.9355C13.6774 23.4111 13.6775 27.4381 16.1517 29.9123L19.7433 33.5038C19.983 33.7437 20.1151 34.0622 20.1151 34.4012C20.1151 34.7401 19.983 35.0589 19.7433 35.2986L17.9722 37.0696L2.59309 50.843C2.59245 50.8435 2.59194 50.8442 2.59131 50.8447C2.46105 50.9598 2.34172 51.0714 2.22746 51.1855C-0.742487 54.1555 -0.742487 58.988 2.22746 61.9579C3.66394 63.3942 5.57674 64.1854 7.61358 64.1854C9.6503 64.1854 11.5632 63.3944 12.9995 61.9582C13.1156 61.8421 13.23 61.7199 13.3492 61.5845C13.3495 61.5843 13.3497 61.5839 13.35 61.5835C13.3506 61.5829 13.3512 61.5822 13.3517 61.5816L26.9549 46.0412L28.7203 44.2757C29.2152 43.7808 30.0203 43.781 30.5153 44.2758L34.1065 47.8656C35.3053 49.0653 36.8993 49.7259 38.5946 49.7259C40.29 49.7259 41.884 49.0653 43.0823 47.8662L44.8791 46.0708L59.2412 31.7086C59.7369 31.2128 59.7369 30.409 59.2413 29.9131ZM11.4415 59.9091C11.3591 60.0024 11.2816 60.0853 11.2045 60.1624C10.2475 61.1194 8.97237 61.6462 7.61371 61.6462C6.25506 61.6462 4.97994 61.1194 4.02309 60.1624C2.04312 58.1824 2.04312 54.9609 4.02283 52.9813C4.10167 52.9026 4.18559 52.8241 4.27941 52.7413C4.28068 52.7402 4.28182 52.7389 4.28309 52.7378C4.28449 52.7365 4.28588 52.7356 4.28728 52.7344L18.798 39.7388L24.2902 45.2309L11.4415 59.9091ZM41.2871 46.071C40.5679 46.7907 39.6117 47.187 38.5948 47.187C37.5779 47.187 36.6218 46.7907 35.9021 46.0704L32.3107 42.4803C30.826 40.9956 28.4099 40.9957 26.9251 42.4803L26.0277 43.3778L20.6414 37.9915L21.5387 37.0942C22.258 36.3748 22.6541 35.4184 22.6541 34.4013C22.6541 33.3841 22.2579 32.4278 21.5387 31.7085L17.9472 28.117C16.4626 26.6325 16.4627 24.2159 17.9468 22.731L18.8455 21.8329L42.1856 45.173L41.2871 46.071ZM43.9815 43.3779L20.6413 20.0376L33.208 7.47091L35.9016 10.1645L29.6178 16.4473C29.1219 16.9429 29.1219 17.7468 29.6176 18.2427C29.8656 18.4906 30.1905 18.6146 30.5155 18.6146C30.8403 18.6146 31.1652 18.4906 31.413 18.2428L37.6971 11.9599L41.2883 15.5511L35.0044 21.8339C34.5085 22.3295 34.5085 23.1334 35.0043 23.6293C35.2522 23.8772 35.5771 24.0013 35.9021 24.0013C36.227 24.0013 36.5518 23.8772 36.7997 23.6294L43.0837 17.3465L46.6737 20.9365L40.3899 27.2193C39.894 27.7149 39.894 28.5188 40.3898 29.0146C40.6377 29.2626 40.9626 29.3866 41.2876 29.3866C41.6125 29.3866 41.9373 29.2626 42.1851 29.0148L48.4691 22.7319L52.0603 26.3231L45.7765 32.6059C45.2806 33.1015 45.2806 33.9054 45.7764 34.4013C46.0243 34.6492 46.3492 34.7733 46.6742 34.7733C46.9991 34.7733 47.324 34.6492 47.5718 34.4014L53.8558 28.1185L56.5484 30.811L43.9815 43.3779Z" fill="#C63E34"/>
<path d="M48.4695 4.77773C47.9737 4.2821 47.1699 4.2821 46.674 4.77773L43.0837 8.36796C42.588 8.86372 42.588 9.66758 43.0837 10.1635C43.3318 10.4113 43.6567 10.5353 43.9815 10.5353C44.3064 10.5353 44.6314 10.4113 44.8792 10.1635L48.4695 6.57323C48.9652 6.07747 48.9652 5.2736 48.4695 4.77773Z" fill="#C63E34"/>
<path d="M41.2875 1.186C40.7918 0.690504 39.9879 0.690377 39.4922 1.186L37.6971 2.98112C37.2013 3.47688 37.2012 4.28075 37.6971 4.77663C37.945 5.02457 38.2699 5.14847 38.5947 5.14847C38.9196 5.14847 39.2446 5.02444 39.4924 4.77663L41.2875 2.9815C41.7833 2.48575 41.7834 1.68188 41.2875 1.186Z" fill="#C63E34"/>
<path d="M57.4464 6.57271C56.9506 6.07708 56.1467 6.07708 55.6509 6.57271L48.4691 13.7545C47.9735 14.2502 47.9735 15.0542 48.4692 15.55C48.7172 15.7978 49.0421 15.9218 49.3669 15.9218C49.6918 15.9218 50.0168 15.7978 50.2646 15.55L57.4464 8.36821C57.9421 7.87246 57.9421 7.06859 57.4464 6.57271Z" fill="#C63E34"/>
<path d="M61.0376 13.7546C60.5418 13.2586 59.7381 13.2587 59.2422 13.7544L53.8556 19.1397C53.3597 19.6355 53.3597 20.4392 53.8554 20.9352C54.1034 21.1832 54.4283 21.3072 54.7533 21.3072C55.0781 21.3072 55.403 21.1832 55.6508 20.9355L61.0374 15.5501C61.5332 15.0544 61.5332 14.2506 61.0376 13.7546Z" fill="#C63E34"/>
<path d="M62.8327 22.7315C62.3369 22.2358 61.533 22.2358 61.0373 22.7315L59.2422 24.5266C58.7464 25.0223 58.7464 25.8262 59.2422 26.3221C59.4901 26.5699 59.815 26.6939 60.1399 26.6939C60.4647 26.6939 60.7897 26.5699 61.0375 26.3221L62.8327 24.527C63.3284 24.0312 63.3284 23.2273 62.8327 22.7315Z" fill="#C63E34"/>
</g>
<defs>
<clipPath id="clip0">
<rect width="65" height="65" fill="white"/>
</clipPath>
</defs>
</svg>
