<svg width="65" height="65" viewBox="0 0 65 65" fill="none" xmlns="http://www.w3.org/2000/svg">
<g clip-path="url(#clip0)">
<path d="M27.5626 35.6422L21.4416 41.7631C20.9459 42.2588 20.9459 43.0627 21.4416 43.5586C21.6896 43.8065 22.0145 43.9304 22.3393 43.9304C22.6642 43.9304 22.9892 43.8065 23.237 43.5586L29.3579 37.4377C29.8537 36.9419 29.8537 36.1381 29.3579 35.6422C28.8622 35.1463 28.0583 35.1464 27.5626 35.6422Z" fill="#C63E34"/>
<path d="M41.7567 21.4471L35.6413 27.5625C35.1456 28.0582 35.1456 28.8621 35.6413 29.358C35.8893 29.6059 36.2142 29.7298 36.539 29.7298C36.8639 29.7298 37.1888 29.6059 37.4367 29.358L43.5521 23.2426C44.0478 22.7469 44.0478 21.943 43.5521 21.4471C43.0563 20.9514 42.2527 20.9514 41.7567 21.4471Z" fill="#C63E34"/>
<path d="M59.2985 43.6779C56.8686 42.2749 54.0712 41.8192 51.345 42.3685L41.4763 32.4998L51.3523 22.6237C52.0896 22.7701 52.8296 22.8413 53.5639 22.8412C57.5709 22.8411 61.3924 20.7203 63.4675 17.1262C65.3696 13.8316 65.5084 9.82052 63.8385 6.39656C63.2846 5.26083 62.5685 4.66973 61.7102 4.63977C60.8657 4.6112 60.1374 5.12016 59.5403 6.15471L57.5725 9.56306C57.2372 10.1436 57.0652 10.1437 56.7801 10.1437H55.3203C54.4096 10.1437 54.2532 10.0534 53.7979 9.26471L53.068 8.00063C52.9206 7.74533 52.8393 7.60453 53.1746 7.0241L55.1424 3.61575C55.7397 2.58107 55.8162 1.69392 55.3694 0.979038C54.9143 0.2507 54.045 -0.0740489 52.7839 0.0141844C48.9839 0.280027 45.5796 2.40562 43.6774 5.70034C42.2743 8.13038 41.8187 10.9281 42.3682 13.654L32.4995 23.5227L22.6234 13.6467C23.5685 8.88665 21.3787 3.98684 17.1261 1.53154C13.8311 -0.370487 9.81997 -0.509248 6.39601 1.16071C5.2604 1.71461 4.6693 2.43063 4.63934 3.28897C4.60989 4.13144 5.11961 4.86156 6.15429 5.45888L9.56251 7.42667C10.1432 7.76196 10.1432 7.92433 10.1432 8.21899V9.67884C10.1432 10.5895 10.0528 10.746 9.26416 11.2013L7.99995 11.9311C7.74465 12.0785 7.60398 12.1598 7.02342 11.8246L3.61507 9.85683C2.5804 9.25938 1.69324 9.18308 0.978358 9.62971C0.250021 10.0848 -0.0746012 10.9547 0.0135052 12.2153C0.279348 16.0154 2.40495 19.4198 5.69967 21.322C8.1297 22.7249 10.9271 23.1806 13.6534 22.6312L23.522 32.4999L13.646 42.3758C8.88635 41.4309 3.98629 43.6206 1.53086 47.8733C-0.371294 51.1679 -0.510055 55.1789 1.1599 58.6029C1.71381 59.7386 2.42983 60.3297 3.28817 60.3597C4.13165 60.3901 4.86075 59.8794 5.4582 58.8447L7.42599 55.4365C7.76128 54.8558 7.92365 54.8558 8.21844 54.8558H9.67816C10.5887 54.8558 10.7452 54.9462 11.2006 55.7348L11.9303 56.9989C12.0777 57.2544 12.159 57.395 11.8238 57.9755L9.85602 61.3838C9.25858 62.4185 9.18228 63.3056 9.62903 64.0205C10.0355 64.671 10.7726 64.9995 11.8234 64.9995C11.9492 64.9995 12.0798 64.9948 12.2145 64.9854C16.0146 64.7195 19.419 62.5939 21.321 59.2993C22.724 56.8693 23.1798 54.0716 22.6304 51.3456L32.499 41.4771L42.375 51.3531C41.4301 56.1132 43.6199 61.013 47.8725 63.4683C49.6374 64.4872 51.6074 65.0001 53.583 65.0001C55.2954 65 57.0123 64.6145 58.6021 63.8392C59.7377 63.2853 60.3288 62.5693 60.3587 61.711C60.3882 60.8685 59.8786 60.1384 58.8438 59.5409L55.4354 57.5733C54.8549 57.238 54.8549 57.0756 54.8549 56.7808V55.3211C54.8549 54.4105 54.9453 54.2539 55.7339 53.7987L56.998 53.0688C57.2533 52.9213 57.3938 52.8402 57.9745 53.1753L61.3829 55.1431C62.4174 55.7406 63.3046 55.8169 64.0197 55.3701C64.7479 54.915 65.0727 54.0451 64.9844 52.7847C64.7188 48.9843 62.5931 45.58 59.2985 43.6779ZM14.9496 20.3364C14.6285 20.0155 14.1603 19.8903 13.7219 20.0082C11.4263 20.6261 9.02815 20.3116 6.96946 19.1231C4.44739 17.6669 2.80612 15.0783 2.55767 12.1781L5.75413 14.0236C6.54836 14.4822 7.77677 14.9921 9.26975 14.1301L10.534 13.4003C12.1001 12.496 12.6824 11.4874 12.6824 9.67897V8.21899C12.6823 6.4952 11.6264 5.68625 10.8322 5.22769L7.63572 3.38241C10.2717 2.14727 13.3343 2.27448 15.8563 3.73065C19.3329 5.73805 21.0374 9.84502 20.0009 13.7183C19.8838 14.1563 20.0089 14.6236 20.3296 14.9441L30.7037 25.3182L28.9084 27.1135L23.2421 21.4471C22.7463 20.9514 21.9425 20.9514 21.4466 21.4471C20.9507 21.9429 20.9508 22.7468 21.4466 23.2426L27.1129 28.909L25.3174 30.7045L14.9496 20.3364ZM20.3357 50.0494C20.0147 50.3705 19.8895 50.8386 20.0075 51.2771C20.6253 53.5728 20.311 55.9709 19.1223 58.0297C17.6663 60.5516 15.0778 62.193 12.1774 62.4415L14.0229 59.245C14.4814 58.4508 14.9912 57.2222 14.1294 55.7294L13.3996 54.4652C12.4953 52.8991 11.4869 52.3167 9.67841 52.3167H8.21844C6.49478 52.3167 5.6857 53.3726 5.22701 54.1668L3.3816 57.3633C2.14659 54.7273 2.2738 51.6648 3.72984 49.1429C5.73724 45.6661 9.84409 43.9615 13.7175 44.9982C14.1555 45.1151 14.6228 44.9902 14.9433 44.6695L44.6626 14.9502C44.9837 14.6292 45.1088 14.1611 44.9908 13.7226C44.373 11.4269 44.6872 9.02883 45.876 6.97014C47.3322 4.44807 49.9208 2.8068 52.8211 2.55835L50.9755 5.75468C50.517 6.54891 50.007 7.77732 50.8689 9.2703L51.5987 10.5345C52.503 12.1007 53.5116 12.683 55.32 12.683H56.78C58.5038 12.6828 59.3128 11.627 59.7713 10.8329L61.6168 7.6364C62.8519 10.2724 62.7247 13.3347 61.2685 15.8568C59.2612 19.3336 55.1539 21.0377 51.2809 20.0015C50.8427 19.8843 50.3755 20.0096 50.055 20.3302L20.3357 50.0494ZM59.2442 50.9762C58.4498 50.5177 57.2211 50.0081 55.7287 50.8697L54.4645 51.5996C52.8984 52.5037 52.316 53.5123 52.316 55.3206V56.7806C52.316 58.5044 53.3719 59.3133 54.1661 59.772L57.3626 61.6174C54.7268 62.8525 51.6643 62.7253 49.1422 61.2692C45.6654 59.2618 43.961 55.1547 44.9975 51.2815C45.1147 50.8435 44.9895 50.3762 44.6688 50.0557L34.2946 39.6815L36.0901 37.8859L41.7625 43.5584C42.0104 43.8063 42.3353 43.9302 42.6601 43.9302C42.985 43.9302 43.3099 43.8062 43.5578 43.5584C44.0536 43.0626 44.0536 42.2588 43.5578 41.763L37.8855 36.0906L39.6808 34.2953L50.0488 44.6633C50.3697 44.9842 50.8378 45.1094 51.2764 44.9915C53.5716 44.3736 55.9702 44.688 58.0289 45.8767C60.5509 47.3329 62.1923 49.9213 62.4407 52.8216L59.2442 50.9762Z" fill="#C63E34"/>
<path d="M32.5004 31.2304H32.4995C31.7983 31.2304 31.2305 31.7988 31.2305 32.4999C31.2305 33.2011 31.7992 33.7695 32.5004 33.7695C33.2015 33.7695 33.7699 33.2011 33.7699 32.4999C33.7699 31.7988 33.2015 31.2304 32.5004 31.2304Z" fill="#C63E34"/>
</g>
<defs>
<clipPath id="clip0">
<rect width="65" height="65" fill="white"/>
</clipPath>
</defs>
</svg>
