<svg width="65" height="65" viewBox="0 0 65 65" fill="none" xmlns="http://www.w3.org/2000/svg">
<g clip-path="url(#clip0)">
<path d="M27.5626 35.6424L21.4416 41.7633C20.9459 42.259 20.9459 43.0629 21.4416 43.5588C21.6896 43.8067 22.0145 43.9306 22.3393 43.9306C22.6642 43.9306 22.9892 43.8067 23.237 43.5588L29.3579 37.4379C29.8537 36.9421 29.8537 36.1382 29.3579 35.6424C28.8622 35.1465 28.0583 35.1466 27.5626 35.6424Z" fill="white"/>
<path d="M41.7569 21.4475L35.6416 27.5628C35.1458 28.0586 35.1458 28.8625 35.6416 29.3583C35.8895 29.6063 36.2144 29.7302 36.5393 29.7302C36.8642 29.7302 37.189 29.6063 37.437 29.3583L43.5523 23.243C44.0481 22.7472 44.0481 21.9434 43.5523 21.4475C43.0566 20.9517 42.2529 20.9517 41.7569 21.4475Z" fill="white"/>
<path d="M59.2985 43.678C56.8686 42.2751 54.0712 41.8194 51.345 42.3686L41.4763 32.5L51.3523 22.6239C52.0896 22.7703 52.8296 22.8415 53.5639 22.8414C57.5709 22.8413 61.3924 20.7205 63.4675 17.1264C65.3696 13.8318 65.5084 9.8207 63.8385 6.39675C63.2846 5.26101 62.5685 4.66991 61.7102 4.63995C60.8657 4.61139 60.1374 5.12035 59.5403 6.1549L57.5725 9.56324C57.2372 10.1438 57.0652 10.1439 56.7801 10.1439H55.3203C54.4096 10.1439 54.2532 10.0535 53.7979 9.2649L53.068 8.00081C52.9206 7.74551 52.8393 7.60472 53.1746 7.02428L55.1424 3.61594C55.7397 2.58126 55.8162 1.6941 55.3694 0.979221C54.9143 0.250883 54.045 -0.0738658 52.7839 0.0143675C48.9839 0.28021 45.5796 2.40581 43.6774 5.70053C42.2743 8.13056 41.8187 10.9283 42.3682 13.6542L32.4995 23.5229L22.6234 13.6469C23.5685 8.88683 21.3787 3.98702 17.1261 1.53173C13.8311 -0.370304 9.81997 -0.509065 6.39601 1.16089C5.2604 1.71479 4.6693 2.43082 4.63934 3.28916C4.60989 4.13162 5.11961 4.86174 6.15429 5.45906L9.56251 7.42685C10.1432 7.76214 10.1432 7.92451 10.1432 8.21917V9.67902C10.1432 10.5897 10.0528 10.7462 9.26416 11.2015L7.99995 11.9313C7.74465 12.0787 7.60398 12.16 7.02342 11.8248L3.61507 9.85701C2.5804 9.25957 1.69324 9.18327 0.978358 9.62989C0.250021 10.085 -0.0746012 10.9549 0.0135052 12.2154C0.279348 16.0156 2.40495 19.42 5.69967 21.3221C8.1297 22.7251 10.9271 23.1807 13.6534 22.6314L23.522 32.5001L13.646 42.376C8.88635 41.4311 3.98629 43.6208 1.53086 47.8735C-0.371294 51.1681 -0.510055 55.1791 1.1599 58.6031C1.71381 59.7388 2.42983 60.3299 3.28817 60.3598C4.13165 60.3903 4.86075 59.8796 5.4582 58.8449L7.42599 55.4367C7.76128 54.856 7.92365 54.856 8.21844 54.856H9.67816C10.5887 54.856 10.7452 54.9464 11.2006 55.735L11.9303 56.9991C12.0777 57.2545 12.159 57.3952 11.8238 57.9756L9.85602 61.384C9.25858 62.4187 9.18228 63.3058 9.62903 64.0207C10.0355 64.6712 10.7726 64.9996 11.8234 64.9996C11.9492 64.9996 12.0798 64.9949 12.2145 64.9856C16.0146 64.7197 19.419 62.5941 21.321 59.2995C22.724 56.8695 23.1798 54.0718 22.6304 51.3458L32.499 41.4773L42.375 51.3533C41.4301 56.1133 43.6199 61.0132 47.8725 63.4685C49.6374 64.4874 51.6074 65.0003 53.583 65.0003C55.2954 65.0002 57.0123 64.6147 58.6021 63.8394C59.7377 63.2855 60.3288 62.5695 60.3587 61.7111C60.3882 60.8687 59.8786 60.1386 58.8438 59.5411L55.4354 57.5735C54.8549 57.2382 54.8549 57.0758 54.8549 56.781V55.3213C54.8549 54.4106 54.9453 54.2541 55.7339 53.7988L56.998 53.069C57.2533 52.9215 57.3938 52.8403 57.9745 53.1755L61.3829 55.1433C62.4174 55.7407 63.3046 55.817 64.0197 55.3703C64.7479 54.9152 65.0727 54.0453 64.9844 52.7849C64.7188 48.9845 62.5931 45.5802 59.2985 43.678ZM14.9496 20.3366C14.6285 20.0156 14.1603 19.8905 13.7219 20.0084C11.4263 20.6263 9.02815 20.3118 6.96946 19.1233C4.44739 17.6671 2.80612 15.0785 2.55767 12.1782L5.75413 14.0238C6.54836 14.4823 7.77677 14.9923 9.26975 14.1303L10.534 13.4004C12.1001 12.4961 12.6824 11.4876 12.6824 9.67915V8.21917C12.6823 6.49539 11.6264 5.68644 10.8322 5.22788L7.63572 3.38259C10.2717 2.14745 13.3343 2.27466 15.8563 3.73083C19.3329 5.73823 21.0374 9.84521 20.0009 13.7185C19.8838 14.1564 20.0089 14.6238 20.3296 14.9443L30.7037 25.3184L28.9084 27.1137L23.2421 21.4473C22.7463 20.9516 21.9425 20.9516 21.4466 21.4473C20.9507 21.9431 20.9508 22.7469 21.4466 23.2428L27.1129 28.9092L25.3174 30.7047L14.9496 20.3366ZM20.3357 50.0496C20.0147 50.3707 19.8895 50.8388 20.0075 51.2773C20.6253 53.573 20.311 55.971 19.1223 58.0299C17.6663 60.5518 15.0778 62.1932 12.1774 62.4416L14.0229 59.2452C14.4814 58.451 14.9912 57.2224 14.1294 55.7296L13.3996 54.4654C12.4953 52.8992 11.4869 52.3169 9.67841 52.3169H8.21844C6.49478 52.3169 5.6857 53.3728 5.22701 54.167L3.3816 57.3635C2.14659 54.7275 2.2738 51.665 3.72984 49.143C5.73724 45.6663 9.84409 43.9617 13.7175 44.9984C14.1555 45.1153 14.6228 44.9904 14.9433 44.6697L44.6626 14.9504C44.9837 14.6294 45.1088 14.1613 44.9908 13.7228C44.373 11.4271 44.6872 9.02902 45.876 6.97032C47.3322 4.44825 49.9208 2.80698 52.8211 2.55853L50.9755 5.75486C50.517 6.54909 50.007 7.7775 50.8689 9.27048L51.5987 10.5347C52.503 12.1009 53.5116 12.6831 55.32 12.6831H56.78C58.5038 12.683 59.3128 11.6271 59.7713 10.833L61.6168 7.63658C62.8519 10.2725 62.7247 13.3349 61.2685 15.857C59.2612 19.3338 55.1539 21.0379 51.2809 20.0017C50.8427 19.8845 50.3755 20.0098 50.055 20.3304L20.3357 50.0496ZM59.2442 50.9764C58.4498 50.5178 57.2211 50.0082 55.7287 50.8699L54.4645 51.5997C52.8984 52.5039 52.316 53.5124 52.316 55.3208V56.7807C52.316 58.5045 53.3719 59.3135 54.1661 59.7722L57.3626 61.6176C54.7268 62.8527 51.6643 62.7255 49.1422 61.2693C45.6654 59.2619 43.961 55.1548 44.9975 51.2817C45.1147 50.8437 44.9895 50.3764 44.6688 50.0559L34.2946 39.6816L36.0901 37.8861L41.7625 43.5586C42.0104 43.8065 42.3353 43.9304 42.6601 43.9304C42.985 43.9304 43.3099 43.8064 43.5578 43.5586C44.0536 43.0628 44.0536 42.2589 43.5578 41.7632L37.8855 36.0907L39.6808 34.2955L50.0488 44.6635C50.3697 44.9844 50.8378 45.1096 51.2764 44.9916C53.5716 44.3738 55.9702 44.6882 58.0289 45.8769C60.5509 47.3331 62.1923 49.9215 62.4407 52.8218L59.2442 50.9764Z" fill="white"/>
<path d="M32.5006 31.2305H32.4997C31.7986 31.2305 31.2307 31.7988 31.2307 32.5C31.2307 33.2011 31.7995 33.7695 32.5006 33.7695C33.2018 33.7695 33.7702 33.2011 33.7702 32.5C33.7702 31.7988 33.2018 31.2305 32.5006 31.2305Z" fill="white"/>
</g>
<defs>
<clipPath id="clip0">
<rect width="65" height="65" fill="white"/>
</clipPath>
</defs>
</svg>
