<svg width="65" height="65" viewBox="0 0 65 65" fill="none" xmlns="http://www.w3.org/2000/svg">
<g clip-path="url(#clip0)">
<path d="M56.0121 21.9709L51.0372 16.8065L52.0394 9.69073C52.1351 9.01332 51.6764 8.38202 51.0025 8.2635L43.959 7.02274L40.6062 0.677076C40.2854 0.0700826 39.54 -0.171921 38.9241 0.130584L32.5006 3.28358L26.0765 0.130584C25.4606 -0.172417 24.7158 0.0700826 24.3949 0.677076L21.0421 7.02274L13.9987 8.2635C13.3247 8.38202 12.866 9.01332 12.9617 9.69073L13.964 16.8065L8.9885 21.9709C8.5149 22.4629 8.5149 23.241 8.9885 23.7329L13.964 28.8973L12.9617 36.0131C12.866 36.6905 13.3247 37.3218 13.9987 37.4408L20.7842 38.636C20.7842 38.636 10.3369 56.7312 10.327 56.7481C9.81518 57.6348 10.569 58.7977 11.6173 58.638L18.6498 57.5668L21.2385 64.1927C21.416 64.6474 21.8385 64.9599 22.325 64.9966C22.3572 64.999 22.3895 65 22.4212 65C22.872 65 23.2925 64.76 23.5201 64.3653L32.5006 48.8111L41.4805 64.3653C41.7086 64.76 42.1286 65 42.5799 65C42.6117 65 42.6439 64.999 42.6761 64.9966C43.1626 64.9594 43.5851 64.6469 43.7627 64.1927L46.3513 57.5668C46.3513 57.5668 53.3699 58.6355 53.3833 58.638C54.3984 58.7927 55.1889 57.6397 54.6742 56.7481L44.2169 38.6355L51.0025 37.4403C51.6764 37.3218 52.1346 36.6905 52.0394 36.0131L51.0372 28.8968L56.0121 23.7324C56.4862 23.241 56.4862 22.4629 56.0121 21.9709ZM22.6419 60.8081L20.6449 55.6968C20.4524 55.2043 19.9793 54.8894 19.4631 54.8894C19.3996 54.8894 19.3356 54.8944 19.2712 54.9038L13.8464 55.73L22.3076 41.0754C22.3076 41.0754 24.4068 45.0461 24.4128 45.0565C24.4128 45.0565 23.5286 46.5849 23.5276 46.5869C22.7108 47.9993 24.9141 49.2613 25.7254 47.8589L27.4314 44.9082L32.5006 42.4203L33.0912 42.7104L22.6419 60.8081ZM51.1547 55.73L45.7294 54.9038C45.1428 54.8145 44.572 55.1438 44.3563 55.6973L42.3592 60.8086L33.9665 46.272L35.3753 43.8316L37.5678 44.9078C37.5678 44.9078 39.2702 47.852 39.2747 47.8589C40.088 49.2653 42.2997 48.0156 41.4735 46.5869C41.4735 46.5869 40.6003 45.0372 40.6057 45.0268L42.6935 41.0754L51.1547 55.73ZM48.7793 27.5812C48.5085 27.8623 48.3821 28.2521 48.4366 28.6389L49.354 35.1527L42.9062 36.2883C42.5204 36.3563 42.1872 36.5988 42.0042 36.9454L38.9385 42.7486C38.9315 42.7461 38.9246 42.7441 38.9181 42.7416C38.9181 42.7416 33.0768 39.8748 33.0599 39.8663C32.7326 39.7057 32.2898 39.6952 31.9412 39.8663L26.0835 42.7416C26.0765 42.7441 26.0696 42.7461 26.0632 42.7486L22.997 36.9459C22.814 36.5993 22.4812 36.3568 22.0949 36.2883L15.6471 35.1527L16.5645 28.6389C16.6191 28.2521 16.4926 27.8623 16.2218 27.5812L11.6659 22.8522L16.2218 18.1227C16.4926 17.8415 16.6191 17.4517 16.5645 17.0649L15.6471 10.5511L22.0949 9.4155C22.4812 9.34756 22.814 9.10457 22.997 8.75792L26.0642 2.95281L31.9412 5.83751C32.2938 6.01058 32.7074 6.01058 33.0599 5.83751L38.937 2.95281L42.0042 8.75792C42.1872 9.10457 42.5204 9.34756 42.9062 9.4155L49.354 10.5511L48.4366 17.0649C48.3821 17.4517 48.5085 17.8415 48.7793 18.1227L53.3352 22.8522L48.7793 27.5812Z" fill="#C63E34"/>
<path d="M44.561 21.5823C43.8598 21.5823 43.2915 22.1506 43.2915 22.8518C43.2915 28.8017 38.4504 33.6428 32.5005 33.6428C26.5501 33.6428 21.7095 28.8017 21.7095 22.8518C21.7095 16.9014 26.5501 12.0608 32.5005 12.0608C33.8935 12.0608 35.2483 12.3216 36.5283 12.8369C37.1784 13.0987 37.9178 12.7838 38.1802 12.1337C38.442 11.4831 38.1271 10.7437 37.4765 10.4818C35.894 9.84457 34.2198 9.52173 32.5005 9.52173C25.1501 9.52173 19.1704 15.5014 19.1704 22.8518C19.1704 30.2017 25.1501 36.1814 32.5005 36.1814C39.8509 36.1814 45.8306 30.2017 45.8306 22.8518C45.8306 22.1506 45.2618 21.5823 44.561 21.5823Z" fill="#C63E34"/>
<path d="M29.0813 20.4303C28.5854 19.9344 27.782 19.9344 27.2856 20.4303C26.7902 20.9262 26.7902 21.7301 27.2856 22.226C27.2856 22.226 31.7801 26.7199 31.7925 26.7328C32.2581 27.1985 33.121 27.1995 33.5882 26.7328L43.3754 16.9455C43.8709 16.4496 43.8709 15.6457 43.3754 15.1503C42.8795 14.6544 42.0757 14.6544 41.5798 15.1503L32.6906 24.0395L29.0813 20.4303Z" fill="#C63E34"/>
<path d="M44.1797 51.67C44.1797 52.3712 43.6114 52.9395 42.9102 52.9395C42.2089 52.9395 41.6406 52.3712 41.6406 51.67C41.6406 50.9688 42.2089 50.4005 42.9102 50.4005C43.6114 50.4005 44.1797 50.9688 44.1797 51.67Z" fill="#C63E34"/>
<path d="M23.3599 51.67C23.3599 52.3712 22.7915 52.9395 22.0903 52.9395C21.3891 52.9395 20.8208 52.3712 20.8208 51.67C20.8208 50.9688 21.3891 50.4005 22.0903 50.4005C22.7915 50.4005 23.3599 50.9688 23.3599 51.67Z" fill="#C63E34"/>
</g>
<defs>
<clipPath id="clip0">
<rect width="65" height="65" fill="white"/>
</clipPath>
</defs>
</svg>
