<svg width="65" height="65" viewBox="0 0 65 65" fill="none" xmlns="http://www.w3.org/2000/svg">
<g clip-path="url(#clip0)">
<path d="M56.0119 21.9708L51.0369 16.8064L52.0392 9.69055C52.1349 9.01313 51.6762 8.38184 51.0022 8.26332L43.9588 7.02255L40.606 0.676893C40.2851 0.0698995 39.5398 -0.172104 38.9238 0.130401L32.5003 3.28339L26.0763 0.130401C25.4604 -0.1726 24.7155 0.0698995 24.3947 0.676893L21.0418 7.02255L13.9984 8.26332C13.3245 8.38184 12.8658 9.01313 12.9615 9.69055L13.9637 16.8064L8.98825 21.9708C8.51466 22.4627 8.51466 23.2408 8.98825 23.7327L13.9637 28.8971L12.9615 36.0129C12.8658 36.6903 13.3245 37.3216 13.9984 37.4407L20.784 38.6358C20.784 38.6358 10.3366 56.731 10.3267 56.7479C9.81493 57.6346 10.5687 58.7975 11.6171 58.6378L18.6496 57.5667L21.2382 64.1925C21.4157 64.6473 21.8383 64.9597 22.3247 64.9964C22.357 64.9989 22.3892 64.9998 22.421 64.9998C22.8717 64.9998 23.2923 64.7598 23.5199 64.3651L32.5003 48.8109L41.4802 64.3651C41.7084 64.7598 42.1284 64.9998 42.5797 64.9998C42.6114 64.9998 42.6437 64.9989 42.6759 64.9964C43.1624 64.9592 43.5849 64.6468 43.7624 64.1925L46.3511 57.5667C46.3511 57.5667 53.3697 58.6353 53.3831 58.6378C54.3982 58.7925 55.1887 57.6396 54.6739 56.7479L44.2167 38.6353L51.0022 37.4402C51.6762 37.3216 52.1344 36.6903 52.0392 36.0129L51.0369 28.8966L56.0119 23.7322C56.486 23.2408 56.486 22.4627 56.0119 21.9708ZM22.6416 60.8079L20.6446 55.6966C20.4522 55.2041 19.9791 54.8892 19.4629 54.8892C19.3994 54.8892 19.3354 54.8942 19.2709 54.9036L13.8462 55.7298L22.3074 41.0752C22.3074 41.0752 24.4066 45.0459 24.4125 45.0563C24.4125 45.0563 23.5283 46.5847 23.5273 46.5867C22.7106 47.9991 24.9139 49.2612 25.7252 47.8587L27.4311 44.9081L32.5003 42.4201L33.0909 42.7102L22.6416 60.8079ZM51.1545 55.7298L45.7292 54.9036C45.1425 54.8144 44.5718 55.1436 44.356 55.6971L42.359 60.8084L33.9662 46.2718L35.3751 43.8314L37.5675 44.9076C37.5675 44.9076 39.27 47.8518 39.2744 47.8587C40.0877 49.2651 42.2995 48.0154 41.4733 46.5867C41.4733 46.5867 40.6 45.037 40.6055 45.0266L42.6932 41.0752L51.1545 55.7298ZM48.779 27.581C48.5083 27.8622 48.3818 28.2519 48.4364 28.6388L49.3538 35.1525L42.906 36.2882C42.5202 36.3561 42.1869 36.5986 42.0039 36.9452L38.9382 42.7484C38.9313 42.7459 38.9243 42.7439 38.9179 42.7414C38.9179 42.7414 33.0766 39.8746 33.0597 39.8662C32.7324 39.7055 32.2896 39.6951 31.9409 39.8662L26.0832 42.7414C26.0763 42.7439 26.0694 42.7459 26.0629 42.7484L22.9967 36.9457C22.8137 36.5991 22.481 36.3566 22.0946 36.2882L15.6468 35.1525L16.5643 28.6388C16.6188 28.2519 16.4924 27.8622 16.2216 27.581L11.6657 22.852L16.2216 18.1225C16.4924 17.8413 16.6188 17.4515 16.5643 17.0647L15.6468 10.551L22.0946 9.41532C22.481 9.34738 22.8137 9.10438 22.9967 8.75774L26.0639 2.95262L31.9409 5.83733C32.2935 6.0104 32.7071 6.0104 33.0597 5.83733L38.9367 2.95262L42.0039 8.75774C42.1869 9.10438 42.5202 9.34738 42.906 9.41532L49.3538 10.551L48.4364 17.0647C48.3818 17.4515 48.5083 17.8413 48.779 18.1225L53.335 22.852L48.779 27.581Z" fill="white"/>
<path d="M44.5608 21.582C43.8596 21.582 43.2913 22.1503 43.2913 22.8516C43.2913 28.8015 38.4502 33.6426 32.5002 33.6426C26.5498 33.6426 21.7092 28.8015 21.7092 22.8516C21.7092 16.9011 26.5498 12.0605 32.5002 12.0605C33.8933 12.0605 35.2481 12.3214 36.528 12.8366C37.1782 13.0985 37.9176 12.7836 38.1799 12.1334C38.4417 11.4828 38.1268 10.7434 37.4762 10.4816C35.8938 9.84432 34.2196 9.52148 32.5002 9.52148C25.1499 9.52148 19.1702 15.5012 19.1702 22.8516C19.1702 30.2015 25.1499 36.1811 32.5002 36.1811C39.8506 36.1811 45.8303 30.2015 45.8303 22.8516C45.8303 22.1503 45.2615 21.582 44.5608 21.582Z" fill="white"/>
<path d="M29.0813 20.4302C28.5854 19.9343 27.782 19.9343 27.2856 20.4302C26.7902 20.9261 26.7902 21.73 27.2856 22.2259C27.2856 22.2259 31.7801 26.7198 31.7925 26.7327C32.2581 27.1984 33.121 27.1994 33.5882 26.7327L43.3754 16.9454C43.8709 16.4495 43.8709 15.6457 43.3754 15.1503C42.8795 14.6543 42.0757 14.6543 41.5798 15.1503L32.6906 24.0395L29.0813 20.4302Z" fill="white"/>
<path d="M44.1794 51.6699C44.1794 52.3711 43.6111 52.9395 42.9099 52.9395C42.2087 52.9395 41.6404 52.3711 41.6404 51.6699C41.6404 50.9687 42.2087 50.4004 42.9099 50.4004C43.6111 50.4004 44.1794 50.9687 44.1794 51.6699Z" fill="white"/>
<path d="M23.3596 51.6699C23.3596 52.3711 22.7913 52.9395 22.0901 52.9395C21.3889 52.9395 20.8206 52.3711 20.8206 51.6699C20.8206 50.9687 21.3889 50.4004 22.0901 50.4004C22.7913 50.4004 23.3596 50.9687 23.3596 51.6699Z" fill="white"/>
</g>
<defs>
<clipPath id="clip0">
<rect width="65" height="65" fill="white"/>
</clipPath>
</defs>
</svg>
