<svg width="70" height="70" viewBox="0 0 70 70" fill="none" xmlns="http://www.w3.org/2000/svg">
<g clip-path="url(#clip0)">
<path d="M65.1151 8.37203C65.0328 7.87834 64.6214 7.46694 64.1277 7.38466L35.3296 0.0617103C35.0828 -0.0205701 34.9182 -0.0205701 34.6714 0.0617103L5.87326 7.38466C5.37958 7.54922 4.96817 7.87834 4.88589 8.37203C4.80361 8.86571 -4.24722 53.4617 34.5068 69.9177C34.6714 70 34.8359 70 35.0005 70C35.1651 70 35.3296 70 35.4942 69.9177C74.2482 53.4617 65.1974 8.78343 65.1151 8.37203ZM35.0005 67.2025C1.26556 52.4743 6.20238 15.7773 7.3543 9.68851L35.0005 2.69468L62.6467 9.68851C63.7163 15.7773 68.7354 52.4743 35.0005 67.2025Z" fill="white"/>
<path d="M57.2981 12.6507L35.247 7.05561C35.0001 6.97333 34.8356 6.97333 34.5887 7.05561L12.5376 12.6507C12.0439 12.8152 11.6325 13.1444 11.5502 13.638C11.5502 14.0494 4.63869 48.4426 34.5065 61.1138C34.671 61.1961 34.8356 61.1961 35.0001 61.1961C35.1647 61.1961 35.3293 61.1961 35.4938 61.1138C65.3616 48.4426 58.3678 14.0494 58.2855 13.638C58.2032 13.1444 57.7918 12.733 57.2981 12.6507ZM35.0001 58.4808C9.82235 47.373 13.1958 20.2205 14.1009 15.0368L35.0001 9.77086L55.8993 15.0368C56.8044 20.2205 60.1779 47.373 35.0001 58.4808Z" fill="white"/>
<path d="M35.0005 20.6318C28.1712 20.6318 22.5762 26.2269 22.5762 33.0562C22.5762 39.8854 28.1712 45.4805 35.0005 45.4805C41.8298 45.4805 47.4248 39.8854 47.4248 33.0562C47.4248 26.2269 41.8298 20.6318 35.0005 20.6318ZM44.7919 32.9739C44.7919 38.4044 40.431 42.7653 35.0005 42.7653C29.57 42.7653 25.2091 38.4044 25.2091 32.9739C25.2091 27.5434 29.57 23.2648 35.0005 23.2648C38.1272 23.2648 40.8424 24.7459 42.6526 26.9674C42.5703 27.0497 42.488 27.0497 42.4057 27.132L33.0258 35.1132L29.8168 30.4232C29.4054 29.8472 28.5826 29.6827 28.0067 30.0941C27.4307 30.5055 27.2662 31.3283 27.6776 31.9042L31.7093 37.7462C31.9561 38.0753 32.2853 38.2398 32.6144 38.3221C32.6967 38.3221 32.6967 38.3221 32.7789 38.3221C33.1081 38.3221 33.3549 38.2398 33.6017 37.993L44.0513 29.189C44.545 30.3409 44.7919 31.6574 44.7919 32.9739Z" fill="white"/>
</g>
<defs>
<clipPath id="clip0">
<rect width="70" height="70" fill="white"/>
</clipPath>
</defs>
</svg>
