<svg width="70" height="70" viewBox="0 0 70 70" fill="none" xmlns="http://www.w3.org/2000/svg">
<path d="M48.125 26.25C50.7348 26.2471 53.237 25.2091 55.0824 23.3636C56.9278 21.5182 57.9659 19.0161 57.9688 16.4062V12.0312C57.9688 9.42053 56.9316 6.91673 55.0856 5.07067C53.2395 3.22461 50.7357 2.1875 48.125 2.1875C45.5143 2.1875 43.0105 3.22461 41.1644 5.07067C39.3184 6.91673 38.2813 9.42053 38.2812 12.0312V16.4062C38.2841 19.0161 39.3222 21.5182 41.1676 23.3636C43.013 25.2091 45.5152 26.2471 48.125 26.25ZM40.4688 12.0312C40.4688 10.0007 41.2754 8.05329 42.7112 6.61746C44.147 5.18164 46.0944 4.375 48.125 4.375C50.1556 4.375 52.103 5.18164 53.5388 6.61746C54.9746 8.05329 55.7812 10.0007 55.7812 12.0312V16.4062C55.7812 18.4368 54.9746 20.3842 53.5388 21.82C52.103 23.2559 50.1556 24.0625 48.125 24.0625C46.0944 24.0625 44.147 23.2559 42.7112 21.82C41.2754 20.3842 40.4688 18.4368 40.4688 16.4062V12.0312Z" fill="white"/>
<path d="M57.9688 28.4375H43.75V30.625H44.1033L45.9178 35.1619L43.75 58.963C43.7351 59.1231 43.7557 59.2845 43.8104 59.4358C43.865 59.587 43.9523 59.7243 44.0661 59.838L47.3473 63.1192C47.5525 63.3243 47.8306 63.4395 48.1206 63.4395C48.4106 63.4395 48.6888 63.3243 48.8939 63.1192L52.1752 59.838C52.2889 59.7243 52.3762 59.587 52.4309 59.4358C52.4855 59.2845 52.5061 59.1231 52.4913 58.963L50.3322 35.1619L52.1467 30.625H57.9688C59.9986 30.6273 61.9447 31.4347 63.38 32.87C64.8153 34.3053 65.6227 36.2514 65.625 38.2812V65.625H60.1562V38.2812H57.9688V65.625H38.2812V61.25H36.0938V65.625H29.5312V67.8125H66.7188C67.0088 67.8125 67.287 67.6973 67.4921 67.4921C67.6973 67.287 67.8125 67.0088 67.8125 66.7188V38.2812C67.8096 35.6714 66.7716 33.1693 64.9261 31.3239C63.0807 29.4784 60.5786 28.4404 57.9688 28.4375ZM49.7908 30.625L48.4783 33.9062H47.7717L46.4592 30.625H49.7908ZM48.125 60.7972L45.9791 58.6513L48.0298 36.0938H48.2202L50.2709 58.6513L48.125 60.7972Z" fill="white"/>
<path d="M15.668 64.3366L21.3205 67.6616C21.4885 67.7604 21.68 67.8126 21.875 67.8126C22.07 67.8126 22.2615 67.7604 22.4295 67.6616L28.082 64.3366C32.1796 61.9138 35.5767 58.4673 37.9401 54.3352C40.3034 50.2031 41.5517 45.5275 41.5625 40.7673V28.4375C41.5625 28.1474 41.4473 27.8692 41.2421 27.6641C41.037 27.459 40.7588 27.3438 40.4688 27.3438C34.3179 27.3305 28.3349 25.3362 23.4062 21.6562L22.5312 21C22.3419 20.858 22.1117 20.7812 21.875 20.7812C21.6383 20.7812 21.4081 20.858 21.2188 21L20.3438 21.6562C15.4153 25.3365 9.43219 27.3309 3.28125 27.3438C2.99117 27.3438 2.71297 27.459 2.50785 27.6641C2.30273 27.8692 2.1875 28.1474 2.1875 28.4375V40.7673C2.19827 45.5275 3.4466 50.2031 5.80995 54.3352C8.17329 58.4673 11.5704 61.9138 15.668 64.3366ZM4.375 29.5105C10.6211 29.2749 16.648 27.1461 21.6562 23.4062L21.875 23.2433L22.0938 23.4062C27.102 27.1461 33.1289 29.2749 39.375 29.5105V40.7673C39.3656 45.147 38.2174 49.4489 36.0433 53.2508C33.8692 57.0527 30.7439 60.2239 26.9741 62.4531L21.875 65.45L16.7759 62.4531C13.0061 60.2239 9.88076 57.0527 7.70666 53.2508C5.53255 49.4489 4.38444 45.147 4.375 40.7673V29.5105Z" fill="white"/>
<path d="M17.8861 60.5651L21.3205 62.5864C21.4888 62.6845 21.6802 62.7362 21.875 62.7362C22.0698 62.7362 22.2612 62.6845 22.4295 62.5864L25.8639 60.5662C29.306 58.531 32.1597 55.6358 34.1449 52.1647C36.1301 48.6936 37.1786 44.7659 37.1875 40.7672V32.5236C37.1874 32.2582 37.0908 32.002 36.9157 31.8026C36.7406 31.6031 36.499 31.4742 36.2359 31.4397C31.3255 30.7883 26.6231 29.0465 22.4733 26.3417C22.2954 26.2255 22.0875 26.1636 21.875 26.1636C21.6625 26.1636 21.4546 26.2255 21.2767 26.3417C17.1268 29.0461 12.4244 30.788 7.51406 31.4397C7.25096 31.4742 7.00937 31.6031 6.8343 31.8026C6.65924 32.002 6.56264 32.2582 6.5625 32.5236V40.7672C6.57126 44.7658 7.61973 48.6933 9.60497 52.1643C11.5902 55.6353 14.444 58.5303 17.8861 60.5651ZM8.75 33.4686C13.4087 32.7207 17.8711 31.0496 21.875 28.5533C25.8789 31.0496 30.3413 32.7207 35 33.4686V40.7661C34.9924 44.384 34.0439 47.9378 32.2477 51.0784C30.4515 54.219 27.8694 56.8385 24.7548 58.6795L21.875 60.3748L18.9941 58.6795C15.8797 56.8386 13.2978 54.2193 11.5018 51.0789C9.70578 47.9385 8.75747 44.3849 8.75 40.7672V33.4686Z" fill="white"/>
<path d="M22.9688 31.7188H20.7812V33.9062H22.9688V31.7188Z" fill="white"/>
<path d="M13.125 35H10.9375V37.1875H13.125V35Z" fill="white"/>
<path d="M13.125 42.6562H10.9375V44.8438H13.125V42.6562Z" fill="white"/>
<path d="M32.8125 35H30.625V37.1875H32.8125V35Z" fill="white"/>
<path d="M32.8125 42.6562H30.625V44.8438H32.8125V42.6562Z" fill="white"/>
<path d="M16.4062 49.2188H14.2188V51.4062H16.4062V49.2188Z" fill="white"/>
<path d="M29.5312 49.2188H27.3438V51.4062H29.5312V49.2188Z" fill="white"/>
<path d="M22.9688 54.6875H20.7812V56.875H22.9688V54.6875Z" fill="white"/>
</svg>
