<svg width="70" height="70" viewBox="0 0 70 70" fill="none" xmlns="http://www.w3.org/2000/svg">
<path d="M59.0625 24.0625C59.0625 24.8171 59.6751 25.4297 60.4297 25.4297C61.1843 25.4297 61.7969 24.8171 61.7969 24.0625C61.7969 23.3079 61.1843 22.6953 60.4297 22.6953C59.6751 22.6953 59.0625 23.3079 59.0625 24.0625Z" fill="white"/>
<path d="M68.6328 28.1641H48.125V1.36719C48.125 0.61203 47.513 0 46.7578 0H4.10156C3.34641 0 2.73438 0.61203 2.73438 1.36719V26.7969C2.73438 27.552 3.34641 28.1641 4.10156 28.1641C4.85672 28.1641 5.46875 27.552 5.46875 26.7969V2.73438H45.3906V28.1641H42.6562V6.83594C42.6562 6.08078 42.0442 5.46875 41.2891 5.46875H9.57031C8.81516 5.46875 8.20312 6.08078 8.20312 6.83594V67.2656H5.46875V37.7344C5.46875 36.9792 4.85672 36.3672 4.10156 36.3672C3.34641 36.3672 2.73438 36.9792 2.73438 37.7344V67.2656H1.36719C0.61203 67.2656 0 67.8777 0 68.6328C0 69.388 0.61203 70 1.36719 70H49.4922C50.2473 70 50.8594 69.388 50.8594 68.6328C50.8594 67.8777 50.2473 67.2656 49.4922 67.2656H48.125V50.0391H68.6328C69.388 50.0391 70 49.427 70 48.6719V29.5312C70 28.7761 69.388 28.1641 68.6328 28.1641ZM10.9375 8.20312H39.9219V67.2656H10.9375V8.20312ZM45.3906 67.2656H42.6562V50.0391H45.3906V67.2656ZM67.2656 47.3047H42.6562V30.8984H67.2656V47.3047Z" fill="white"/>
<path d="M46.7578 36.3672C46.0027 36.3672 45.3906 36.9792 45.3906 37.7344V40.4688C45.3906 41.2239 46.0027 41.8359 46.7578 41.8359C47.513 41.8359 48.125 41.2239 48.125 40.4688V39.1016H50.8594V40.4688C50.8594 41.2239 51.4714 41.8359 52.2266 41.8359C52.9817 41.8359 53.5938 41.2239 53.5938 40.4688V39.1016H56.5631C57.1276 40.6931 58.6475 41.8359 60.4297 41.8359C62.6914 41.8359 64.5312 39.9961 64.5312 37.7344C64.5312 35.4726 62.6914 33.6328 60.4297 33.6328C58.6475 33.6328 57.1276 34.7757 56.5631 36.3672H46.7578ZM60.4297 36.3672C61.1838 36.3672 61.7969 36.9803 61.7969 37.7344C61.7969 38.4885 61.1838 39.1016 60.4297 39.1016C59.6756 39.1016 59.0625 38.4885 59.0625 37.7344C59.0625 36.9803 59.6756 36.3672 60.4297 36.3672Z" fill="white"/>
<path d="M66.7883 17.5107C67.2652 18.0944 68.1266 18.1825 68.7119 17.704C69.2967 17.226 69.3833 16.3651 68.9053 15.7803C66.816 13.2238 63.7265 11.7578 60.4298 11.7578C57.133 11.7578 54.0435 13.2238 51.9543 15.7803C51.4763 16.3651 51.5628 17.226 52.1476 17.704C52.7324 18.182 53.5938 18.0955 54.0713 17.5107C55.6393 15.5924 57.9566 14.4922 60.4298 14.4922C62.903 14.4922 65.2203 15.5924 66.7883 17.5107Z" fill="white"/>
<path d="M62.7642 21.2742C63.1562 21.9151 63.9963 22.1233 64.6441 21.7276C65.2882 21.3335 65.4911 20.4923 65.097 19.8477C64.0935 18.2066 62.3487 17.2266 60.4293 17.2266C58.5099 17.2266 56.7652 18.2066 55.7617 19.8483C55.3675 20.4923 55.5705 21.3335 56.2146 21.7276C56.8592 22.1212 57.7003 21.9183 58.0944 21.2742C58.5975 20.4517 59.4702 19.9609 60.4293 19.9609C61.3885 19.9609 62.2612 20.4517 62.7642 21.2742Z" fill="white"/>
<path d="M25.4297 14.4922C23.168 14.4922 21.3281 16.332 21.3281 18.5938C21.3281 20.8555 23.168 22.6953 25.4297 22.6953C27.6914 22.6953 29.5312 20.8555 29.5312 18.5938C29.5312 16.332 27.6914 14.4922 25.4297 14.4922ZM25.4297 19.9609C24.6756 19.9609 24.0625 19.3478 24.0625 18.5938C24.0625 17.8397 24.6756 17.2266 25.4297 17.2266C26.1838 17.2266 26.7969 17.8397 26.7969 18.5938C26.7969 19.3478 26.1838 19.9609 25.4297 19.9609Z" fill="white"/>
<path d="M35.8203 36.3672C35.0652 36.3672 34.4531 36.9792 34.4531 37.7344V43.2031C34.4531 43.9583 35.0652 44.5703 35.8203 44.5703C36.5755 44.5703 37.1875 43.9583 37.1875 43.2031V37.7344C37.1875 36.9792 36.5755 36.3672 35.8203 36.3672Z" fill="white"/>
<path d="M4.10156 33.6328C4.85619 33.6328 5.46875 33.0202 5.46875 32.2656C5.46875 31.511 4.85619 30.8984 4.10156 30.8984C3.34694 30.8984 2.73438 31.511 2.73438 32.2656C2.73438 33.0202 3.34694 33.6328 4.10156 33.6328Z" fill="white"/>
</svg>
