<svg width="60" height="60" viewBox="0 0 60 60" fill="none" xmlns="http://www.w3.org/2000/svg">
<path d="M30 42.4219C29.0292 42.4219 28.2422 43.2089 28.2422 44.1797V47.6953C28.2422 48.6661 29.0292 49.4531 30 49.4531C30.9708 49.4531 31.7578 48.6661 31.7578 47.6953V44.1797C31.7578 43.2089 30.9708 42.4219 30 42.4219Z" fill="#C63E34"/>
<path d="M30 52.9688C29.0292 52.9688 28.2422 53.7558 28.2422 54.7266V58.2422C28.2422 59.213 29.0292 60 30 60C30.9708 60 31.7578 59.213 31.7578 58.2422V54.7266C31.7578 53.7558 30.9708 52.9688 30 52.9688Z" fill="#C63E34"/>
<path d="M38.2741 42.9368C37.5879 42.2503 36.4748 42.2504 35.7882 42.9368C35.1018 43.6233 35.1018 44.7362 35.7882 45.4227L38.2741 47.9086C38.9605 48.5951 40.0734 48.5951 40.76 47.9086C41.4465 47.2221 41.4465 46.1092 40.76 45.4227L38.2741 42.9368Z" fill="#C63E34"/>
<path d="M45.732 50.3945C45.0457 49.7081 43.9327 49.708 43.2461 50.3945C42.5596 51.0809 42.5596 52.1939 43.2461 52.8804L45.732 55.3663C46.4183 56.0527 47.5313 56.0527 48.2179 55.3663C48.9044 54.6798 48.9044 53.5668 48.2179 52.8804L45.732 50.3945Z" fill="#C63E34"/>
<path d="M21.7259 42.9368L19.24 45.4227C18.5535 46.1092 18.5535 47.2222 19.24 47.9086C19.9263 48.595 21.0394 48.5951 21.7259 47.9086L24.2118 45.4227C24.8982 44.7363 24.8982 43.6233 24.2118 42.9368C23.5253 42.2504 22.4122 42.2502 21.7259 42.9368Z" fill="#C63E34"/>
<path d="M14.2681 50.3944L11.7822 52.8803C11.0957 53.5668 11.0957 54.6798 11.7822 55.3662C12.4685 56.0526 13.5816 56.0527 14.2681 55.3662L16.754 52.8803C17.4405 52.1939 17.4405 51.0809 16.754 50.3944C16.0675 49.708 14.9544 49.708 14.2681 50.3944Z" fill="#C63E34"/>
<path d="M58.2422 0H1.75781C0.787031 0 0 0.787031 0 1.75781C0 2.72859 0.787031 3.51562 1.75781 3.51562H14.1797V8.78906C14.1797 9.75984 14.9667 10.5469 15.9375 10.5469H17.6953V16.0547C17.6953 20.2991 20.7197 23.8502 24.7266 24.6669V28.6617C22.6806 29.3873 21.2109 31.3412 21.2109 33.6328V37.1484C21.2109 38.1192 21.998 38.9062 22.9688 38.9062H37.0312C38.002 38.9062 38.7891 38.1192 38.7891 37.1484V33.6328C38.7891 31.3412 37.3194 29.3873 35.2734 28.6617V24.6669C39.2803 23.8504 42.3047 20.2992 42.3047 16.0547V10.5469H44.0625C45.0333 10.5469 45.8203 9.75984 45.8203 8.78906V3.51562H58.2422C59.213 3.51562 60 2.72859 60 1.75781C60 0.787031 59.213 0 58.2422 0ZM21.2109 16.0547V10.5469H28.2422V17.8125H26.4844C25.5136 17.8125 24.7266 18.5995 24.7266 19.5703V21.0258C22.6806 20.3002 21.2109 18.3463 21.2109 16.0547ZM31.7578 28.3594H28.2422V21.3281H31.7578V28.3594ZM35.2734 35.3906H24.7266V33.6328C24.7266 32.6636 25.5151 31.875 26.4844 31.875H33.5156C34.4849 31.875 35.2734 32.6636 35.2734 33.6328V35.3906ZM38.7891 16.0547C38.7891 18.3463 37.3194 20.3002 35.2734 21.0258V19.5703C35.2734 18.5995 34.4864 17.8125 33.5156 17.8125H31.7578V10.5469H38.7891V16.0547ZM42.3047 7.03125H17.6953V3.51562H42.3047V7.03125Z" fill="#C63E34"/>
</svg>
