<svg width="60" height="60" viewBox="0 0 60 60" fill="none" xmlns="http://www.w3.org/2000/svg">
<path d="M36.6797 30.5077V0H3.16406V44.0236H13.9673C16.5399 53.2283 25.0012 60 35.0157 60C47.0641 60 56.8666 50.1974 56.8666 38.1487V30.5077H36.6797ZM53.351 38.1487C53.351 48.2593 45.1259 56.4844 35.0153 56.4844C24.9051 56.4844 16.68 48.2588 16.68 38.1487V34.0233H53.351V38.1487ZM13.1644 40.508H6.67969V34.0237H13.1644V40.508ZM6.67969 3.51562H33.1641V10.5075H6.67969V3.51562ZM33.1641 20.5078H26.6798V14.0231H33.1641V20.5078ZM16.68 30.5077V24.0234H23.1642V30.5077H16.68ZM23.1642 20.5078H16.68V14.0231H23.1642V20.5078ZM26.6798 30.5077V24.0234H33.1641V30.5077H26.6798ZM6.67969 14.0231H13.1644V20.5078H6.67969V14.0231ZM6.67969 24.0234H13.1644V30.5077H6.67969V24.0234Z" fill="#C63E34"/>
<path d="M21.5739 38.0562L21.866 40.0667C22.3206 43.1941 23.8902 46.0679 26.2862 48.1595C28.7064 50.2725 31.8063 51.4361 35.0153 51.4361C38.2242 51.4361 41.3242 50.2725 43.7448 48.1595C46.1407 46.0679 47.7104 43.1941 48.1645 40.0667L48.4566 38.0562H21.5739ZM25.8636 41.5718H44.1673C42.7615 45.3021 39.1301 47.9205 35.0153 47.9205C30.9004 47.9205 27.2694 45.3021 25.8636 41.5718Z" fill="#C63E34"/>
</svg>
