<svg width="60" height="60" viewBox="0 0 60 60" fill="none" xmlns="http://www.w3.org/2000/svg">
<g clip-path="url(#clip0)">
<path d="M51.8216 31.0661C52.5737 30.1881 53.0283 29.0488 53.0283 27.805C53.0283 25.0374 50.777 22.7861 48.0093 22.7861H47.5854V20.137C50.9468 18.0418 52.9921 14.3953 52.9921 10.3761C52.9921 5.90744 50.4538 1.91162 46.4676 0L43.3795 2.11945V7.70645L41.4587 8.98727L39.5792 7.78702V2.11945L36.4911 0C32.5044 1.91162 29.9666 5.90744 29.9666 10.3761C29.9666 12.2717 30.4221 14.0845 31.2556 15.6903L23.6462 26.0472H20.8585V23.8728H6.91406V51.3039H20.8585V49.1295H24.6822L26.8565 52.3906H35.3732V53.8939C35.3732 57.2607 38.1125 60 41.4793 60C44.8462 60 47.585 57.2607 47.585 53.8939V52.3906H48.0093C50.7765 52.3906 53.0283 50.1393 53.0283 47.3717C53.0283 46.1279 52.5732 44.9886 51.8211 44.1106C52.5732 43.233 53.0283 42.0932 53.0283 40.8495C53.0283 39.6057 52.5732 38.4659 51.8211 37.5883C52.5732 36.7104 53.0283 35.571 53.0283 34.3272C53.0283 33.0835 52.5737 31.9437 51.8216 31.0661ZM48.0093 48.875H28.7379L26.564 45.6139H20.8585V29.5628H25.4256L33.4529 18.6369C33.9139 19.0828 34.4147 19.4925 34.953 19.861C35.0908 19.9553 35.2304 20.0482 35.3732 20.137V22.7861H32.9398V26.3017H48.0093C48.8383 26.3017 49.5126 26.976 49.5126 27.805C49.5126 28.634 48.8383 29.3083 48.0093 29.3083H41.9289V32.8239H48.0093C48.8383 32.8239 49.5126 33.4982 49.5126 34.3272C49.5126 35.1562 48.8383 35.8305 48.0093 35.8305H41.9289V39.3462H48.0093C48.8383 39.3462 49.5126 40.0204 49.5126 40.8495C49.5126 41.6785 48.8383 42.3528 48.0093 42.3528H41.9289V45.8684H48.0093C48.8383 45.8684 49.5126 46.5427 49.5126 47.3717C49.5126 48.2007 48.8383 48.875 48.0093 48.875ZM41.4793 56.4844C40.0507 56.4844 38.8889 55.3221 38.8889 53.8939V52.3906H44.0698V53.8939C44.0698 55.3221 42.9076 56.4844 41.4793 56.4844ZM10.4297 47.7878V27.3885H17.3428V47.7878H10.4297ZM33.4822 10.3761C33.4822 8.08273 34.444 5.96786 36.0631 4.48425V9.71375L41.4999 13.185L46.8951 9.58832V4.48425C48.5143 5.96786 49.476 8.08273 49.476 10.3761C49.476 13.428 47.7773 16.171 45.0426 17.5356L44.0694 18.0208V22.7856H38.8889V18.0208L37.9156 17.5356C35.181 16.171 33.4822 13.428 33.4822 10.3761Z" fill="#C63E34"/>
</g>
<defs>
<clipPath id="clip0">
<rect width="60" height="60" fill="white"/>
</clipPath>
</defs>
</svg>
