<svg width="40" height="40" viewBox="0 0 40 40" fill="none" xmlns="http://www.w3.org/2000/svg">
<path d="M18.6667 9.33325C18.9093 11.0833 19.258 12.4646 20.3213 13.6559C21.6633 15.1599 23.3333 17.4733 23.3333 19.6666C23.3333 22.7959 20.796 25.3333 17.6667 25.3333C14.5373 25.3333 12 22.7959 12 19.6666C12 17.3333 13.3333 11.3333 18.6667 9.33325Z" stroke="#6A6A6C" stroke-width="1.5" stroke-miterlimit="10"/>
<path d="M18.6667 9.33325C16.4307 12.0693 16 13.2079 16 15.3333C16 17.9999 18.6667 19.3333 18.6667 21.9999C18.6667 23.9999 18.0047 25.3233 18.0047 25.3233" stroke="#6A6A6C" stroke-width="1.5" stroke-miterlimit="10"/>
<path d="M14.207 18.21C14.7884 18.8 15.349 19.3333 16.6664 19.3333H17.7677" stroke="#6A6A6C" stroke-width="1.5" stroke-miterlimit="10"/>
<path d="M18.667 21.9999C18.667 20.4792 19.4377 19.3439 19.807 18.8872" stroke="#6A6A6C" stroke-width="1.5" stroke-miterlimit="10"/>
<path d="M11.4833 7.62442C13.1913 6.59309 15.1927 5.99976 17.3333 5.99976C23.5927 5.99976 28.6667 11.0738 28.6667 17.3331C28.6667 23.5924 23.5927 28.6664 17.3333 28.6664C11.074 28.6664 6 23.5924 6 17.3331C6 15.1891 6.59533 13.1844 7.62933 11.4751" stroke="#6A6A6C" stroke-width="1.5" stroke-miterlimit="10"/>
<path d="M8.88965 9.77331C9.16632 9.46398 9.46032 9.16998 9.76965 8.89331" stroke="#6A6A6C" stroke-width="1.5" stroke-miterlimit="10"/>
<path d="M17.3337 31.9998C25.4338 31.9998 32.0003 25.4333 32.0003 17.3332C32.0003 9.233 25.4338 2.6665 17.3337 2.6665C9.23348 2.6665 2.66699 9.233 2.66699 17.3332C2.66699 25.4333 9.23348 31.9998 17.3337 31.9998Z" stroke="#6A6A6C" stroke-width="1.5" stroke-miterlimit="10"/>
<path d="M3.25098 7.22593C4.66231 5.26326 6.47364 3.60726 8.56631 2.37793" stroke="#6A6A6C" stroke-width="1.5" stroke-miterlimit="10"/>
<path d="M1.68457 9.86997C1.85924 9.50463 2.0459 9.14663 2.24457 8.79663" stroke="#6A6A6C" stroke-width="1.5" stroke-miterlimit="10"/>
<path d="M25.0752 29.7899L32.3085 37.0233C32.9119 37.6266 33.7452 37.9999 34.6659 37.9999C36.5065 37.9999 37.9992 36.5073 37.9992 34.6666C37.9992 33.7459 37.6259 32.9126 37.0232 32.3093L29.7899 25.0759" stroke="#6A6A6C" stroke-width="1.5" stroke-miterlimit="10"/>
<path d="M36.3519 27.6861L32.9639 24.2981" stroke="#6A6A6C" stroke-width="1.5" stroke-miterlimit="10"/>
<path d="M38.3952 29.7292L37.6152 28.9492" stroke="#6A6A6C" stroke-width="1.5" stroke-miterlimit="10"/>
<path d="M35.3333 0.666504H34V1.99984H35.3333V0.666504Z" fill="#6A6A6C"/>
<path d="M38.0003 2H36.667V3.33333H38.0003V2Z" fill="#6A6A6C"/>
<path d="M31.3333 4.66675H30V6.00008H31.3333V4.66675Z" fill="#6A6A6C"/>
<path d="M39.3333 4.6665H38V5.99984H39.3333V4.6665Z" fill="#6A6A6C"/>
<path d="M35.3333 8.66675H34V10.0001H35.3333V8.66675Z" fill="#6A6A6C"/>
<path d="M32.6673 7.33325H31.334V8.66658H32.6673V7.33325Z" fill="#6A6A6C"/>
<path d="M38.0003 7.33325H36.667V8.66659H38.0003V7.33325Z" fill="#6A6A6C"/>
<path d="M32.6673 2H31.334V3.33333H32.6673V2Z" fill="#6A6A6C"/>
<path d="M16.6663 34H15.333V35.3333H16.6663V34Z" fill="#6A6A6C"/>
<path d="M24.6663 34H23.333V35.3333H24.6663V34Z" fill="#6A6A6C"/>
<path d="M20.6663 38H19.333V39.3333H20.6663V38Z" fill="#6A6A6C"/>
<path d="M18.0003 36.6667H16.667V38.0001H18.0003V36.6667Z" fill="#6A6A6C"/>
<path d="M23.3333 36.6667H22V38.0001H23.3333V36.6667Z" fill="#6A6A6C"/>
<path d="M2.00033 29.3335H0.666992V30.6668H2.00033V29.3335Z" fill="#6A6A6C"/>
<path d="M6.00033 33.3333H4.66699V34.6666H6.00033V33.3333Z" fill="#6A6A6C"/>
<path d="M3.33333 32H2V33.3333H3.33333V32Z" fill="#6A6A6C"/>
<path d="M8.66732 32H7.33398V33.3333H8.66732V32Z" fill="#6A6A6C"/>
<path d="M3.33333 26.6667H2V28.0001H3.33333V26.6667Z" fill="#6A6A6C"/>
</svg>
