<svg width="40" height="40" viewBox="0 0 40 40" fill="none" xmlns="http://www.w3.org/2000/svg">
<path d="M16.0007 12.6669C16.0007 13.9256 16.226 15.1302 16.6273 16.2509C16.6493 16.3129 16.6667 16.3762 16.6673 16.4396C16.6687 16.5842 16.608 16.7262 16.502 16.8322L4.27798 29.0562C3.67332 29.6609 3.33398 30.4789 3.33398 31.3336C3.33398 32.1876 3.67398 33.0069 4.27798 33.6109L5.72532 35.0582C6.32865 35.6616 7.14665 36.0002 8.00065 36.0002C8.85398 36.0002 9.67332 35.6609 10.2767 35.0576L22.5007 22.8336C22.6053 22.7289 22.7427 22.6669 22.8847 22.6669C22.9513 22.6669 23.0193 22.6836 23.0847 22.7076C24.2053 23.1089 25.4093 23.3336 26.6673 23.3336C32.558 23.3336 37.334 18.5582 37.334 12.6669C37.334 11.0436 36.964 9.50891 36.314 8.13224C36.2733 8.04558 36.1873 8.00024 36.1007 8.00024C36.0407 8.00024 35.9793 8.02158 35.9327 8.06891L30.0007 14.0002L25.334 9.33358L31.2653 3.40224C31.3127 3.35491 31.334 3.29424 31.334 3.23358C31.334 3.14691 31.2887 3.06091 31.202 3.02024C29.8253 2.37024 28.2913 2.00024 26.6673 2.00024C20.7767 2.00024 16.0007 6.77558 16.0007 12.6669V12.6669Z" stroke="#6A6A6C" stroke-width="1.5" stroke-miterlimit="10"/>
<path d="M18.4016 30.9326L12.5529 36.7813C11.3456 37.9886 9.70826 38.6666 8.00093 38.6666C6.29359 38.6666 4.65626 37.9886 3.44893 36.7813L2.93359 36.266" stroke="#6A6A6C" stroke-width="1.5" stroke-miterlimit="10"/>
<path d="M20.2666 29.0673L22.4013 26.9326" stroke="#6A6A6C" stroke-width="1.5" stroke-miterlimit="10"/>
<path d="M13.334 12.6667C13.334 9.42604 14.49 6.45538 16.4126 4.14404" stroke="#6A6A6C" stroke-width="1.5" stroke-miterlimit="10"/>
<path d="M18.1289 2.42544C18.4836 2.12944 18.8536 1.85144 19.2382 1.59277" stroke="#6A6A6C" stroke-width="1.5" stroke-miterlimit="10"/>
<path d="M19.6026 16.4226C19.006 15.3026 18.668 14.024 18.668 12.6666C18.668 11.3093 19.006 10.0306 19.6026 8.91064" stroke="#6A6A6C" stroke-width="1.5" stroke-miterlimit="10"/>
<path d="M9.33333 27.3333H8V28.6666H9.33333V27.3333Z" fill="#6A6A6C"/>
<path d="M7.33431 29.3335H6.00098V30.6668H7.33431V29.3335Z" fill="#6A6A6C"/>
<path d="M11.3333 25.3333H10V26.6666H11.3333V25.3333Z" fill="#6A6A6C"/>
<path d="M8.00033 19.3333H6.66699V20.6666H8.00033V19.3333Z" fill="#6A6A6C"/>
<path d="M4.00033 15.3335H2.66699V16.6668H4.00033V15.3335Z" fill="#6A6A6C"/>
<path d="M11.9993 15.3335H10.666V16.6668H11.9993V15.3335Z" fill="#6A6A6C"/>
<path d="M8.00033 11.3333H6.66699V12.6666H8.00033V11.3333Z" fill="#6A6A6C"/>
<path d="M5.33236 12.6667H3.99902V14.0001H5.33236V12.6667Z" fill="#6A6A6C"/>
<path d="M10.6673 12.6667H9.33398V14.0001H10.6673V12.6667Z" fill="#6A6A6C"/>
<path d="M5.33236 18H3.99902V19.3333H5.33236V18Z" fill="#6A6A6C"/>
<path d="M10.6673 18H9.33398V19.3333H10.6673V18Z" fill="#6A6A6C"/>
<path d="M32.6673 29.3335H31.334V30.6668H32.6673V29.3335Z" fill="#6A6A6C"/>
<path d="M28.6663 25.3335H27.333V26.6668H28.6663V25.3335Z" fill="#6A6A6C"/>
<path d="M36.6663 25.3335H35.333V26.6668H36.6663V25.3335Z" fill="#6A6A6C"/>
<path d="M35.3324 22.6667H33.999V24.0001H35.3324V22.6667Z" fill="#6A6A6C"/>
<path d="M29.9993 28H28.666V29.3333H29.9993V28Z" fill="#6A6A6C"/>
<path d="M35.3324 28H33.999V29.3333H35.3324V28Z" fill="#6A6A6C"/>
</svg>
