<svg width="42" height="42" viewBox="0 0 42 42" fill="none" xmlns="http://www.w3.org/2000/svg">
<path d="M33.95 38.5001H8.3258C7.3346 38.5001 6.4778 37.8064 6.272 36.8369L3.528 23.9303C3.5091 23.8435 3.5 23.7553 3.5 23.6671C3.5 22.9671 4.067 22.4001 4.767 22.4001H14" stroke="#6A6A6C" stroke-width="1.5" stroke-miterlimit="10"/>
<path d="M15.4004 22.4001H18.808C19.2994 22.4001 19.7551 22.1425 20.0085 21.7204L21.2937 19.5791C21.5464 19.1577 22.0021 18.9001 22.4942 18.9001H37.2306C37.932 18.9001 38.5004 19.4685 38.5004 20.1699C38.5004 20.2567 38.4913 20.3428 38.4738 20.4275L33.6004 38.8501" stroke="#6A6A6C" stroke-width="1.5" stroke-miterlimit="10"/>
<path d="M32.9004 16.8001V2.1001H14.7004L8.40039 8.4001V20.3001" stroke="#6A6A6C" stroke-width="1.5" stroke-miterlimit="10"/>
<path d="M14.7004 2.1001V8.4001H8.40527" stroke="#6A6A6C" stroke-width="1.5" stroke-miterlimit="10"/>
<path d="M17.5 8.40015H23.1" stroke="#6A6A6C" stroke-width="1.5" stroke-miterlimit="10"/>
<path d="M24.5 8.40015H27.3" stroke="#6A6A6C" stroke-width="1.5" stroke-miterlimit="10"/>
<path d="M11.2002 15.4001H17.5002" stroke="#6A6A6C" stroke-width="1.5" stroke-miterlimit="10"/>
<path d="M11.2002 11.9001H30.1002" stroke="#6A6A6C" stroke-width="1.5" stroke-miterlimit="10"/>
<path d="M18.9004 15.4001H20.3004" stroke="#6A6A6C" stroke-width="1.5" stroke-miterlimit="10"/>
</svg>
