<svg width="42" height="42" viewBox="0 0 42 42" fill="none" xmlns="http://www.w3.org/2000/svg">
<g clip-path="url(#clip0_111_1245)">
<path d="M24.5 2.1001V8.4001H30.8" stroke="#6A6A6C" stroke-width="1.5" stroke-miterlimit="10"/>
<path d="M9.80078 29.4001H12.6008" stroke="#6A6A6C" stroke-width="1.5" stroke-miterlimit="10"/>
<path d="M30.8047 14.0037L35.536 20.3128C36.5517 21.668 37.1012 23.3158 37.1012 25.0091C37.1012 25.6013 37.034 26.1921 36.901 26.7689L35.1804 34.2239C35.0614 34.7398 35.0012 35.2676 35.0012 35.7975V37.8002" stroke="#6A6A6C" stroke-width="1.5" stroke-miterlimit="10"/>
<path d="M37.1 42V39.2C37.1 38.4265 36.4735 37.8 35.7 37.8H25.9C25.1265 37.8 24.5 38.4265 24.5 39.2V42" stroke="#6A6A6C" stroke-width="1.5" stroke-miterlimit="10"/>
<path d="M27.9996 39.8999H26.5996V41.2999H27.9996V39.8999Z" fill="#6A6A6C"/>
<path d="M24.8578 32.9001H6.30078V2.1001H24.5008L30.8057 8.4001L30.8008 21.0001" stroke="#6A6A6C" stroke-width="1.5" stroke-miterlimit="10"/>
<path d="M30.8004 20.3001V28.0001C29.1316 28.0001 28.3616 27.2343 28.0186 26.1178L26.5017 21.0988C26.2427 20.2343 25.4496 19.6001 24.5004 19.6001C23.3405 19.6001 22.4004 20.5402 22.4004 21.7001C22.4004 21.9108 22.441 22.1096 22.4984 22.3014L24.2519 27.9049C24.4087 28.4075 24.5004 28.8737 24.5004 29.4001C24.5004 32.0433 24.8294 33.9277 26.2245 35.3494C26.4716 35.6014 26.6004 35.9479 26.6004 36.3014V37.8001" stroke="#6A6A6C" stroke-width="1.5" stroke-miterlimit="10"/>
<path d="M14 29.4001H15.4" stroke="#6A6A6C" stroke-width="1.5" stroke-miterlimit="10"/>
</g>
<defs>
<clipPath id="clip0_111_1245">
<rect width="42" height="42" fill="white"/>
</clipPath>
</defs>
</svg>
