<svg width="42" height="42" viewBox="0 0 42 42" fill="none" xmlns="http://www.w3.org/2000/svg">
<path d="M7.7002 10.4999C13.3744 10.4999 18.329 8.6848 21.0002 5.9856C23.6714 8.6848 28.626 10.4999 34.3002 10.4999V23.4632C34.3002 26.7602 32.7511 29.8661 30.1177 31.8499L21.0002 38.7183L11.8827 31.8506C9.2493 29.8668 7.7002 26.7609 7.7002 23.4632V10.4999Z" stroke="#6A6A6C" stroke-width="1.5" stroke-miterlimit="10"/>
<path d="M31.5004 21V23.1112C31.5004 25.7488 30.2614 28.2338 28.1544 29.8207L22.6846 33.9409" stroke="#6A6A6C" stroke-width="1.5" stroke-miterlimit="10"/>
<path d="M0.700195 21H4.2002" stroke="#6A6A6C" stroke-width="1.5" stroke-miterlimit="10"/>
<path d="M11.9 18.2H10.5V19.6H11.9V18.2Z" fill="#6A6A6C"/>
<path d="M11.9 21H10.5V22.4H11.9V21Z" fill="#6A6A6C"/>
<path d="M11.9 23.8H10.5V25.2001H11.9V23.8Z" fill="#6A6A6C"/>
<path d="M15.5598 3.98169L14.4482 0.919189" stroke="#6A6A6C" stroke-width="1.5" stroke-miterlimit="10"/>
<path d="M6.10303 32.5613L3.61523 34.0614" stroke="#6A6A6C" stroke-width="1.5" stroke-miterlimit="10"/>
<path d="M5.26085 9.43899L2.40625 7.39429" stroke="#6A6A6C" stroke-width="1.5" stroke-miterlimit="10"/>
<path d="M15.56 38.0193L14.5156 41.0139" stroke="#6A6A6C" stroke-width="1.5" stroke-miterlimit="10"/>
<path d="M41.2998 21H37.7998" stroke="#6A6A6C" stroke-width="1.5" stroke-miterlimit="10"/>
<path d="M26.4395 3.98169L27.5511 0.919189" stroke="#6A6A6C" stroke-width="1.5" stroke-miterlimit="10"/>
<path d="M35.8965 32.5613L38.3843 34.0614" stroke="#6A6A6C" stroke-width="1.5" stroke-miterlimit="10"/>
<path d="M36.7383 9.43899L39.5936 7.39429" stroke="#6A6A6C" stroke-width="1.5" stroke-miterlimit="10"/>
<path d="M26.4395 38.0193L27.4839 41.0139" stroke="#6A6A6C" stroke-width="1.5" stroke-miterlimit="10"/>
<path d="M31.5 19.6V17.5" stroke="#6A6A6C" stroke-width="1.5" stroke-miterlimit="10"/>
</svg>
