<svg width="41" height="39" viewBox="0 0 41 39" fill="none" xmlns="http://www.w3.org/2000/svg">
<path d="M32.1504 11.5C35.0499 11.5 37.4004 9.1495 37.4004 6.25C37.4004 3.35051 35.0499 1 32.1504 1C29.2509 1 26.9004 3.35051 26.9004 6.25C26.9004 9.1495 29.2509 11.5 32.1504 11.5Z" stroke="#6A6A6C" stroke-width="1.5" stroke-miterlimit="10"/>
<path d="M35.3008 10.4507V13.6" stroke="#6A6A6C" stroke-width="1.5" stroke-miterlimit="10"/>
<path d="M35.3 15V18.5L32.15 16.4L29 18.5V10.4507" stroke="#6A6A6C" stroke-width="1.5" stroke-miterlimit="10"/>
<path d="M24.7264 5.9617L19.6346 4.0514C17.9581 3.4221 16.1822 3.1001 14.3916 3.1001C12.4813 3.1001 10.5885 3.4669 8.81682 4.1809L5.19922 5.6376V18.9929" stroke="#6A6A6C" stroke-width="1.5" stroke-miterlimit="10"/>
<path d="M18.3281 27.4264C18.7726 27.5475 19.2115 27.6896 19.6434 27.852L25.7649 30.1487C27.4414 30.778 29.2173 31.1 31.0079 31.1C32.9182 31.1 34.811 30.7332 36.5827 30.0192L40.2003 28.5625V4.5" stroke="#6A6A6C" stroke-width="1.5" stroke-miterlimit="10"/>
<path d="M10.1148 21.0425L3.80078 22.2577V25.666L12.2008 23.9342V20.6001" stroke="#6A6A6C" stroke-width="1.5" stroke-miterlimit="10"/>
<path d="M14.0613 17.1001C13.9948 17.1001 13.9283 17.1071 13.8632 17.1211L2.1046 19.6614C1.4599 19.8007 1 20.3705 1 21.0299V26.5557C1 27.2291 1.2429 27.8801 1.6839 28.3897L9.3559 37.2419C9.8284 37.7865 10.5144 38.1001 11.2361 38.1001C11.4111 38.1001 11.5861 38.0819 11.7576 38.0448L23.9264 35.438C24.436 35.3288 24.8 34.8787 24.8 34.3579C24.8 34.0646 24.6838 33.7839 24.4766 33.5767L15.8204 24.9205C15.2947 24.3948 15 23.6829 15 22.9402V18.0388C15 17.5201 14.58 17.1001 14.0613 17.1001V17.1001Z" stroke="#6A6A6C" stroke-width="1.5" stroke-miterlimit="10"/>
<path d="M12.7464 34.3159L10.8438 34.7023" stroke="#6A6A6C" stroke-width="1.5" stroke-miterlimit="10"/>
<path d="M16.3342 33.5403L14.4316 33.9267" stroke="#6A6A6C" stroke-width="1.5" stroke-miterlimit="10"/>
<path d="M19.8349 32.7842L17.9316 33.1706" stroke="#6A6A6C" stroke-width="1.5" stroke-miterlimit="10"/>
<path d="M10.6467 31.5557L8.74414 31.9421" stroke="#6A6A6C" stroke-width="1.5" stroke-miterlimit="10"/>
<path d="M14.2346 30.7808L12.332 31.1672" stroke="#6A6A6C" stroke-width="1.5" stroke-miterlimit="10"/>
<path d="M17.7353 30.0242L15.832 30.4106" stroke="#6A6A6C" stroke-width="1.5" stroke-miterlimit="10"/>
<path d="M7.85838 28.7229L5.95508 29.1093" stroke="#6A6A6C" stroke-width="1.5" stroke-miterlimit="10"/>
<path d="M11.4463 27.948L9.54297 28.3344" stroke="#6A6A6C" stroke-width="1.5" stroke-miterlimit="10"/>
<path d="M14.9463 27.1919L13.043 27.5783" stroke="#6A6A6C" stroke-width="1.5" stroke-miterlimit="10"/>
<path d="M30.8899 4.14795C30.1766 4.57635 29.6992 5.35755 29.6992 6.25005C29.6992 6.33895 29.7041 6.42715 29.7132 6.51395" stroke="#6A6A6C" stroke-width="1.5" stroke-miterlimit="10"/>
</svg>
