<svg width="65" height="65" viewBox="0 0 65 65" fill="none" xmlns="http://www.w3.org/2000/svg">
<g clip-path="url(#clip0)">
<path d="M52.4375 0.03125H11.2708C10.9835 0.03125 10.708 0.145387 10.5048 0.348551C10.3016 0.551715 10.1875 0.827266 10.1875 1.11458V58.5313C10.1875 58.6901 10.2224 58.8469 10.2897 58.9908C10.3571 59.1346 10.4552 59.2618 10.5772 59.3635C10.855 59.5949 17.5432 65.0312 31.8542 65.0312C46.1651 65.0312 52.8534 59.5949 53.1311 59.3635C53.2531 59.2618 53.3512 59.1346 53.4186 58.9908C53.4859 58.8469 53.5208 58.6901 53.5208 58.5313V1.11458C53.5208 0.827266 53.4067 0.551715 53.2035 0.348551C53.0004 0.145387 52.7248 0.03125 52.4375 0.03125ZM51.3542 57.9867C49.7921 59.0737 43.5069 62.8646 31.8542 62.8646C20.2598 62.8646 13.925 59.0668 12.3542 57.9838V2.19792H51.3542V57.9867Z" fill="#C63E34"/>
<path d="M18.8545 27.1146H44.8545C45.7162 27.1136 46.5422 26.7709 47.1515 26.1616C47.7608 25.5523 48.1035 24.7263 48.1045 23.8646V8.69794C48.1035 7.83628 47.7608 7.01019 47.1515 6.40091C46.5422 5.79163 45.7162 5.4489 44.8545 5.44794H18.8545C17.9928 5.4489 17.1667 5.79163 16.5575 6.40091C15.9482 7.01019 15.6055 7.83628 15.6045 8.69794V23.8646C15.6055 24.7263 15.9482 25.5523 16.5575 26.1616C17.1667 26.7709 17.9928 27.1136 18.8545 27.1146ZM17.7712 8.69794C17.7715 8.41072 17.8857 8.13536 18.0888 7.93226C18.2919 7.72917 18.5673 7.61493 18.8545 7.6146H44.8545C45.1417 7.61493 45.4171 7.72917 45.6202 7.93226C45.8233 8.13536 45.9375 8.41072 45.9378 8.69794V23.8646C45.9375 24.1518 45.8233 24.4272 45.6202 24.6303C45.4171 24.8334 45.1417 24.9476 44.8545 24.9479H18.8545C18.5673 24.9476 18.2919 24.8334 18.0888 24.6303C17.8857 24.4272 17.7715 24.1518 17.7712 23.8646V8.69794Z" fill="#C63E34"/>
<path d="M19.9375 30.3646H22.1042V36.8646H19.9375V30.3646Z" fill="#C63E34"/>
<path d="M24.2705 30.3646H26.4372V36.8646H24.2705V30.3646Z" fill="#C63E34"/>
<path d="M28.6045 30.3646H30.7712V36.8646H28.6045V30.3646Z" fill="#C63E34"/>
<path d="M32.9375 30.3646H35.1042V36.8646H32.9375V30.3646Z" fill="#C63E34"/>
<path d="M37.2705 30.3646H39.4372V36.8646H37.2705V30.3646Z" fill="#C63E34"/>
<path d="M41.6045 30.3646H43.7712V36.8646H41.6045V30.3646Z" fill="#C63E34"/>
<path d="M40.5208 40.1146H23.1875C22.3259 40.1156 21.4998 40.4583 20.8905 41.0676C20.2812 41.6769 19.9385 42.5029 19.9375 43.3646V49.8646C19.9385 50.7262 20.2812 51.5523 20.8905 52.1616C21.4998 52.7708 22.3259 53.1136 23.1875 53.1146H40.5208C41.3825 53.1136 42.2085 52.7708 42.8178 52.1616C43.4271 51.5523 43.7698 50.7262 43.7708 49.8646V43.3646C43.7698 42.5029 43.4271 41.6769 42.8178 41.0676C42.2085 40.4583 41.3825 40.1156 40.5208 40.1146ZM41.6042 49.8646C41.6038 50.1518 41.4896 50.4271 41.2865 50.6302C41.0834 50.8333 40.8081 50.9476 40.5208 50.9479H23.1875C22.9003 50.9476 22.6249 50.8333 22.4218 50.6302C22.2187 50.4271 22.1045 50.1518 22.1042 49.8646V43.3646C22.1045 43.0773 22.2187 42.802 22.4218 42.5989C22.6249 42.3958 22.9003 42.2816 23.1875 42.2812H40.5208C40.8081 42.2816 41.0834 42.3958 41.2865 42.5989C41.4896 42.802 41.6038 43.0773 41.6042 43.3646V49.8646Z" fill="#C63E34"/>
<path d="M24.2705 45.5312H26.4372V47.6979H24.2705V45.5312Z" fill="#C63E34"/>
<path d="M28.6045 45.5312H30.7712V47.6979H28.6045V45.5312Z" fill="#C63E34"/>
<path d="M32.9375 45.5312H35.1042V47.6979H32.9375V45.5312Z" fill="#C63E34"/>
<path d="M37.2705 45.5312H39.4372V47.6979H37.2705V45.5312Z" fill="#C63E34"/>
<path d="M30.7705 56.3646H32.9372V59.6146H30.7705V56.3646Z" fill="#C63E34"/>
<path d="M28.0186 18.5807L34.1459 12.4534L35.6777 13.9852L29.5504 20.1126L28.0186 18.5807Z" fill="#C63E34"/>
<path d="M32.6143 20.113L35.6779 17.0493L37.2097 18.5811L34.1461 21.6448L32.6143 20.113Z" fill="#C63E34"/>
<path d="M26.4873 13.9849L29.551 10.9213L31.0828 12.4531L28.0191 15.5168L26.4873 13.9849Z" fill="#C63E34"/>
</g>
<defs>
<clipPath id="clip0">
<rect width="65" height="65" fill="white"/>
</clipPath>
</defs>
</svg>
