<svg width="65" height="65" viewBox="0 0 65 65" fill="none" xmlns="http://www.w3.org/2000/svg">
<path d="M63.9167 36.8333H34.6667V1.08333C34.6667 0.796016 34.5525 0.520465 34.3494 0.317301C34.1462 0.114137 33.8707 0 33.5833 0H1.08333C0.796016 0 0.520465 0.114137 0.317301 0.317301C0.114137 0.520465 0 0.796016 0 1.08333V63.9167C0 64.204 0.114137 64.4795 0.317301 64.6827C0.520465 64.8859 0.796016 65 1.08333 65H33.5833C33.8707 65 34.1462 64.8859 34.3494 64.6827C34.5525 64.4795 34.6667 64.204 34.6667 63.9167V49.8333H63.9167C64.204 49.8333 64.4795 49.7192 64.6827 49.516C64.8859 49.3129 65 49.0373 65 48.75V37.9167C65 37.6293 64.8859 37.3538 64.6827 37.1506C64.4795 36.9475 64.204 36.8333 63.9167 36.8333ZM32.5 62.8333H2.16667V2.16667H32.5V36.8333H25.9675C24.6033 35.0144 22.7013 33.6707 20.531 32.9928C18.3607 32.3148 16.0321 32.3369 13.875 33.0559C11.718 33.7749 9.84185 35.1544 8.51238 36.999C7.18291 38.8435 6.4675 41.0596 6.4675 43.3333C6.4675 45.6071 7.18291 47.8232 8.51238 49.6677C9.84185 51.5122 11.718 52.8917 13.875 53.6107C16.0321 54.3298 18.3607 54.3518 20.531 53.6739C22.7013 52.9959 24.6033 51.6523 25.9675 49.8333H32.5V62.8333ZM17.3333 49.8333H23.0533C21.8024 50.9365 20.2598 51.6553 18.6104 51.9035C16.9611 52.1517 15.2752 51.9187 13.7551 51.2325C12.2349 50.5462 10.945 49.4359 10.0403 48.0348C9.13547 46.6337 8.65421 45.0012 8.65421 43.3333C8.65421 41.6655 9.13547 40.033 10.0403 38.6319C10.945 37.2307 12.2349 36.1204 13.7551 35.4342C15.2752 34.748 16.9611 34.515 18.6104 34.7631C20.2598 35.0113 21.8024 35.7301 23.0533 36.8333H17.3333C15.6094 36.8333 13.9561 37.5182 12.7371 38.7371C11.5182 39.9561 10.8333 41.6094 10.8333 43.3333C10.8333 45.0572 11.5182 46.7105 12.7371 47.9295C13.9561 49.1485 15.6094 49.8333 17.3333 49.8333ZM54.1667 47.6667H17.3333C16.1841 47.6667 15.0819 47.2101 14.2692 46.3975C13.4565 45.5848 13 44.4826 13 43.3333C13 42.1841 13.4565 41.0819 14.2692 40.2692C15.0819 39.4565 16.1841 39 17.3333 39H54.1667V47.6667ZM62.8333 47.6667H56.3333V39H62.8333V47.6667Z" fill="#C63E34"/>
<path d="M27.1045 6.60156H7.68066C7.39447 6.60156 7.12 6.71525 6.91762 6.91762C6.71525 7.12 6.60156 7.39447 6.60156 7.68066V27.1045C6.60156 27.3907 6.71525 27.6652 6.91762 27.8675C7.12 28.0699 7.39447 28.1836 7.68066 28.1836H27.1045C27.3907 28.1836 27.6652 28.0699 27.8675 27.8675C28.0699 27.6652 28.1836 27.3907 28.1836 27.1045V7.68066C28.1836 7.39447 28.0699 7.12 27.8675 6.91762C27.6652 6.71525 27.3907 6.60156 27.1045 6.60156ZM26.0254 26.0254H8.75977V8.75977H26.0254V26.0254Z" fill="#C63E34"/>
<path d="M9.64844 57.3828H11.9336V59.668H9.64844V57.3828Z" fill="#C63E34"/>
<path d="M13.9648 57.3828H16.25V59.668H13.9648V57.3828Z" fill="#C63E34"/>
<path d="M18.5352 57.3828H20.5664V59.668H18.5352V57.3828Z" fill="#C63E34"/>
<path d="M22.8516 57.3828H24.8828V59.668H22.8516V57.3828Z" fill="#C63E34"/>
<path d="M11.9336 11.9336H13.9648V13.9648H11.9336V11.9336Z" fill="#C63E34"/>
<path d="M16.25 11.9336H18.5352V13.9648H16.25V11.9336Z" fill="#C63E34"/>
<path d="M20.5664 11.9336H22.8516V13.9648H20.5664V11.9336Z" fill="#C63E34"/>
<path d="M11.9336 16.25H13.9648V18.5352H11.9336V16.25Z" fill="#C63E34"/>
<path d="M16.25 16.25H18.5352V18.5352H16.25V16.25Z" fill="#C63E34"/>
<path d="M20.5664 16.25H22.8516V18.5352H20.5664V16.25Z" fill="#C63E34"/>
<path d="M11.9336 20.5664H13.9648V22.8516H11.9336V20.5664Z" fill="#C63E34"/>
<path d="M16.25 20.5664H18.5352V22.8516H16.25V20.5664Z" fill="#C63E34"/>
<path d="M20.5664 20.5664H22.8516V22.8516H20.5664V20.5664Z" fill="#C63E34"/>
</svg>
