<svg width="65" height="65" viewBox="0 0 65 65" fill="none" xmlns="http://www.w3.org/2000/svg">
<g clip-path="url(#clip0)">
<path d="M56.9506 11.2737C57.4766 11.2737 57.9028 10.8474 57.9028 10.3215V3.49896C57.9028 1.56965 56.3332 0 54.4039 0H33.7032C31.7739 0 30.2043 1.56965 30.2043 3.49896V10.555L9.32771 18.1534C8.47725 18.4629 7.79831 19.085 7.41592 19.9052C7.03342 20.7255 6.9933 21.6455 7.30281 22.4958L12.8969 37.8653C13.2064 38.7158 13.8285 39.3947 14.6487 39.7771C15.1042 39.9895 15.5904 40.0964 16.0784 40.0964C16.4692 40.0964 16.8612 40.0278 17.2393 39.8902L30.2044 35.1712V40.8536C30.2044 41.3795 30.6307 41.8058 31.1565 41.8058C31.6824 41.8058 32.1087 41.3795 32.1087 40.8536V37.6299H55.9986V61.5009C55.9986 62.3802 55.2832 63.0956 54.4039 63.0956H33.7032C32.8239 63.0956 32.1086 62.3802 32.1086 61.5009V45.3474C32.1086 44.8216 31.6823 44.3953 31.1564 44.3953C30.6306 44.3953 30.2043 44.8216 30.2043 45.3474V61.5012C30.2043 63.4305 31.7739 65.0001 33.7032 65.0001H54.4039C56.3332 65.0001 57.9029 63.4305 57.9029 61.5012V14.8152C57.9029 14.2893 57.4767 13.863 56.9507 13.863C56.4248 13.863 55.9986 14.2893 55.9986 14.8152V35.7257H32.1086V34.4782L36.719 32.8001C37.2131 32.6202 37.4679 32.0738 37.288 31.5797C37.1081 31.0855 36.5614 30.8308 36.0676 31.0106L27.0504 34.2926L20.4414 16.1347L37.1547 10.0516C37.5273 9.91593 37.93 9.93357 38.2893 10.1012C38.6483 10.2686 38.9209 10.5661 39.0563 10.9384L44.6504 26.3079C44.9302 27.0767 44.5323 27.9297 43.7636 28.2095L40.2644 29.4831C39.7703 29.663 39.5155 30.2094 39.6954 30.7035C39.8752 31.1976 40.4215 31.4524 40.9158 31.2726L44.415 29.999C46.1704 29.3601 47.0787 27.4121 46.4399 25.6566L40.8459 10.2871C40.5363 9.43668 39.9141 8.75773 39.094 8.37535C38.2737 7.99271 37.3536 7.95272 36.5034 8.26224L32.1087 9.86185V3.49896C32.1087 2.61968 32.8241 1.9043 33.7033 1.9043H54.4041C55.2833 1.9043 55.9987 2.61968 55.9987 3.49896V10.3217C55.9985 10.8474 56.4248 11.2737 56.9506 11.2737ZM25.261 34.944L16.5878 38.1008C16.2154 38.2364 15.8125 38.2187 15.4533 38.0513C15.0942 37.8838 14.8217 37.5864 14.6863 37.214L9.09221 21.8444C8.95663 21.4721 8.97427 21.0691 9.14173 20.71C9.30918 20.3508 9.60663 20.0784 9.97898 19.9429L18.6522 16.7861L25.261 34.944Z" fill="#C63E34"/>
<path d="M35.4375 4.36133C34.9115 4.36133 34.4854 4.78764 34.4854 5.31348C34.4854 5.83932 34.9115 6.26562 35.4375 6.26562H38.2366C38.7625 6.26562 39.1887 5.83932 39.1887 5.31348C39.1887 4.78764 38.7625 4.36133 38.2366 4.36133H35.4375Z" fill="#C63E34"/>
<path d="M49.8691 4.36133C49.3432 4.36133 48.917 4.78764 48.917 5.31348C48.917 5.83932 49.3432 6.26562 49.8691 6.26562H52.6682C53.1942 6.26562 53.6203 5.83932 53.6203 5.31348C53.6203 4.78764 53.1942 4.36133 52.6682 4.36133H49.8691Z" fill="#C63E34"/>
<path d="M38.0791 54.163C38.0791 57.457 40.759 60.1369 44.053 60.1369C47.3471 60.1369 50.027 57.457 50.027 54.163C50.027 50.8689 47.3472 48.1891 44.053 48.1891C40.759 48.1891 38.0791 50.8689 38.0791 54.163ZM44.0529 50.0934C46.2969 50.0934 48.1226 51.919 48.1226 54.163C48.1226 56.407 46.2969 58.2326 44.0529 58.2326C41.8089 58.2326 39.9833 56.407 39.9833 54.163C39.9833 51.919 41.809 50.0934 44.0529 50.0934Z" fill="#C63E34"/>
<path d="M16.2609 32.6493C16.4017 33.036 16.7668 33.2761 17.1557 33.2761C17.2638 33.2761 17.3738 33.2576 17.4812 33.2185C17.9754 33.0386 18.2301 32.4922 18.0503 31.9981L15.022 23.6776C14.8421 23.1833 14.2957 22.9285 13.8016 23.1084C13.3074 23.2883 13.0527 23.8347 13.2325 24.3288L16.2609 32.6493Z" fill="#C63E34"/>
<path d="M18.5597 28.5704C18.7005 28.9571 19.0656 29.1972 19.4544 29.1972C19.5626 29.1972 19.6725 29.1787 19.7799 29.1396C20.2742 28.9597 20.5288 28.4133 20.3491 27.9192L19.4048 25.3249C19.2249 24.8307 18.6785 24.5757 18.1844 24.7557C17.6902 24.9356 17.4355 25.482 17.6153 25.9762L18.5597 28.5704Z" fill="#C63E34"/>
<path d="M37.7248 21.8048C37.9046 22.2988 38.4503 22.5537 38.9452 22.374C39.4393 22.1941 39.6941 21.6477 39.5142 21.1536L38.9504 19.6043C38.8639 19.3671 38.687 19.1737 38.4581 19.0671C38.2289 18.9603 37.9671 18.949 37.73 19.0353L32.3575 20.9908C32.0323 20.5523 31.602 20.1986 31.0935 19.9615C30.2884 19.5859 29.3851 19.5466 28.5505 19.8504C27.7157 20.1543 27.0492 20.765 26.6738 21.5701C26.2982 22.3752 26.2589 23.2784 26.5627 24.1132C26.8666 24.9481 27.4773 25.6146 28.2824 25.99C28.7295 26.1984 29.2069 26.3033 29.686 26.3033C30.0695 26.3033 30.4543 26.236 30.8255 26.1009C31.6604 25.797 32.3269 25.1864 32.7024 24.3812C32.9395 23.8726 33.0422 23.325 33.0094 22.7801L34.8224 22.1202L35.0607 22.7746C35.2015 23.1612 35.5665 23.4014 35.9556 23.4014C36.0637 23.4014 36.1737 23.3829 36.2811 23.3436C36.7753 23.1637 37.03 22.6173 36.8501 22.1232L36.6118 21.4688L37.4866 21.1504L37.7248 21.8048ZM30.1741 24.3115C29.4375 24.5796 28.6201 24.1984 28.3521 23.4619C28.084 22.7254 28.4652 21.908 29.2018 21.6399C29.3605 21.5822 29.5249 21.5533 29.6888 21.5533C29.8936 21.5533 30.0976 21.5981 30.2886 21.6873C30.6328 21.8477 30.8938 22.1326 31.0237 22.4895C31.2918 23.2261 30.9106 24.0434 30.1741 24.3115Z" fill="#C63E34"/>
<path d="M44.0537 45.6455C44.5797 45.6455 45.0059 45.2192 45.0059 44.6934V44.6822C45.0059 44.1564 44.5797 43.7357 44.0537 43.7357C43.5277 43.7357 43.1016 44.1675 43.1016 44.6934C43.1016 45.2192 43.5279 45.6455 44.0537 45.6455Z" fill="#C63E34"/>
<path d="M44.0537 42.3752C44.5797 42.3752 45.0059 41.9489 45.0059 41.4231V41.4119C45.0059 40.8861 44.5797 40.4653 44.0537 40.4653C43.5277 40.4653 43.1016 40.8972 43.1016 41.4231C43.1016 41.9489 43.5279 42.3752 44.0537 42.3752Z" fill="#C63E34"/>
<path d="M23.2991 8.16348C23.485 8.34934 23.7287 8.4424 23.9724 8.4424C24.216 8.4424 24.4597 8.34947 24.6456 8.16348C25.0174 7.79163 25.0174 7.18873 24.6456 6.81701L23.8939 6.06532C23.5221 5.69348 22.9192 5.69348 22.5474 6.06532C22.1756 6.43717 22.1756 7.04007 22.5474 7.41179L23.2991 8.16348Z" fill="#C63E34"/>
<path d="M26.5385 6.43157H26.5388C27.0647 6.43145 27.4909 6.00488 27.4906 5.47904L27.4902 4.41594C27.4901 3.89023 27.0638 3.46417 26.5381 3.46417C26.538 3.46417 26.5378 3.46417 26.5377 3.46417C26.0119 3.4643 25.5857 3.89086 25.5859 4.4167L25.5863 5.47981C25.5864 6.00552 26.0128 6.43157 26.5385 6.43157Z" fill="#C63E34"/>
<path d="M20.8971 11.009L21.9602 11.0094H21.9606C22.4863 11.0094 22.9126 10.5834 22.9127 10.0576C22.9128 9.53181 22.4868 9.10537 21.9609 9.10512L20.8978 9.10474C20.8977 9.10474 20.8976 9.10474 20.8975 9.10474C20.3717 9.10474 19.9454 9.53079 19.9453 10.0565C19.9452 10.5823 20.3712 11.0088 20.8971 11.009Z" fill="#C63E34"/>
</g>
<defs>
<clipPath id="clip0">
<rect width="65" height="65" fill="white"/>
</clipPath>
</defs>
</svg>
