<svg width="65" height="65" viewBox="0 0 65 65" fill="none" xmlns="http://www.w3.org/2000/svg">
<path d="M58.9062 1.01562H6.09375C3.29367 1.01562 1.01562 3.29367 1.01562 6.09375V38.5938C1.01562 41.3938 3.29367 43.6719 6.09375 43.6719H34.0488L35.4077 53.8576C35.5286 54.7727 35.8983 55.638 36.4752 56.3591L38.9421 59.4425C39.3727 59.9828 39.6094 60.6582 39.6094 61.3468V63.9844H55.8594V61.1518C55.8594 60.5475 56.0361 59.9635 56.3713 59.4618L59.0687 55.4155C59.6273 54.5787 59.9219 53.6047 59.9219 52.5982V43.5693C62.2365 43.097 63.9844 41.0465 63.9844 38.5938V6.09375C63.9844 3.29367 61.7063 1.01562 58.9062 1.01562ZM57.8906 52.5982C57.8906 53.2025 57.7139 53.7865 57.3787 54.2882L54.6813 58.3345C54.1227 59.1713 53.8281 60.1453 53.8281 61.1518V61.9531H41.6406V61.3468C41.6406 60.1991 41.2445 59.0718 40.5275 58.174L38.0605 55.0905C37.7142 54.6579 37.4928 54.1389 37.4197 53.5895L35.554 39.6023C35.5499 39.5627 35.5469 39.523 35.5469 39.4834C35.5469 38.9929 35.946 38.5938 36.4355 38.5938H36.9606C37.4024 38.5938 37.7711 38.9106 37.8381 39.3473L39.3128 48.9277C39.5687 50.5903 40.9744 51.7969 42.6562 51.7969H43.6719V25.3906C43.6719 24.831 44.1269 24.375 44.6875 24.375C45.2481 24.375 45.7031 24.831 45.7031 25.3906V35.5469V43.6719V47.7344H47.7344V43.6719V35.5469C47.7344 34.9873 48.1894 34.5312 48.75 34.5312C49.3106 34.5312 49.7656 34.9873 49.7656 35.5469V37.5781V47.7344H51.7969V37.5781C51.7969 37.0185 52.2519 36.5625 52.8125 36.5625C53.3731 36.5625 53.8281 37.0185 53.8281 37.5781V40.625V45.7031V47.7344H55.8594V45.7031V40.625C55.8594 40.0654 56.3144 39.6094 56.875 39.6094C57.4356 39.6094 57.8906 40.0654 57.8906 40.625V52.5982ZM44.6875 22.3438C43.0077 22.3438 41.6406 23.7108 41.6406 25.3906V27.4198C40.3873 26.4773 39.6094 24.9834 39.6094 23.3594C39.6094 20.5593 41.8874 18.2812 44.6875 18.2812C47.4876 18.2812 49.7656 20.5593 49.7656 23.3594C49.7656 24.9834 48.9877 26.4763 47.7344 27.4188V25.3906C47.7344 23.7108 46.3673 22.3438 44.6875 22.3438ZM61.9531 38.5938C61.9531 39.9161 61.101 41.0333 59.9219 41.4538V40.625C59.9219 38.9452 58.5548 37.5781 56.875 37.5781C56.5175 37.5781 56.1783 37.6512 55.8594 37.765V37.5781C55.8594 35.8983 54.4923 34.5312 52.8125 34.5312C52.4113 34.5312 52.0305 34.6135 51.6791 34.7547C51.3287 33.4598 50.1546 32.5 48.75 32.5C48.3925 32.5 48.0533 32.5731 47.7344 32.6869V29.7629C50.1851 28.5949 51.7969 26.1168 51.7969 23.3594C51.7969 19.4391 48.6068 16.25 44.6875 16.25C40.7682 16.25 37.5781 19.4391 37.5781 23.3594C37.5781 26.1168 39.1899 28.5939 41.6406 29.7629V49.3096C41.4751 49.1207 41.3613 48.8851 41.3207 48.619L39.846 39.0386C39.6256 37.6035 38.4109 36.5625 36.9606 36.5625H36.4355C34.8258 36.5625 33.5156 37.8727 33.5156 39.4834C33.5156 39.6114 33.5248 39.7394 33.541 39.8684L33.7777 41.6406H6.09375C4.41391 41.6406 3.04688 40.2736 3.04688 38.5938V6.09375C3.04688 4.41391 4.41391 3.04688 6.09375 3.04688H58.9062C60.5861 3.04688 61.9531 4.41391 61.9531 6.09375V38.5938Z" fill="#C63E34"/>
<path d="M25.7867 21.5455L22.3438 20.5623V20.2922C23.6092 19.3385 24.375 17.8384 24.375 16.251V14.431C24.375 11.701 22.3427 9.38741 19.7488 9.16194C18.3239 9.03601 16.9112 9.51741 15.8661 10.4762C14.819 11.4349 14.2188 12.7999 14.2188 14.2187V16.25C14.2188 17.8374 14.9845 19.3385 16.25 20.2912V20.5613L12.807 21.5455C10.6478 22.1619 9.14062 24.1607 9.14062 26.4062V27.4219H29.4531V26.4062C29.4531 24.1607 27.9459 22.1619 25.7867 21.5455ZM11.3496 25.3906C11.6726 24.4918 12.413 23.7707 13.3646 23.4985L18.2812 22.0939V19.1648L17.7765 18.8713C16.8208 18.3148 16.25 17.3347 16.25 16.25V14.2187C16.25 13.3676 16.6095 12.548 17.2392 11.9722C17.875 11.3892 18.7078 11.113 19.5731 11.1841C21.127 11.3191 22.3438 12.7441 22.3438 14.43V16.25C22.3438 17.3347 21.773 18.3148 20.8173 18.8713L20.3125 19.1648V22.0939L25.2291 23.4985C26.1818 23.7707 26.9212 24.4918 27.2441 25.3906H11.3496Z" fill="#C63E34"/>
<path d="M5.07812 31.4844H33.5156V5.07812H5.07812V31.4844ZM7.10938 7.10938H31.4844V29.4531H7.10938V7.10938Z" fill="#C63E34"/>
<path d="M8.125 33.5156C6.44516 33.5156 5.07812 34.8827 5.07812 36.5625C5.07812 38.2423 6.44516 39.6094 8.125 39.6094C9.80484 39.6094 11.1719 38.2423 11.1719 36.5625C11.1719 34.8827 9.80484 33.5156 8.125 33.5156ZM8.125 37.5781C7.56437 37.5781 7.10938 37.1221 7.10938 36.5625C7.10938 36.0029 7.56437 35.5469 8.125 35.5469C8.68563 35.5469 9.14062 36.0029 9.14062 36.5625C9.14062 37.1221 8.68563 37.5781 8.125 37.5781Z" fill="#C63E34"/>
<path d="M16.25 33.5156C14.5702 33.5156 13.2031 34.8827 13.2031 36.5625C13.2031 38.2423 14.5702 39.6094 16.25 39.6094C17.9298 39.6094 19.2969 38.2423 19.2969 36.5625C19.2969 34.8827 17.9298 33.5156 16.25 33.5156ZM16.25 37.5781C15.6894 37.5781 15.2344 37.1221 15.2344 36.5625C15.2344 36.0029 15.6894 35.5469 16.25 35.5469C16.8106 35.5469 17.2656 36.0029 17.2656 36.5625C17.2656 37.1221 16.8106 37.5781 16.25 37.5781Z" fill="#C63E34"/>
<path d="M24.375 33.5156C22.6952 33.5156 21.3281 34.8827 21.3281 36.5625C21.3281 38.2423 22.6952 39.6094 24.375 39.6094C26.0548 39.6094 27.4219 38.2423 27.4219 36.5625C27.4219 34.8827 26.0548 33.5156 24.375 33.5156ZM24.375 37.5781C23.8144 37.5781 23.3594 37.1221 23.3594 36.5625C23.3594 36.0029 23.8144 35.5469 24.375 35.5469C24.9356 35.5469 25.3906 36.0029 25.3906 36.5625C25.3906 37.1221 24.9356 37.5781 24.375 37.5781Z" fill="#C63E34"/>
<path d="M56.875 5.07812C55.1952 5.07812 53.8281 6.44516 53.8281 8.125C53.8281 9.80484 55.1952 11.1719 56.875 11.1719C58.5548 11.1719 59.9219 9.80484 59.9219 8.125C59.9219 6.44516 58.5548 5.07812 56.875 5.07812ZM56.875 9.14062C56.3144 9.14062 55.8594 8.68461 55.8594 8.125C55.8594 7.56539 56.3144 7.10938 56.875 7.10938C57.4356 7.10938 57.8906 7.56539 57.8906 8.125C57.8906 8.68461 57.4356 9.14062 56.875 9.14062Z" fill="#C63E34"/>
<path d="M48.75 5.07812C47.0702 5.07812 45.7031 6.44516 45.7031 8.125C45.7031 9.80484 47.0702 11.1719 48.75 11.1719C50.4298 11.1719 51.7969 9.80484 51.7969 8.125C51.7969 6.44516 50.4298 5.07812 48.75 5.07812ZM48.75 9.14062C48.1894 9.14062 47.7344 8.68461 47.7344 8.125C47.7344 7.56539 48.1894 7.10938 48.75 7.10938C49.3106 7.10938 49.7656 7.56539 49.7656 8.125C49.7656 8.68461 49.3106 9.14062 48.75 9.14062Z" fill="#C63E34"/>
<path d="M40.625 5.07812C38.9452 5.07812 37.5781 6.44516 37.5781 8.125C37.5781 9.80484 38.9452 11.1719 40.625 11.1719C42.3048 11.1719 43.6719 9.80484 43.6719 8.125C43.6719 6.44516 42.3048 5.07812 40.625 5.07812ZM40.625 9.14062C40.0644 9.14062 39.6094 8.68461 39.6094 8.125C39.6094 7.56539 40.0644 7.10938 40.625 7.10938C41.1856 7.10938 41.6406 7.56539 41.6406 8.125C41.6406 8.68461 41.1856 9.14062 40.625 9.14062Z" fill="#C63E34"/>
</svg>
