<svg width="65" height="65" viewBox="0 0 65 65" fill="none" xmlns="http://www.w3.org/2000/svg">
<g clip-path="url(#clip0)">
<path d="M63.9321 58.3888H48.9148C48.325 58.3888 47.8469 57.9107 47.8469 57.3209V10.4436C47.8469 8.33063 49.5659 6.61169 51.6788 6.61169H61.1681C63.2814 6.61169 65.0003 8.33063 65.0003 10.4436V57.3209C65 57.9107 64.5223 58.3888 63.9321 58.3888ZM49.9827 56.253H62.8642V53.0579H49.9827V56.253ZM49.9827 50.9221H62.8642V18.1171H49.9827V50.9221ZM49.9827 15.9813H62.8642V10.4436C62.8642 9.50851 62.1032 8.74746 61.1677 8.74746H51.6785C50.7434 8.74746 49.9823 9.50851 49.9823 10.4436V15.9813H49.9827ZM16.0852 58.3888H1.06788C0.478056 58.3888 0 57.9107 0 57.3209V10.4436C0 8.33063 1.71894 6.61169 3.83193 6.61169H13.3211C15.4345 6.61169 17.1534 8.33063 17.1534 10.4436V14.1243H41.4133C42.0031 14.1243 42.4812 14.6023 42.4812 15.1921C42.4812 15.782 42.0031 16.26 41.4133 16.26H19.1956L36.7772 29.9478C37.2428 30.3102 37.3261 30.9812 36.9638 31.4464C36.6007 31.912 35.9308 31.995 35.4652 31.6329L17.8127 17.8903L22.3982 37.5109C22.5327 38.0851 22.1757 38.6596 21.6015 38.7938C21.0295 38.9277 20.4528 38.5713 20.3186 37.9968L17.1531 24.4539V57.3213C17.1531 57.9107 16.6754 58.3888 16.0852 58.3888ZM2.13577 56.253H15.0173V53.0579H2.13577V56.253ZM2.13577 50.9221H15.0173V18.1171H2.13577V50.9221ZM2.13577 15.9813H15.0173V15.2139C15.0169 15.1989 15.0169 15.184 15.0173 15.169V10.4436C15.0173 9.50851 14.2563 8.74746 13.3208 8.74746H3.83193C2.89681 8.74711 2.13577 9.50815 2.13577 10.4436V15.9813Z" fill="#C63E34"/>
</g>
<defs>
<clipPath id="clip0">
<rect width="65" height="65" fill="white"/>
</clipPath>
</defs>
</svg>
