<svg width="65" height="65" viewBox="0 0 65 65" fill="none" xmlns="http://www.w3.org/2000/svg">
<path d="M64.7137 19.325C64.8394 19.201 64.9285 19.0447 64.9712 18.8734C65.0138 18.702 65.0084 18.5222 64.9554 18.3537C64.9024 18.1852 64.804 18.0346 64.671 17.9185C64.538 17.8023 64.3755 17.7251 64.2014 17.6954L17.4299 9.71819C17.1789 9.67573 16.9213 9.73451 16.7136 9.88165C16.5059 10.0288 16.3651 10.2523 16.3219 10.5031L13.9632 24.3259C13.9205 24.5769 13.9791 24.8345 14.1263 25.0422C14.2735 25.2499 14.4972 25.3906 14.7482 25.4334L17.6614 25.9303L16.9219 30.2867C16.8792 30.5377 16.9378 30.7953 17.0848 31.0031C17.2319 31.2108 17.4555 31.3517 17.7063 31.3947L23.7785 32.4314L23.3397 35.038C23.3185 35.1623 23.3221 35.2895 23.3501 35.4124C23.3781 35.5353 23.4301 35.6515 23.503 35.7543C23.576 35.8571 23.6685 35.9445 23.7752 36.0115C23.882 36.0786 24.0009 36.1239 24.1252 36.145L26.0121 36.4658L24.4153 44.562H10.1477V42.8287C10.1475 42.5742 10.0464 42.3301 9.86637 42.1501C9.68638 41.9701 9.44231 41.8689 9.18777 41.8688H5.21097V39.9967C5.21097 39.7421 5.10984 39.4979 4.92982 39.3179C4.7498 39.1379 4.50564 39.0368 4.25106 39.0368H0.959916C0.705331 39.0368 0.461172 39.1379 0.281153 39.3179C0.101134 39.4979 0 39.7421 0 39.9967V54.3356C0.000145327 54.5902 0.101326 54.8343 0.281313 55.0142C0.461301 55.1942 0.705375 55.2954 0.959916 55.2956H4.25106C4.5056 55.2954 4.74967 55.1942 4.92966 55.0142C5.10965 54.8343 5.21083 54.5902 5.21097 54.3356V52.4608H9.18777C9.44231 52.4606 9.68638 52.3595 9.86637 52.1795C10.0464 51.9995 10.1475 51.7554 10.1477 51.5009V49.773H27.9089C28.1312 49.773 28.3466 49.6959 28.5184 49.5547C28.6902 49.4136 28.8076 49.2172 28.8507 48.9991L31.1485 37.3407L33.2438 37.6973C33.368 37.7185 33.4952 37.7151 33.618 37.6872C33.7409 37.6593 33.8571 37.6075 33.9599 37.5347C34.0627 37.4619 34.1502 37.3696 34.2174 37.263C34.2845 37.1564 34.33 37.0376 34.3513 36.9134L34.7972 34.3118L54.8282 37.7302C54.8815 37.7394 54.9354 37.744 54.9895 37.7439C55.2161 37.744 55.4355 37.6638 55.6087 37.5177C55.7819 37.3715 55.8977 37.1687 55.9357 36.9452L56.0717 36.1482C56.1529 36.1521 56.2363 36.1587 56.3169 36.1587C57.45 36.1588 58.5452 35.7505 59.4016 35.0086C60.2581 34.2667 60.8183 33.2409 60.9797 32.1193C61.1411 30.9978 60.8927 29.8556 60.2802 28.9023C59.6677 27.949 58.7321 27.2485 57.6449 26.9292L57.776 26.1613L64.7137 19.325ZM18.053 11.7724L62.0314 19.2729L56.5599 24.6627L43.7042 22.4686C43.4532 22.426 43.1957 22.4848 42.988 22.6319C42.7804 22.7791 42.6396 23.0027 42.5967 23.2536L41.7739 28.0926L18.9482 24.1981C18.9433 24.1981 18.9394 24.1954 18.935 24.1948C18.9305 24.1946 18.9259 24.1946 18.9213 24.1948L16.0213 23.7011L18.053 11.7724ZM3.29114 53.3757H1.91983V40.9566H3.29114V53.3757ZM8.22785 50.541H5.21097V43.7886H8.22785V50.541ZM27.1196 47.8532H10.1477V46.4819H25.2047C25.4271 46.482 25.6426 46.4048 25.8144 46.2635C25.9862 46.1222 26.1036 45.9256 26.1465 45.7074L27.9017 36.7884L29.2544 37.0187L27.1196 47.8532ZM32.6212 35.6436L30.5862 35.2975C30.5819 35.2965 30.5777 35.2952 30.5736 35.2936C30.5659 35.2936 30.5588 35.2936 30.5511 35.2936L25.3901 34.416L25.6714 32.7573L32.9048 33.9914L32.6212 35.6436ZM34.1966 32.2614C34.1895 32.2614 34.1834 32.257 34.1763 32.2559C34.1692 32.2548 34.1609 32.2559 34.1533 32.2559L25.0686 30.7041C25.0615 30.7041 25.0549 30.6992 25.0472 30.6981C25.0395 30.697 25.033 30.6981 25.0253 30.6981L18.9729 29.6636L19.5549 26.2529L42.3943 30.1474C42.4476 30.1563 42.5015 30.1609 42.5555 30.1611C42.7822 30.1612 43.0015 30.0811 43.1747 29.9349C43.3479 29.7887 43.4638 29.5859 43.5018 29.3625L44.3245 24.5234L55.7717 26.4756L55.5967 27.4997L55.5934 27.5112V27.5249L54.3362 34.8932L54.3323 34.9058C54.3326 34.9106 54.3326 34.9153 54.3323 34.9201L54.2034 35.6754L34.1966 32.2614ZM59.0677 31.9158C58.96 32.5513 58.6349 33.1296 58.1481 33.552C57.6613 33.9743 57.0429 34.2146 56.3986 34.2317L57.3185 28.8425C57.9194 29.0749 58.4216 29.5077 58.7403 30.0677C59.0591 30.6277 59.1747 31.2805 59.0677 31.9158Z" fill="#C63E34"/>
<path d="M22.8095 15.922L27.648 16.7448C27.8981 16.7857 28.1543 16.7261 28.3606 16.5789C28.5669 16.4316 28.7066 16.2088 28.7492 15.959C28.7919 15.7092 28.734 15.4526 28.5882 15.2453C28.4424 15.038 28.2206 14.8967 27.9711 14.8524L23.1325 14.0296C22.8824 13.9886 22.6263 14.0483 22.42 14.1955C22.2136 14.3427 22.0739 14.5655 22.0313 14.8153C21.9886 15.0652 22.0465 15.3217 22.1923 15.529C22.3381 15.7364 22.5599 15.8776 22.8095 15.922Z" fill="#C63E34"/>
</svg>
