<svg width="65" height="65" viewBox="0 0 65 65" fill="none" xmlns="http://www.w3.org/2000/svg">
<path d="M9.14062 45.7031H11.1719V47.7344H9.14062V45.7031Z" fill="#C63E34"/>
<path d="M13.2031 45.7031H15.2344V47.7344H13.2031V45.7031Z" fill="#C63E34"/>
<path d="M17.2656 45.7031H19.2969V47.7344H17.2656V45.7031Z" fill="#C63E34"/>
<path d="M15.2344 33.5156H13.2031C10.9627 33.5156 9.14062 35.3377 9.14062 37.5781V43.6719H19.2969V37.5781C19.2969 35.3377 17.4748 33.5156 15.2344 33.5156ZM17.2656 41.6406H11.1719V37.5781C11.1719 36.4579 12.0829 35.5469 13.2031 35.5469H15.2344C16.3546 35.5469 17.2656 36.4579 17.2656 37.5781V41.6406Z" fill="#C63E34"/>
<path d="M23.3594 55.9619V43.1539L64.3947 11.3516L56.0351 0.603271L18.4041 30.097C17.4291 29.6826 16.3587 29.4531 15.2344 29.4531H13.2031C8.7232 29.4531 5.07812 33.0982 5.07812 37.5781V55.9619C2.76352 56.4342 1.01562 58.4858 1.01562 60.9375V63.9844H27.4219V60.9375C27.4219 58.4858 25.674 56.4342 23.3594 55.9619ZM22.7795 34.581L28.272 36.7778L23.3594 40.5844V37.5781C23.3594 36.5188 23.1491 35.5093 22.7795 34.581ZM54.2202 16.6674L50.8818 19.2542L40.8596 15.078L44.1736 12.481L54.2202 16.6674ZM46.0068 11.0449L49.3208 8.44796L59.4049 12.6496L56.0666 15.2364L46.0068 11.0449ZM49.0354 20.6852L45.697 23.272L35.7124 19.112L39.0264 16.5151L49.0354 20.6852ZM43.8506 24.703L40.5123 27.2898L30.5652 23.1451L33.8792 20.5481L43.8506 24.703ZM38.6669 28.7219L35.3285 31.3087L25.4201 27.1801L28.7341 24.5832L38.6669 28.7219ZM61.5428 10.9921L61.2513 11.2176L51.153 7.00983L55.6837 3.45921L61.5428 10.9921ZM23.5869 28.6162L33.4821 32.7397L30.1336 35.3346L20.6893 31.5565L20.6842 31.5697C20.5502 31.4478 20.4141 31.328 20.2719 31.2152L23.5869 28.6162ZM7.10938 37.5781C7.10938 34.2174 9.84242 31.4844 13.2031 31.4844H15.2344C18.5951 31.4844 21.3281 34.2174 21.3281 37.5781V55.8594H7.10938V37.5781ZM25.3906 61.9531H3.04688V60.9375C3.04688 59.2576 4.41391 57.8906 6.09375 57.8906H22.3438C24.0236 57.8906 25.3906 59.2576 25.3906 60.9375V61.9531Z" fill="#C63E34"/>
<path d="M14.2188 26.4062C14.7797 26.4062 15.2344 25.9515 15.2344 25.3906C15.2344 24.8297 14.7797 24.375 14.2188 24.375C13.6578 24.375 13.2031 24.8297 13.2031 25.3906C13.2031 25.9515 13.6578 26.4062 14.2188 26.4062Z" fill="#C63E34"/>
<path d="M17.9248 21.5709C15.9494 19.887 12.4871 19.887 10.5117 21.5709L11.831 23.1157C13.0355 22.0879 15.402 22.0879 16.6055 23.1157L17.9248 21.5709Z" fill="#C63E34"/>
<path d="M19.6533 20.0698L20.9726 18.525C17.4382 15.5076 11.0012 15.5076 7.46582 18.525L8.78512 20.0698C11.5771 17.6851 16.8604 17.6851 19.6533 20.0698Z" fill="#C63E34"/>
</svg>
