<svg width="63" height="65" viewBox="0 0 63 65" fill="none" xmlns="http://www.w3.org/2000/svg">
<g clip-path="url(#clip0)">
<path d="M54.8784 50.5525V44.6875C54.8784 43.9863 54.3274 43.4179 53.6479 43.4179V24.1212C53.6432 13.948 46.7998 4.71455 37.2742 2.05439C37.1697 2.0252 37.0615 2.01123 36.9544 2.01123C36.3993 2.01123 35.911 2.39717 35.767 2.95068C35.6809 3.27821 35.7239 3.61971 35.8876 3.91424C36.0525 4.2075 36.3169 4.41824 36.6344 4.50584C45.2045 6.88873 51.1895 14.9553 51.1871 24.1212V43.4179H42.5739V39.6094C42.5739 38.9082 42.0229 38.3399 41.3435 38.3399H33.3455V33.2618H37.3617L44.4847 36.9363C44.6583 37.0259 44.8467 37.0703 45.035 37.0703C45.2599 37.0703 45.4842 37.0067 45.6818 36.8807C46.0445 36.6494 46.2654 36.2407 46.2654 35.8008V16.758C46.2654 16.318 46.0445 15.9093 45.6818 15.6781C45.3192 15.4468 44.866 15.4259 44.4847 15.6225L37.3617 19.297H22.8866C22.207 19.297 21.6561 19.8654 21.6561 20.5666V31.9922C21.6561 32.6934 22.207 33.2618 22.8866 33.2618H24.7323V38.3399H21.6561C20.9765 38.3399 20.4256 38.9082 20.4256 39.6094V43.4179H11.8124V24.1212C11.81 14.9705 17.7814 6.90904 26.3331 4.51473C26.6505 4.42586 26.9151 4.21512 27.0787 3.92186C27.2424 3.62733 27.2855 3.28456 27.1993 2.95702C27.0541 2.40605 26.5656 2.02012 26.0119 2.02012C25.9037 2.02012 25.7954 2.03535 25.6896 2.06455C16.1946 4.71988 9.35151 13.9711 9.35151 24.1212V43.4179C8.67193 43.4179 8.12106 43.9863 8.12106 44.6875V50.5524L3.51003 55.9044C3.30984 56.1369 3.19922 56.4369 3.19922 56.7479V62.4608C3.19922 63.1619 3.7501 63.7303 4.42968 63.7303H58.5699C59.2493 63.7303 59.8003 63.1619 59.8003 62.4608V56.7479C59.8003 56.437 59.6898 56.1369 59.4895 55.9044L54.8784 50.5525ZM43.8042 33.7467L38.8824 31.2077V21.3511L43.8042 18.8121V33.7467ZM24.1169 21.8361H36.4215V30.7227H24.1169V21.8361ZM27.193 33.2618H30.8844V38.3399H27.193V33.2618ZM22.8864 40.8789H40.1129V43.4179H22.8864V40.8789ZM52.4175 45.957V49.7655H10.5819V45.957H52.4175ZM57.3393 61.1912H5.66001V57.2306L9.90399 52.3046H53.0954L57.3393 57.2306V61.1912Z" fill="#C63E34"/>
<path d="M7.25325 38.2799C6.94932 37.6529 6.21043 37.3986 5.60233 37.7122L0.680453 40.2512C0.0726017 40.5648 -0.173738 41.3274 0.130188 41.9546C0.345766 42.3994 0.780367 42.6566 1.2317 42.6566C1.41652 42.6566 1.60441 42.6135 1.78098 42.5223L6.70286 39.9832C7.31071 39.6697 7.55705 38.9071 7.25325 38.2799Z" fill="#C63E34"/>
<path d="M62.32 40.2512L57.3982 37.7121C56.7904 37.3984 56.0513 37.6527 55.7474 38.2799C55.4434 38.907 55.6898 39.6696 56.2978 39.9832L61.2196 42.5223C61.3963 42.6134 61.584 42.6566 61.7689 42.6566C62.2202 42.6566 62.6548 42.3994 62.8704 41.9545C63.1742 41.3273 62.9279 40.5648 62.32 40.2512Z" fill="#C63E34"/>
<path d="M1.23047 27.4219H6.15234C6.83193 27.4219 7.38281 26.8535 7.38281 26.1523C7.38281 25.4512 6.83193 24.8828 6.15234 24.8828H1.23047C0.550881 24.8828 0 25.4512 0 26.1523C0 26.8535 0.550881 27.4219 1.23047 27.4219Z" fill="#C63E34"/>
<path d="M56.8477 27.4219H61.7695C62.449 27.4219 63 26.8535 63 26.1523C63 25.4512 62.449 24.8828 61.7695 24.8828H56.8477C56.1682 24.8828 55.6172 25.4512 55.6172 26.1523C55.6172 26.8535 56.1682 27.4219 56.8477 27.4219Z" fill="#C63E34"/>
<path d="M0.680453 12.0539L5.60233 14.5929C5.77902 14.6841 5.96667 14.7273 6.15161 14.7273C6.60295 14.7273 7.03755 14.47 7.25312 14.0252C7.55705 13.3981 7.31071 12.6355 6.70286 12.3219L1.78098 9.78281C1.17313 9.46911 0.43399 9.7234 0.130188 10.3505C-0.173738 10.9777 0.0726017 11.7403 0.680453 12.0539Z" fill="#C63E34"/>
<path d="M56.8488 14.7269C57.0337 14.7269 57.2215 14.6838 57.3981 14.5926L62.3199 12.0536C62.9278 11.74 63.1741 10.9774 62.8703 10.3502C62.5664 9.72309 61.8268 9.46867 61.2195 9.7825L56.2977 12.3216C55.6898 12.6351 55.4435 13.3977 55.7473 14.0249C55.9629 14.4699 56.3973 14.7269 56.8488 14.7269Z" fill="#C63E34"/>
<path d="M31.4824 3.80884C32.162 3.80884 32.7129 3.24045 32.7129 2.53931C32.7129 1.83816 32.162 1.26978 31.4824 1.26978C30.8029 1.26978 30.252 1.83816 30.252 2.53931C30.252 3.24045 30.8029 3.80884 31.4824 3.80884Z" fill="#C63E34"/>
</g>
<defs>
<clipPath id="clip0">
<rect width="63" height="65" fill="white"/>
</clipPath>
</defs>
</svg>
