<svg width="65" height="65" viewBox="0 0 65 65" fill="none" xmlns="http://www.w3.org/2000/svg">
<path d="M15.5431 12.4628C17.1736 12.4628 18.5002 11.1363 18.5002 9.5057C18.5002 7.87514 17.1736 6.54858 15.5431 6.54858C13.9125 6.54858 12.5859 7.87465 12.5859 9.5052C12.5859 11.1358 13.9125 12.4628 15.5431 12.4628ZM15.5431 8.4509C16.1248 8.4509 16.5979 8.924 16.5979 9.5052C16.5979 10.0869 16.1248 10.56 15.5431 10.56C14.9613 10.56 14.4883 10.0869 14.4883 9.5052C14.4883 8.924 14.9613 8.4509 15.5431 8.4509Z" fill="#C63E34"/>
<path d="M49.1524 6.54797C47.5214 6.54797 46.1953 7.87453 46.1953 9.50509C46.1953 11.1356 47.5219 12.4622 49.1524 12.4622C50.783 12.4622 52.1095 11.1356 52.1095 9.50509C52.1095 7.87453 50.783 6.54797 49.1524 6.54797ZM49.1524 10.5599C48.5707 10.5599 48.0976 10.0868 48.0976 9.50558C48.0976 8.92388 48.5707 8.45078 49.1524 8.45078C49.7336 8.45078 50.2067 8.92388 50.2067 9.50558C50.2067 10.0868 49.7336 10.5599 49.1524 10.5599Z" fill="#C63E34"/>
<path d="M15.5431 58.2843C17.1736 58.2843 18.5002 56.9578 18.5002 55.3272C18.5002 53.6967 17.1736 52.3701 15.5431 52.3701C13.9125 52.3701 12.5859 53.6967 12.5859 55.3272C12.5859 56.9578 13.9125 58.2843 15.5431 58.2843ZM15.5431 54.2729C16.1248 54.2729 16.5979 54.7455 16.5979 55.3272C16.5979 55.9089 16.1248 56.382 15.5431 56.382C14.9613 56.382 14.4883 55.9089 14.4883 55.3272C14.4883 54.7455 14.9613 54.2729 15.5431 54.2729Z" fill="#C63E34"/>
<path d="M49.1524 58.2843C50.783 58.2843 52.1095 56.9578 52.1095 55.3272C52.1095 53.6967 50.783 52.3701 49.1524 52.3701C47.5214 52.3701 46.1953 53.6967 46.1953 55.3272C46.1953 56.9578 47.5219 58.2843 49.1524 58.2843ZM49.1524 54.2729C49.7336 54.2729 50.2067 54.7455 50.2067 55.3272C50.2067 55.9089 49.7336 56.382 49.1524 56.382C48.5707 56.382 48.0976 55.9089 48.0976 55.3272C48.0976 54.7455 48.5707 54.2729 49.1524 54.2729Z" fill="#C63E34"/>
<path d="M61.1011 50.9935C59.596 50.9935 58.3216 51.9982 57.9114 53.3714H55.1026V36.8774C55.1026 36.3522 54.6771 35.9262 54.1514 35.9262C53.6258 35.9262 53.2003 36.3522 53.2003 36.8774V57.604C53.2003 58.7525 52.266 59.6868 51.1175 59.6868H13.6093C12.4607 59.6868 11.5269 58.7525 11.5269 57.604V28.4548C11.5269 27.9296 11.1009 27.5037 10.5753 27.5037C10.0501 27.5037 9.62412 27.9296 9.62412 28.4548V42.5506H3.3935C2.86833 42.5506 2.44234 42.9766 2.44234 43.5017V52.1643C1.06867 52.5744 0.0644531 53.8489 0.0644531 55.354C0.0644531 57.1899 1.55764 58.6831 3.3935 58.6831C5.22936 58.6831 6.72255 57.1899 6.72255 55.354C6.72255 53.8489 5.71833 52.5744 4.34466 52.1643V44.4534H9.62412V57.6044C9.62412 59.8013 11.4119 61.5891 13.6093 61.5891H51.118C53.3148 61.5891 55.1026 59.8018 55.1026 57.6044V55.2742H57.9114C58.3216 56.6478 59.596 57.6521 61.1011 57.6521C62.937 57.6521 64.4302 56.1584 64.4302 54.323C64.4302 52.4871 62.937 50.9935 61.1011 50.9935ZM4.82024 55.354C4.82024 56.1405 4.18002 56.7807 3.3935 56.7807C2.60699 56.7807 1.96677 56.1405 1.96677 55.354C1.96677 54.5675 2.60699 53.9273 3.3935 53.9273C4.18002 53.9273 4.82024 54.5675 4.82024 55.354ZM61.1011 55.7497C60.3146 55.7497 59.6749 55.1095 59.6749 54.323C59.6749 53.5365 60.3146 52.8963 61.1011 52.8963C61.8876 52.8963 62.5279 53.5365 62.5279 54.323C62.5279 55.1095 61.8876 55.7497 61.1011 55.7497Z" fill="#C63E34"/>
<path d="M3.32904 15.4041C4.83413 15.4041 6.10862 14.3994 6.51873 13.0262H9.39749C9.47584 13.0262 9.55122 13.0158 9.62362 12.9979V24.6498C9.62362 25.1755 10.0496 25.601 10.5753 25.601C11.1004 25.601 11.5264 25.1755 11.5264 24.6498V7.41249C11.5264 6.26446 12.4602 5.33017 13.6088 5.33017H51.1174C52.2654 5.33017 53.1997 6.26446 53.1997 7.41249V33.0729C53.1997 33.598 53.6257 34.024 54.1509 34.024C54.6765 34.024 55.102 33.598 55.102 33.0729V23.8469H61.6708C62.1965 23.8469 62.622 23.421 62.622 22.8958V14.2332C63.9957 13.8231 64.9999 12.5486 64.9999 11.0435C64.9999 9.20818 63.5067 7.7145 61.6708 7.7145C59.835 7.7145 58.3418 9.20818 58.3418 11.0435C58.3418 12.5486 59.346 13.8231 60.7197 14.2332V21.9446H55.102V7.41249C55.102 5.21561 53.3143 3.42786 51.1169 3.42786H13.6088C11.4114 3.42786 9.62362 5.21561 9.62362 7.41249V11.1517C9.55122 11.1343 9.47584 11.1234 9.39749 11.1234H6.51873C6.10862 9.75021 4.83413 8.7455 3.32904 8.7455C1.49368 8.7455 0 10.2392 0 12.075C0 13.9104 1.49368 15.4041 3.32904 15.4041ZM60.2441 11.0435C60.2441 10.257 60.8843 9.61681 61.6708 9.61681C62.4573 9.61681 63.0976 10.257 63.0976 11.0435C63.0976 11.8301 62.4573 12.4703 61.6708 12.4703C60.8843 12.4703 60.2441 11.8301 60.2441 11.0435ZM3.32904 10.6483C4.11555 10.6483 4.75577 11.288 4.75577 12.075C4.75577 12.8616 4.11555 13.5013 3.32904 13.5013C2.54253 13.5013 1.90231 12.8616 1.90231 12.075C1.90231 11.288 2.54253 10.6483 3.32904 10.6483Z" fill="#C63E34"/>
<path d="M32.4046 36.4386C39.7322 36.4386 45.6936 30.4767 45.6936 23.1491C45.6936 15.8216 39.7322 9.86023 32.4046 9.86023C25.0771 9.86023 19.1152 15.8216 19.1152 23.1491C19.1152 30.4772 25.0771 36.4386 32.4046 36.4386ZM32.4046 11.7625C38.6834 11.7625 43.7913 16.8704 43.7913 23.1491C43.7913 29.4279 38.6834 34.5362 32.4046 34.5362C26.1259 34.5362 21.0175 29.4279 21.0175 23.1491C21.0175 16.8704 26.1259 11.7625 32.4046 11.7625Z" fill="#C63E34"/>
<path d="M30.4065 30.3998H34.4035C36.4591 30.3998 38.1318 28.7271 38.1318 26.6716V23.3152C38.1318 21.7611 37.1757 20.4266 35.8208 19.8677V17.5999C35.8208 15.6519 34.2364 14.0675 32.289 14.0675C30.3415 14.0675 28.7571 15.6519 28.7571 17.5999V19.9728C27.5262 20.5823 26.6777 21.8513 26.6777 23.3152V26.6716C26.6782 28.7271 28.3504 30.3998 30.4065 30.3998ZM32.289 15.9703C33.1876 15.9703 33.9185 16.7008 33.9185 17.5994V19.587H30.6599V17.5994C30.6599 16.7008 31.3909 15.9703 32.289 15.9703ZM28.5805 23.3152C28.5805 22.3085 29.3998 21.4893 30.4065 21.4893H34.4035C35.4102 21.4893 36.2295 22.3085 36.2295 23.3152V26.6716C36.2295 27.6783 35.4102 28.4975 34.4035 28.4975H30.4065C29.3998 28.4975 28.5805 27.6783 28.5805 26.6716V23.3152Z" fill="#C63E34"/>
<path d="M27.5987 45.9376H37.2124C37.9865 48.7569 40.5707 50.8353 43.633 50.8353C47.3042 50.8353 50.2915 47.8479 50.2915 44.1767C50.2915 40.5049 47.3042 37.5176 43.633 37.5176C40.0088 37.5176 37.0537 40.4286 36.9778 44.0348H27.8332C27.7574 40.4286 24.8022 37.5176 21.1781 37.5176C17.5064 37.5176 14.5195 40.5049 14.5195 44.1767C14.5195 47.8479 17.5064 50.8353 21.1781 50.8353C24.2399 50.8353 26.8246 48.7569 27.5987 45.9376ZM43.633 39.4204C46.2553 39.4204 48.3892 41.5538 48.3892 44.1767C48.3892 46.799 46.2553 48.9324 43.633 48.9324C41.0101 48.9324 38.8767 46.799 38.8767 44.1767C38.8767 41.5538 41.0101 39.4204 43.633 39.4204ZM16.4218 44.1767C16.4218 41.5538 18.5553 39.4204 21.1781 39.4204C23.8005 39.4204 25.9344 41.5538 25.9344 44.1767C25.9344 46.799 23.8005 48.9324 21.1781 48.9324C18.5553 48.9324 16.4218 46.799 16.4218 44.1767Z" fill="#C63E34"/>
<path d="M24.4472 41.76C24.0995 41.3663 23.498 41.3291 23.1047 41.6772L20.2245 44.2212L19.7261 43.588C19.4008 43.1749 18.8027 43.104 18.3901 43.4288C17.9775 43.7536 17.9061 44.3517 18.2314 44.7648L19.3527 46.189C19.5143 46.3948 19.7539 46.5247 20.0147 46.5481C20.043 46.5505 20.0717 46.552 20.1 46.552C20.3311 46.552 20.5553 46.4677 20.7298 46.3135L24.3638 43.1025C24.7576 42.7548 24.7948 42.1538 24.4472 41.76Z" fill="#C63E34"/>
<path d="M41.5032 46.5284C41.6892 46.7133 41.9322 46.8061 42.1747 46.8061C42.4187 46.8061 42.6631 46.7124 42.8486 46.5259L43.7646 45.607L44.6691 46.5428C44.8556 46.7357 45.104 46.8329 45.353 46.8329C45.591 46.8329 45.8295 46.7441 46.014 46.5656C46.3919 46.2001 46.4018 45.598 46.0368 45.2202L45.1075 44.2591L46.0482 43.3154C46.4192 42.9429 46.4177 42.3409 46.0457 41.97C45.6733 41.599 45.0713 41.6 44.7003 41.9724L43.7849 42.8914L42.8803 41.9556C42.5149 41.5777 41.9128 41.5678 41.5354 41.9333C41.1576 42.2983 41.1471 42.9003 41.5126 43.2782L42.442 44.2392L41.5012 45.1835C41.1303 45.5554 41.1313 46.1574 41.5032 46.5284Z" fill="#C63E34"/>
</svg>
