<svg width="60" height="60" viewBox="0 0 60 60" fill="none" xmlns="http://www.w3.org/2000/svg">
<path d="M49.1005 58.4519L46.162 49.7803C46.0009 49.3045 45.5544 48.9845 45.0521 48.9845H44.8816V31.9911C44.8816 23.7849 38.2055 17.1086 29.9992 17.1086C21.7929 17.1086 15.1167 23.7848 15.1167 31.9911V48.9845H14.9462C14.4439 48.9845 13.9975 49.3045 13.8363 49.7803L10.898 58.4519C10.7767 58.8097 10.8354 59.2038 11.0555 59.5108C11.2755 59.8177 11.63 59.9999 12.0078 59.9999H47.9906C48.3684 59.9999 48.7229 59.8177 48.943 59.5108C49.1631 59.2038 49.2218 58.8097 49.1005 58.4519ZM17.4605 31.9912C17.4605 25.0774 23.0853 19.4525 29.9992 19.4525C36.913 19.4525 42.5379 25.0774 42.5379 31.9912V48.9846H17.4605V31.9912ZM13.6423 57.6562L15.7864 51.3283H44.2118L46.3561 57.6562H13.6423Z" fill="#C63E34"/>
<path d="M30 0C29.3529 0 28.8281 0.524766 28.8281 1.17188V8.20301C28.8281 8.85012 29.3528 9.37488 30 9.37488C30.6471 9.37488 31.1719 8.85012 31.1719 8.20301V1.17188C31.1719 0.524766 30.6471 0 30 0Z" fill="#C63E34"/>
<path d="M30.8284 11.9395C30.6105 11.7215 30.3082 11.5973 30 11.5973C29.6918 11.5973 29.3895 11.7215 29.1715 11.9395C28.9535 12.1586 28.8281 12.4597 28.8281 12.7692C28.8281 13.0774 28.9534 13.3785 29.1715 13.5977C29.3895 13.8155 29.6918 13.9399 30 13.9399C30.3082 13.9399 30.6105 13.8155 30.8284 13.5977C31.0464 13.3785 31.1719 13.0774 31.1719 12.7692C31.1719 12.4597 31.0465 12.1586 30.8284 11.9395Z" fill="#C63E34"/>
<path d="M11.1911 31.3665H5.81018C5.16307 31.3665 4.63831 31.8912 4.63831 32.5383C4.63831 33.1854 5.16307 33.7102 5.81018 33.7102H11.1912C11.8383 33.7102 12.3631 33.1854 12.3631 32.5383C12.3631 31.8912 11.8382 31.3665 11.1911 31.3665Z" fill="#C63E34"/>
<path d="M2.0004 31.7098C1.78254 31.4917 1.4802 31.3665 1.172 31.3665C0.863794 31.3665 0.56145 31.4917 0.343481 31.7098C0.125513 31.9279 0.00012207 32.2301 0.00012207 32.5383C0.00012207 32.8465 0.125396 33.1489 0.343481 33.3667C0.56145 33.5847 0.863794 33.7102 1.172 33.7102C1.4802 33.7102 1.78254 33.5848 2.0004 33.3667C2.21836 33.1489 2.34387 32.8465 2.34387 32.5383C2.34387 32.2301 2.21836 31.9278 2.0004 31.7098Z" fill="#C63E34"/>
<path d="M22.1105 10.4284L20.5221 6.59386C20.2744 5.99597 19.5889 5.71249 18.9909 5.95964C18.3929 6.20738 18.1091 6.89292 18.3567 7.49081L19.9451 11.3253C20.1321 11.7766 20.5684 12.0491 21.0282 12.0491C21.1776 12.0491 21.3295 12.0202 21.4762 11.9595C22.0742 11.7117 22.3581 11.0261 22.1105 10.4284Z" fill="#C63E34"/>
<path d="M8.78754 22.4829L4.95305 20.8945C4.35492 20.6475 3.66961 20.931 3.42188 21.5287C3.17426 22.1267 3.4582 22.8122 4.05609 23.0599L7.89059 24.6483C8.03731 24.7089 8.18918 24.7378 8.33859 24.7378C8.79844 24.7378 9.23473 24.4653 9.42176 24.0141C9.66938 23.416 9.38543 22.7306 8.78754 22.4829Z" fill="#C63E34"/>
<path d="M54.6772 31.3665H49.2962C48.6491 31.3665 48.1243 31.8912 48.1243 32.5383C48.1243 33.1854 48.6491 33.7102 49.2962 33.7102H54.6772C55.3243 33.7102 55.8491 33.1854 55.8491 32.5383C55.8491 31.8912 55.3243 31.3665 54.6772 31.3665Z" fill="#C63E34"/>
<path d="M59.6564 31.7098C59.4385 31.4918 59.1362 31.3665 58.828 31.3665C58.5198 31.3665 58.2175 31.4917 57.9995 31.7098C57.7815 31.9279 57.6561 32.2301 57.6561 32.5383C57.6561 32.8465 57.7814 33.1489 57.9995 33.3667C58.2175 33.5847 58.5198 33.7102 58.828 33.7102C59.1362 33.7102 59.4385 33.5848 59.6564 33.3667C59.8744 33.1489 59.9999 32.8465 59.9999 32.5383C59.9999 32.2301 59.8745 31.9278 59.6564 31.7098Z" fill="#C63E34"/>
<path d="M53.1742 9.36436C52.7164 8.90687 51.9746 8.90687 51.5168 9.36436L45.7508 15.1305C45.2932 15.5881 45.2932 16.3301 45.7508 16.7878C45.9798 17.0167 46.2797 17.1311 46.5796 17.1311C46.8796 17.1311 47.1793 17.0166 47.4082 16.7878L53.1742 11.0217C53.6317 10.5641 53.6317 9.8221 53.1742 9.36436Z" fill="#C63E34"/>
<path d="M14.2503 15.1305L8.48436 9.36461C8.02663 8.90711 7.28483 8.90711 6.82698 9.36461C6.36936 9.82223 6.36936 10.5643 6.82698 11.022L12.5931 16.788C12.8219 17.0167 13.1218 17.1312 13.4217 17.1312C13.7216 17.1312 14.0215 17.0167 14.2503 16.788C14.708 16.3302 14.708 15.5882 14.2503 15.1305Z" fill="#C63E34"/>
<path d="M41.01 5.95946C40.412 5.71242 39.7265 5.9959 39.4788 6.59367L37.8904 10.4282C37.6428 11.0261 37.9268 11.7115 38.5247 11.9593C38.6714 12.02 38.8233 12.0489 38.9727 12.0489C39.4325 12.0489 39.8688 11.7764 40.0558 11.3251L41.6442 7.49063C41.8918 6.8925 41.6079 6.20719 41.01 5.95946Z" fill="#C63E34"/>
<path d="M56.5792 21.5289C56.3314 20.9309 55.646 20.6474 55.048 20.8946L51.2135 22.483C50.6155 22.7307 50.3317 23.4163 50.5793 24.0142C50.7663 24.4655 51.2026 24.7379 51.6625 24.7379C51.8119 24.7379 51.9638 24.7091 52.1105 24.6484L55.945 23.06C56.543 22.8123 56.8268 22.1268 56.5792 21.5289Z" fill="#C63E34"/>
<path d="M29.9991 24.493C28.0606 24.493 26.4836 26.0702 26.4836 28.0086V33.6334C26.4836 35.572 28.0608 37.1489 29.9991 37.1489C31.9375 37.1489 33.5147 35.5718 33.5147 33.6334V28.0086C33.5147 26.0702 31.9377 24.493 29.9991 24.493ZM31.171 33.6334C31.171 34.2796 30.6453 34.8053 29.9991 34.8053C29.353 34.8053 28.8273 34.2796 28.8273 33.6334V28.0086C28.8273 27.3624 29.353 26.8367 29.9991 26.8367C30.6453 26.8367 31.171 27.3624 31.171 28.0086V33.6334Z" fill="#C63E34"/>
<path d="M29.9991 39.4929C28.0606 39.4929 26.4836 41.07 26.4836 43.0084C26.4836 44.9469 28.0608 46.5239 29.9991 46.5239C31.9375 46.5239 33.5147 44.9468 33.5147 43.0084C33.5147 41.0699 31.9377 39.4929 29.9991 39.4929ZM29.9991 44.1803C29.353 44.1803 28.8273 43.6546 28.8273 43.0084C28.8273 42.3623 29.353 41.8366 29.9991 41.8366C30.6453 41.8366 31.171 42.3623 31.171 43.0084C31.171 43.6546 30.6453 44.1803 29.9991 44.1803Z" fill="#C63E34"/>
</svg>
