<svg width="74" height="46" viewBox="0 0 74 46" fill="none" xmlns="http://www.w3.org/2000/svg">
<g clip-path="url(#clip0)">
<path d="M71.2838 0H2.71622C1.2223 0 0 1.21765 0 2.70588V5.41177C0 6.9 1.2223 8.11765 2.71622 8.11765H24.9213C25.5494 11.1956 28.2996 13.5294 31.576 13.5294H32.9341V18.9412H27.5017V27.0588H35.6504V29.7647H38.3666V27.0588H46.5152V18.9412H41.0828V13.5294H42.4409C45.7173 13.5294 48.4675 11.1956 49.0956 8.11765H71.3007C72.7946 8.11765 74.0169 6.9 74.0169 5.41177V2.70588C74 1.21765 72.7946 0 71.2838 0ZM43.799 24.3529H30.2179V21.6471H43.799V24.3529ZM38.3666 18.9412H35.6504V13.5294H38.3666V18.9412ZM42.4409 10.8235H31.576C29.8105 10.8235 28.3166 9.69044 27.7564 8.11765H46.2606C45.7004 9.69044 44.2065 10.8235 42.4409 10.8235ZM2.71622 5.41177V2.70588H71.2838V5.41177H2.71622Z" fill="#C63E34"/>
<path d="M9.20108 33.8235L6.85834 32.4368C6.383 33.2485 5.92464 34.0941 5.53418 34.9566L7.99575 36.0897C8.36923 35.3118 8.77667 34.5507 9.20108 33.8235Z" fill="#C63E34"/>
<path d="M3.70105 40.3346L6.34936 40.9434C6.5361 40.1147 6.77377 39.286 7.0454 38.4743L4.48196 37.5948C4.17639 38.4912 3.92174 39.4213 3.70105 40.3346Z" fill="#C63E34"/>
<path d="M3.05573 46.0001H5.77194C5.77194 45.1545 5.82287 44.3089 5.92473 43.4633L3.22549 43.142C3.10665 44.1059 3.05573 45.053 3.05573 46.0001Z" fill="#C63E34"/>
<path d="M25.1931 20.0066C24.2425 20.1419 23.2918 20.3279 22.3751 20.5647L23.0711 23.186C23.886 22.9661 24.7348 22.797 25.5836 22.6786L25.1931 20.0066Z" fill="#C63E34"/>
<path d="M8.45441 30.069L10.6274 31.6756C11.1367 30.9822 11.6969 30.3227 12.2571 29.697L10.2539 27.8705C9.62578 28.5808 9.01463 29.308 8.45441 30.069Z" fill="#C63E34"/>
<path d="M17.0275 22.6448L18.3007 25.0294C19.0477 24.6235 19.8286 24.2684 20.6265 23.9639L19.6418 21.4441C18.7591 21.7992 17.8763 22.2051 17.0275 22.6448Z" fill="#C63E34"/>
<path d="M12.3247 25.8919L14.1072 27.9214C14.7523 27.3633 15.4314 26.839 16.1274 26.3486L14.5826 24.1162C13.8017 24.6743 13.0377 25.2662 12.3247 25.8919Z" fill="#C63E34"/>
<path d="M70.9611 46.0001C70.9611 45.053 70.9102 44.1059 70.7913 43.142L68.0921 43.4464C68.194 44.292 68.2449 45.1545 68.2449 45.9831H70.9611V46.0001Z" fill="#C63E34"/>
<path d="M64.7986 33.8235C65.24 34.5507 65.6305 35.3118 65.987 36.0897L68.4486 34.9566C68.0581 34.0941 67.5997 33.2485 67.1244 32.4368L64.7986 33.8235Z" fill="#C63E34"/>
<path d="M63.7292 27.8705L61.726 29.697C62.3032 30.3227 62.8465 30.9822 63.3557 31.6756L65.5287 30.069C64.9855 29.308 64.3743 28.5808 63.7292 27.8705Z" fill="#C63E34"/>
<path d="M57.8726 26.3653C58.5686 26.8389 59.2476 27.3801 59.8927 27.9381L61.6753 25.9087C60.9623 25.283 60.1983 24.6911 59.4174 24.1499L57.8726 26.3653Z" fill="#C63E34"/>
<path d="M51.6422 20.5647C50.7255 20.3279 49.7748 20.1419 48.8242 20.0066L48.4507 22.6786C49.2995 22.797 50.1313 22.9661 50.9632 23.186L51.6422 20.5647Z" fill="#C63E34"/>
<path d="M66.9549 38.4743C67.2265 39.286 67.4642 40.1147 67.6509 40.9434L70.2992 40.3346C70.0955 39.4213 69.8239 38.4912 69.5183 37.5948L66.9549 38.4743Z" fill="#C63E34"/>
<path d="M53.3738 23.9639C54.1717 24.2684 54.9526 24.6235 55.6995 25.0294L56.9728 22.6448C56.124 22.2051 55.2582 21.7992 54.3584 21.4441L53.3738 23.9639Z" fill="#C63E34"/>
<path d="M38.3666 37.8823H35.6504V40.5882H38.3666V37.8823Z" fill="#C63E34"/>
<path d="M38.3666 43.2941H35.6504V46H38.3666V43.2941Z" fill="#C63E34"/>
<path d="M38.3666 32.4706H35.6504V35.1765H38.3666V32.4706Z" fill="#C63E34"/>
<path d="M17.0271 33.8235L14.6844 32.4368C14.209 33.2485 13.7507 34.0941 13.3602 34.9566L15.8218 36.0897C16.1953 35.3118 16.5857 34.5507 17.0271 33.8235Z" fill="#C63E34"/>
<path d="M11.527 40.3346L14.1754 40.9434C14.3621 40.1147 14.5998 39.286 14.8714 38.4743L12.308 37.5948C11.9854 38.4912 11.7308 39.4213 11.527 40.3346Z" fill="#C63E34"/>
<path d="M10.8649 46.0001H13.5811C13.5811 45.1545 13.632 44.3089 13.7339 43.4633L11.0346 43.142C10.9328 44.1059 10.8649 45.053 10.8649 46.0001Z" fill="#C63E34"/>
<path d="M16.2635 30.069L18.4365 31.6756C18.9458 30.9822 19.506 30.3227 20.0663 29.697L18.063 27.8705C17.4519 28.5808 16.8407 29.308 16.2635 30.069Z" fill="#C63E34"/>
<path d="M20.2019 26.2133L21.8147 28.378C22.4937 27.8706 23.2237 27.3971 23.9537 26.9743L22.5956 24.6405C21.7807 25.114 20.9658 25.6383 20.2019 26.2133Z" fill="#C63E34"/>
<path d="M24.8363 33.8235L22.4935 32.4368C22.0182 33.2485 21.5598 34.0941 21.1694 34.9566L23.6309 36.0897C24.0044 35.3118 24.4119 34.5507 24.8363 33.8235Z" fill="#C63E34"/>
<path d="M19.3362 40.3346L21.9845 40.9434C22.1712 40.1147 22.4089 39.286 22.6805 38.4743L20.1171 37.5948C19.8115 38.4912 19.5399 39.4213 19.3362 40.3346Z" fill="#C63E34"/>
<path d="M18.6909 46H21.4071C21.4071 45.1544 21.4581 44.3088 21.5599 43.4632L18.8607 43.1588C18.7418 44.1059 18.6909 45.0529 18.6909 46Z" fill="#C63E34"/>
<path d="M24.0895 30.069L26.2625 31.6756C26.7718 30.9822 27.332 30.3227 27.8922 29.697L25.889 27.8705C25.2609 28.5808 24.6498 29.308 24.0895 30.069Z" fill="#C63E34"/>
<path d="M32.3739 34.1617L30.0311 32.7749C29.5558 33.5867 29.0974 34.4323 28.707 35.2948L31.1685 36.4278C31.542 35.6499 31.9325 34.8889 32.3739 34.1617Z" fill="#C63E34"/>
<path d="M27.3151 40.3346L29.9634 40.9434C30.1501 40.1147 30.3878 39.286 30.6594 38.4743L28.096 37.5948C27.7904 38.4912 27.5358 39.4213 27.3151 40.3346Z" fill="#C63E34"/>
<path d="M26.6698 46H29.386C29.386 45.1544 29.4369 44.3088 29.5388 43.4632L26.8396 43.1588C26.7207 44.1059 26.6698 45.0529 26.6698 46Z" fill="#C63E34"/>
<path d="M34.547 30.5088L32.2043 29.1221C31.7289 29.9338 31.2706 30.7794 30.8801 31.6419L33.3417 32.775C33.6982 32.014 34.1056 31.253 34.547 30.5088Z" fill="#C63E34"/>
<path d="M58.1273 36.0897L60.5888 34.9566C60.1984 34.0941 59.74 33.2485 59.2647 32.4368L56.9219 33.8235C57.3633 34.5507 57.7708 35.3118 58.1273 36.0897Z" fill="#C63E34"/>
<path d="M61.6581 37.5948L59.0947 38.4743C59.3663 39.286 59.604 40.1147 59.7907 40.9434L62.439 40.3346C62.2183 39.4213 61.9637 38.4912 61.6581 37.5948Z" fill="#C63E34"/>
<path d="M62.9143 43.142L60.215 43.4464C60.3169 44.292 60.3678 45.1545 60.3678 45.9831H63.084C63.084 45.053 63.0331 44.1059 62.9143 43.142Z" fill="#C63E34"/>
<path d="M57.6859 30.069C57.1257 29.308 56.4975 28.5639 55.8694 27.8705L53.8662 29.697C54.4434 30.3227 54.9867 30.9822 55.4959 31.6756L57.6859 30.069Z" fill="#C63E34"/>
<path d="M51.3535 24.6405L49.9954 26.9743C50.7254 27.3971 51.4554 27.8706 52.1344 28.378L53.7472 26.2133C52.9833 25.6383 52.1684 25.114 51.3535 24.6405Z" fill="#C63E34"/>
<path d="M50.3181 36.0897L52.7797 34.9566C52.3892 34.0941 51.9309 33.2485 51.4555 32.4368L49.1128 33.8235C49.5542 34.5507 49.9446 35.3118 50.3181 36.0897Z" fill="#C63E34"/>
<path d="M53.832 37.5948L51.2686 38.4743C51.5402 39.286 51.7779 40.1147 51.9646 40.9434L54.613 40.3346C54.4092 39.4213 54.1376 38.4912 53.832 37.5948Z" fill="#C63E34"/>
<path d="M55.1051 43.142L52.4059 43.4464C52.5077 44.292 52.5587 45.1545 52.5587 45.9831H55.2749C55.2749 45.053 55.207 44.1059 55.1051 43.142Z" fill="#C63E34"/>
<path d="M48.0429 27.8875L46.0397 29.7139C46.6169 30.3397 47.1602 30.9992 47.6695 31.6926L49.8424 30.086C49.2992 29.308 48.688 28.5808 48.0429 27.8875Z" fill="#C63E34"/>
<path d="M42.7806 36.4278L45.2421 35.2948C44.8517 34.4323 44.3933 33.5867 43.918 32.7749L41.5753 34.1617C42.0166 34.8889 42.4241 35.6499 42.7806 36.4278Z" fill="#C63E34"/>
<path d="M45.8532 37.5948L43.2897 38.4743C43.5614 39.286 43.799 40.1147 43.9858 40.9434L46.6341 40.3346C46.4134 39.4213 46.1587 38.4912 45.8532 37.5948Z" fill="#C63E34"/>
<path d="M47.1093 43.142L44.4101 43.4464C44.512 44.292 44.5629 45.1545 44.5629 45.9831H47.2791C47.2791 45.053 47.2282 44.1059 47.1093 43.142Z" fill="#C63E34"/>
<path d="M40.6074 32.775L43.0689 31.6419C42.6785 30.7794 42.2201 29.9338 41.7448 29.1221L39.402 30.5088C39.8434 31.253 40.2509 32.014 40.6074 32.775Z" fill="#C63E34"/>
</g>
<defs>
<clipPath id="clip0">
<rect width="74" height="46" fill="white"/>
</clipPath>
</defs>
</svg>
