<svg width="58" height="60" viewBox="0 0 58 60" fill="none" xmlns="http://www.w3.org/2000/svg">
<g clip-path="url(#clip0)">
<path d="M23.8735 45.4958V56.033H22.5057V58.8843H25.3656H31.4585H34.3184V56.033H32.9506V45.4958C33.448 45.4958 23.8735 45.4958 23.8735 45.4958ZM26.7334 56.033V45.4958H29.9664V56.033H26.7334Z" fill="#C63E34"/>
<path d="M28.7234 47.4793C27.3556 47.4793 25.9878 47.1074 24.7444 46.4876L4.10334 34.7107C1.49212 33.2231 0 30.6198 0 27.6446C0 24.6694 1.49212 22.0661 4.10334 20.5785L24.7444 8.80166C27.2313 7.43802 30.3399 7.43802 32.7024 8.80166L53.3435 20.5785C55.9547 22.0661 57.4468 24.6694 57.4468 27.6446C57.4468 30.6198 55.9547 33.2231 53.3435 34.7107L32.7024 46.4876C31.459 47.1074 30.0912 47.4793 28.7234 47.4793ZM28.7234 10.6612C27.853 10.6612 26.9826 10.9091 26.1122 11.281L5.47112 23.0579C3.85466 24.0496 2.85991 25.6612 2.85991 27.6446C2.85991 29.6281 3.85466 31.2397 5.47112 32.2314L26.1122 43.8843C27.7287 44.7521 29.7182 44.7521 31.3346 43.8843L51.9757 32.2314C53.5922 31.2397 54.5869 29.6281 54.5869 27.6446C54.5869 25.6612 53.5922 24.0496 51.9757 23.0579L31.3346 11.405C30.5886 10.9091 29.5938 10.6612 28.7234 10.6612Z" fill="#C63E34"/>
<path d="M46.8774 0H11.3151V2.85124H46.8774V0Z" fill="#C63E34"/>
<path d="M22.7546 2.35535H19.8947V13.2644H22.7546V2.35535Z" fill="#C63E34"/>
<path d="M37.6762 2.35535H34.8163V13.2644H37.6762V2.35535Z" fill="#C63E34"/>
</g>
<defs>
<clipPath id="clip0">
<rect width="57.4468" height="60" fill="white"/>
</clipPath>
</defs>
</svg>
