<svg width="60" height="60" viewBox="0 0 60 60" fill="none" xmlns="http://www.w3.org/2000/svg">
<path d="M53.75 60H6.25C2.8025 60 0 57.195 0 53.75V6.25C0 2.805 2.8025 0 6.25 0H53.75C57.1975 0 60 2.805 60 6.25V53.75C60 57.195 57.1975 60 53.75 60ZM6.25 2.5C4.1825 2.5 2.5 4.1825 2.5 6.25V53.75C2.5 55.8175 4.1825 57.5 6.25 57.5H53.75C55.8175 57.5 57.5 55.8175 57.5 53.75V6.25C57.5 4.1825 55.8175 2.5 53.75 2.5H6.25Z" fill="#C63E34"/>
<path d="M33.7494 47.4999C33.5069 47.4999 33.2669 47.4299 33.0569 47.2899L18.3719 37.4999H12.4994C11.1194 37.4999 9.99939 36.3774 9.99939 34.9999V24.9999C9.99939 23.6224 11.1194 22.4999 12.4994 22.4999H18.3719L33.0569 12.7099C33.4419 12.4549 33.9369 12.4324 34.3419 12.6474C34.7444 12.8649 34.9994 13.2874 34.9994 13.7499V46.2499C34.9994 46.7124 34.7444 47.1349 34.3394 47.3524C34.1544 47.4499 33.9519 47.4999 33.7494 47.4999ZM12.4994 24.9999V34.9999H18.7494C18.9969 34.9999 19.2369 35.0724 19.4419 35.2099L32.4994 43.9149V16.0849L19.4419 24.7899C19.2369 24.9274 18.9969 24.9999 18.7494 24.9999H12.4994Z" fill="#C63E34"/>
<path d="M39.9995 38.4001C39.6045 38.4001 39.2145 38.2126 38.972 37.8626C38.5795 37.2951 38.7195 36.5151 39.2895 36.1226C41.2995 34.7301 42.4995 32.4426 42.4995 30.0001C42.4995 27.5576 41.2995 25.2701 39.2895 23.8776C38.7195 23.4851 38.5795 22.7051 38.972 22.1376C39.3645 21.5676 40.1445 21.4301 40.7095 21.8226C43.3946 23.6801 44.9996 26.7376 44.9996 30.0001C44.9996 33.2626 43.3946 36.3201 40.7095 38.1776C40.492 38.3276 40.247 38.4001 39.9995 38.4001V38.4001Z" fill="#C63E34"/>
<path d="M39.9996 44.05C39.4996 44.05 39.0271 43.7475 38.8346 43.255C38.5821 42.6125 38.8996 41.8875 39.5446 41.6375C44.3771 39.75 47.4996 35.1825 47.4996 30C47.4996 24.8175 44.3771 20.25 39.5446 18.365C38.8996 18.1125 38.5821 17.3875 38.8346 16.7475C39.0871 16.1025 39.8121 15.78 40.4521 16.0375C46.2521 18.3 49.9996 23.78 49.9996 30C49.9996 36.22 46.2521 41.7 40.4546 43.965C40.3046 44.0225 40.1521 44.05 39.9996 44.05V44.05Z" fill="#C63E34"/>
</svg>
