<svg width="60" height="60" viewBox="0 0 60 60" fill="none" xmlns="http://www.w3.org/2000/svg">
<path d="M44.6206 0H15.3794C13.028 0 11.115 1.9129 11.115 4.26423V55.7356C11.115 58.087 13.028 60 15.3794 60H44.6206C46.972 60 48.8849 58.0871 48.8849 55.7356V4.26423C48.8849 1.9129 46.972 0 44.6206 0ZM46.7265 55.7356C46.7265 56.8968 45.7818 57.8416 44.6206 57.8416H15.3794C14.2182 57.8416 13.2734 56.897 13.2734 55.7356V4.26423C13.2734 3.10303 14.218 2.15838 15.3794 2.15838H44.6206C45.7817 2.15838 46.7265 3.10303 46.7265 4.26423V55.7356V55.7356Z" fill="#C63E34"/>
<path d="M41.4389 25.356H18.5611C17.9649 25.356 17.4819 25.8391 17.4819 26.4351V32.6941C17.4819 33.2901 17.9649 33.7733 18.5611 33.7733H41.4387C42.0349 33.7733 42.5179 33.2901 42.5179 32.6941V26.4351C42.518 25.8391 42.0349 25.356 41.4389 25.356ZM29.9836 27.5143H36.1678L35.0365 31.615H28.8524L29.9836 27.5143ZM26.6135 31.615H24.4975L25.6287 27.5143H27.7447L26.6135 31.615ZM19.6403 27.5143H23.3898L22.2585 31.615H19.6401V27.5143H19.6403ZM40.3597 31.615H37.2755L38.4068 27.5143H40.3598V31.615H40.3597Z" fill="#C63E34"/>
<path d="M30.0007 22.7627C34.9989 22.7627 39.0654 18.6962 39.0654 13.6978C39.0654 8.69944 34.9989 4.63306 30.0007 4.63306C25.0024 4.63306 20.9359 8.69944 20.9359 13.6978C20.9359 18.6962 25.0024 22.7627 30.0007 22.7627ZM30.0007 6.79143C33.8089 6.79143 36.9071 9.88957 36.9071 13.6978C36.9071 17.506 33.8089 20.6043 30.0007 20.6043C26.1924 20.6043 23.0943 17.506 23.0943 13.6978C23.0943 9.88957 26.1926 6.79143 30.0007 6.79143Z" fill="#C63E34"/>
<path d="M30.0007 18.9857C32.9163 18.9857 35.2884 16.6136 35.2884 13.6978C35.2884 10.782 32.9163 8.40991 30.0007 8.40991C27.0848 8.40991 24.7128 10.782 24.7128 13.6978C24.7128 16.6136 27.085 18.9857 30.0007 18.9857ZM30.0007 10.5684C31.7262 10.5684 33.13 11.9722 33.13 13.6979C33.13 15.4236 31.7262 16.8274 30.0007 16.8274C28.2751 16.8274 26.8711 15.4236 26.8711 13.6979C26.8711 11.9722 28.2751 10.5684 30.0007 10.5684Z" fill="#C63E34"/>
<path d="M29.8964 37.4117C29.4757 37.128 28.8932 37.188 28.5351 37.5455C28.2406 37.8394 28.1419 38.2903 28.2854 38.6801C28.4428 39.1082 28.8666 39.3997 29.3243 39.3881C29.7796 39.3764 30.1853 39.0704 30.3248 38.6381C30.469 38.1907 30.2956 37.6683 29.8964 37.4117C29.9568 37.4506 29.8387 37.3729 29.8964 37.4117Z" fill="#C63E34"/>
<path d="M30.2961 41.7817C30.1239 41.3745 29.7169 41.105 29.2727 41.1158C28.8192 41.1267 28.42 41.4282 28.2754 41.8558C28.1327 42.2781 28.2795 42.7677 28.6313 43.0418C28.9986 43.328 29.5093 43.346 29.8977 43.0911C30.3259 42.8101 30.484 42.2524 30.2961 41.7817C30.322 41.8465 30.2688 41.7168 30.2961 41.7817Z" fill="#C63E34"/>
<path d="M30.2949 45.6668C30.1334 45.2768 29.7471 45.0111 29.3244 45.0009C28.8621 44.9898 28.4398 45.2827 28.2827 45.7159C28.1263 46.1473 28.2722 46.6485 28.6345 46.9295C29.0125 47.2226 29.5437 47.2304 29.932 46.9521C30.3353 46.6632 30.477 46.123 30.2949 45.6668C30.3208 45.7316 30.2675 45.6007 30.2949 45.6668Z" fill="#C63E34"/>
<path d="M29.8965 49.0669C29.4893 48.7923 28.9254 48.8381 28.5654 49.1712C28.2609 49.4529 28.1438 49.8989 28.271 50.2934C28.4162 50.7439 28.8504 51.0534 29.3244 51.0419C29.7798 51.0308 30.1853 50.7262 30.3249 50.2934C30.4691 49.8459 30.2957 49.3234 29.8965 49.0669C29.957 49.1057 29.8388 49.028 29.8965 49.0669Z" fill="#C63E34"/>
<path d="M25.8703 37.8967C25.4949 37.009 24.1884 37.0322 23.8583 37.9458C23.5243 38.8703 24.5577 39.7283 25.4064 39.2474C25.8709 38.9841 26.0794 38.391 25.8703 37.8967Z" fill="#C63E34"/>
<path d="M25.8709 41.7817C25.8165 41.6503 25.7367 41.5325 25.6378 41.4306C25.2168 41.0206 24.531 41.0123 24.1111 41.4306C23.7284 41.812 23.6949 42.4375 24.0268 42.8619C24.336 43.2571 24.8989 43.383 25.3482 43.1636C25.8502 42.9184 26.0899 42.2993 25.8709 41.7817C25.8984 41.8464 25.8436 41.7155 25.8709 41.7817Z" fill="#C63E34"/>
<path d="M25.8709 45.6667C25.8165 45.5353 25.7367 45.4175 25.6378 45.3156C25.2167 44.9057 24.5312 44.8973 24.1111 45.3156C23.7387 45.6864 23.6953 46.2877 24.0013 46.7131C24.3135 47.1468 24.9198 47.2809 25.3877 47.0283C25.8647 46.7706 26.0833 46.1687 25.8709 45.6667C25.8984 45.7314 25.8436 45.6005 25.8709 45.6667Z" fill="#C63E34"/>
<path d="M25.8706 49.5502C25.5049 48.6863 24.2406 48.6787 23.8777 49.5502C23.7012 49.9744 23.8203 50.4813 24.1694 50.7806C24.5134 51.0756 25.0126 51.125 25.4066 50.9017C25.8742 50.6369 26.076 50.0468 25.8706 49.5502C25.8981 49.6166 25.8433 49.4856 25.8706 49.5502Z" fill="#C63E34"/>
<path d="M21.4467 37.8967C21.1503 37.1959 20.2306 37.0178 19.6869 37.5456C19.1125 38.1372 19.3845 39.1508 20.1881 39.3559C21.0251 39.5695 21.7859 38.6983 21.4467 37.8967Z" fill="#C63E34"/>
<path d="M21.4461 41.7818C21.1491 41.0798 20.2305 40.9023 19.6863 41.4307C19.1112 42.0233 19.3847 43.0344 20.1875 43.2404C21.0244 43.4553 21.7851 42.5833 21.4461 41.7818Z" fill="#C63E34"/>
<path d="M21.4467 45.6668C21.1547 44.9614 20.2281 44.7904 19.6869 45.3157C19.0959 45.9245 19.4043 46.965 20.2396 47.1374C21.0638 47.3073 21.7762 46.4455 21.4467 45.6668C21.4742 45.7316 21.4193 45.6006 21.4467 45.6668Z" fill="#C63E34"/>
<path d="M21.4458 49.5519C21.0806 48.6697 19.7878 48.6875 19.4434 49.5765C19.2807 49.9964 19.4023 50.4875 19.7447 50.7809C20.0885 51.0756 20.5881 51.1252 20.9819 50.9019C21.4464 50.6387 21.655 50.0464 21.4458 49.5519C21.4733 49.6166 21.4185 49.4857 21.4458 49.5519Z" fill="#C63E34"/>
<path d="M38.8497 43.7051C36.8264 43.7051 35.1806 45.3511 35.1806 47.3742C35.1806 49.3973 36.8264 51.0433 38.8497 51.0433C40.873 51.0433 42.5188 49.3973 42.5188 47.3742C42.5188 45.3511 40.8728 43.7051 38.8497 43.7051ZM38.8497 48.8849C38.0167 48.8849 37.339 48.2072 37.339 47.3742C37.339 46.5412 38.0167 45.8635 38.8497 45.8635C39.6827 45.8635 40.3604 46.5412 40.3604 47.3742C40.3604 48.2072 39.6827 48.8849 38.8497 48.8849Z" fill="#C63E34"/>
</svg>
