<svg width="60" height="60" viewBox="0 0 60 60" fill="none" xmlns="http://www.w3.org/2000/svg">
<path d="M59.1211 0H0.878906C0.393398 0 0 0.393398 0 0.878906V5.27344C0 5.75895 0.393398 6.15234 0.878906 6.15234C1.36441 6.15234 1.75781 5.75895 1.75781 5.27344V1.75781H58.2422V58.2422H1.75781V11.1328C1.75781 10.6473 1.36441 10.2539 0.878906 10.2539C0.393398 10.2539 0 10.6473 0 11.1328V59.1211C0 59.6066 0.393398 60 0.878906 60H59.1211C59.6066 60 60 59.6066 60 59.1211V0.878906C60 0.393398 59.6066 0 59.1211 0Z" fill="#C63E34"/>
<path d="M8.14453 4.10156C5.91527 4.10156 4.10156 5.91527 4.10156 8.14453C4.10156 10.3738 5.91527 12.1875 8.14453 12.1875C10.3738 12.1875 12.1875 10.3738 12.1875 8.14453C12.1875 5.91527 10.3738 4.10156 8.14453 4.10156ZM8.14453 5.85938C8.47535 5.85938 8.78906 5.93156 9.07324 6.05859L6.00949 8.95207C5.91398 8.70059 5.85938 8.42906 5.85938 8.14453C5.85938 6.88453 6.88453 5.85938 8.14453 5.85938ZM8.14453 10.4297C7.81371 10.4297 7.5 10.3575 7.21582 10.2305L10.2796 7.33699C10.3751 7.58848 10.4297 7.86 10.4297 8.14453C10.4297 9.40453 9.40453 10.4297 8.14453 10.4297Z" fill="#C63E34"/>
<path d="M51.8555 4.10156C49.6262 4.10156 47.8125 5.91527 47.8125 8.14453C47.8125 10.3738 49.6262 12.1875 51.8555 12.1875C54.0847 12.1875 55.8984 10.3738 55.8984 8.14453C55.8984 5.91527 54.0847 4.10156 51.8555 4.10156ZM51.8555 5.85938C52.1863 5.85938 52.5 5.93156 52.7842 6.05859L49.7204 8.95207C49.6249 8.70059 49.5703 8.42906 49.5703 8.14453C49.5703 6.88453 50.5955 5.85938 51.8555 5.85938ZM51.8555 10.4297C51.5246 10.4297 51.2109 10.3575 50.9268 10.2305L53.9905 7.33699C54.086 7.58848 54.1406 7.86 54.1406 8.14453C54.1406 9.40453 53.1155 10.4297 51.8555 10.4297Z" fill="#C63E34"/>
<path d="M8.14453 56.0156C10.3738 56.0156 12.1875 54.2019 12.1875 51.9727C12.1875 49.7434 10.3738 47.9297 8.14453 47.9297C5.91527 47.9297 4.10156 49.7434 4.10156 51.9727C4.10156 54.2019 5.91527 56.0156 8.14453 56.0156ZM8.14453 54.2578C7.81371 54.2578 7.5 54.1856 7.21582 54.0586L10.2796 51.1651C10.3751 51.4166 10.4297 51.6881 10.4297 51.9727C10.4297 53.2327 9.40453 54.2578 8.14453 54.2578V54.2578ZM8.14453 49.6875C8.47535 49.6875 8.78906 49.7597 9.07324 49.8867L6.00949 52.7802C5.91398 52.5287 5.85938 52.2572 5.85938 51.9727C5.85938 50.7127 6.88453 49.6875 8.14453 49.6875V49.6875Z" fill="#C63E34"/>
<path d="M51.8555 56.0156C54.0847 56.0156 55.8984 54.2019 55.8984 51.9727C55.8984 49.7434 54.0847 47.9297 51.8555 47.9297C49.6262 47.9297 47.8125 49.7434 47.8125 51.9727C47.8125 54.2019 49.6262 56.0156 51.8555 56.0156ZM51.8555 54.2578C51.5246 54.2578 51.2109 54.1856 50.9268 54.0586L53.9905 51.1651C54.086 51.4166 54.1406 51.6881 54.1406 51.9727C54.1406 53.2327 53.1155 54.2578 51.8555 54.2578V54.2578ZM51.8555 49.6875C52.1863 49.6875 52.5 49.7597 52.7842 49.8867L49.7204 52.7802C49.6249 52.5287 49.5703 52.2572 49.5703 51.9727C49.5703 50.7127 50.5955 49.6875 51.8555 49.6875V49.6875Z" fill="#C63E34"/>
<path d="M31.8247 6.44164C31.3213 6.40379 30.8789 6.81277 30.8789 7.31809V21.4925C30.8789 21.9095 31.1719 22.269 31.5802 22.3534C34.635 22.9836 37.0164 25.3648 37.6467 28.4199C37.7311 28.8282 38.0906 29.1212 38.5076 29.1212H52.682C53.1868 29.1212 53.5969 28.6788 53.5584 28.1754C53.1299 22.5675 50.6968 17.2821 46.7074 13.2928C42.7179 9.30324 37.4326 6.8702 31.8247 6.44164V6.44164ZM32.9288 11.8816C40.7368 13.1471 47.0268 19.5335 48.1628 27.3632H46.3857C45.2638 20.3908 39.6094 14.7362 32.6367 13.6142V11.8372C32.7342 11.8511 32.8315 11.866 32.9288 11.8816V11.8816ZM32.6367 20.8039V18.9894C33.4141 19.1755 34.1719 19.4432 34.8923 19.79C35.3293 20.0005 35.8549 19.8167 36.0654 19.3791C36.276 18.9418 36.092 18.4166 35.6545 18.2061C34.6962 17.7448 33.6784 17.4011 32.6367 17.1869V15.3979C38.6537 16.4904 43.5096 21.3463 44.602 27.3632H42.8135C42.3081 24.8909 41.0702 22.6004 39.2968 20.8068C38.9556 20.4617 38.3991 20.4586 38.0539 20.7998C37.7088 21.1412 37.7057 21.6976 38.0469 22.0427C39.4968 23.5086 40.5335 25.3569 41.0115 27.3631H39.1961C38.2887 24.1904 35.8095 21.7112 32.6367 20.8039V20.8039ZM49.9384 27.3632C48.7623 18.4709 41.529 11.2377 32.6367 10.0616V8.28758C37.4725 8.87094 41.997 11.0681 45.4644 14.5355C48.9319 18.003 51.129 22.5275 51.7124 27.3632H49.9384Z" fill="#C63E34"/>
<path d="M28.1757 6.44161C22.5678 6.87017 17.2824 9.30322 13.2931 13.2926C9.30368 17.2819 6.87063 22.5674 6.44208 28.1752C6.40364 28.6786 6.81356 29.121 7.31852 29.121H21.4929C21.9099 29.121 22.2694 28.8281 22.3538 28.4198C22.984 25.3648 25.3653 22.9835 28.4204 22.3532C28.8286 22.2688 29.1216 21.9093 29.1216 21.4924V7.31794C29.1215 6.81251 28.6791 6.404 28.1757 6.44161V6.44161ZM26.9821 17.2734C22.1084 18.4341 18.2004 22.4551 17.1876 27.3632H15.3984C16.4908 21.3462 21.3467 16.4903 27.3637 15.3979V17.1871C27.2365 17.2158 27.1094 17.2447 26.9821 17.2734ZM14.536 14.5355C18.0034 11.0679 22.5279 8.87079 27.3637 8.28755V10.0614C26.0525 10.2342 24.7564 10.5374 23.5049 10.9655C22.4032 11.3424 23.0527 12.9787 24.0739 12.6285C25.142 12.263 26.2464 11.9992 27.3636 11.8373V13.6142C20.3913 14.7361 14.7366 20.3906 13.6147 27.3632H11.8379C12.6039 22.1154 15.6857 17.3674 20.1604 14.5137C20.5697 14.2527 20.69 13.7095 20.4289 13.3002C20.1679 12.891 19.6244 12.7708 19.2154 13.0318C14.2429 16.2027 10.8365 21.5178 10.0622 27.3633H8.28801C8.87125 22.5275 11.0684 18.003 14.536 14.5355V14.5355ZM20.8043 27.3632H18.9899C19.9727 23.2765 23.2769 19.9723 27.3636 18.9896V20.804C24.1908 21.7111 21.7116 24.1904 20.8043 27.3632V27.3632Z" fill="#C63E34"/>
<path d="M53.3268 31.1604C53.1604 30.981 52.9268 30.8789 52.682 30.8789H38.5076C38.0906 30.8789 37.7311 31.1719 37.6467 31.5802C37.0164 34.6351 34.6351 37.0165 31.5802 37.6467C31.1719 37.7311 30.8789 38.0906 30.8789 38.5076V52.682C30.8789 53.1774 31.3336 53.5962 31.8247 53.5585C37.4326 53.1299 42.7179 50.6968 46.7073 46.7074C50.6967 42.7181 53.1298 37.4326 53.5583 31.8248C53.577 31.5807 53.4931 31.34 53.3268 31.1604V31.1604ZM44.4922 33.1842C43.2084 38.961 38.4633 43.5442 32.6367 44.602V42.8128C37.6784 41.7724 41.7724 37.6784 42.8128 32.6367H44.602C44.5689 32.8198 44.5324 33.0026 44.4922 33.1842V33.1842ZM39.1961 32.6367H41.0104C40.0282 36.7234 36.7229 40.0277 32.6367 41.0104V39.1959C35.8095 38.2888 38.2887 35.8096 39.1961 32.6367V32.6367ZM45.4644 45.4644C41.997 48.932 37.4725 51.1292 32.6367 51.7124V49.9386C34.4239 49.7034 36.1849 49.2232 37.8439 48.518C38.2907 48.328 38.4988 47.812 38.309 47.3652C38.1189 46.9184 37.6027 46.7102 37.1562 46.9002C35.7125 47.514 34.1891 47.9383 32.6368 48.1635V46.3858C39.6091 45.2638 45.2638 39.6094 46.3858 32.6367H48.1638C47.4676 37.4193 44.8288 41.8236 40.9586 44.7136C40.5696 45.004 40.4898 45.5548 40.7803 45.9436C41.0707 46.3324 41.6213 46.4121 42.0103 46.122C46.3201 42.9046 49.2324 37.9717 49.9385 32.6367H51.7125C51.129 37.4725 48.9319 41.997 45.4644 45.4644V45.4644Z" fill="#C63E34"/>
<path d="M22.3527 31.5802C22.2683 31.1719 21.9088 30.8789 21.4918 30.8789H7.31742C6.81258 30.8789 6.40254 31.3213 6.44098 31.8247C6.86953 37.4326 9.30258 42.718 13.292 46.7073C17.2813 50.6967 22.5668 53.1298 28.1746 53.5583C28.6659 53.5962 29.1204 53.1767 29.1204 52.6819V38.5076C29.1204 38.0906 28.8274 37.7311 28.4191 37.6467C25.3642 37.0165 22.9829 34.6352 22.3527 31.5802V31.5802ZM27.2361 48.1441C19.357 46.943 12.9811 40.5251 11.8366 32.6367H13.6134C14.0517 35.366 15.1887 37.974 16.8832 40.1575C17.1811 40.541 17.733 40.6105 18.1164 40.3129C18.4998 40.0153 18.5694 39.4631 18.2718 39.0797C16.8129 37.1999 15.8237 34.9768 15.3968 32.6368H17.1865C18.2269 37.6785 22.3209 41.7725 27.3626 42.8129V44.6012C25.3879 44.2431 23.4859 43.4807 21.8136 42.37C21.4095 42.1015 20.8639 42.2114 20.5952 42.6159C20.3268 43.0204 20.4368 43.5658 20.8412 43.8343C22.7998 45.1345 25.0418 46.0109 27.3626 46.3858V48.1628C27.3205 48.1567 27.2783 48.1506 27.2361 48.1441V48.1441ZM27.3627 39.1961V41.0105C23.276 40.0277 19.9718 36.7235 18.9891 32.6368H20.8035C21.7106 35.8096 24.1898 38.2888 27.3627 39.1961V39.1961ZM27.3627 51.7124C22.527 51.129 18.0025 48.9319 14.535 45.4644C11.0674 41.997 8.87027 37.4725 8.28703 32.6367H10.0611C11.2371 41.529 18.4704 48.7623 27.3628 49.9384V51.7124H27.3627Z" fill="#C63E34"/>
<path d="M23.9502 30C23.9502 33.3359 26.6641 36.0498 30 36.0498C33.3359 36.0498 36.0498 33.3359 36.0498 30C36.0498 26.6641 33.3359 23.9502 30 23.9502C26.6641 23.9502 23.9502 26.6641 23.9502 30ZM34.292 30C34.292 32.3666 32.3666 34.292 30 34.292C27.6334 34.292 25.708 32.3666 25.708 30C25.708 27.6334 27.6334 25.708 30 25.708C32.3666 25.708 34.292 27.6334 34.292 30Z" fill="#C63E34"/>
</svg>
