<svg width="60" height="60" viewBox="0 0 60 60" fill="none" xmlns="http://www.w3.org/2000/svg">
<g clip-path="url(#clip0)">
<path d="M58.1127 10.1498H55.58C55.0677 8.30402 53.3761 6.94383 51.3712 6.93551V4.20703C51.3712 1.8873 49.4842 0 47.1644 0H9.28909C6.96936 0 5.08217 1.88719 5.08217 4.20703V6.93551C2.6721 6.94547 0.714478 8.90918 0.714478 11.3217C0.714478 13.7343 2.6721 15.698 5.08217 15.7078V17.5105C5.08217 19.8302 6.96936 21.7175 9.28897 21.7175H17.8706C17.8798 21.7175 17.8888 21.7174 17.8978 21.7172C18.5815 22.263 19.4475 22.5896 20.3884 22.5896C21.0323 22.5896 21.6411 22.4366 22.1805 22.1651C22.6393 23.8676 24.1967 25.1243 26.0421 25.1243C28.0459 25.1243 29.7101 23.6427 29.9971 21.7175H33.7254C34.3725 21.7175 34.8973 21.1929 34.8973 20.5457C34.8973 19.8984 34.3725 19.3738 33.7254 19.3738H30.0409V2.34375H47.1646C48.1919 2.34375 49.0276 3.17965 49.0276 4.20703V17.5105C49.0276 18.5379 48.1918 19.3738 47.1646 19.3738H43.9623C43.3152 19.3738 42.7904 19.8984 42.7904 20.5457C42.7904 21.1929 43.3152 21.7175 43.9623 21.7175H47.1646C49.4843 21.7175 51.3713 19.8304 51.3713 17.5105V15.7078C53.3762 15.6996 55.0678 14.3394 55.5801 12.4936H56.9409V22.5046C56.9409 24.2488 55.522 25.6679 53.7779 25.6679H28.1347C27.4876 25.6679 26.9628 26.1926 26.9628 26.8398V32.7967H25.4347C24.9208 32.7967 24.467 33.1314 24.3151 33.6223L22.4033 39.8044C22.3781 39.8807 22.3604 39.9605 22.3514 40.0429C22.3513 40.044 22.351 40.0453 22.3509 40.0465C22.3505 40.0507 22.35 40.0548 22.3496 40.059C22.3489 40.0662 22.3483 40.0734 22.3478 40.0806C22.3476 40.0825 22.3475 40.0843 22.3474 40.0861C22.3468 40.0946 22.3462 40.1033 22.3458 40.1119V40.1123C22.3446 40.1357 22.344 40.1589 22.3442 40.1822V54.2092C22.3442 57.4022 24.9418 60 28.1347 60C31.3276 60 33.9252 57.4022 33.9252 54.2092V40.1822C33.9254 40.159 33.9248 40.1357 33.9237 40.1123C33.9237 40.1122 33.9237 40.1121 33.9237 40.112C33.9232 40.1032 33.9226 40.0945 33.922 40.0859C33.9219 40.0841 33.9218 40.0823 33.9217 40.0806C33.9211 40.0733 33.9205 40.0662 33.9198 40.0589C33.9194 40.0547 33.919 40.0505 33.9185 40.0464C33.9184 40.0451 33.9181 40.0439 33.918 40.0427C33.909 39.9604 33.8913 39.8805 33.8661 39.8043L31.9543 33.6221C31.8024 33.1312 31.3486 32.7966 30.8347 32.7966H29.3066V28.0116H53.7778C56.8142 28.0116 59.2846 25.5411 59.2846 22.5045V11.3217C59.2846 10.6745 58.7599 10.1498 58.1127 10.1498V10.1498ZM3.05823 11.3217C3.05823 10.2015 3.96444 9.2891 5.08229 9.27926V13.3642C3.96444 13.3542 3.05823 12.4418 3.05823 11.3217ZM7.42592 17.5105V17.112C7.93053 17.3422 8.49092 17.4707 9.08085 17.4707C10.5988 17.4707 11.9218 16.6206 12.5989 15.3714C13.2171 15.7635 13.9498 15.9907 14.7346 15.9907C15.3245 15.9907 15.8849 15.8623 16.3896 15.6319V18.5907C16.3896 18.8586 16.4162 19.1204 16.4666 19.3737H9.28909C8.2617 19.3738 7.42592 18.5379 7.42592 17.5105V17.5105ZM27.697 21.1254C27.697 22.038 26.9545 22.7805 26.042 22.7805C25.1294 22.7805 24.3871 22.038 24.3871 21.1254V13.0327C24.3871 12.3854 23.8623 11.8608 23.2152 11.8608C22.5681 11.8608 22.0433 12.3854 22.0433 13.0327V18.5909C22.0433 19.5035 21.3008 20.246 20.3883 20.246C19.4757 20.246 18.7333 19.5035 18.7333 18.5909V11.9918C18.7333 11.3446 18.2086 10.8199 17.5615 10.8199C16.9142 10.8199 16.3896 11.3446 16.3896 11.9918C16.3896 12.9045 15.6471 13.647 14.7346 13.647C13.822 13.647 13.0796 12.9045 13.0796 11.9918C13.0796 11.3446 12.5549 10.8199 11.9078 10.8199C11.2606 10.8199 10.7359 11.3446 10.7359 11.9918V13.4718C10.7359 14.3844 9.99338 15.1269 9.08085 15.1269C8.16831 15.1269 7.42592 14.3844 7.42592 13.4718V4.20703C7.42592 3.17965 8.2617 2.34375 9.28897 2.34375H27.697V21.1254ZM51.3713 13.3641V9.27926C52.4891 9.2891 53.3954 10.2016 53.3954 11.3217C53.3954 12.4418 52.4891 13.3542 51.3713 13.3641ZM31.5814 54.2092C31.5814 56.11 30.0353 57.6562 28.1347 57.6562C26.2342 57.6562 24.688 56.11 24.688 54.2092V41.3445H31.5814V54.2092ZM31.1644 39.0007H25.1052L26.2991 35.1403H29.9706L31.1644 39.0007Z" fill="#C63E34"/>
<path d="M38.9322 21.7171C38.0124 21.7329 37.437 20.6511 37.9572 19.8948C38.4541 19.1234 39.6794 19.2413 40.014 20.0976C40.347 20.8333 39.7394 21.7423 38.9322 21.7171V21.7171Z" fill="#C63E34"/>
<path d="M28.1344 55.1195C27.4873 55.1195 26.9625 54.5949 26.9625 53.9477V51.7249C26.9625 51.0776 27.4873 50.553 28.1344 50.553C28.7816 50.553 29.3063 51.0776 29.3063 51.7249V53.9477C29.3063 54.5948 28.7815 55.1195 28.1344 55.1195Z" fill="#C63E34"/>
</g>
<defs>
<clipPath id="clip0">
<rect width="60" height="60" fill="white"/>
</clipPath>
</defs>
</svg>
