<svg width="60" height="60" viewBox="0 0 60 60" fill="none" xmlns="http://www.w3.org/2000/svg">
<path d="M59.9996 23.6161V15.1003L55.5587 13.9901C55.3933 13.5295 55.2043 13.0689 54.9799 12.62L57.3421 8.68696L51.3185 2.66334L47.3855 5.02554C46.9248 4.81295 46.4642 4.61216 46.0154 4.4468L44.9051 0.00585938H36.3894L35.2792 4.4468C34.8185 4.61216 34.3579 4.80113 33.9091 5.02554L29.976 2.66334L23.9524 8.68696L26.3146 12.62C26.102 13.0807 25.9012 13.5413 25.7359 13.9901L21.2949 15.1003V19.5413H21.2477V21.4783H21.2949V23.6161L25.7359 24.7263C25.9012 25.187 26.0902 25.6476 26.3146 26.0964L23.9524 30.0295L29.976 36.0531L33.9091 33.6909C34.3697 33.9035 34.8304 34.1043 35.2792 34.2696L36.3894 38.7106H38.5272V38.7578H40.4642V38.7106H44.9051L46.0154 34.2696C46.476 34.1043 46.9366 33.9153 47.3855 33.6909L51.3185 36.0531L57.3421 30.0295L54.9799 26.0964C55.1925 25.6358 55.3933 25.1752 55.5587 24.7263L59.9996 23.6161ZM54.9091 29.7342L51.0233 33.62L47.4681 31.494L46.9839 31.7421C46.287 32.0964 45.5902 32.3917 44.8933 32.6161L44.3855 32.7814L43.3815 36.7854H40.4524V36.7381H38.5154V36.7854H37.8894L36.8855 32.7814L36.3776 32.6161C35.6926 32.3917 34.9839 32.0964 34.287 31.7421L33.8028 31.494L30.2477 33.62L26.3619 29.7342L28.4878 26.1791L28.2398 25.6948C27.8855 25.0098 27.5902 24.3011 27.3658 23.6161L27.2004 23.1082L23.1965 22.1043V21.4783H23.2437V19.5413H23.1965V16.6122L27.2004 15.6082L27.3658 15.1003C27.5902 14.4153 27.8855 13.7066 28.2398 13.0216L28.4878 12.5374L26.3619 8.98224L30.2477 5.09641L33.8028 7.22239L34.287 6.97436C34.9839 6.62003 35.6807 6.32476 36.3658 6.10035L36.8737 5.93499L37.8776 1.93106H43.3697L44.3737 5.93499L44.8815 6.10035C45.5666 6.32476 46.2752 6.62003 46.9721 6.97436L47.4563 7.22239L51.0114 5.09641L54.9091 8.98224L52.7831 12.5374L53.0311 13.0216C53.3855 13.7185 53.6807 14.4153 53.9051 15.1003L54.0705 15.6082L58.0744 16.6122V22.1043L54.0705 23.1082L53.9051 23.6161C53.6807 24.3129 53.3855 25.0098 53.0311 25.6948L52.7831 26.1791L54.9091 29.7342Z" fill="#C63E34"/>
<path d="M23.2792 54.0177H21.2477V55.9547H23.2792V54.0177Z" fill="#C63E34"/>
<path d="M11.4748 49.9728L10.0383 48.5364L8.66867 49.906L10.1051 51.3425L11.4748 49.9728Z" fill="#C63E34"/>
<path d="M5.98748 36.7382H4.05048V38.7697H5.98748V36.7382Z" fill="#C63E34"/>
<path d="M35.848 49.8948L34.4784 48.5251L33.0419 49.9616L34.4116 51.3313L35.848 49.8948Z" fill="#C63E34"/>
<path d="M10.1025 24.1626L8.66602 25.5991L10.0357 26.9688L11.4721 25.5323L10.1025 24.1626Z" fill="#C63E34"/>
<path d="M43.7835 42.7382L43.311 40.8602L37.9016 42.2067L37.7362 42.7145C37.4764 43.5177 37.1339 44.3445 36.7205 45.1476L36.4724 45.6319L38.9528 49.7775L34.2992 54.4547L30.1535 51.9744L29.6693 52.2224C28.8661 52.6358 28.0394 52.9783 27.2362 53.2382L26.7283 53.4035L25.5591 58.0807H18.9567L17.7874 53.4035L17.2795 53.2382C16.4646 52.9783 15.6496 52.6358 14.8465 52.2224L14.3622 51.9744L10.2165 54.4547L5.55118 49.7893L8.0315 45.6437L7.78346 45.1594C7.37008 44.3445 7.02756 43.5295 6.76772 42.7263L6.60236 42.2185L1.9252 41.0492V34.4468L6.60236 33.2775L6.76772 32.7697C7.02756 31.9665 7.37008 31.1397 7.78346 30.3366L8.0315 29.8641L5.55118 25.7185L10.2165 21.0531L14.3622 23.5334L14.8465 23.2854C15.6496 22.872 16.4764 22.5295 17.2795 22.2697L17.7874 22.1043L19.1339 16.6949L17.2559 16.2224L16.1575 20.5925C15.5787 20.7933 15 21.0413 14.4331 21.313L9.90945 18.5964L3.1063 25.3996L5.82283 29.9232C5.55118 30.5019 5.30315 31.0807 5.10236 31.6476L0 32.935V42.561L5.10236 43.8366C5.30315 44.4153 5.55118 44.9941 5.82283 45.561L3.1063 50.0846L9.92126 56.8878L14.4449 54.1712C15.0236 54.4429 15.5905 54.6909 16.1693 54.8917L17.4449 59.9941H27.0709L28.3465 54.8917C28.9252 54.6909 29.5039 54.4429 30.0709 54.1712L34.5945 56.8878L41.3976 50.0846L38.6811 45.561C38.9528 44.9823 39.2008 44.4035 39.4016 43.8366L43.7835 42.7382Z" fill="#C63E34"/>
<path d="M21.4718 27.6083L21.33 25.6831C15.0584 26.1555 10.1332 31.4587 10.1332 37.754C10.1332 44.439 15.5663 49.8721 22.2513 49.8721C28.5466 49.8721 33.8497 44.9587 34.3222 38.687L32.397 38.5453C31.9954 43.813 27.5426 47.9469 22.2513 47.9469C16.6411 47.9469 12.0702 43.376 12.0702 37.7658C12.0702 32.4626 16.204 28.0099 21.4718 27.6083Z" fill="#C63E34"/>
<path d="M40.6417 8.71057C34.7717 8.71057 30 13.4822 30 19.3523C30 25.2224 34.7717 29.994 40.6417 29.994C46.5118 29.994 51.2835 25.2224 51.2835 19.3523C51.2953 13.494 46.5118 8.71057 40.6417 8.71057ZM40.6417 28.0688C35.8346 28.0688 31.937 24.1594 31.937 19.3641C31.937 14.5688 35.8465 10.6594 40.6417 10.6594C45.437 10.6594 49.3465 14.5688 49.3465 19.3641C49.3465 24.1594 45.4488 28.0688 40.6417 28.0688Z" fill="#C63E34"/>
</svg>
