<svg width="50" height="50" viewBox="0 0 50 50" fill="none" xmlns="http://www.w3.org/2000/svg">
<path d="M1.46199 41.1696C0.994152 41.1696 0.526316 41.4035 0.292398 41.8129C0 42.2222 -0.0584795 42.6901 0.0584795 43.1579C1.52047 47.193 5.4386 50 9.82456 50C13.8012 50 17.3684 47.6608 19.0643 44.152H30.9942C32.6901 47.7193 36.2573 50 40.2339 50C44.5614 50 48.4795 47.2515 49.883 43.1579C50.0585 42.6901 50 42.2222 49.7076 41.8129C49.4152 41.4035 49.0058 41.1696 48.538 41.1696H41.6374V38.2456H48.4795C48.9474 38.2456 49.4152 38.0117 49.6491 37.6023C49.9415 37.193 50 36.7251 49.8246 36.2573C48.3626 32.1637 44.5029 29.4152 40.1754 29.4152C38.4211 29.4152 36.6667 29.883 35.2047 30.7018V26.3743H42.5146C43.3333 26.3743 43.9766 25.731 43.9766 24.9123C43.9766 24.0936 43.3333 23.4503 42.5146 23.4503H35.2047V20.2924C40.1754 19.5906 43.9766 15.3216 43.9766 10.1754V7.25146C43.9766 6.43275 43.3333 5.78947 42.5146 5.78947C41.6959 5.78947 41.0526 6.43275 41.0526 7.25146V10.1754C41.0526 13.8012 38.3626 16.8421 34.9123 17.4269C34.4444 16.1988 33.5088 15.2632 32.2807 14.8538V13.1579C32.2807 11.2865 31.5789 9.59064 30.4094 8.30409C33.2164 7.25146 35.2047 4.5614 35.2047 1.46199C35.2047 0.643275 34.5614 0 33.7427 0C32.924 0 32.2807 0.643275 32.2807 1.46199C32.2807 3.85965 30.2924 5.84795 27.8947 5.84795H22.0468C19.6491 5.84795 17.6608 3.85965 17.6608 1.46199C17.6608 0.643275 17.0175 0 16.1988 0C15.3801 0 14.7368 0.643275 14.7368 1.46199C14.7368 4.61988 16.7251 7.30994 19.5322 8.30409C18.3626 9.59064 17.6608 11.2865 17.6608 13.1579V14.8538C16.4328 15.2632 15.4971 16.2573 15.0292 17.4269C11.5789 16.8421 8.88889 13.8596 8.88889 10.1754V7.25146C8.88889 6.43275 8.24561 5.78947 7.4269 5.78947C6.60819 5.78947 5.96491 6.43275 5.96491 7.25146V10.1754C5.96491 15.3216 9.76608 19.5906 14.7368 20.2924V23.4503H7.4269C6.60819 23.4503 5.96491 24.0936 5.96491 24.9123C5.96491 25.731 6.60819 26.3743 7.4269 26.3743H14.7368V30.6433C13.2749 29.8246 11.5789 29.4152 9.88304 29.4152C5.49708 29.4152 1.52047 32.2222 0.116959 36.2573C-0.0584795 36.7251 0 37.193 0.292398 37.6023C0.584795 38.0117 0.994152 38.2456 1.46199 38.2456H8.36257V41.1696H1.46199ZM3.91813 44.0936H8.42105V46.9006C6.60819 46.5497 5.02924 45.5556 3.91813 44.0936ZM33.3333 42.1637C33.0994 41.5789 32.5731 41.1696 31.9298 41.1696H18.1287C17.4854 41.1696 16.9591 41.5789 16.7251 42.1637C15.848 44.6199 13.8012 46.3743 11.345 46.9006C11.345 43.7427 11.345 35.8479 11.345 32.5731C13.8012 33.0994 15.848 34.8538 16.7251 37.3099C16.9591 37.8947 17.4854 38.3041 18.1287 38.3041H31.9883C32.6316 38.3041 33.1579 37.8947 33.3918 37.3099C34.269 34.8538 36.3158 33.0994 38.7719 32.5731C38.7719 35.8479 38.7719 43.7427 38.7719 46.9006C36.2573 46.3743 34.2105 44.6199 33.3333 42.1637ZM29.3567 14.6199H20.5848V13.1579C20.5848 10.7602 22.5731 8.77193 24.9708 8.77193C27.3684 8.77193 29.3567 10.7602 29.3567 13.1579V14.6199ZM30.8187 17.5439C31.6374 17.5439 32.2807 18.1871 32.2807 19.0058V33.1579C32.2807 33.1579 32.2807 33.1579 32.2807 33.2164C31.7544 33.8596 31.345 34.5614 30.9357 35.3216H26.3743V17.5439H30.8187ZM46.0819 44.0936C45.0292 45.4971 43.4503 46.4912 41.6959 46.9006V44.0936H46.0819ZM46.0819 35.3216H41.6959V32.5146C43.4503 32.924 44.9708 33.9181 46.0819 35.3216ZM19.1228 17.5439H23.5088V35.3216H19.0643C18.655 34.5029 18.1871 33.8012 17.6608 33.0994V19.0058C17.6608 18.2456 18.3041 17.5439 19.1228 17.5439ZM3.91813 35.3216C5.02924 33.9181 6.60819 32.924 8.42105 32.5146V35.3216H3.91813Z" fill="#C63E34"/>
</svg>
