<svg width="15" height="15" viewBox="0 0 15 15" fill="none" xmlns="http://www.w3.org/2000/svg">
<path d="M13.6816 1.78711H1.31835C1.11542 1.78711 0.925425 1.837 0.75354 1.91924L7.4707 8.6364L8.97624 7.18951C8.97624 7.18951 8.97635 7.18937 8.97638 7.18931C8.97641 7.18925 8.97653 7.18919 8.97653 7.18919L14.2467 1.91936C14.0747 1.83706 13.8846 1.78711 13.6816 1.78711Z" fill="#979797"/>
<path d="M14.868 2.54086L9.90857 7.50006L14.8679 12.4593C14.9501 12.2875 15 12.0975 15 11.8945V3.10547C15 2.90265 14.9502 2.71269 14.868 2.54086Z" fill="#979797"/>
<path d="M0.132129 2.54065C0.0498926 2.71253 0 2.90252 0 3.10546V11.8945C0 12.0973 0.049834 12.2874 0.132012 12.4592L5.09147 7.5L0.132129 2.54065Z" fill="#979797"/>
<path d="M9.28716 8.12147L7.78142 9.56853C7.69558 9.65437 7.58314 9.69729 7.47073 9.69729C7.35831 9.69729 7.24584 9.65437 7.16003 9.56853L5.71288 8.12141L0.753326 13.0806C0.925241 13.1629 1.11535 13.2129 1.31835 13.2129H13.6816C13.8846 13.2129 14.0746 13.163 14.2465 13.0808L9.28716 8.12147Z" fill="#979797"/>
</svg>
