<svg width="20" height="20" viewBox="0 0 20 20" fill="none" xmlns="http://www.w3.org/2000/svg">
<g clip-path="url(#clip0)">
<path d="M17.754 12.3265L16.2749 10.8473L9.61876 4.19153C8.39205 2.97401 6.41189 2.97769 5.18978 4.1998C3.96766 5.42192 3.96399 7.40208 5.18151 8.62879L11.8373 15.2866C12.1095 15.559 12.5511 15.559 12.8235 15.2866C13.0957 15.0142 13.0957 14.5728 12.8235 14.3004L6.16768 7.64261C5.48696 6.96189 5.48696 5.85843 6.16768 5.17771C6.8484 4.49699 7.95186 4.49699 8.63258 5.17771L15.2904 11.8335L16.7696 13.3125C17.995 14.5385 17.9946 16.5257 16.7688 17.751C15.5428 18.9763 13.5558 18.976 12.3303 17.7501L11.0979 16.5173L4.19549 9.61481L3.70232 9.1218C1.97862 7.3442 2.00052 4.5123 3.75132 2.76134C5.50227 1.01054 8.33417 0.988648 10.1118 2.71235L17.5072 10.108C17.6835 10.284 17.9402 10.3528 18.1808 10.2883C18.4214 10.2239 18.6095 10.036 18.6739 9.79532C18.7384 9.55464 18.6695 9.29802 18.4934 9.1218L11.0979 1.72633C8.78186 -0.579188 5.03667 -0.574901 2.72595 1.73597C0.415074 4.04669 0.410787 7.79189 2.7163 10.108L10.1118 17.5034L11.346 18.7363C13.1259 20.4459 15.9466 20.4174 17.6914 18.672C19.4364 16.9267 19.4641 14.106 17.754 12.3265Z" fill="#969696"/>
</g>
<defs>
<clipPath id="clip0">
<rect width="20" height="20" fill="white"/>
</clipPath>
</defs>
</svg>
