<svg width="6" height="6" viewBox="0 0 6 6" fill="none" xmlns="http://www.w3.org/2000/svg">
<g clip-path="url(#clip0)">
<path d="M3.23412 4.66677L5.90415 1.9967C5.96595 1.93494 6 1.8525 6 1.7646C6 1.6767 5.96595 1.59426 5.90415 1.53251L5.70756 1.33587C5.57947 1.20792 5.37127 1.20792 5.24337 1.33587L3.00124 3.578L0.756628 1.33339C0.694824 1.27163 0.612434 1.23753 0.524581 1.23753C0.436631 1.23753 0.354241 1.27163 0.292387 1.33339L0.0958529 1.53002C0.0340486 1.59182 5.20735e-09 1.67421 6.25557e-09 1.76211C7.30379e-09 1.85002 0.0340486 1.93245 0.0958529 1.99421L2.76832 4.66677C2.83032 4.72868 2.9131 4.76268 3.0011 4.76248C3.08944 4.76268 3.17217 4.72868 3.23412 4.66677Z" fill="black"/>
</g>
<defs>
<clipPath id="clip0">
<rect x="6" width="6" height="6" transform="rotate(90 6 0)" fill="white"/>
</clipPath>
</defs>
</svg>
