<svg width="25" height="26" viewBox="0 0 25 26" fill="none" xmlns="http://www.w3.org/2000/svg">
<g clip-path="url(#clip0)">
<path d="M16.7218 3.53565C12.9139 -0.272299 6.70529 -0.272299 2.89734 3.53565C-0.910605 7.34359 -0.910605 13.5522 2.89734 17.3602C6.29138 20.7542 11.5894 21.0853 15.3973 18.4363C15.4801 18.8502 15.6457 19.1813 15.9768 19.5125L21.5232 25.0588C22.351 25.8866 23.6755 25.8866 24.4205 25.0588C25.2483 24.231 25.2483 22.9065 24.4205 22.1615L18.8742 16.6151C18.543 16.284 18.2119 16.1184 17.798 16.0356C20.447 12.2277 20.1159 6.92969 16.7218 3.53565ZM14.9834 15.6217C12.1689 18.4363 7.5331 18.4363 4.63575 15.6217C1.82118 12.8072 1.82118 8.17141 4.63575 5.27406C7.45032 2.45949 12.0861 2.45949 14.9834 5.27406C17.798 8.08863 17.798 12.7244 14.9834 15.6217Z" fill="white"/>
</g>
<defs>
<clipPath id="clip0">
<rect y="0.638184" width="25" height="25" fill="white"/>
</clipPath>
</defs>
</svg>
