<svg width="40" height="41" viewBox="0 0 40 41" fill="none" xmlns="http://www.w3.org/2000/svg">
<g clip-path="url(#clip0)">
<path d="M8.83644 37.1365L9.58225 37.5518C12.6693 39.4678 16.2473 40.6382 19.9953 40.6382C30.9087 40.6382 40 31.5584 40 20.4777C40 9.39703 30.9181 0.638184 19.9198 0.638184C8.92141 0.638184 0 9.47254 0 20.4683C0 24.3003 1.08567 28.0473 3.08709 31.2186L3.58744 31.9643L1.67099 38.9676L8.83644 37.1365Z" fill="#55CD6C"/>
<path d="M13.5445 9.72008L11.9227 9.63818C11.411 9.63818 10.8993 9.80198 10.5615 10.1205C9.79881 10.7665 8.51484 11.9677 8.17695 13.5783C7.57841 15.9897 8.51484 18.8833 10.7352 21.7679C12.9556 24.6524 17.213 29.3205 24.7141 31.3224C27.0986 31.9684 28.9714 31.5589 30.5064 30.6763C31.7035 29.9574 32.4662 28.8291 32.7268 27.6279L32.9778 26.4996C33.0647 26.1811 32.8909 25.7807 32.553 25.617L27.1855 23.2875C26.8476 23.1237 26.4228 23.2056 26.1622 23.5241L24.0287 26.1083C23.8549 26.2721 23.6039 26.3449 23.3432 26.2721C21.8951 25.7898 17.0392 23.8607 14.3941 19.0471C14.3072 18.8105 14.3072 18.5648 14.4809 18.401L16.5276 16.2353C16.7013 15.9988 16.7786 15.6712 16.7013 15.4346L14.2299 10.2115C14.1431 9.96577 13.8921 9.72008 13.5445 9.72008Z" fill="#FEFEFE"/>
</g>
<defs>
<clipPath id="clip0">
<rect y="0.638184" width="40" height="40" fill="white"/>
</clipPath>
</defs>
</svg>
