<svg width="65" height="65" viewBox="0 0 65 65" fill="none" xmlns="http://www.w3.org/2000/svg">
<path d="M57.7261 1.01562H7.27391C3.82281 1.01562 1.01562 3.82281 1.01562 7.27391C1.01562 7.9493 1.12328 8.61453 1.33656 9.25336L1.90328 10.9555C2.75742 13.5149 5.14313 15.2344 7.84164 15.2344H12.2941L13.8237 28.9981C14.1101 31.5737 16.2795 33.5156 18.8703 33.5156H46.1297C48.7205 33.5156 50.8909 31.5737 51.1763 28.9981L52.7059 15.2344H57.1584C59.8569 15.2344 62.2426 13.5149 63.0957 10.9545L63.6624 9.25438C63.8767 8.61453 63.9844 7.9493 63.9844 7.27391C63.9844 3.82281 61.1772 1.01562 57.7261 1.01562ZM24.375 31.4844H20.3125V23.3594C20.3125 22.2391 21.2235 21.3281 22.3438 21.3281C23.464 21.3281 24.375 22.2391 24.375 23.3594V31.4844ZM34.5312 31.4844H30.4688V23.3594C30.4688 22.2391 31.3798 21.3281 32.5 21.3281C33.6202 21.3281 34.5312 22.2391 34.5312 23.3594V31.4844ZM44.6875 31.4844H40.625V23.3594C40.625 22.2391 41.536 21.3281 42.6562 21.3281C43.7765 21.3281 44.6875 22.2391 44.6875 23.3594V31.4844ZM49.1583 28.7747C49.009 30.1194 48.0025 31.1746 46.7188 31.4265V23.3594C46.7188 21.1189 44.8967 19.2969 42.6562 19.2969C40.4158 19.2969 38.5938 21.1189 38.5938 23.3594V31.4844H36.5625V23.3594C36.5625 21.1189 34.7405 19.2969 32.5 19.2969C30.2595 19.2969 28.4375 21.1189 28.4375 23.3594V31.4844H26.4062V23.3594C26.4062 21.1189 24.5842 19.2969 22.3438 19.2969C20.1033 19.2969 18.2812 21.1189 18.2812 23.3594V31.4255C16.9975 31.1736 15.992 30.1184 15.8417 28.7737L14.3376 15.2344H50.6624L49.1583 28.7747ZM61.7358 8.61148L61.1691 10.3127C60.5932 12.0413 58.9814 13.2031 57.1584 13.2031H7.84164C6.01961 13.2031 4.40781 12.0413 3.83094 10.3127L3.26422 8.61047C3.12 8.17984 3.04688 7.72992 3.04688 7.27391C3.04688 4.94305 4.94305 3.04688 7.27391 3.04688H57.7261C60.057 3.04688 61.9531 4.94305 61.9531 7.27391C61.9531 7.72992 61.88 8.17984 61.7358 8.61148Z" fill="#C63E34"/>
<path d="M15.2344 5.07812H9.14062C8.02039 5.07812 7.10938 5.98914 7.10938 7.10938V9.14062C7.10938 10.2609 8.02039 11.1719 9.14062 11.1719H15.2344C16.3546 11.1719 17.2656 10.2609 17.2656 9.14062V7.10938C17.2656 5.98914 16.3546 5.07812 15.2344 5.07812ZM9.14062 9.14062V7.10938H15.2344L15.2354 9.14062H9.14062Z" fill="#C63E34"/>
<path d="M51.7969 5.07812H53.8281V7.10938H51.7969V5.07812Z" fill="#C63E34"/>
<path d="M47.7344 5.07812H49.7656V7.10938H47.7344V5.07812Z" fill="#C63E34"/>
<path d="M55.8594 5.07812H57.8906V7.10938H55.8594V5.07812Z" fill="#C63E34"/>
<path d="M47.7344 9.14062H49.7656V11.1719H47.7344V9.14062Z" fill="#C63E34"/>
<path d="M51.7969 9.14062H53.8281V11.1719H51.7969V9.14062Z" fill="#C63E34"/>
<path d="M55.8594 9.14062H57.8906V11.1719H55.8594V9.14062Z" fill="#C63E34"/>
<path d="M44.6875 40.625V39.6094H43.6719C43.551 39.6094 41.8448 39.652 40.4432 41.6762C40.3965 41.6122 40.3498 41.5431 40.303 41.4802C39.3859 40.2309 38.5938 39.1513 38.5938 36.5625V35.5469H37.5781C37.437 35.5469 34.6399 35.6048 32.8819 38.8761C30.7968 35.6027 27.4706 35.5469 27.4219 35.5469H26.4062V36.5625C26.4062 39.1615 25.61 40.2523 24.6878 41.5157C24.6472 41.5716 24.6066 41.6315 24.5659 41.6873C23.1613 39.652 21.449 39.6094 21.3281 39.6094H20.3125V40.625C20.3125 43.2077 19.302 44.5179 18.132 46.0352C16.7741 47.7953 15.2344 49.79 15.2344 53.8281C15.2344 59.998 19.2207 63.9844 25.3906 63.9844H39.6094C45.7793 63.9844 49.7656 59.998 49.7656 53.8281C49.7656 49.79 48.2259 47.7953 46.868 46.0352C45.698 44.5179 44.6875 43.2077 44.6875 40.625ZM25.3906 57.8906C25.3906 55.4572 26.7698 54.1135 28.1044 52.8125C28.9687 51.9695 29.8553 51.1063 30.2524 49.9962C30.8212 50.311 31.4844 51.0555 31.4844 52.8125V55.8594H33.5156V54.8438C33.5156 52.8267 34.774 52.1422 35.6962 51.9116C36.0567 53.236 37.0114 54.1907 37.8757 55.054C38.806 55.9843 39.6094 56.7877 39.6094 57.8906C39.6094 59.2952 38.1235 61.9531 32.5 61.9531C26.8765 61.9531 25.3906 59.2952 25.3906 57.8906ZM39.6094 61.9531H39.5058C41.0922 60.6531 41.6406 59.0088 41.6406 57.8906C41.6406 55.9467 40.4036 54.7097 39.3118 53.6179C38.3815 52.6876 37.5781 51.8842 37.5781 50.7812V49.7656H36.5625C35.6566 49.7656 34.3352 50.048 33.2668 50.8716C32.5741 48.4392 30.5977 47.7344 29.4531 47.7344H28.4375V48.75C28.4375 49.6082 27.7723 50.2998 26.6866 51.3581C25.2037 52.8034 23.3594 54.601 23.3594 57.8906C23.3594 59.0088 23.9078 60.6531 25.4942 61.9531H25.3906C21.4622 61.9531 17.2656 59.8183 17.2656 53.8281C17.2656 50.4827 18.4671 48.9247 19.7397 47.2753C20.8112 45.887 21.9121 44.46 22.2432 42.1119C23.1481 42.8624 24.375 44.7952 24.375 49.7656H26.4062C26.4062 47.1656 26.0782 45.2349 25.5907 43.7958C25.8223 43.4241 26.067 43.0716 26.328 42.7131C27.1873 41.536 28.147 40.2218 28.3827 37.7579C29.8614 38.218 32.5 39.8592 32.5 45.7031H34.5312C34.5312 44.0477 34.3373 42.6664 34.0173 41.5066C34.6643 39.198 35.8059 38.2383 36.6245 37.8493C36.8662 40.232 37.7792 41.4751 38.6659 42.6827C38.932 43.0452 39.1808 43.4017 39.4154 43.7795C38.9248 45.2197 38.5938 47.1555 38.5938 49.7656H40.625C40.625 44.783 41.858 42.8523 42.7558 42.1058C43.0859 44.457 44.1888 45.8859 45.2603 47.2753C46.5329 48.9247 47.7344 50.4827 47.7344 53.8281C47.7344 59.8183 43.5378 61.9531 39.6094 61.9531Z" fill="#C63E34"/>
</svg>
