<svg width="74" height="46" viewBox="0 0 74 46" fill="none" xmlns="http://www.w3.org/2000/svg">
<g clip-path="url(#clip0)">
<path d="M71.2838 0H2.71622C1.2223 0 0 1.21765 0 2.70588V5.41177C0 6.9 1.2223 8.11765 2.71622 8.11765H24.9213C25.5494 11.1956 28.2996 13.5294 31.576 13.5294H32.9341V18.9412H27.5017V27.0588H35.6504V29.7647H38.3666V27.0588H46.5152V18.9412H41.0828V13.5294H42.4409C45.7173 13.5294 48.4675 11.1956 49.0956 8.11765H71.3007C72.7946 8.11765 74.0169 6.9 74.0169 5.41177V2.70588C74 1.21765 72.7946 0 71.2838 0ZM43.799 24.3529H30.2179V21.6471H43.799V24.3529ZM38.3666 18.9412H35.6504V13.5294H38.3666V18.9412ZM42.4409 10.8235H31.576C29.8105 10.8235 28.3166 9.69044 27.7564 8.11765H46.2606C45.7004 9.69044 44.2065 10.8235 42.4409 10.8235ZM2.71622 5.41177V2.70588H71.2838V5.41177H2.71622Z" fill="#C63E34"/>
<path d="M9.20108 33.8235L6.85834 32.4367C6.383 33.2485 5.92464 34.0941 5.53418 34.9566L7.99575 36.0896C8.36923 35.3117 8.77667 34.5507 9.20108 33.8235Z" fill="#C63E34"/>
<path d="M3.70093 40.3345L6.34924 40.9433C6.53598 40.1146 6.77365 39.286 7.04527 38.4742L4.48184 37.5948C4.17627 38.4911 3.92162 39.4213 3.70093 40.3345Z" fill="#C63E34"/>
<path d="M3.05566 46.0001H5.77188C5.77188 45.1545 5.82281 44.3089 5.92467 43.4633L3.22543 43.142C3.10659 44.1059 3.05566 45.053 3.05566 46.0001Z" fill="#C63E34"/>
<path d="M25.1931 20.0066C24.2424 20.1419 23.2917 20.3279 22.375 20.5647L23.071 23.186C23.8859 22.9661 24.7347 22.797 25.5835 22.6786L25.1931 20.0066Z" fill="#C63E34"/>
<path d="M8.45435 30.0691L10.6273 31.6757C11.1366 30.9823 11.6968 30.3228 12.257 29.697L10.2538 27.8705C9.62571 28.5808 9.01457 29.308 8.45435 30.0691Z" fill="#C63E34"/>
<path d="M17.0276 22.6448L18.3008 25.0294C19.0478 24.6235 19.8287 24.2684 20.6266 23.9639L19.642 21.4441C18.7592 21.7992 17.8764 22.2051 17.0276 22.6448Z" fill="#C63E34"/>
<path d="M12.3247 25.8919L14.1072 27.9214C14.7523 27.3633 15.4314 26.839 16.1274 26.3486L14.5826 24.1162C13.8017 24.6743 13.0377 25.2662 12.3247 25.8919Z" fill="#C63E34"/>
<path d="M70.961 46.0001C70.961 45.053 70.9101 44.1059 70.7913 43.142L68.092 43.4464C68.1939 44.292 68.2448 45.1545 68.2448 45.9831H70.961V46.0001Z" fill="#C63E34"/>
<path d="M64.7986 33.8235C65.24 34.5507 65.6304 35.3117 65.9869 36.0896L68.4485 34.9566C68.058 34.0941 67.5997 33.2485 67.1243 32.4367L64.7986 33.8235Z" fill="#C63E34"/>
<path d="M63.7293 27.8705L61.7261 29.697C62.3033 30.3228 62.8465 30.9823 63.3558 31.6757L65.5288 30.0691C64.9855 29.308 64.3744 28.5808 63.7293 27.8705Z" fill="#C63E34"/>
<path d="M57.8726 26.3654C58.5686 26.8389 59.2476 27.3801 59.8927 27.9382L61.6753 25.9088C60.9623 25.2831 60.1983 24.6911 59.4174 24.15L57.8726 26.3654Z" fill="#C63E34"/>
<path d="M51.6422 20.5647C50.7255 20.3279 49.7748 20.1419 48.8242 20.0066L48.4507 22.6786C49.2995 22.797 50.1313 22.9661 50.9632 23.186L51.6422 20.5647Z" fill="#C63E34"/>
<path d="M66.9548 38.4742C67.2265 39.286 67.4641 40.1146 67.6509 40.9433L70.2992 40.3345C70.0955 39.4213 69.8238 38.4911 69.5183 37.5948L66.9548 38.4742Z" fill="#C63E34"/>
<path d="M53.3738 23.9639C54.1717 24.2684 54.9526 24.6235 55.6995 25.0294L56.9728 22.6448C56.124 22.2051 55.2582 21.7992 54.3584 21.4441L53.3738 23.9639Z" fill="#C63E34"/>
<path d="M38.3666 37.8823H35.6504V40.5882H38.3666V37.8823Z" fill="#C63E34"/>
<path d="M38.3666 43.2941H35.6504V46H38.3666V43.2941Z" fill="#C63E34"/>
<path d="M38.3666 32.4706H35.6504V35.1765H38.3666V32.4706Z" fill="#C63E34"/>
<path d="M17.027 33.8235L14.6843 32.4367C14.2089 33.2485 13.7506 34.0941 13.3601 34.9566L15.8217 36.0896C16.1952 35.3117 16.5856 34.5507 17.027 33.8235Z" fill="#C63E34"/>
<path d="M11.5271 40.3345L14.1754 40.9433C14.3622 40.1146 14.5998 39.286 14.8714 38.4742L12.308 37.5948C11.9855 38.4911 11.7308 39.4213 11.5271 40.3345Z" fill="#C63E34"/>
<path d="M10.865 46.0001H13.5812C13.5812 45.1545 13.6321 44.3089 13.734 43.4633L11.0348 43.142C10.9329 44.1059 10.865 45.053 10.865 46.0001Z" fill="#C63E34"/>
<path d="M16.2637 30.0691L18.4366 31.6757C18.9459 30.9823 19.5062 30.3228 20.0664 29.697L18.0632 27.8705C17.452 28.5808 16.8409 29.308 16.2637 30.0691Z" fill="#C63E34"/>
<path d="M20.2019 26.2133L21.8147 28.378C22.4937 27.8706 23.2237 27.3971 23.9537 26.9743L22.5956 24.6405C21.7807 25.114 20.9658 25.6383 20.2019 26.2133Z" fill="#C63E34"/>
<path d="M24.8363 33.8235L22.4936 32.4367C22.0183 33.2485 21.5599 34.0941 21.1694 34.9566L23.631 36.0896C24.0045 35.3117 24.4119 34.5507 24.8363 33.8235Z" fill="#C63E34"/>
<path d="M19.3362 40.3345L21.9845 40.9433C22.1712 40.1146 22.4089 39.286 22.6805 38.4742L20.1171 37.5948C19.8115 38.4911 19.5399 39.4213 19.3362 40.3345Z" fill="#C63E34"/>
<path d="M18.6909 46.0001H21.4071C21.4071 45.1545 21.4581 44.3089 21.5599 43.4633L18.8607 43.1589C18.7418 44.1059 18.6909 45.053 18.6909 46.0001Z" fill="#C63E34"/>
<path d="M24.0896 30.0691L26.2626 31.6757C26.7719 30.9823 27.3321 30.3228 27.8923 29.697L25.8891 27.8705C25.261 28.5808 24.6498 29.308 24.0896 30.0691Z" fill="#C63E34"/>
<path d="M32.3739 34.1617L30.0312 32.775C29.5558 33.5867 29.0975 34.4323 28.707 35.2948L31.1686 36.4279C31.5421 35.65 31.9325 34.8889 32.3739 34.1617Z" fill="#C63E34"/>
<path d="M27.3149 40.3345L29.9633 40.9433C30.15 40.1146 30.3877 39.286 30.6593 38.4742L28.0959 37.5948C27.7903 38.4911 27.5356 39.4213 27.3149 40.3345Z" fill="#C63E34"/>
<path d="M26.6699 46.0001H29.3861C29.3861 45.1545 29.4371 44.3089 29.5389 43.4633L26.8397 43.1589C26.7209 44.1059 26.6699 45.053 26.6699 46.0001Z" fill="#C63E34"/>
<path d="M34.547 30.5088L32.2043 29.1221C31.7289 29.9338 31.2706 30.7794 30.8801 31.6419L33.3417 32.775C33.6982 32.014 34.1056 31.253 34.547 30.5088Z" fill="#C63E34"/>
<path d="M58.1272 36.0896L60.5888 34.9566C60.1983 34.0941 59.74 33.2485 59.2646 32.4367L56.9219 33.8235C57.3633 34.5507 57.7707 35.3117 58.1272 36.0896Z" fill="#C63E34"/>
<path d="M61.6582 37.5948L59.0947 38.4742C59.3663 39.286 59.604 40.1146 59.7908 40.9433L62.4391 40.3345C62.2184 39.4213 61.9637 38.4911 61.6582 37.5948Z" fill="#C63E34"/>
<path d="M62.9143 43.142L60.2151 43.4464C60.3169 44.292 60.3679 45.1545 60.3679 45.9831H63.0841C63.0841 45.053 63.0332 44.1059 62.9143 43.142Z" fill="#C63E34"/>
<path d="M57.6859 30.0691C57.1257 29.308 56.4975 28.5639 55.8694 27.8705L53.8662 29.697C54.4434 30.3228 54.9867 30.9823 55.4959 31.6757L57.6859 30.0691Z" fill="#C63E34"/>
<path d="M51.3535 24.6405L49.9954 26.9743C50.7253 27.3971 51.4553 27.8706 52.1344 28.378L53.7471 26.2133C52.9832 25.6383 52.1683 25.114 51.3535 24.6405Z" fill="#C63E34"/>
<path d="M50.3181 36.0896L52.7797 34.9566C52.3892 34.0941 51.9309 33.2485 51.4555 32.4367L49.1128 33.8235C49.5542 34.5507 49.9446 35.3117 50.3181 36.0896Z" fill="#C63E34"/>
<path d="M53.832 37.5948L51.2686 38.4742C51.5402 39.286 51.7778 40.1146 51.9646 40.9433L54.6129 40.3345C54.4092 39.4213 54.1376 38.4911 53.832 37.5948Z" fill="#C63E34"/>
<path d="M55.1052 43.142L52.406 43.4464C52.5079 44.292 52.5588 45.1545 52.5588 45.9831H55.275C55.275 45.053 55.2071 44.1059 55.1052 43.142Z" fill="#C63E34"/>
<path d="M48.043 27.8875L46.0398 29.7139C46.617 30.3397 47.1602 30.9992 47.6695 31.6926L49.8425 30.086C49.2993 29.308 48.6881 28.5808 48.043 27.8875Z" fill="#C63E34"/>
<path d="M42.7805 36.4279L45.2421 35.2948C44.8516 34.4323 44.3933 33.5867 43.9179 32.775L41.5752 34.1617C42.0166 34.8889 42.424 35.65 42.7805 36.4279Z" fill="#C63E34"/>
<path d="M45.8532 37.5948L43.2898 38.4742C43.5614 39.286 43.7991 40.1146 43.9858 40.9433L46.6341 40.3345C46.4135 39.4213 46.1588 38.4911 45.8532 37.5948Z" fill="#C63E34"/>
<path d="M47.1094 43.142L44.4102 43.4464C44.512 44.292 44.5629 45.1545 44.5629 45.9831H47.2792C47.2792 45.053 47.2282 44.1059 47.1094 43.142Z" fill="#C63E34"/>
<path d="M40.6074 32.775L43.069 31.6419C42.6785 30.7794 42.2202 29.9338 41.7448 29.1221L39.4021 30.5088C39.8435 31.253 40.2509 32.014 40.6074 32.775Z" fill="#C63E34"/>
</g>
<defs>
<clipPath id="clip0">
<rect width="74" height="46" fill="white"/>
</clipPath>
</defs>
</svg>
