<svg width="59" height="65" viewBox="0 0 59 65" fill="none" xmlns="http://www.w3.org/2000/svg">
<path d="M17.7 49.3235C17.8283 49.3235 17.9565 49.3235 18.0848 49.451C18.4696 49.5784 18.9826 49.7059 19.3674 49.7059C19.8804 49.8333 20.3935 49.8333 20.9065 49.9608C21.163 49.9608 21.2913 49.9608 21.5478 50.0882C22.1891 50.0882 24.113 50.2157 24.7543 50.2157V61.049H23.3435V63.9804H26.2935H32.5783H35.5283V61.049H34.1174V50.2157C34.7587 50.2157 36.6826 50.2157 37.3239 50.0882C37.5804 50.0882 37.7087 50.0882 37.9652 49.9608C38.4783 49.9608 38.9913 49.8333 39.5043 49.7059C39.8891 49.5784 40.4022 49.5784 40.787 49.451C40.9152 49.451 44.1217 48.4314 44.1217 48.4314C52.8435 44.7353 59 36.1961 59 26.2549V23.451V32.7549V26.8922C59 21.1569 56.9478 15.549 53.1 11.2157V5.9902C53.1 4.46078 53.1 0 29.5 0C5.9 0 5.9 4.46078 5.9 5.9902V11.2157C2.05217 15.549 0 21.0294 0 26.8922V32.7549V23.451V26.2549C0 36.1961 6.15652 44.7353 14.75 48.3039L17.7 49.3235ZM27.8326 60.9216V50.0882H31.1674V60.9216H27.8326ZM56.05 34.1569V21.9216V34.1569ZM29.5 2.93137C48.4826 2.93137 50.15 5.86274 50.15 5.86274V8.28431C47.713 7.26471 43.2239 6.37255 34.887 5.9902C34.3739 5.9902 33.8609 5.9902 33.2196 5.9902C32.963 5.9902 32.8348 5.9902 32.5783 5.9902C32.1935 5.9902 31.8087 5.9902 31.4239 5.9902C30.7826 5.9902 30.1413 5.9902 29.5 5.9902C28.8587 5.9902 28.2174 5.9902 27.5761 5.9902C27.1913 5.9902 26.8065 5.9902 26.4217 5.9902C26.2935 5.9902 26.037 5.9902 25.7804 5.9902C16.4174 6.2451 11.5435 7.26471 8.85 8.41176V5.9902C8.85 5.9902 10.5174 2.93137 29.5 2.93137ZM56.05 24.8529V26.2549C56.05 35.3039 50.2783 43.0784 42.1978 46.0098C41.6848 46.1373 41.1717 46.3922 40.6587 46.5196C40.5304 46.5196 40.4022 46.5196 40.4022 46.6471C39.8891 46.7745 39.5043 46.902 38.9913 46.902C38.7348 46.902 38.4783 47.0294 38.2217 47.0294C37.837 47.0294 37.5804 47.1569 37.1957 47.1569C36.5543 47.1569 34.6304 47.2843 33.9891 47.2843H32.5783H26.2935H24.8826C24.2413 47.2843 22.3174 47.2843 21.6761 47.1569C21.2913 47.1569 21.0348 47.0294 20.65 47.0294C20.3935 47.0294 20.137 46.902 19.8804 46.902C19.3674 46.7745 18.9826 46.7745 18.4696 46.6471C18.3413 46.6471 18.213 46.6471 18.213 46.5196C17.7 46.3922 17.187 46.2647 16.6739 46.0098C8.72174 43.0784 2.95 35.3039 2.95 26.2549V24.8529V21.9216V34.1569V31.2255V26.8922C2.95 21.9216 4.74565 17.0784 7.95217 13.2549C8.08043 13.1274 8.33696 13 8.46522 12.8725C8.59348 12.7451 8.72174 12.6176 8.72174 12.4902C8.72174 12.4902 8.72174 12.4902 8.72174 12.3627C9.23478 11.8529 9.61957 11.4706 10.1326 11.0882C10.3891 10.9608 10.7739 10.8333 11.287 10.7059H11.4152C11.5435 10.7059 11.6717 10.7059 11.6717 10.5784C11.8 10.5784 11.9283 10.451 12.0565 10.451H12.1848C14.1087 9.94118 16.9304 9.43137 21.4196 9.17647C22.4457 9.04902 23.7283 9.04902 25.0109 9.04902C25.1391 9.04902 25.2674 9.04902 25.3957 9.04902C25.9087 9.04902 26.4217 9.04902 26.9348 9.04902C27.063 9.04902 27.3196 9.04902 27.4478 9.04902C28.0891 9.04902 28.7304 9.04902 29.5 9.04902C30.1413 9.04902 30.9109 9.04902 31.5522 9.04902C31.6804 9.04902 31.937 9.04902 32.0652 9.04902C32.5783 9.04902 33.0913 9.04902 33.6044 9.04902C33.7326 9.04902 33.8609 9.04902 33.9891 9.04902C35.2717 9.04902 36.4261 9.17647 37.5804 9.17647C42.0696 9.43137 44.8913 9.94118 46.8152 10.451H46.9435C47.0717 10.451 47.2 10.5784 47.3283 10.5784C47.4565 10.5784 47.5848 10.5784 47.5848 10.7059H47.713C48.2261 10.8333 48.4826 10.9608 48.8674 11.0882C49.2522 11.4706 49.7652 11.8529 50.2783 12.3627C50.2783 12.4902 50.4065 12.4902 50.4065 12.6176C50.4065 12.7451 50.5348 12.7451 50.5348 12.8725C50.663 13 50.663 13 50.7913 13.1275L50.9196 13.2549C54.1261 17.0784 55.9217 21.9216 55.9217 26.8922V31.2255" fill="white"/>
</svg>
