<svg width="62" height="65" viewBox="0 0 62 65" fill="none" xmlns="http://www.w3.org/2000/svg">
<path d="M25.7662 49.2872V60.7025H24.29V63.7913H27.3766H33.9524H37.039V60.7025H35.5628V49.2872C36.0996 49.2872 25.7662 49.2872 25.7662 49.2872ZM28.8528 60.7025V49.2872H32.342V60.7025H28.8528Z" fill="#C63E34"/>
<path d="M31 51.436C29.5238 51.436 28.0476 51.0331 26.7056 50.3616L4.42857 37.6033C1.61039 35.9918 0 33.1715 0 29.9484C0 26.7252 1.61039 23.905 4.42857 22.2934L26.7056 9.53514C29.3896 8.05787 32.7446 8.05787 35.2944 9.53514L57.5714 22.2934C60.3896 23.905 62 26.7252 62 29.9484C62 33.1715 60.3896 35.9918 57.5714 37.6033L35.2944 50.3616C33.9524 51.0331 32.4762 51.436 31 51.436ZM31 11.5496C30.0606 11.5496 29.1212 11.8182 28.1818 12.2211L5.90476 24.9794C4.16017 26.0537 3.08658 27.7996 3.08658 29.9484C3.08658 32.0971 4.16017 33.843 5.90476 34.9174L28.1818 47.5413C29.9264 48.4814 32.0736 48.4814 33.8182 47.5413L56.0952 34.9174C57.8398 33.843 58.9134 32.0971 58.9134 29.9484C58.9134 27.7996 57.8398 26.0537 56.0952 24.9794L33.8182 12.3554C33.013 11.8182 31.9394 11.5496 31 11.5496Z" fill="#C63E34"/>
<path d="M50.5931 0H12.2122V3.08884H50.5931V0Z" fill="#C63E34"/>
<path d="M24.5585 2.55164H21.4719V14.3698H24.5585V2.55164Z" fill="#C63E34"/>
<path d="M40.6623 2.55164H37.5757V14.3698H40.6623V2.55164Z" fill="#C63E34"/>
</svg>
