<svg width="51" height="66" viewBox="0 0 51 66" fill="none" xmlns="http://www.w3.org/2000/svg">
<g clip-path="url(#clip0)">
<path d="M48.1999 25.5H1.3999L6.9999 7.59998H42.5999L48.1999 25.5ZM5.1999 22.7L44.7999 22.8L40.5999 10.4L8.9999 10.3L5.1999 22.7Z" fill="white"/>
<path d="M34.5001 9.6H15.1001V0H34.4001L34.5001 9.6ZM17.9001 7.6H31.7001V2.8H17.9001V7.6Z" fill="white"/>
<path d="M22.8 63.2999C19.7 63.2999 16.9 61.2999 15.8 58.3999L15.5 57.5999L14.7 57.7999C14 57.9999 13.2 57.9999 12.5 57.9999C6.90005 57.9999 2.30005 53.3999 2.30005 47.7999C2.30005 43.0999 5.50005 39.0999 10 37.8999L10.7 37.6999L10.6 36.7999C10.6 36.6999 10.6 36.6999 10.6 36.5999C10.6 34.2999 12.3 32.2999 14.6 31.9999L15.5 31.8999L15.4 30.9999C15.3 30.5999 15.3 30.1999 15.3 29.7999C15.3 28.0999 15.9 26.4999 16.8 25.2999C17 25.0999 17.2 24.8999 17.3 24.6999C17.9 23.8999 16.2 23.4999 15.1 24.4999C14.9 24.6999 14.8 24.8999 14.7 25.0999C13.9 26.4999 13.4 28.0999 13.4 29.7999C13.4 29.9999 13.4 30.1999 13.4 30.3999C10.8 31.1999 8.90005 33.4999 8.70005 36.2999C3.70005 37.8999 0.300049 42.4999 0.300049 47.7999C0.300049 54.4999 5.70005 59.8999 12.4 59.8999C13 59.8999 13.6 59.8999 14.2 59.7999C15.7 62.9999 19 65.1999 22.6 65.1999L22.8 63.2999Z" fill="white"/>
<path d="M23.3 65.7H22.8C19.1 65.7 15.8 63.6 14.1 60.4C13.6 60.5 13.1 60.5 12.6 60.5C5.6 60.4 0 54.8 0 47.8C0 42.5 3.4 37.8 8.4 36C8.7 33.3 10.5 31 13 30.1C13 30 13 29.9 13 29.9C13 28.1 13.5 26.4 14.4 24.9L14.5 24.8C14.6 24.6 14.7 24.4 14.9 24.2C15.8 23.3 18 23.9 18.6 24.4C19 24.7 18.2 24.6 17.9 25C17.8 25.1 17.7 25.2 17.6 25.4C17.5 25.5 17.4 25.6 17.4 25.7C16.5 26.9 16 28.4 16 29.9C16 30.3 16 30.6 16.1 31L16.3 32.4L14.9 32.6C12.9 32.9 11.4 34.7 11.4 36.7V36.8L11.5 38.1L10.4 38.4C6.1 39.5 3.1 43.4 3.1 47.8C3.1 53.2 7.5 57.5 12.8 57.5C13.5 57.5 14.2 57.4 14.9 57.3L16.1 57L16.5 58.2C17.5 60.9 20.1 62.8 23 62.8H23.5L23.3 65.7ZM14.7 59.2L14.9 59.5C16.3 62.4 19.2 64.4 22.4 64.6V63.7C19.3 63.5 16.5 61.5 15.4 58.5L15.3 58.2L14.9 58.3C14.2 58.5 13.4 58.5 12.6 58.5C6.7 58.5 1.9 53.7 1.9 47.8C1.9 42.9 5.2 38.6 10 37.4L10.3 37.3V36.9C10.3 36.9 10.3 36.8 10.3 36.7C10.3 34.2 12.2 32 14.7 31.6L15.1 31.5L15 31.1C14.9 30.7 14.9 30.3 14.9 29.9C14.9 28.1 15.5 26.5 16.5 25.1C16.6 25 16.7 24.9 16.8 24.8C16.9 24.7 16.9 24.6 17 24.6C16.8 24.5 16.1 24.5 15.6 25C15.5 25.1 15.5 25.2 15.4 25.3L15.3 25.5C14.5 26.9 14.1 28.4 14.1 30C14.1 30.2 14.1 30.3 14.1 30.5V30.9L13.7 31.1C11.3 31.8 9.5 34 9.4 36.5V36.8H9C4.2 38.3 1 42.8 1 47.8C1 54.8 7.1 60.3 14.3 59.3L14.7 59.2Z" fill="white"/>
<path d="M27.4999 65.2C31.0999 65.2 34.3999 63.1 35.8999 59.8C36.4999 59.9 37.0999 59.9 37.6999 59.9C44.3999 59.9 49.7999 54.5 49.7999 47.8C49.7999 42.5 46.3999 37.9 41.3999 36.3C41.2999 33.5 39.3999 31.2 36.6999 30.4C36.6999 30.2 36.6999 30 36.6999 29.8C36.6999 27.9 36.0999 26.1 35.0999 24.6C34.8999 24.4 34.7999 24.6 34.5999 24.4C33.5999 23.6 32.3999 24.8 32.3999 24.8C32.5999 24.9 32.6999 24.6 32.7999 24.8C34.0999 26.1 34.7999 27.9 34.7999 29.9C34.7999 30.3 34.7999 30.6 34.6999 31.1V32L35.5999 32.1C37.8999 32.4 39.5999 34.4 39.5999 36.7C39.5999 36.8 39.5999 36.8 39.5999 36.9L39.4999 37.8L40.1999 38C44.6999 39.2 47.8999 43.2 47.8999 47.9C47.8999 53.5 43.2999 58.1 37.6999 58.1C36.9999 58.1 36.1999 58 35.4999 57.9L34.6999 57.7L34.3999 58.5C33.2999 61.4 30.4999 63.4 27.3999 63.4L27.4999 65.2Z" fill="white"/>
<path d="M27.5 65.7H27V62.8H27.5C30.4 62.8 33 61 34 58.2L34.4 57L35.6 57.3C36.3 57.4 37 57.5 37.7 57.5C43.1 57.5 47.4 53.1 47.4 47.8C47.4 43.4 44.4 39.5 40.1 38.4L39 38.1L39.1 36.8C39.1 36.7 39.1 36.7 39.1 36.6C39.1 34.6 37.6 32.8 35.6 32.5L34.2 32.3L34.4 30.9C34.5 30.5 34.5 30.2 34.5 29.8C34.5 28 33.8 26.3 32.6 25.1C32.5 25 32.3 24.8 32.2 24.7L31.8 24.3L32.2 23.9C32.7 23.4 33.3 24.3 35.1 23.5C35.4 23.4 35.5 23.9 35.6 24.1L35.7 24.3C36.8 25.9 37.4 27.8 37.4 29.8C37.4 29.9 37.4 30 37.4 30C39.9 30.9 41.7 33.2 42 35.9C47 37.7 50.4 42.4 50.4 47.8C50.4 54.7 44.8 60.4 37.8 60.4C37.3 60.4 36.8 60.4 36.3 60.3C34.6 63.6 31.2 65.7 27.5 65.7ZM28 63.8V64.7C31.2 64.5 34.1 62.6 35.5 59.6L35.7 59.3L36.1 59.4C43.2 60.4 49.4 54.9 49.4 47.9C49.4 42.9 46.2 38.4 41.4 36.9L41 36.7V36.4C40.9 33.9 39.1 31.7 36.7 31L36.3 30.9V30.5C36.3 30.3 36.3 30.1 36.3 29.9C36.3 28.1 35.8 26.4 34.8 25L34.7 24.8C34.6 24.6 34.5 24.5 34.4 24.4C34 24.1 33.6 24.2 33.3 24.4C33.3 24.4 33.3 24.4 33.4 24.5C34.8 26 35.6 27.9 35.6 29.9C35.6 30.3 35.6 30.7 35.5 31.2L35.4 31.6L35.8 31.7C38.3 32.1 40.2 34.2 40.2 36.8C40.2 36.9 40.2 37 40.2 37.1V37.5L40.5 37.6C45.2 38.8 48.6 43.1 48.6 48C48.6 53.9 43.8 58.7 37.9 58.7C37.1 58.7 36.4 58.6 35.6 58.5L35.2 58.4L35 58.6C33.9 61.5 31.2 63.6 28 63.8Z" fill="white"/>
<path d="M27.5 63.3H22.8V65.2H27.5V63.3Z" fill="white"/>
<path d="M28 65.7H22.3V62.8H28V65.7ZM23.3 64.7H27V63.8H23.3V64.7Z" fill="white"/>
<path d="M15 47C16.4912 47 17.7 45.7911 17.7 44.3C17.7 42.8088 16.4912 41.6 15 41.6C13.5089 41.6 12.3 42.8088 12.3 44.3C12.3 45.7911 13.5089 47 15 47Z" stroke="white" stroke-width="2.3" stroke-miterlimit="10"/>
<path d="M29 41.8C30.3807 41.8 31.5 40.6808 31.5 39.3C31.5 37.9193 30.3807 36.8 29 36.8C27.6193 36.8 26.5 37.9193 26.5 39.3C26.5 40.6808 27.6193 41.8 29 41.8Z" stroke="white" stroke-width="2.3" stroke-miterlimit="10"/>
<path d="M26.9 56.9C28.8883 56.9 30.5 55.2882 30.5 53.2999C30.5 51.3117 28.8883 49.7 26.9 49.7C24.9118 49.7 23.3 51.3117 23.3 53.2999C23.3 55.2882 24.9118 56.9 26.9 56.9Z" stroke="white" stroke-width="2.3" stroke-miterlimit="10"/>
</g>
<defs>
<clipPath id="clip0">
<rect width="50.4" height="65.7" fill="white"/>
</clipPath>
</defs>
</svg>
