<svg width="75" height="60" viewBox="0 0 75 60" fill="none" xmlns="http://www.w3.org/2000/svg">
<g clip-path="url(#clip0)">
<path d="M71.3 0H2.7C1.2 0 0 1.2 0 2.7V5.4C0 6.9 1.2 8.1 2.7 8.1H24.9C25.5 11.2 28.3 13.5 31.6 13.5H33V19H27.6V27.1H35.7V29.8H38.4V27.1H46.5V19H41.1V13.6H42.5C45.8 13.6 48.5 11.3 49.2 8.2H71.4C72.9 8.2 74.1 7 74.1 5.5V2.7C74 1.2 72.8 0 71.3 0ZM43.8 24.4H30.2V21.7H43.8V24.4ZM38.4 19H35.7V13.6H38.4V19ZM42.4 10.9H31.6C29.8 10.9 28.3 9.8 27.8 8.2H46.3C45.7 9.7 44.2 10.9 42.4 10.9ZM2.7 5.4V2.7H71.3V5.4H2.7Z" fill="white"/>
<path d="M9.9999 51.3C10.8999 51.3 11.8999 51.2001 12.7999 50.9001C15.6999 56.3001 22.2999 58.5001 27.7999 55.9001C30.1999 58.5001 33.5999 59.9001 37.0999 59.9001C40.5999 59.9001 43.9999 58.5001 46.3999 55.9001C51.8999 58.6001 58.5999 56.4 61.3999 51C62.2999 51.3 63.1999 51.4001 64.1999 51.4001C69.6999 51.4001 74.1999 46.9001 74.1999 41.4001C74.1999 35.9001 69.6999 31.4 64.1999 31.4C63.3999 31.4 62.7999 32 62.7999 32.8C62.7999 33.6 63.3999 34.2001 64.1999 34.2001C67.0999 34.2001 69.6999 36.0001 70.7999 38.7001C71.8999 41.4001 71.1999 44.5 69.0999 46.5C66.9999 48.5 63.8999 49.1001 61.1999 47.9001C60.7999 47.7001 60.3999 47.7001 60.0999 47.9001C59.7999 48.1001 59.4999 48.3001 59.2999 48.7001C58.3999 51.1 56.4999 53 53.9999 53.8C51.5999 54.6 48.8999 54.3001 46.6999 52.9001C46.0999 52.5001 45.2999 52.7001 44.7999 53.2001C42.9999 55.6 40.0999 57 37.0999 57C34.0999 57 31.0999 55.6 29.1999 53.2001C28.6999 52.6 27.8999 52.5001 27.2999 52.9001C25.0999 54.3001 22.4999 54.6 19.9999 53.8C17.5999 53 15.5999 51.1 14.6999 48.7001C14.5999 48.3001 14.2999 48.0001 13.8999 47.9001C13.4999 47.7001 13.0999 47.8001 12.7999 47.9001C10.1999 49.0001 7.0999 48.4001 4.9999 46.4001C2.8999 44.4001 2.1999 41.3 3.2999 38.6C4.3999 35.9 6.9999 34.1 9.8999 34.1C10.6999 34.1 11.2999 33.5001 11.2999 32.7001C11.2999 31.9001 10.6999 31.3 9.8999 31.3C4.3999 31.3 -0.100098 35.8 -0.100098 41.3C-0.100098 46.8 4.4999 51.3 9.9999 51.3Z" fill="white"/>
<path d="M26.7999 27.5C26.2999 26.9 25.3999 26.8 24.7999 27.3L9.09995 40.2C8.69995 40.5 8.49995 41 8.59995 41.5C8.59995 42 8.99995 42.5 9.49995 42.6C9.99995 42.8 10.4999 42.7 10.8999 42.4L26.5999 29.6C27.1999 29.1 27.2999 28.2 26.7999 27.5Z" fill="white"/>
<path d="M64.2 42.7C64.8 42.7 65.3 42.3 65.5 41.8C65.7 41.2 65.5 40.6 65.1 40.2L49.4 27.3C48.8 26.8 47.9 26.9 47.4 27.5C46.9 28.1 47 29 47.6 29.5L63.3 42.3C63.5 42.6 63.8 42.7 64.2 42.7Z" fill="white"/>
<path d="M35.7 28.5V47C35.7 47.8 36.2999 48.4 37.0999 48.4C37.8999 48.4 38.5 47.8 38.5 47V28.5C38.5 27.7 37.8999 27.1 37.0999 27.1C36.2999 27.1 35.7 27.7 35.7 28.5Z" fill="white"/>
<path d="M22.0999 48.2C22.7999 48.6 23.6999 48.4 24.0999 47.7L28.3999 40.6C28.6999 40.2 28.6999 39.6 28.3999 39.2C28.1999 38.7 27.6999 38.5 27.1999 38.5C26.6999 38.5 26.1999 38.8 25.8999 39.2L21.5999 46.3C21.1999 46.9 21.3999 47.8 22.0999 48.2Z" fill="white"/>
<path d="M46.2998 38.5999C45.5998 38.9999 45.3998 39.8999 45.7998 40.5999L50.0998 47.6999C50.3998 48.0999 50.7998 48.3999 51.3998 48.3999C51.8998 48.3999 52.3998 48.0999 52.5998 47.6999C52.7998 47.1999 52.7998 46.6999 52.5998 46.2999L48.2998 39.1999C47.8998 38.4999 46.9998 38.1999 46.2998 38.5999Z" fill="white"/>
</g>
<defs>
<clipPath id="clip0">
<rect width="74.2" height="59.8" fill="white"/>
</clipPath>
</defs>
</svg>
