<svg width="65" height="65" viewBox="0 0 65 65" fill="none" xmlns="http://www.w3.org/2000/svg">
<g clip-path="url(#clip0)">
<path d="M27.5178 64.3609L28.1577 62.7177C27.1521 62.3525 26.2379 61.7134 25.4151 60.8918C22.3068 57.7879 22.3068 52.5842 25.4151 49.4803C27.8834 47.0154 31.6317 46.4677 34.6486 47.9283C33.4601 49.2064 32.8201 50.8497 32.8201 52.6755C32.8201 54.5927 33.5515 56.4185 34.9228 57.6966L36.2027 56.4185C35.1971 55.4143 34.6486 54.0449 34.6486 52.6755C34.6486 51.2149 35.1971 49.9368 36.2027 48.9325L36.6598 48.4761C38.0311 47.3806 39.8595 47.0154 41.5965 47.5632C41.8708 47.6545 42.145 47.5632 42.4193 47.3806C42.6936 47.198 42.785 46.9241 42.785 46.6502C42.6936 45.646 43.0592 44.5505 43.7906 43.8202C44.522 43.0898 45.5276 42.7247 46.6246 42.816C46.8989 42.816 47.1732 42.7247 47.356 42.4508C47.5389 42.1769 47.6303 41.903 47.5389 41.6292C46.9903 39.8946 47.356 38.0688 48.4531 36.6994L48.9102 36.2429C49.9158 35.2387 51.2871 34.691 52.6584 34.691C54.1211 34.691 55.401 35.2387 56.4066 36.2429L57.6865 34.9648C56.3152 33.5955 54.5782 32.8651 52.6584 32.8651C50.9214 32.8651 49.1844 33.5042 47.9045 34.691C46.4418 31.6783 46.9903 27.9354 49.4587 25.4705C52.567 22.3665 57.778 22.3665 60.8862 25.4705C61.709 26.2921 62.2576 27.205 62.7147 28.2092L64.3602 27.5702C63.9031 26.2921 63.0803 25.1966 62.1661 24.1924C58.3265 20.3581 52.1099 20.3581 48.1788 24.1924C44.9791 27.3876 44.4306 32.3174 46.6246 36.0604C46.3504 36.5168 46.0761 36.9733 45.8933 37.4297L40.6823 34.1432C41.2308 33.4129 41.2308 32.4087 40.4995 31.7696L38.1225 29.2134L39.4024 27.9354C40.7737 26.566 40.7737 24.2837 39.4024 22.823L17.1872 0.730297C16.8216 0.365129 16.273 0.365129 15.9073 0.730297L0.731537 15.8848C0.365855 16.25 0.365855 16.7977 0.731537 17.1629L22.9467 39.3469C24.318 40.7163 26.6035 40.7163 28.0663 39.3469L29.3462 38.0688L31.9059 40.625C32.5459 41.264 33.5515 41.3553 34.2829 40.8075L37.574 46.0112C37.1169 46.1938 36.6598 46.4677 36.2027 46.7415C32.363 44.5505 27.4263 45.0983 24.318 48.2935C20.4784 52.1278 20.4784 58.3356 24.318 62.2612C25.1408 63.0828 26.3293 63.9045 27.5178 64.3609ZM24.2266 38.0688L2.65137 16.5238L16.5473 2.64743L38.1225 24.1924C38.8539 24.9227 38.8539 26.0182 38.1225 26.7486L36.2027 28.6657L28.6148 36.2429L26.695 38.1601C26.055 38.7991 24.8666 38.7991 24.2266 38.0688ZM31.8145 35.6039L33.0944 36.882L34.3743 35.6039L33.0944 34.3258L34.3743 33.0477L35.6542 34.3258L36.9341 33.0477L35.6542 31.7696L36.9341 30.4915L39.4938 33.0477L33.1858 39.3469L30.6261 36.7907L31.8145 35.6039ZM35.4713 39.4382L36.8426 38.0688L39.4024 40.625L40.6823 39.3469L38.1225 36.7907L39.4938 35.4213L45.5276 39.2556C45.4362 39.8033 45.5276 40.4424 45.5276 40.9901C44.7048 41.0814 43.882 41.4466 43.1507 41.9031L41.8708 40.5337L40.5909 41.8118L41.8708 43.0899C41.4137 43.8202 41.048 44.5505 40.9566 45.4634C40.4081 45.3722 39.7681 45.3722 39.2196 45.4634L35.4713 39.4382Z" fill="white"/>
<path d="M27.7919 65L27.4262 64.8174C26.0549 64.2697 24.8664 63.5393 23.9522 62.5351C19.9297 58.5182 19.9297 51.9452 23.9522 47.9284C27.152 44.7331 32.1801 44.0028 36.2026 46.1938C36.3854 46.0112 36.6597 45.9199 36.934 45.8286L34.1913 41.4466C33.3686 41.8118 32.3629 41.7205 31.6316 40.9902L29.2546 38.7079L28.3404 39.6208C27.6091 40.3511 26.6034 40.8076 25.5064 40.8076C24.4093 40.8076 23.4037 40.3511 22.6723 39.6208L0.365738 17.5281C-0.182785 16.9803 -0.182785 16.1587 0.365738 15.6109L15.633 0.36516C16.1815 -0.182592 17.0043 -0.182592 17.5528 0.36516L39.768 22.5491C40.4994 23.2795 40.9565 24.2837 40.9565 25.3792C40.9565 26.4747 40.4994 27.4789 39.768 28.2093L38.8538 29.1222L41.0479 31.3132C41.6878 31.9522 41.8707 33.0477 41.505 33.8694L45.8932 36.6081C45.9846 36.3343 46.1674 36.1517 46.2588 35.8778C44.0648 31.8609 44.7961 26.9312 47.9958 23.6447C52.0183 19.6278 58.6006 19.6278 62.6231 23.6447C63.6288 24.6489 64.4515 25.8357 64.9086 27.205L65.0915 27.6615L62.5317 28.6657L62.3489 28.2093C61.9832 27.205 61.4347 26.3834 60.6119 25.6531C59.1492 24.1924 57.2293 23.4621 55.2181 23.4621C53.2068 23.4621 51.287 24.2837 49.8242 25.6531C47.6302 27.8441 46.9902 31.0393 48.0873 33.7781C49.3671 32.7739 51.0127 32.2261 52.6583 32.2261C54.6695 32.2261 56.5894 33.0477 57.9607 34.4171L58.3264 34.7823L56.4065 36.6994L56.2237 36.5168C55.3095 35.6039 54.121 35.0562 52.7497 35.0562C51.4698 35.0562 50.1899 35.6039 49.2757 36.5168L48.8186 36.9733C47.9044 38.1601 47.5387 39.8946 47.9958 41.4466C48.0873 41.9031 48.0873 42.3595 47.7216 42.7247C47.4473 43.0899 46.9902 43.2725 46.5331 43.2725C45.6189 43.1812 44.7047 43.5463 44.0648 44.1854C43.4248 44.8244 43.0591 45.7373 43.1506 46.6503C43.1506 47.1067 42.9677 47.5632 42.602 47.8371C42.2363 48.1109 41.7792 48.2022 41.3221 48.1109C39.768 47.6545 38.1224 47.9284 36.8425 48.9326L36.5683 49.2064C35.6541 50.1194 35.1055 51.3975 35.1055 52.6755C35.1055 53.9536 35.6541 55.2317 36.5683 56.1446L36.934 56.5098L35.0141 58.427L34.6484 58.0618C33.1857 56.6011 32.4543 54.684 32.4543 52.6755C32.4543 51.0323 33.0029 49.389 34.0085 48.1109C31.1745 47.0154 27.9747 47.6545 25.8721 49.8455C24.4093 51.3062 23.678 53.2233 23.678 55.2317C23.678 57.2402 24.5008 59.1573 25.8721 60.618C26.6034 61.3483 27.5176 61.8961 28.4318 62.3525L28.8889 62.5351L27.7919 65ZM31.1745 45.8286C28.7061 45.8286 26.3292 46.7416 24.5008 48.5674C20.8439 52.2191 20.8439 58.1531 24.5008 61.8961C25.3235 62.7177 26.2377 63.3567 27.2434 63.8132L27.5176 62.9916C26.6034 62.5351 25.7806 61.9873 25.0493 61.257C23.4037 59.6138 22.5809 57.514 22.5809 55.2317C22.5809 52.9494 23.4951 50.8497 25.0493 49.2064C27.6091 46.6503 31.5401 46.0112 34.8313 47.5632L35.3798 47.8371L35.0141 48.2935C33.9171 49.4803 33.3686 51.0323 33.2771 52.6755C33.2771 54.3188 33.8257 55.8708 34.9227 57.0576L35.5626 56.4185C34.6484 55.323 34.1913 54.0449 34.1913 52.6755C34.1913 51.1236 34.8313 49.6629 35.9283 48.5674L36.3854 48.1109C37.9396 46.9241 39.9508 46.559 41.7792 47.1067C41.9621 47.1067 42.0535 47.1067 42.1449 47.0154C42.2363 46.9241 42.3278 46.7416 42.3278 46.6503C42.2363 45.4635 42.6934 44.2767 43.5162 43.455C44.339 42.6334 45.5275 42.177 46.716 42.2682C46.8988 42.2682 46.9902 42.177 47.0816 42.0857C47.1731 41.9944 47.173 41.8118 47.173 41.7205C46.6245 39.8946 46.9902 37.8862 48.1787 36.4255L48.7272 35.8778C49.8242 34.7823 51.287 34.1432 52.8411 34.1432C54.2124 34.1432 55.5837 34.5997 56.5894 35.5126L57.2293 34.8736C56.0408 33.7781 54.4867 33.2303 52.8411 33.2303C51.1956 33.2303 49.6414 33.8694 48.4529 34.9649L47.9958 35.33L47.7216 34.7823C46.1674 31.4958 46.8074 27.5702 49.3671 25.014C51.0127 23.3708 53.1154 22.5491 55.4009 22.5491C57.6864 22.5491 59.7891 23.4621 61.4347 25.014C62.166 25.7444 62.7145 26.566 63.1716 27.4789L63.9944 27.205C63.5373 26.2008 62.8974 25.2879 62.0746 24.375C58.4178 20.7233 52.4754 20.7233 48.7272 24.375C45.7103 27.3876 45.0704 32.0435 47.2645 35.6952L47.4473 35.9691L47.2645 36.243C46.9902 36.6081 46.8074 37.0646 46.6245 37.5211L46.4417 38.0688L40.4079 34.2345L40.6822 33.8694C41.1393 33.3216 41.0479 32.5913 40.5908 32.1348L37.4825 29.2135L39.0366 27.6615C39.5851 27.1138 39.9508 26.2921 39.9508 25.4705C39.9508 24.6489 39.5851 23.8272 39.0366 23.2795L16.9129 1.00421C16.73 0.912913 16.4558 0.912913 16.2729 1.00421L1.00568 16.25C0.914261 16.4326 0.914261 16.7064 1.00568 16.889L23.2209 39.073C24.4093 40.2598 26.512 40.2598 27.6091 39.073L29.2546 37.4298L32.0887 40.2598C32.5458 40.7163 33.3686 40.8076 33.8257 40.3511L34.1913 40.0772L38.031 46.1938L37.4825 46.3764C37.0254 46.559 36.5683 46.7416 36.2026 47.0154L35.9283 47.198L35.6541 47.0154C34.3742 46.1938 32.82 45.8286 31.1745 45.8286ZM41.4136 46.1025L40.9565 46.0112C40.4079 45.9199 39.8594 45.9199 39.3109 46.0112H39.0366L34.8313 39.4382L36.8425 37.4298L39.4023 39.9859L40.0423 39.3469L37.4825 36.7907L39.4937 34.7823L46.076 38.9817V39.2556C45.9846 39.8034 46.076 40.3511 46.076 40.8989L46.1674 41.3553L45.7103 41.4466C44.8875 41.5379 44.1562 41.9031 43.5162 42.2682L43.242 42.5421L41.9621 41.264L41.3221 41.9031L42.602 43.1812L42.4192 43.455C41.9621 44.0941 41.6878 44.8244 41.5964 45.6461L41.4136 46.1025ZM40.0423 45.007C40.2251 45.007 40.4994 45.007 40.6822 45.007C40.865 44.368 41.0479 43.7289 41.4136 43.1812L40.0423 41.8118L41.9621 39.8946L43.3334 41.264C43.8819 40.8989 44.5219 40.7163 45.1618 40.5337C45.1618 40.1685 45.1618 39.8034 45.1618 39.4382L39.6766 35.9691L38.8538 36.7907L41.4136 39.3469L39.4937 41.264L36.934 38.7079L36.1112 39.5295L39.5851 45.007C39.768 45.007 39.8594 45.007 40.0423 45.007ZM33.0943 39.9859L29.8946 36.7907L31.8144 34.8736L33.0943 36.1517L33.7342 35.5126L32.4543 34.2345L34.3742 32.3174L35.6541 33.5955L36.294 32.9564L35.0141 31.6784L36.934 29.7612L40.1337 32.9564L33.0943 39.9859ZM31.1745 36.7907L33.0943 38.7079L38.7624 33.0477L36.8425 31.1306L36.2026 31.7696L37.4825 33.0477L35.5626 34.9649L34.2828 33.6868L33.6428 34.3258L34.9227 35.6039L33.0943 37.4298L31.8144 36.1517L31.1745 36.7907ZM25.415 39.073C24.8664 39.073 24.2265 38.8904 23.8608 38.434L2.01131 16.5239L16.6386 1.91713L38.4881 23.7359C38.9452 24.1924 39.128 24.7402 39.128 25.2879C39.128 25.8357 38.8538 26.4747 38.4881 26.8399L27.0605 38.434C26.6034 38.8904 26.0549 39.073 25.415 39.073ZM24.5008 37.7949C25.0493 38.3427 25.8721 38.3427 26.4206 37.7949L37.8482 26.3834C38.1224 26.1095 38.2138 25.8357 38.2138 25.4705C38.2138 25.1053 38.031 24.7402 37.8482 24.5576L16.5472 3.28651L3.2912 16.5239L24.5008 37.7949Z" fill="white"/>
</g>
<defs>
<clipPath id="clip0">
<rect width="65" height="65" fill="white"/>
</clipPath>
</defs>
</svg>
