<svg width="65" height="65" viewBox="0 0 65 65" fill="none" xmlns="http://www.w3.org/2000/svg">
<g clip-path="url(#clip0)">
<path d="M25.9457 16.25C27.7738 16.25 29.2499 17.7261 29.2499 19.5542C29.2499 20.5563 28.7895 21.5042 28.004 22.1407L24.2395 25.1604C23.9822 25.3636 23.8332 25.675 23.8332 26V29.25H25.9999V26.5146L29.3582 23.8198C31.7145 21.9375 32.1072 18.4844 30.2113 16.1282C29.1686 14.8282 27.5978 14.0698 25.9322 14.0698H24.9572C21.9374 14.0698 19.4863 16.5209 19.4863 19.5407V21.6667H21.653V19.5542C21.653 17.7261 23.129 16.25 24.9572 16.25H25.9457Z" fill="white"/>
<path d="M25.9999 31.4166H23.8333V33.5833H25.9999V31.4166Z" fill="white"/>
<path d="M0.0404225 46.8812C0.175839 47.3416 0.595631 47.6666 1.08313 47.6666H17.1435C18.5113 52.4604 21.355 56.7125 25.255 59.8271C29.4665 63.1989 34.6935 65.0135 40.0831 65H63.9165C64.5123 65 64.9998 64.5125 64.9998 63.9166C64.9998 63.551 64.8102 63.1989 64.4987 62.9958L56.8342 58.1208C66.205 48.8719 66.2998 33.7729 57.0508 24.4156C54.5592 21.8969 51.5394 19.9604 48.2081 18.7552C45.8654 8.04375 36.3185 0 24.9165 0C11.781 0 1.08313 10.6979 1.08313 23.8333C1.08313 30.2114 3.64251 36.3052 8.16542 40.7875L0.500839 45.6625C0.0945891 45.9333 -0.0949942 46.4208 0.0404225 46.8812ZM61.7498 41.1666C61.7498 47.4094 59.055 53.3541 54.356 57.4708C53.9092 57.8635 53.855 58.5541 54.2613 59.001C54.329 59.0823 54.4102 59.15 54.4915 59.2041L60.206 62.8333H40.0831C35.181 62.8469 30.4279 61.1948 26.6092 58.1343C23.2238 55.4396 20.7185 51.7969 19.4185 47.6666H24.9165C38.0519 47.6666 48.7498 36.9687 48.7498 23.8333C48.7498 22.9667 48.6956 22.1 48.6144 21.2469C56.5904 24.6458 61.7633 32.4864 61.7498 41.1666ZM10.5217 41.8708C11.0227 41.5458 11.1717 40.8823 10.8602 40.3812C10.806 40.3 10.7383 40.2187 10.6571 40.151C5.94459 36.0208 3.2498 30.076 3.2498 23.8333C3.2498 11.8896 12.9727 2.16667 24.9165 2.16667C36.8602 2.16667 46.5831 11.8896 46.5831 23.8333C46.5831 35.7771 36.8602 45.5 24.9165 45.5H4.80709L10.5217 41.8708Z" fill="white"/>
<path d="M31.4167 54.1667C32.6133 54.1667 33.5833 53.1967 33.5833 52C33.5833 50.8034 32.6133 49.8334 31.4167 49.8334C30.22 49.8334 29.25 50.8034 29.25 52C29.25 53.1967 30.22 54.1667 31.4167 54.1667Z" fill="white"/>
<path d="M40.0832 54.1667C41.2798 54.1667 42.2498 53.1967 42.2498 52C42.2498 50.8034 41.2798 49.8334 40.0832 49.8334C38.8866 49.8334 37.9165 50.8034 37.9165 52C37.9165 53.1967 38.8866 54.1667 40.0832 54.1667Z" fill="white"/>
<path d="M48.7499 54.1667C49.9465 54.1667 50.9166 53.1967 50.9166 52C50.9166 50.8034 49.9465 49.8334 48.7499 49.8334C47.5533 49.8334 46.5833 50.8034 46.5833 52C46.5833 53.1967 47.5533 54.1667 48.7499 54.1667Z" fill="white"/>
</g>
<defs>
<clipPath id="clip0">
<rect width="65" height="65" fill="white"/>
</clipPath>
</defs>
</svg>
