<svg width="42" height="50" viewBox="0 0 42 50" fill="none" xmlns="http://www.w3.org/2000/svg">
<g clip-path="url(#clip0)">
<path d="M31.8647 0H29.4261H26.9875H14.6318H12.1931H9.75451H7.31588H0V50H41.6193V0H34.3034H31.8647ZM2.43863 47.5614V44.9602H34.1489L39.1806 39.5302V47.5614H2.43863ZM34.3034 41.2128V37.6524H37.6036L34.3034 41.2128ZM39.1806 2.43863V35.2057H31.8647V42.5215H2.43863V2.43863H7.31588H9.75451H12.1931H14.6318H26.9875H29.4261H31.8647H34.3034H39.1806Z" fill="#C63E34"/>
<path d="M7.31588 18.1353H12.1931V20.5739H7.31588V18.1353Z" fill="#C63E34"/>
<path d="M14.6318 18.1353H19.5903V20.5739H14.6318V18.1353Z" fill="#C63E34"/>
<path d="M22.0289 18.1353H26.9875V20.5739H22.0289V18.1353Z" fill="#C63E34"/>
<path d="M29.4261 18.1353H34.3034V20.5739H29.4261V18.1353Z" fill="#C63E34"/>
<path d="M7.31588 23.0127H12.1931V25.4513H7.31588V23.0127Z" fill="#C63E34"/>
<path d="M14.6318 23.0127H19.5903V25.4513H14.6318V23.0127Z" fill="#C63E34"/>
<path d="M22.0289 23.0127H26.9875V25.4513H22.0289V23.0127Z" fill="#C63E34"/>
<path d="M29.4261 23.0127H34.3034V25.4513H29.4261V23.0127Z" fill="#C63E34"/>
<path d="M7.31588 27.8896H12.1931V30.3283H7.31588V27.8896Z" fill="#C63E34"/>
<path d="M14.6318 27.8896H19.5903V30.3283H14.6318V27.8896Z" fill="#C63E34"/>
<path d="M22.0289 27.8896H26.9875V30.3283H22.0289V27.8896Z" fill="#C63E34"/>
<path d="M29.4261 27.8896H34.3034V30.3283H29.4261V27.8896Z" fill="#C63E34"/>
<path d="M7.31588 32.7671H12.1931V35.2057H7.31588V32.7671Z" fill="#C63E34"/>
<path d="M14.6318 32.7671H19.5903V35.2057H14.6318V32.7671Z" fill="#C63E34"/>
<path d="M22.0289 32.7671H26.9875V35.2057H22.0289V32.7671Z" fill="#C63E34"/>
<path d="M7.31588 8.37256H12.1931V10.8112H7.31588V8.37256Z" fill="#C63E34"/>
<path d="M14.6318 8.37256H19.5903V10.8112H14.6318V8.37256Z" fill="#C63E34"/>
<path d="M22.0289 8.37256H26.9875V10.8112H22.0289V8.37256Z" fill="#C63E34"/>
<path d="M29.4261 8.37256H34.3034V10.8112H29.4261V8.37256Z" fill="#C63E34"/>
<path d="M7.31588 13.25H12.1931V15.6886H7.31588V13.25Z" fill="#C63E34"/>
<path d="M14.6318 13.25H19.5903V15.6886H14.6318V13.25Z" fill="#C63E34"/>
<path d="M22.0289 13.25H26.9875V15.6886H22.0289V13.25Z" fill="#C63E34"/>
<path d="M29.4261 13.25H34.3034V15.6886H29.4261V13.25Z" fill="#C63E34"/>
</g>
<defs>
<clipPath id="clip0">
<rect width="41.6193" height="50" fill="white"/>
</clipPath>
</defs>
</svg>
