<svg width="50" height="50" viewBox="0 0 50 50" fill="none" xmlns="http://www.w3.org/2000/svg">
<path d="M-1 0V26.3867H49V0H-1ZM46.0703 23.457H1.92969V2.92969H46.0703V23.457Z" fill="#C63E34"/>
<path d="M7.8672 5.85938H4.93751V8.78906H7.8672V5.85938Z" fill="#C63E34"/>
<path d="M13.7363 5.85938H10.8066V8.78906H13.7363V5.85938Z" fill="#C63E34"/>
<path d="M19.5957 5.85938H16.666V8.78906H19.5957V5.85938Z" fill="#C63E34"/>
<path d="M25.4648 5.85938H22.5352V8.78906H25.4648V5.85938Z" fill="#C63E34"/>
<path d="M31.3242 5.85938H28.3945V8.78906H31.3242V5.85938Z" fill="#C63E34"/>
<path d="M37.1934 5.85938H34.2637V8.78906H37.1934V5.85938Z" fill="#C63E34"/>
<path d="M43.0527 5.85938H40.123V8.78906H43.0527V5.85938Z" fill="#C63E34"/>
<path d="M7.8672 11.7285H4.93751V14.6582H7.8672V11.7285Z" fill="#C63E34"/>
<path d="M13.7363 11.7285H10.8066V14.6582H13.7363V11.7285Z" fill="#C63E34"/>
<path d="M19.5957 11.7285H16.666V14.6582H19.5957V11.7285Z" fill="#C63E34"/>
<path d="M25.4648 11.7285H22.5352V14.6582H25.4648V11.7285Z" fill="#C63E34"/>
<path d="M31.3242 11.7285H28.3945V14.6582H31.3242V11.7285Z" fill="#C63E34"/>
<path d="M37.1934 11.7285H34.2637V14.6582H37.1934V11.7285Z" fill="#C63E34"/>
<path d="M43.0527 11.7285H40.123V14.6582H43.0527V11.7285Z" fill="#C63E34"/>
<path d="M7.8672 17.5879H4.93751V20.5176H7.8672V17.5879Z" fill="#C63E34"/>
<path d="M13.7363 17.5879H10.8066V20.5176H13.7363V17.5879Z" fill="#C63E34"/>
<path d="M31.3242 17.5879H16.666V20.5176H31.3242V17.5879Z" fill="#C63E34"/>
<path d="M37.1934 17.5879H34.2637V20.5176H37.1934V17.5879Z" fill="#C63E34"/>
<path d="M43.0527 17.5879H40.123V20.5176H43.0527V17.5879Z" fill="#C63E34"/>
<path d="M36.959 39.6582L37.9648 38.0664H49L46.0801 29.3164H32.1934L28.8145 34.6484H-1V44.668H28.8145L32.1934 50H46.0898L49.0098 41.25H37.9648L36.959 39.6582ZM43.9707 47.0703H33.8047L30.4258 41.7383H1.92969V37.5781H30.4258L33.8047 32.2461H43.9707L44.9375 35.1367H36.3633L33.4922 39.6582L36.3633 44.1797H44.9375L43.9707 47.0703Z" fill="#C63E34"/>
</svg>
