<svg width="41" height="60" viewBox="0 0 41 60" fill="none" xmlns="http://www.w3.org/2000/svg">
<g clip-path="url(#clip0)">
<path d="M32.3447 28.125H32.4736C36.3526 28.125 39.5049 24.9727 39.5049 21.0938C39.5049 18.5156 38.1455 16.2305 35.9893 15V12.3047C35.9893 8.40234 42.165 0 39.9385 0C37.5596 0 26.5674 0 23.6846 0H16.6533C12.9619 0 3.21193 0 0.317394 0C-1.40526 0 4.33693 9.21094 4.33693 12.3047V15C2.18068 16.2305 0.8213 18.5156 0.8213 21.0938C0.8213 24.9727 3.97364 28.125 7.85255 28.125H7.98146C8.42677 31.2539 10.0557 33.9961 12.3994 35.9062L11.6611 38.8711C5.57911 39.5625 0.833019 44.7422 0.833019 51.0117V60H39.5049V51.0938C39.5049 44.7305 34.6533 39.4922 28.4658 38.8477L27.5283 36.2344C30.1182 34.3008 31.876 31.3828 32.3447 28.125ZM8.16896 17.5781H32.169C31.4424 19.6289 29.4854 21.0938 27.2002 21.0938H13.1377C10.8408 21.0938 8.8838 19.6172 8.16896 17.5781ZM20.169 3.51562C23.0752 3.51562 25.4424 5.88281 25.4424 8.78906V14.0625H14.8955V8.78906C14.8955 5.88281 17.2627 3.51562 20.169 3.51562ZM32.4736 24.6094V22.8516H32.4619C33.7393 21.8906 34.7471 20.5898 35.3447 19.0898C35.7432 19.6641 35.9776 20.3555 35.9776 21.0938C35.9893 23.0273 34.4072 24.6094 32.4736 24.6094ZM32.4736 12.3047V14.0625H28.958V8.78906C28.958 7.26562 28.5713 5.83594 27.8916 4.58203C29.4854 4.58203 33.1768 4.39453 34.7471 4.45312C34.7354 4.45312 32.4736 10.418 32.4736 12.3047ZM7.86427 12.3047C7.86427 10.3945 6.2588 7.18359 5.71974 4.57031C5.71974 4.57031 10.876 4.60547 12.458 4.58203C11.7666 5.83594 11.3799 7.26562 11.3799 8.78906V14.0625H7.86427V12.3047ZM4.34864 21.0938C4.34864 20.3672 4.58302 19.6641 4.98146 19.0898C5.59083 20.5898 6.58693 21.8906 7.86427 22.8516H7.85255V24.6094C5.91896 24.6094 4.34864 23.0273 4.34864 21.0938ZM35.9893 51.0938V56.4844H4.34864V51.0117C4.34864 46.7109 7.47755 43.1367 11.5908 42.4336C12.458 46.3828 15.9736 49.3359 20.169 49.3359C24.3643 49.3359 27.8799 46.3828 28.7471 42.4453C32.8604 43.1836 35.9893 46.7812 35.9893 51.0938ZM25.4307 40.8281C25.2783 43.6055 22.9815 45.8203 20.169 45.8203C17.2627 45.8203 14.8955 43.4531 14.8955 40.5469H14.8721L15.5635 37.7812C16.9815 38.3555 18.5401 38.6719 20.169 38.6719C21.6104 38.6719 23.0166 38.4258 24.3994 37.9219L25.4307 40.8281ZM20.169 35.1562C15.3174 35.1562 11.3799 31.2188 11.3799 26.3672V24.4336C11.9424 24.5508 12.5401 24.6094 13.1377 24.6094H27.2002C27.7979 24.6094 28.3955 24.5508 28.958 24.4336V26.3672C28.958 31.207 25.044 35.1562 20.169 35.1562Z" fill="#C63E34"/>
<path d="M25.4414 49.3359H32.4727V52.8516H25.4414V49.3359Z" fill="#C63E34"/>
<path d="M20.168 28.125C19.4648 28.125 18.8203 27.7031 18.5508 27.0469L15.3164 28.418C16.1484 30.375 18.0469 31.6406 20.1797 31.6406C22.3125 31.6406 24.2109 30.375 25.043 28.418L21.8086 27.0469C21.5039 27.7031 20.8711 28.125 20.168 28.125Z" fill="#C63E34"/>
</g>
<defs>
<clipPath id="clip0">
<rect width="40.418" height="60" fill="white"/>
</clipPath>
</defs>
</svg>
