<svg width="65" height="66" viewBox="0 0 65 66" fill="none" xmlns="http://www.w3.org/2000/svg">
<path d="M64.3002 12.0294L32.8838 0.112869C32.6373 0.0183667 32.3635 0.0183667 32.1165 0.112869L0.699966 12.0294C0.278944 12.1885 0.00108623 12.5923 0 13.0422V63.9583C0 64.5568 0.485327 65.0419 1.08384 65.0419H63.9163C64.5151 65.0419 64.9999 64.5568 64.9999 63.9583V13.0422C64.9999 12.5923 64.7217 12.1885 64.3002 12.0294ZM56.3334 62.8749H8.66702V29.2922H56.3334V62.8749ZM56.3334 27.1254H8.66702V18.2768L32.5 9.23522L56.3334 18.2768V27.1254ZM62.8329 62.8749H58.4997V17.5297C58.4997 17.0789 58.2217 16.6754 57.8002 16.5169L32.8838 7.06472C32.6373 6.97022 32.3635 6.97022 32.1165 7.06472L7.19996 16.5169C6.77894 16.6754 6.50086 17.0789 6.49999 17.5297V62.8749H2.16703V13.7902L32.5 2.2838L62.8329 13.7902V62.8749Z" fill="white"/>
<path d="M29.2501 15.2089H36.8333V17.3752H29.2501V15.2089Z" fill="white"/>
<path d="M29 20H36.5832V22.167H29V20Z" fill="white"/>
<path d="M10.834 61.7922H23.8339C24.4331 61.7922 24.9169 61.307 24.9169 60.7087V47.7087C24.9169 47.1104 24.4331 46.6257 23.8339 46.6257H10.834C10.2359 46.6257 9.75101 47.1104 9.75101 47.7087V60.7087C9.75101 61.307 10.2359 61.7922 10.834 61.7922ZM16.2508 48.7919H18.4176V50.9587H16.2508V48.7919ZM11.9176 48.7919H14.084V52.0419C14.084 52.6402 14.5691 53.1253 15.1676 53.1253H19.5008C20.0993 53.1253 20.5839 52.6402 20.5839 52.0419V48.7919H22.7508V59.6251H11.9176V48.7919Z" fill="white"/>
<path d="M14.0828 56.3748H20.5828V58.5416H14.0828V56.3748Z" fill="white"/>
<path d="M10.834 45.5416H23.8339C24.4331 45.5416 24.9169 45.0567 24.9169 44.4584V31.4584C24.9169 30.8606 24.4331 30.3752 23.8339 30.3752H10.834C10.2359 30.3752 9.75101 30.8606 9.75101 31.4584V44.4584C9.75101 45.0567 10.2359 45.5416 10.834 45.5416ZM16.2508 32.5421H18.4176V34.7084H16.2508V32.5421ZM11.9176 32.5421H14.084V35.7921C14.084 36.3903 14.5691 36.8752 15.1676 36.8752H19.5008C20.0993 36.8752 20.5839 36.3903 20.5839 35.7921V32.5421H22.7508V43.3754H11.9176V32.5421Z" fill="white"/>
<path d="M14.0828 40.1257H20.5828V42.2919H14.0828V40.1257Z" fill="white"/>
<path d="M27.0838 61.7922H40.0838C40.6825 61.7922 41.167 61.307 41.167 60.7087V47.7087C41.167 47.1104 40.6825 46.6257 40.0838 46.6257H27.0838C26.4855 46.6257 26.0006 47.1104 26.0006 47.7087V60.7087C26.0006 61.307 26.4855 61.7922 27.0838 61.7922ZM32.5004 48.7919H34.6672V50.9587H32.5004V48.7919ZM28.1668 48.7919H30.3338V52.0419C30.3338 52.6402 30.8191 53.1253 31.4174 53.1253H35.7502C36.3491 53.1253 36.8338 52.6402 36.8338 52.0419V48.7919H39.0002V59.6251H28.1668V48.7919Z" fill="white"/>
<path d="M30.3326 56.3748H36.8326V58.5416H30.3326V56.3748Z" fill="white"/>
</svg>
