<svg width="65" height="65" viewBox="0 0 65 65" fill="none" xmlns="http://www.w3.org/2000/svg">
<path d="M62.9688 57.8906H61.9531V2.03125C61.9531 1.47063 61.4981 1.01562 60.9375 1.01562H20.3125C19.7519 1.01562 19.2969 1.47063 19.2969 2.03125V15.2344H4.0625C3.50188 15.2344 3.04688 15.6894 3.04688 16.25V57.8906H2.03125C1.47063 57.8906 1.01562 58.3456 1.01562 58.9062V62.9688C1.01562 63.5294 1.47063 63.9844 2.03125 63.9844H62.9688C63.5294 63.9844 63.9844 63.5294 63.9844 62.9688V58.9062C63.9844 58.3456 63.5294 57.8906 62.9688 57.8906ZM51.7969 57.8906V48.75C51.7969 48.1894 51.3419 47.7344 50.7812 47.7344H45.7031V45.7031H59.9219V57.8906H51.7969ZM5.07812 39.6094V31.4844H13.2031V39.6094H5.07812ZM15.2344 31.4844H23.3594V39.6094H15.2344V31.4844ZM25.3906 31.4844H33.5156V39.6094H25.3906V31.4844ZM35.5469 31.4844H43.6719V39.6094H35.5469V31.4844ZM45.7031 17.2656H49.7656V25.3906H45.7031V17.2656ZM59.9219 43.6719H45.7031V41.6406H59.9219V43.6719ZM45.7031 39.6094V31.4844H49.7656V39.6094H45.7031ZM59.9219 39.6094H51.7969V31.4844H59.9219V39.6094ZM59.9219 25.3906H51.7969V17.2656H59.9219V25.3906ZM45.7031 27.4219H59.9219V29.4531H45.7031V27.4219ZM45.7031 49.7656H49.7656V57.8906H45.7031V49.7656ZM59.9219 11.1719H51.7969V3.04688H59.9219V11.1719ZM31.4844 11.1719V3.04688H39.6094V11.1719H31.4844ZM41.6406 3.04688H49.7656V11.1719H41.6406V3.04688ZM29.4531 3.04688V11.1719H21.3281V3.04688H29.4531ZM21.3281 13.2031H59.9219V15.2344H44.6875H21.3281V13.2031ZM43.6719 17.2656V29.4531H5.07812V17.2656H43.6719ZM5.07812 41.6406H43.6719V57.8906H41.6406V48.75C41.6406 48.1894 41.1856 47.7344 40.625 47.7344H28.4375C27.8769 47.7344 27.4219 48.1894 27.4219 48.75V57.8906H21.3281V48.75C21.3281 48.1894 20.8731 47.7344 20.3125 47.7344H8.125C7.56438 47.7344 7.10938 48.1894 7.10938 48.75V57.8906H5.07812V41.6406ZM29.4531 57.8906V49.7656H33.5156V57.8906H29.4531ZM35.5469 49.7656H39.6094V57.8906H35.5469V49.7656ZM9.14062 57.8906V49.7656H13.2031V57.8906H9.14062ZM15.2344 49.7656H19.2969V57.8906H15.2344V49.7656ZM61.9531 61.9531H3.04688V59.9219H61.9531V61.9531Z" fill="white"/>
<path d="M13.2031 24.6148L13.3098 24.8291C13.6541 25.5177 14.7824 25.5177 15.1267 24.8291L15.2344 24.6148V27.422H17.2656V20.3127C17.2656 19.8414 16.9416 19.4321 16.4836 19.3245C16.0225 19.2168 15.5523 19.4372 15.341 19.8587L14.2188 22.1042L13.0965 19.8587C12.8852 19.4372 12.416 19.2178 11.9539 19.3245C11.4959 19.4321 11.1719 19.8414 11.1719 20.3127V27.422H13.2031V24.6148Z" fill="white"/>
<path d="M21.3281 25.3906H23.3594V27.4219H25.3906V22.3438C25.3906 20.6639 24.0236 19.2969 22.3438 19.2969C20.6639 19.2969 19.2969 20.6639 19.2969 22.3438V27.4219H21.3281V25.3906ZM22.3438 21.3281C22.9034 21.3281 23.3594 21.7841 23.3594 22.3438V23.3594H21.3281V22.3438C21.3281 21.7841 21.7841 21.3281 22.3438 21.3281Z" fill="white"/>
<path d="M28.4375 27.4219H31.4844V25.3906H29.4531V19.2969H27.4219V26.4062C27.4219 26.9669 27.8769 27.4219 28.4375 27.4219Z" fill="white"/>
<path d="M34.5312 27.4219H37.5781V25.3906H35.5469V19.2969H33.5156V26.4062C33.5156 26.9669 33.9706 27.4219 34.5312 27.4219Z" fill="white"/>
<path d="M7.10938 43.6719H21.3281V45.7031H7.10938V43.6719Z" fill="white"/>
<path d="M27.4219 43.6719H41.6406V45.7031H27.4219V43.6719Z" fill="white"/>
</svg>
