<svg width="65" height="65" viewBox="0 0 65 65" fill="none" xmlns="http://www.w3.org/2000/svg">
<g clip-path="url(#clip0)">
<path d="M61.7505 0H3.25053C2.65258 0 2.16724 0.484199 2.16724 1.08329V5.41658C2.16724 6.01567 2.65258 6.49987 3.25053 6.49987H61.7505C62.3485 6.49987 62.8338 6.01567 62.8338 5.41658V1.08329C62.8338 0.484199 62.3485 0 61.7505 0ZM60.6672 4.33329H4.33382V2.16671H60.6671V4.33329H60.6672Z" fill="white"/>
<path d="M59.5826 4.33344H5.41605C4.81811 4.33344 4.33276 4.81763 4.33276 5.41673V63.9167C4.33276 64.5158 4.81811 65 5.41605 65H59.5828C60.1807 65 60.6661 64.5158 60.6661 63.9167V5.41673C60.6661 4.81776 60.1807 4.33344 59.5826 4.33344ZM58.4993 62.8334H6.49935V6.50014H58.4993V62.8334Z" fill="white"/>
<path d="M21.666 8.66663H10.8326C10.2347 8.66663 9.74933 9.15083 9.74933 9.74992V22.7499C9.74933 23.349 10.2347 23.8332 10.8326 23.8332H21.6659C22.2639 23.8332 22.7492 23.349 22.7492 22.7499V9.74992C22.7493 9.15083 22.264 8.66663 21.666 8.66663ZM20.5826 21.6666H11.916V10.8332H20.5827V21.6666H20.5826Z" fill="white"/>
<path d="M21.666 13.0001H10.8326C10.2347 13.0001 9.74933 13.4843 9.74933 14.0834C9.74933 14.6824 10.2347 15.1666 10.8326 15.1666H21.6659C22.2639 15.1666 22.7492 14.6824 22.7492 14.0834C22.7492 13.4843 22.264 13.0001 21.666 13.0001Z" fill="white"/>
<path d="M16.2502 13.0001C15.6522 13.0001 15.1669 13.4843 15.1669 14.0834V17.3334C15.1669 17.9324 15.6522 18.4166 16.2502 18.4166C16.8481 18.4166 17.3334 17.9324 17.3334 17.3334V14.0834C17.3334 13.4843 16.8481 13.0001 16.2502 13.0001Z" fill="white"/>
<path d="M54.1669 8.66663H43.3336C42.7356 8.66663 42.2503 9.15083 42.2503 9.74992V22.7499C42.2503 23.349 42.7356 23.8332 43.3336 23.8332H54.1669C54.7648 23.8332 55.2502 23.349 55.2502 22.7499V9.74992C55.2502 9.15083 54.7648 8.66663 54.1669 8.66663ZM53.0835 21.6666H44.4168V10.8332H53.0835V21.6666Z" fill="white"/>
<path d="M54.1669 13.0001H43.3336C42.7356 13.0001 42.2503 13.4843 42.2503 14.0834C42.2503 14.6824 42.7356 15.1666 43.3336 15.1666H54.1669C54.7648 15.1666 55.2502 14.6824 55.2502 14.0834C55.2502 13.4843 54.7648 13.0001 54.1669 13.0001Z" fill="white"/>
<path d="M48.7502 13.0001C48.1522 13.0001 47.6669 13.4843 47.6669 14.0834V17.3334C47.6669 17.9324 48.1522 18.4166 48.7502 18.4166C49.3481 18.4166 49.8335 17.9324 49.8335 17.3334V14.0834C49.8335 13.4843 49.3481 13.0001 48.7502 13.0001Z" fill="white"/>
<path d="M37.9169 8.66663H27.0836C26.4856 8.66663 26.0003 9.15083 26.0003 9.74992V22.7499C26.0003 23.349 26.4856 23.8332 27.0836 23.8332H37.9169C38.5148 23.8332 39.0002 23.349 39.0002 22.7499V9.74992C39.0002 9.15083 38.5148 8.66663 37.9169 8.66663ZM36.8335 21.6666H28.1668V10.8332H36.8335V21.6666Z" fill="white"/>
<path d="M37.9169 13.0001H27.0836C26.4856 13.0001 26.0003 13.4843 26.0003 14.0834C26.0003 14.6824 26.4856 15.1666 27.0836 15.1666H37.9169C38.5148 15.1666 39.0002 14.6824 39.0002 14.0834C39.0002 13.4843 38.5148 13.0001 37.9169 13.0001Z" fill="white"/>
<path d="M32.5002 13.0001C31.9022 13.0001 31.4169 13.4843 31.4169 14.0834V17.3334C31.4169 17.9324 31.9022 18.4166 32.5002 18.4166C33.0981 18.4166 33.5835 17.9324 33.5835 17.3334V14.0834C33.5835 13.4843 33.0981 13.0001 32.5002 13.0001Z" fill="white"/>
<path d="M21.666 26.0002H10.8326C10.2347 26.0002 9.74933 26.4844 9.74933 27.0835V40.0835C9.74933 40.6826 10.2347 41.1667 10.8326 41.1667H21.6659C22.2639 41.1667 22.7492 40.6826 22.7492 40.0835V27.0835C22.7493 26.4844 22.264 26.0002 21.666 26.0002ZM20.5826 39.0002H11.916V28.1669H20.5827V39.0002H20.5826Z" fill="white"/>
<path d="M21.666 30.3332H10.8326C10.2347 30.3332 9.74933 30.8174 9.74933 31.4165C9.74933 32.0156 10.2347 32.4999 10.8326 32.4999H21.6659C22.2639 32.4999 22.7492 32.0157 22.7492 31.4166C22.7492 30.8175 22.264 30.3332 21.666 30.3332Z" fill="white"/>
<path d="M16.2502 30.3332C15.6522 30.3332 15.1669 30.8174 15.1669 31.4165V34.6665C15.1669 35.2656 15.6522 35.7498 16.2502 35.7498C16.8481 35.7498 17.3334 35.2656 17.3334 34.6665V31.4165C17.3334 30.8175 16.8481 30.3332 16.2502 30.3332Z" fill="white"/>
<path d="M54.1669 26.0002H43.3336C42.7356 26.0002 42.2503 26.4844 42.2503 27.0835V40.0835C42.2503 40.6826 42.7356 41.1667 43.3336 41.1667H54.1669C54.7648 41.1667 55.2502 40.6826 55.2502 40.0835V27.0835C55.2502 26.4844 54.7648 26.0002 54.1669 26.0002ZM53.0835 39.0002H44.4168V28.1669H53.0835V39.0002Z" fill="white"/>
<path d="M54.1669 30.3332H43.3336C42.7356 30.3332 42.2503 30.8174 42.2503 31.4165C42.2503 32.0156 42.7356 32.4998 43.3336 32.4998H54.1669C54.7648 32.4998 55.2502 32.0156 55.2502 31.4165C55.2502 30.8174 54.7648 30.3332 54.1669 30.3332Z" fill="white"/>
<path d="M48.7502 30.3332C48.1522 30.3332 47.6669 30.8174 47.6669 31.4165V34.6665C47.6669 35.2656 48.1522 35.7498 48.7502 35.7498C49.3481 35.7498 49.8335 35.2656 49.8335 34.6665V31.4165C49.8335 30.8175 49.3481 30.3332 48.7502 30.3332Z" fill="white"/>
<path d="M37.9169 26.0002H27.0836C26.4856 26.0002 26.0003 26.4844 26.0003 27.0835V40.0835C26.0003 40.6826 26.4856 41.1667 27.0836 41.1667H37.9169C38.5148 41.1667 39.0002 40.6826 39.0002 40.0835V27.0835C39.0002 26.4844 38.5148 26.0002 37.9169 26.0002ZM36.8335 39.0002H28.1668V28.1669H36.8335V39.0002Z" fill="white"/>
<path d="M37.9169 30.3332H27.0836C26.4856 30.3332 26.0003 30.8174 26.0003 31.4165C26.0003 32.0156 26.4856 32.4998 27.0836 32.4998H37.9169C38.5148 32.4998 39.0002 32.0156 39.0002 31.4165C39.0002 30.8174 38.5148 30.3332 37.9169 30.3332Z" fill="white"/>
<path d="M32.5002 30.3332C31.9022 30.3332 31.4169 30.8174 31.4169 31.4165V34.6665C31.4169 35.2656 31.9022 35.7498 32.5002 35.7498C33.0981 35.7498 33.5835 35.2656 33.5835 34.6665V31.4165C33.5835 30.8175 33.0981 30.3332 32.5002 30.3332Z" fill="white"/>
<path d="M42.2492 43.3333H22.7492C22.1512 43.3333 21.6659 43.8175 21.6659 44.4166V63.9166C21.6659 64.5157 22.1512 64.9999 22.7492 64.9999H42.2492C42.8471 64.9999 43.3325 64.5157 43.3325 63.9166V44.4166C43.3325 43.8176 42.8471 43.3333 42.2492 43.3333ZM41.1659 62.8333H23.8325V45.5H41.1658V62.8333H41.1659Z" fill="white"/>
<path d="M24.9159 47.6669H22.7492C22.1512 47.6669 21.6659 48.1511 21.6659 48.7502C21.6659 49.3493 22.1512 49.8335 22.7492 49.8335H24.9159C25.5138 49.8335 25.9992 49.3493 25.9992 48.7502C25.9992 48.1511 25.5138 47.6669 24.9159 47.6669Z" fill="white"/>
<path d="M24.9159 58.5002H22.7492C22.1512 58.5002 21.6659 58.9844 21.6659 59.5835C21.6659 60.1826 22.1512 60.6668 22.7492 60.6668H24.9159C25.5138 60.6668 25.9992 60.1826 25.9992 59.5835C25.9992 58.9844 25.5138 58.5002 24.9159 58.5002Z" fill="white"/>
<path d="M42.2507 47.6669H40.084C39.486 47.6669 39.0007 48.1511 39.0007 48.7502C39.0007 49.3493 39.486 49.8335 40.084 49.8335H42.2507C42.8486 49.8335 43.334 49.3493 43.334 48.7502C43.334 48.1511 42.8486 47.6669 42.2507 47.6669Z" fill="white"/>
<path d="M42.2507 58.5002H40.084C39.486 58.5002 39.0007 58.9844 39.0007 59.5835C39.0007 60.1826 39.486 60.6668 40.084 60.6668H42.2507C42.8486 60.6668 43.334 60.1826 43.334 59.5835C43.334 58.9844 42.8486 58.5002 42.2507 58.5002Z" fill="white"/>
<path d="M32.5002 43.3333C31.9022 43.3333 31.4169 43.8175 31.4169 44.4166V63.9166C31.4169 64.5157 31.9022 64.9999 32.5002 64.9999C33.0981 64.9999 33.5835 64.5157 33.5835 63.9166V44.4166C33.5835 43.8176 33.0981 43.3333 32.5002 43.3333Z" fill="white"/>
<path d="M28.1667 51.9999C27.5688 51.9999 27.0834 52.4841 27.0834 53.0832V55.2499C27.0834 55.849 27.5688 56.3332 28.1667 56.3332C28.7647 56.3332 29.25 55.849 29.25 55.2499V53.0832C29.25 52.4841 28.7647 51.9999 28.1667 51.9999Z" fill="white"/>
<path d="M36.8337 51.9999C36.2357 51.9999 35.7504 52.4841 35.7504 53.0832V55.2499C35.7504 55.849 36.2357 56.3332 36.8337 56.3332C37.4316 56.3332 37.9169 55.849 37.9169 55.2499V53.0832C37.9171 52.4841 37.4317 51.9999 36.8337 51.9999Z" fill="white"/>
<path d="M18.8796 51.9965L15.0338 44.9798C14.6535 44.2854 13.5139 44.2854 13.1337 44.9798L9.28787 51.9965C8.47752 53.4753 8.46343 55.2563 9.24991 56.7599C10.0636 58.3156 11.6213 59.3578 13.4109 59.5473C13.6319 59.5712 13.8561 59.5831 14.0836 59.5831C14.3111 59.5831 14.5353 59.5712 14.7521 59.5473C16.546 59.3578 18.1039 58.3166 18.9175 56.7599C19.704 55.2574 19.6899 53.4753 18.8796 51.9965ZM16.9967 55.7557C16.5135 56.682 15.6111 57.2789 14.5181 57.3937C14.2332 57.425 13.9396 57.425 13.6439 57.3937C12.5551 57.2778 11.6538 56.6808 11.1696 55.7557C10.7124 54.8825 10.72 53.8913 11.188 53.0365L14.0838 47.7531L16.9784 53.0365C17.4474 53.8913 17.454 54.8825 16.9967 55.7557Z" fill="white"/>
<path d="M14.0829 54.1667C13.485 54.1667 12.9996 54.6509 12.9996 55.25V63.9167C12.9996 64.5158 13.485 65 14.0829 65C14.6809 65 15.1662 64.5158 15.1662 63.9167V55.25C15.1663 54.6509 14.681 54.1667 14.0829 54.1667Z" fill="white"/>
<path d="M55.7123 51.9965L51.8665 44.9798C51.4863 44.2854 50.3466 44.2854 49.9664 44.9798L46.1206 51.9965C45.3103 53.4753 45.2962 55.2563 46.0827 56.7599C46.8963 58.3156 48.454 59.3578 50.2437 59.5473C50.4647 59.5712 50.6889 59.5831 50.9164 59.5831C51.1439 59.5831 51.3681 59.5712 51.5848 59.5473C53.3788 59.3578 54.9366 58.3166 55.7503 56.7599C56.5367 55.2574 56.5226 53.4753 55.7123 51.9965ZM53.8295 55.7557C53.3463 56.682 52.4439 57.2789 51.3508 57.3937C51.066 57.425 50.7723 57.425 50.4766 57.3937C49.3879 57.2778 48.4865 56.6808 48.0023 55.7557C47.5452 54.8825 47.5528 53.8913 48.0207 53.0365L50.9165 47.7531L53.8112 53.0365C54.2801 53.8913 54.2866 54.8825 53.8295 55.7557Z" fill="white"/>
<path d="M50.9174 54.1667C50.3194 54.1667 49.8341 54.6509 49.8341 55.25V63.9167C49.8341 64.5158 50.3194 65 50.9174 65C51.5153 65 52.0007 64.5158 52.0007 63.9167V55.25C52.0007 54.6509 51.5153 54.1667 50.9174 54.1667Z" fill="white"/>
</g>
<defs>
<clipPath id="clip0">
<rect width="65" height="65" fill="white"/>
</clipPath>
</defs>
</svg>
