<svg width="65" height="65" viewBox="0 0 65 65" fill="none" xmlns="http://www.w3.org/2000/svg">
<path d="M61.75 19.5C63.545 19.5 65 18.0449 65 16.25V3.25C65 1.45505 63.545 0 61.75 0H3.25C1.45505 0 0 1.45505 0 3.25V16.25C0 18.0449 1.45505 19.5 3.25 19.5H6.5V22.75H3.25C1.45505 22.75 0 24.2051 0 26V39C0 40.7949 1.45505 42.25 3.25 42.25H6.5V45.5H3.25C1.45505 45.5 0 46.9551 0 48.75V61.75C0 63.545 1.45505 65 3.25 65H61.75C63.545 65 65 63.545 65 61.75V48.75C65 46.9551 63.545 45.5 61.75 45.5H58.5V42.25H61.75C63.545 42.25 65 40.7949 65 39V26C65 24.2051 63.545 22.75 61.75 22.75H58.5V19.5H61.75ZM61.75 47.6667C62.3483 47.6667 62.8333 48.1517 62.8333 48.75V61.75C62.8333 62.3483 62.3483 62.8333 61.75 62.8333H3.25C2.65173 62.8333 2.16667 62.3483 2.16667 61.75V48.75C2.16667 48.1517 2.65173 47.6667 3.25 47.6667H61.75ZM8.66667 45.5V42.25H10.8333V45.5H8.66667ZM13 45.5V42.25H52V45.5H13ZM54.1667 45.5V42.25H56.3333V45.5H54.1667ZM61.75 24.9167C62.3483 24.9167 62.8333 25.4017 62.8333 26V39C62.8333 39.5983 62.3483 40.0833 61.75 40.0833H3.25C2.65173 40.0833 2.16667 39.5983 2.16667 39V26C2.16667 25.4017 2.65173 24.9167 3.25 24.9167H61.75ZM8.66667 22.75V19.5H10.8333V22.75H8.66667ZM13 22.75V19.5H52V22.75H13ZM54.1667 22.75V19.5H56.3333V22.75H54.1667ZM3.25 17.3333C2.65173 17.3333 2.16667 16.8483 2.16667 16.25V3.25C2.16667 2.65173 2.65173 2.16667 3.25 2.16667H61.75C62.3483 2.16667 62.8333 2.65173 62.8333 3.25V16.25C62.8333 16.8483 62.3483 17.3333 61.75 17.3333H3.25Z" fill="white"/>
<path d="M34.6664 8.66657H12.8004C12.2021 6.97427 10.3451 6.08742 8.65295 6.68583C6.96078 7.28423 6.0738 9.14093 6.67207 10.8332C7.27034 12.5255 9.12731 13.4124 10.8195 12.814C11.7451 12.4868 12.4732 11.7588 12.8004 10.8332H34.6664C35.2646 10.8332 35.7497 10.3482 35.7497 9.7499C35.7497 9.15163 35.2646 8.66657 34.6664 8.66657ZM9.74969 10.8332C9.15142 10.8332 8.66635 10.3482 8.66635 9.7499C8.66635 9.15163 9.15142 8.66657 9.74969 8.66657C10.348 8.66657 10.833 9.15163 10.833 9.7499C10.833 10.3482 10.348 10.8332 9.74969 10.8332Z" fill="white"/>
<path d="M49.8333 4.33331H47.6666V6.49998H49.8333V4.33331Z" fill="white"/>
<path d="M54.1667 4.33331H52V6.49998H54.1667V4.33331Z" fill="white"/>
<path d="M58.5 4.33331H56.3334V6.49998H58.5V4.33331Z" fill="white"/>
<path d="M45.5 4.33331H43.3334V6.49998H45.5V4.33331Z" fill="white"/>
<path d="M41.1667 4.33331H39V6.49998H41.1667V4.33331Z" fill="white"/>
<path d="M49.8333 8.66669H47.6666V10.8334H49.8333V8.66669Z" fill="white"/>
<path d="M54.1667 8.66669H52V10.8334H54.1667V8.66669Z" fill="white"/>
<path d="M58.5 8.66669H56.3334V10.8334H58.5V8.66669Z" fill="white"/>
<path d="M45.5 8.66669H43.3334V10.8334H45.5V8.66669Z" fill="white"/>
<path d="M41.1667 8.66669H39V10.8334H41.1667V8.66669Z" fill="white"/>
<path d="M49.8333 13H47.6666V15.1667H49.8333V13Z" fill="white"/>
<path d="M54.1667 13H52V15.1667H54.1667V13Z" fill="white"/>
<path d="M58.5 13H56.3334V15.1667H58.5V13Z" fill="white"/>
<path d="M45.5 13H43.3334V15.1667H45.5V13Z" fill="white"/>
<path d="M41.1667 13H39V15.1667H41.1667V13Z" fill="white"/>
<path d="M34.6664 31.4166H12.8004C12.2021 29.7243 10.3451 28.8374 8.65295 29.4358C6.96078 30.0342 6.0738 31.8909 6.67207 33.5832C7.27034 35.2755 9.12731 36.1624 10.8195 35.564C11.7451 35.2368 12.4731 34.5087 12.8002 33.5832H34.6664C35.2646 33.5832 35.7497 33.0982 35.7497 32.4999C35.7497 31.9016 35.2646 31.4166 34.6664 31.4166ZM9.74969 33.5832C9.15142 33.5832 8.66635 33.0982 8.66635 32.4999C8.66635 31.9016 9.15142 31.4166 9.74969 31.4166C10.348 31.4166 10.833 31.9016 10.833 32.4999C10.833 33.0982 10.348 33.5832 9.74969 33.5832Z" fill="white"/>
<path d="M49.8333 27.0833H47.6666V29.25H49.8333V27.0833Z" fill="white"/>
<path d="M54.1667 27.0833H52V29.25H54.1667V27.0833Z" fill="white"/>
<path d="M58.5 27.0833H56.3334V29.25H58.5V27.0833Z" fill="white"/>
<path d="M45.5 27.0833H43.3334V29.25H45.5V27.0833Z" fill="white"/>
<path d="M41.1667 27.0833H39V29.25H41.1667V27.0833Z" fill="white"/>
<path d="M49.8333 31.4167H47.6666V33.5834H49.8333V31.4167Z" fill="white"/>
<path d="M54.1667 31.4167H52V33.5834H54.1667V31.4167Z" fill="white"/>
<path d="M58.5 31.4167H56.3334V33.5834H58.5V31.4167Z" fill="white"/>
<path d="M45.5 31.4167H43.3334V33.5834H45.5V31.4167Z" fill="white"/>
<path d="M41.1667 31.4167H39V33.5834H41.1667V31.4167Z" fill="white"/>
<path d="M49.8333 35.75H47.6666V37.9167H49.8333V35.75Z" fill="white"/>
<path d="M54.1667 35.75H52V37.9167H54.1667V35.75Z" fill="white"/>
<path d="M58.5 35.75H56.3334V37.9167H58.5V35.75Z" fill="white"/>
<path d="M45.5 35.75H43.3334V37.9167H45.5V35.75Z" fill="white"/>
<path d="M41.1667 35.75H39V37.9167H41.1667V35.75Z" fill="white"/>
<path d="M34.6664 54.1665H12.8004C12.2021 52.4742 10.3451 51.5874 8.65295 52.1858C6.96078 52.7842 6.0738 54.6409 6.67207 56.3332C7.27034 58.0255 9.12731 58.9123 10.8195 58.3139C11.7451 57.9868 12.4731 57.2586 12.8002 56.3332H34.6664C35.2646 56.3332 35.7497 55.8481 35.7497 55.2498C35.7497 54.6516 35.2646 54.1665 34.6664 54.1665ZM9.74969 56.3332C9.15142 56.3332 8.66635 55.8481 8.66635 55.2498C8.66635 54.6516 9.15142 54.1665 9.74969 54.1665C10.348 54.1665 10.833 54.6516 10.833 55.2498C10.833 55.8481 10.348 56.3332 9.74969 56.3332Z" fill="white"/>
<path d="M49.8333 49.8333H47.6666V52H49.8333V49.8333Z" fill="white"/>
<path d="M54.1667 49.8333H52V52H54.1667V49.8333Z" fill="white"/>
<path d="M58.5 49.8333H56.3334V52H58.5V49.8333Z" fill="white"/>
<path d="M45.5 49.8333H43.3334V52H45.5V49.8333Z" fill="white"/>
<path d="M41.1667 49.8333H39V52H41.1667V49.8333Z" fill="white"/>
<path d="M49.8333 54.1667H47.6666V56.3334H49.8333V54.1667Z" fill="white"/>
<path d="M54.1667 54.1667H52V56.3334H54.1667V54.1667Z" fill="white"/>
<path d="M58.5 54.1667H56.3334V56.3334H58.5V54.1667Z" fill="white"/>
<path d="M45.5 54.1667H43.3334V56.3334H45.5V54.1667Z" fill="white"/>
<path d="M41.1667 54.1667H39V56.3334H41.1667V54.1667Z" fill="white"/>
<path d="M49.8333 58.5H47.6666V60.6667H49.8333V58.5Z" fill="white"/>
<path d="M54.1667 58.5H52V60.6667H54.1667V58.5Z" fill="white"/>
<path d="M58.5 58.5H56.3334V60.6667H58.5V58.5Z" fill="white"/>
<path d="M45.5 58.5H43.3334V60.6667H45.5V58.5Z" fill="white"/>
<path d="M41.1667 58.5H39V60.6667H41.1667V58.5Z" fill="white"/>
</svg>
