<svg width="65" height="65" viewBox="0 0 65 65" fill="none" xmlns="http://www.w3.org/2000/svg">
<g clip-path="url(#clip0)">
<path d="M62.3561 58.4215H60.6616V54.7427C60.6616 53.8779 60.1606 53.1298 59.4346 52.7678L57.8855 50.9629V30.2572L59.4346 28.4523C60.1606 28.0904 60.6617 27.3422 60.6617 26.4773V22.7986H61.1549C62.2311 22.7986 63.1066 21.923 63.1066 20.8468V18.058C63.1066 17.0836 62.3881 16.2761 61.4537 16.1317L34.2172 0.464151C33.1405 -0.155271 31.803 -0.154508 30.727 0.465677L3.54687 16.1318C2.61259 16.2765 1.89449 17.0839 1.89449 18.0581V20.847C1.89449 21.9232 2.77002 22.7987 3.84622 22.7987H4.46653V26.4775C4.46653 27.3423 4.96769 28.0905 5.69368 28.4525L7.2428 30.2573V50.9631L5.69368 52.7681C4.96769 53.13 4.46666 53.8781 4.46666 54.743V58.4217H2.64489C1.18834 58.4217 0.00354004 59.6067 0.00354004 61.0631V63.5198C0.00354004 64.3361 0.667597 65.0001 1.48374 65.0001H63.5172C64.3334 65.0001 64.9974 64.3361 64.9974 63.5198V61.0631C64.9974 59.6065 63.8125 58.4215 62.3561 58.4215V58.4215ZM40.1246 58.4215V54.7427C40.1246 53.8779 39.6235 53.1298 38.8975 52.7678L37.3484 50.9629V37.304C37.3484 36.7772 36.9214 36.3503 36.3947 36.3503C35.868 36.3503 35.4409 36.7772 35.4409 37.304V51.3161C35.4409 51.544 35.5226 51.7644 35.671 51.9373L36.1842 52.5353H33.4485V28.685H36.1841L35.671 29.2828C35.5226 29.4557 35.4409 29.6762 35.4409 29.904V33.2395C35.4409 33.7663 35.868 34.1932 36.3947 34.1932C36.9214 34.1932 37.3484 33.7663 37.3484 33.2395V30.2572L38.8977 28.4523C39.6236 28.0904 40.1247 27.3422 40.1247 26.4773V22.7986H45.5408V26.4773C45.5408 27.3422 46.0418 28.0903 46.7678 28.4523L48.3169 30.2572V50.963L46.7677 52.768C46.0418 53.1299 45.5408 53.878 45.5408 54.7428V58.4216H40.1246V58.4215ZM19.5875 58.4215V54.7427C19.5875 53.878 19.0865 53.1299 18.3606 52.7678L16.8114 50.9629V47.0928C16.8114 46.566 16.3843 46.1391 15.8576 46.1391C15.3309 46.1391 14.9039 46.566 14.9039 47.0928V51.316C14.9039 51.5439 14.9855 51.7641 15.1339 51.9372L15.6472 52.5351H12.9116V28.685H15.6472L15.134 29.2828C14.9856 29.4557 14.904 29.6762 14.904 29.904V43.0285C14.904 43.5554 15.331 43.9823 15.8577 43.9823C16.3845 43.9823 16.8115 43.5554 16.8115 43.0285V30.2572L18.3606 28.4523C19.0866 28.0904 19.5876 27.3422 19.5876 26.4773V22.7986H25.0037V26.4773C25.0037 27.3422 25.5047 28.0903 26.2307 28.4523L27.78 30.2572V50.963L26.2309 52.768C25.5049 53.1299 25.0038 53.878 25.0038 54.7428V58.4216H19.5875V58.4215ZM8.407 52.5353L8.92024 51.9373C9.06864 51.7644 9.15028 51.544 9.15028 51.3161V29.9039C9.15028 29.676 9.06864 29.4557 8.92024 29.2827L8.40713 28.6849H11.0041V52.5353H8.407ZM38.2171 26.4773C38.2171 26.6429 38.0824 26.7774 37.917 26.7774H27.2112C27.0457 26.7774 26.9111 26.6428 26.9111 26.4773V22.7986H38.2171V26.4773ZM28.9439 52.5353L29.4572 51.9373C29.6056 51.7645 29.6872 51.544 29.6872 51.3161V29.9039C29.6872 29.676 29.6056 29.4557 29.4572 29.2827L28.9441 28.6849H31.541V52.5353H28.9439ZM26.9111 54.7428C26.9111 54.5774 27.0457 54.4429 27.2112 54.4429H37.917C38.0824 54.4429 38.2171 54.5775 38.2171 54.7428V58.4216H26.9111V54.7428ZM56.7211 28.685L56.208 29.2828C56.0596 29.4557 55.978 29.6762 55.978 29.904V51.3163C55.978 51.5441 56.0596 51.7644 56.208 51.9375L56.7213 52.5354H54.1243V28.685H56.7211ZM52.2167 52.5353H49.4811L49.9944 51.9373C50.1428 51.7644 50.2244 51.544 50.2244 51.3161V29.9039C50.2244 29.676 50.1428 29.4557 49.9944 29.2827L49.4812 28.6849H52.2168V52.5353H52.2167ZM47.4481 54.7428C47.4481 54.5774 47.5828 54.4429 47.7482 54.4429H58.454C58.6195 54.4429 58.7541 54.5775 58.7541 54.7428V58.4216H47.4481V54.7428ZM58.7541 26.4773C58.7541 26.6429 58.6195 26.7774 58.454 26.7774H47.7482C47.5828 26.7774 47.4481 26.6428 47.4481 26.4773V22.7986H58.7541V26.4773ZM31.6795 2.11819C32.1686 1.83601 32.7766 1.83601 33.266 2.11743L57.5841 16.1064H53.7584L49.9866 13.9367C49.5299 13.6742 48.947 13.8313 48.6843 14.2878C48.4217 14.7444 48.5789 15.3275 49.0354 15.5901L49.9331 16.1065H15.0502L20.9816 12.6877H27.4363C27.963 12.6877 28.39 12.2608 28.39 11.7339C28.39 11.2071 27.963 10.7802 27.4363 10.7802H24.291L32.4744 6.06324L40.6742 10.7802H37.6919C37.1652 10.7802 36.7381 11.2071 36.7381 11.7339C36.7381 12.2608 37.1652 12.6877 37.6919 12.6877H43.9803C43.9834 12.6877 43.9863 12.6873 43.9894 12.6871L45.3867 13.491C45.8433 13.7534 46.4264 13.5964 46.689 13.1397C46.9515 12.6832 46.7944 12.1002 46.3378 11.8376L32.9495 4.13605C32.6547 3.96654 32.2921 3.96666 31.9977 4.13643L11.2304 16.1064H7.41066L31.6795 2.11819ZM3.80197 20.847V18.0581C3.80197 18.0338 3.8218 18.0138 3.84622 18.0138H61.1521C61.1527 18.0138 61.1534 18.014 61.154 18.014H61.1551C61.1794 18.0141 61.1991 18.0338 61.1991 18.0581V20.847C61.1991 20.8712 61.1793 20.8912 61.1549 20.8912H3.84609C3.82168 20.8911 3.80197 20.8712 3.80197 20.847V20.847ZM17.68 22.7986V26.4773C17.68 26.6429 17.5453 26.7774 17.3799 26.7774H6.67412C6.50868 26.7774 6.37401 26.6428 6.37401 26.4773V22.7986H17.68ZM6.37401 54.7428C6.37401 54.5774 6.50868 54.4429 6.67412 54.4429H17.3799C17.5453 54.4429 17.68 54.5775 17.68 54.7428V58.4216H6.37401V54.7428ZM63.09 63.0925H1.91102V61.063C1.91102 60.6582 2.24025 60.3291 2.64489 60.3291H62.3561C62.7609 60.3291 63.09 60.6583 63.09 61.063V63.0925Z" fill="white"/>
<path d="M32.5644 8.78601C30.939 8.78601 29.6167 10.1083 29.6167 11.7338C29.6167 13.3594 30.939 14.6816 32.5644 14.6816C34.1898 14.6816 35.5121 13.3594 35.5121 11.7338C35.5121 10.1083 34.1898 8.78601 32.5644 8.78601ZM32.5644 12.774C31.9907 12.774 31.5242 12.3073 31.5242 11.7337C31.5242 11.1601 31.9907 10.6934 32.5644 10.6934C33.138 10.6934 33.6046 11.1601 33.6046 11.7337C33.6046 12.3073 33.138 12.774 32.5644 12.774Z" fill="white"/>
</g>
<defs>
<clipPath id="clip0">
<rect width="65" height="65" fill="white"/>
</clipPath>
</defs>
</svg>
