<svg width="50" height="50" viewBox="0 0 50 50" fill="none" xmlns="http://www.w3.org/2000/svg">
<path d="M21.1579 49.5084L21.6491 48.2453C20.8772 47.9646 20.1755 47.4733 19.5439 46.8418C17.1579 44.4558 17.1579 40.4558 19.5439 38.0698C21.4386 36.1751 24.3158 35.754 26.6316 36.8769C25.7193 37.8593 25.2281 39.1225 25.2281 40.526C25.2281 41.9997 25.7895 43.4032 26.8421 44.3856L27.8246 43.4032C27.0527 42.6312 26.6316 41.5786 26.6316 40.526C26.6316 39.4032 27.0527 38.4207 27.8246 37.6488L28.1755 37.2979C29.2281 36.4558 30.6316 36.1751 31.9649 36.5962C32.1755 36.6663 32.386 36.5962 32.5965 36.4558C32.807 36.3155 32.8772 36.1049 32.8772 35.8944C32.807 35.1225 33.0877 34.2804 33.6491 33.719C34.2106 33.1576 34.9825 32.8769 35.8246 32.947C36.0351 32.947 36.2456 32.8769 36.386 32.6663C36.5263 32.4558 36.5965 32.2453 36.5263 32.0347C36.1053 30.7014 36.386 29.2979 37.2281 28.2453L37.579 27.8944C38.3509 27.1225 39.4035 26.7014 40.4562 26.7014C41.579 26.7014 42.5614 27.1225 43.3334 27.8944L44.3158 26.9119C43.2632 25.8593 41.9298 25.2979 40.4562 25.2979C39.1228 25.2979 37.7895 25.7891 36.807 26.7014C35.6842 24.3856 36.1053 21.5084 38 19.6137C40.386 17.2277 44.386 17.2277 46.772 19.6137C47.4035 20.2453 47.8246 20.947 48.1755 21.719L49.4386 21.2277C49.0877 20.2453 48.4562 19.4032 47.7544 18.6312C44.807 15.6839 40.0351 15.6839 37.0176 18.6312C34.5614 21.0874 34.1404 24.8769 35.8246 27.754C35.6141 28.1049 35.4035 28.4558 35.2632 28.8067L31.2632 26.2804C31.6842 25.719 31.6842 24.947 31.1228 24.4558L29.2983 22.4909L30.2807 21.5084C31.3334 20.4558 31.3334 18.7014 30.2807 17.5786L13.2281 0.596146C12.9474 0.315445 12.5263 0.315445 12.2456 0.596146L0.596513 12.2453C0.315811 12.526 0.315811 12.947 0.596513 13.2277L17.6491 30.2804C18.7018 31.333 20.4562 31.333 21.579 30.2804L22.5614 29.2979L24.5263 31.2628C25.0176 31.754 25.7895 31.8242 26.3509 31.4032L28.8772 35.4032C28.5263 35.5435 28.1755 35.754 27.8246 35.9646C24.8772 34.2804 21.0877 34.7014 18.7018 37.1576C15.7544 40.1049 15.7544 44.8769 18.7018 47.8944C19.3334 48.526 20.2456 49.1576 21.1579 49.5084ZM18.6316 29.2979L2.0702 12.7365L12.7369 2.06983L29.2983 18.6312C29.8597 19.1926 29.8597 20.0347 29.2983 20.5961L27.8246 22.0698L22 27.8944L20.5263 29.3681C20.0351 29.8593 19.1228 29.8593 18.6316 29.2979ZM24.4562 27.4032L25.4386 28.3856L26.4211 27.4032L25.4386 26.4207L26.4211 25.4383L27.4035 26.4207L28.386 25.4383L27.4035 24.4558L28.386 23.4733L30.3509 25.4383L25.5088 30.2804L23.5439 28.3154L24.4562 27.4032ZM27.2632 30.3505L28.3158 29.2979L30.2807 31.2628L31.2632 30.2804L29.2983 28.3154L30.3509 27.2628L34.9825 30.2102C34.9123 30.6312 34.9825 31.1225 34.9825 31.5435C34.3509 31.6137 33.7193 31.8944 33.1579 32.2453L32.1755 31.1926L31.193 32.1751L32.1755 33.1576C31.8246 33.719 31.5439 34.2804 31.4737 34.9821C31.0527 34.9119 30.5614 34.9119 30.1404 34.9821L27.2632 30.3505Z" fill="#C63E34"/>
<path d="M21.3684 50L21.0877 49.8597C20.0351 49.4386 19.1228 48.8772 18.4211 48.1053C15.3333 45.0175 15.3333 39.9649 18.4211 36.8772C20.8772 34.4211 24.7368 33.8596 27.8246 35.5439C27.9649 35.4035 28.1754 35.3333 28.386 35.2632L26.2807 31.8947C25.6491 32.1754 24.8772 32.1053 24.3158 31.5439L22.4912 29.7895L21.7895 30.4912C21.2281 31.0526 20.4561 31.4035 19.614 31.4035C18.7719 31.4035 18 31.0526 17.4386 30.4912L0.315789 13.5088C-0.105263 13.0877 -0.105263 12.4561 0.315789 12.0351L12.0351 0.315789C12.4561 -0.105263 13.0877 -0.105263 13.5088 0.315789L30.5614 17.3684C31.1228 17.9298 31.4737 18.7018 31.4737 19.5439C31.4737 20.386 31.1228 21.1579 30.5614 21.7193L29.8596 22.4211L31.5439 24.1053C32.0351 24.5965 32.1754 25.4386 31.8947 26.0702L35.2632 28.1754C35.3333 27.9649 35.4737 27.8246 35.5439 27.614C33.8596 24.5263 34.4211 20.7368 36.8772 18.2105C39.9649 15.1228 45.0175 15.1228 48.1053 18.2105C48.8772 18.9825 49.5088 19.8947 49.8597 20.9474L50 21.2982L48.0351 22.0702L47.8947 21.7193C47.614 20.9474 47.193 20.3158 46.5614 19.7544C45.4386 18.6316 43.9649 18.0702 42.4211 18.0702C40.8772 18.0702 39.4035 18.7018 38.2807 19.7544C36.5965 21.4386 36.1053 23.8947 36.9474 26C37.9298 25.2281 39.193 24.807 40.4561 24.807C42 24.807 43.4737 25.4386 44.5263 26.4912L44.807 26.7719L43.3333 28.2456L43.193 28.1053C42.4912 27.4035 41.5789 26.9825 40.5263 26.9825C39.5439 26.9825 38.5614 27.4035 37.8596 28.1053L37.5088 28.4561C36.807 29.3684 36.5263 30.7018 36.8772 31.8947C36.9474 32.2456 36.9474 32.5965 36.6667 32.8772C36.4561 33.1579 36.1053 33.2982 35.7544 33.2982C35.0526 33.2281 34.3509 33.5088 33.8596 34C33.3684 34.4912 33.0877 35.193 33.1579 35.8947C33.1579 36.2456 33.0175 36.5965 32.7368 36.807C32.4561 37.0175 32.1053 37.0877 31.7544 37.0175C30.5614 36.6667 29.2982 36.8772 28.3158 37.6491L28.1053 37.8596C27.4035 38.5614 26.9825 39.5439 26.9825 40.5263C26.9825 41.5088 27.4035 42.4912 28.1053 43.193L28.386 43.4737L26.9123 44.9474L26.6316 44.6667C25.5088 43.5439 24.9474 42.0702 24.9474 40.5263C24.9474 39.2632 25.3684 38 26.1404 37.0175C23.9649 36.1754 21.5088 36.6667 19.8947 38.3509C18.7719 39.4737 18.2105 40.9474 18.2105 42.4912C18.2105 44.0351 18.8421 45.5088 19.8947 46.6316C20.4561 47.193 21.1579 47.614 21.8596 47.9649L22.2105 48.1053L21.3684 50ZM23.9649 35.2632C22.0702 35.2632 20.2456 35.9649 18.8421 37.3684C16.0351 40.1754 16.0351 44.7368 18.8421 47.614C19.4737 48.2456 20.1754 48.7368 20.9474 49.0877L21.1579 48.4561C20.4561 48.1053 19.8246 47.6842 19.2632 47.1228C18 45.8596 17.3684 44.2456 17.3684 42.4912C17.3684 40.7368 18.0702 39.1228 19.2632 37.8596C21.2281 35.8947 24.2456 35.4035 26.7719 36.5965L27.193 36.807L26.9123 37.1579C26.0702 38.0702 25.6491 39.2632 25.5789 40.5263C25.5789 41.7895 26 42.9825 26.8421 43.8947L27.3333 43.4035C26.6316 42.5614 26.2807 41.5789 26.2807 40.5263C26.2807 39.3333 26.7719 38.2105 27.614 37.3684L27.9649 37.0175C29.1579 36.1053 30.7018 35.8246 32.1053 36.2456C32.2456 36.2456 32.3158 36.2456 32.386 36.1754C32.4561 36.1053 32.5263 35.9649 32.5263 35.8947C32.4561 34.9825 32.807 34.0702 33.4386 33.4386C34.0702 32.807 34.9825 32.4561 35.8947 32.5263C36.0351 32.5263 36.1053 32.4561 36.1754 32.386C36.2456 32.3158 36.2456 32.1754 36.2456 32.1053C35.8246 30.7018 36.1053 29.1579 37.0175 28.0351L37.4386 27.614C38.2807 26.7719 39.4035 26.2807 40.5965 26.2807C41.6491 26.2807 42.7018 26.6316 43.4737 27.3333L43.9649 26.8421C43.0526 26 41.8596 25.5789 40.5965 25.5789C39.3333 25.5789 38.1404 26.0702 37.2281 26.9123L36.8772 27.193L36.6667 26.7719C35.4737 24.2456 35.9649 21.2281 37.9298 19.2632C39.193 18 40.807 17.3684 42.5614 17.3684C44.3158 17.3684 45.9298 18.0702 47.193 19.2632C47.7544 19.8246 48.1754 20.4561 48.5263 21.1579L49.1579 20.9474C48.807 20.1754 48.3158 19.4737 47.6842 18.7719C44.8772 15.9649 40.3158 15.9649 37.4386 18.7719C35.1228 21.0877 34.6316 24.6667 36.3158 27.4737L36.4561 27.6842L36.3158 27.8947C36.1053 28.1754 35.9649 28.5263 35.8246 28.8772L35.6842 29.2982L31.0526 26.3509L31.2632 26.0702C31.614 25.6491 31.5439 25.0877 31.193 24.7368L28.807 22.4912L30 21.2982C30.4211 20.8772 30.7018 20.2456 30.7018 19.614C30.7018 18.9825 30.4211 18.3509 30 17.9298L13.0175 0.807018C12.8772 0.736842 12.6667 0.736842 12.5263 0.807018L0.807018 12.5263C0.736842 12.6667 0.736842 12.8772 0.807018 13.0175L17.8596 30.0702C18.7719 30.9825 20.386 30.9825 21.2281 30.0702L22.4912 28.807L24.6667 30.9825C25.0175 31.3333 25.6491 31.4035 26 31.0526L26.2807 30.8421L29.2281 35.5439L28.807 35.6842C28.4561 35.8246 28.1053 35.9649 27.8246 36.1754L27.614 36.3158L27.4035 36.1754C26.4211 35.5439 25.2281 35.2632 23.9649 35.2632ZM31.8246 35.4737L31.4737 35.4035C31.0526 35.3333 30.6316 35.3333 30.2105 35.4035H30L26.7719 30.3509L28.3158 28.807L30.2807 30.7719L30.7719 30.2807L28.807 28.3158L30.3509 26.7719L35.4035 30V30.2105C35.3333 30.6316 35.4035 31.0526 35.4035 31.4737L35.4737 31.8246L35.1228 31.8947C34.4912 31.9649 33.9298 32.2456 33.4386 32.5263L33.2281 32.7368L32.2456 31.7544L31.7544 32.2456L32.7368 33.2281L32.5965 33.4386C32.2456 33.9298 32.0351 34.4912 31.9649 35.1228L31.8246 35.4737ZM30.7719 34.6316C30.9123 34.6316 31.1228 34.6316 31.2632 34.6316C31.4035 34.1404 31.5439 33.6491 31.8246 33.2281L30.7719 32.1754L32.2456 30.7018L33.2982 31.7544C33.7193 31.4737 34.2105 31.3333 34.7018 31.193C34.7018 30.9123 34.7018 30.6316 34.7018 30.3509L30.4912 27.6842L29.8596 28.3158L31.8246 30.2807L30.3509 31.7544L28.386 29.7895L27.7544 30.4211L30.4211 34.6316C30.5614 34.6316 30.6316 34.6316 30.7719 34.6316ZM25.4386 30.7719L22.9825 28.3158L24.4561 26.8421L25.4386 27.8246L25.9298 27.3333L24.9474 26.3509L26.4211 24.8772L27.4035 25.8596L27.8947 25.3684L26.9123 24.386L28.386 22.9123L30.8421 25.3684L25.4386 30.7719ZM23.9649 28.3158L25.4386 29.7895L29.7895 25.4386L28.3158 23.9649L27.8246 24.4561L28.807 25.4386L27.3333 26.9123L26.3509 25.9298L25.8596 26.4211L26.8421 27.4035L25.4386 28.807L24.4561 27.8246L23.9649 28.3158ZM19.5439 30.0702C19.1228 30.0702 18.6316 29.9298 18.3509 29.5789L1.57895 12.7368L12.807 1.50877L29.5789 18.2807C29.9298 18.6316 30.0702 19.0526 30.0702 19.4737C30.0702 19.8947 29.8596 20.386 29.5789 20.6667L20.807 29.5789C20.4561 29.9298 20.0351 30.0702 19.5439 30.0702ZM18.8421 29.0877C19.2632 29.5088 19.8947 29.5088 20.3158 29.0877L29.0877 20.3158C29.2982 20.1053 29.3684 19.8947 29.3684 19.614C29.3684 19.3333 29.2281 19.0526 29.0877 18.9123L12.7368 2.5614L2.5614 12.7368L18.8421 29.0877Z" fill="#C63E34"/>
</svg>
