<svg width="50" height="50" viewBox="0 0 50 50" fill="none" xmlns="http://www.w3.org/2000/svg">
<path d="M38.2096 26.9325C38.2096 27.3369 38.5373 27.6649 38.942 27.6649C39.3464 27.6649 39.6744 27.3369 39.6744 26.9325C39.6744 25.4516 38.4698 24.2469 36.9889 24.2469H25.7321V22.9286C25.7321 22.5242 25.4044 22.1962 24.9997 22.1962C24.5953 22.1962 24.2673 22.5242 24.2673 22.9286V24.2469H13.0112C11.5304 24.2469 10.3257 25.4516 10.3257 26.9325C10.3257 27.3369 10.6534 27.6649 11.0581 27.6649C11.4625 27.6649 11.7905 27.3369 11.7905 26.9325C11.7905 26.2592 12.3379 25.7118 13.0112 25.7118H36.9889C37.6618 25.7118 38.2096 26.2596 38.2096 26.9325Z" fill="#C63E34"/>
<path d="M47.7886 29.5735H29.8034C28.5842 29.5735 27.592 30.5657 27.592 31.7849V44.1548C27.592 45.3743 28.5842 46.3662 29.8034 46.3662H34.6744L34.3067 48.5352H34.1339C33.7295 48.5352 33.4014 48.8633 33.4014 49.2676C33.4014 49.672 33.7295 50 34.1339 50H43.4585C43.8629 50 44.1909 49.672 44.1909 49.2676C44.1909 48.8633 43.8629 48.5352 43.4585 48.5352H43.2853L42.918 46.3665H47.7886C49.0081 46.3665 50 45.3743 50 44.1552V31.7849C50 30.5657 49.0081 29.5735 47.7886 29.5735ZM29.8034 31.0383H47.7886C48.2002 31.0383 48.5351 31.3733 48.5351 31.7849V41.335H44.5953V41.2362C44.5953 41.1793 44.5888 41.1225 44.5755 41.0668C44.4465 40.5255 44.1444 40.0238 43.7007 39.6157C43.106 39.0702 42.3111 38.7696 41.4615 38.7696H36.1335C35.2836 38.7696 34.4883 39.0702 33.8958 39.6153C33.4468 40.0261 33.1424 40.5346 33.0154 41.0866C33.0028 41.1404 32.9967 41.1957 32.9967 41.251V41.3353H29.0569V31.7849C29.0569 31.3733 29.3918 31.0383 29.8034 31.0383ZM34.4646 41.3353C34.5356 41.1034 34.6797 40.8837 34.8857 40.6945C35.2085 40.3977 35.6517 40.2344 36.1335 40.2344H41.4615C41.9429 40.2344 42.3866 40.3981 42.7097 40.6945C42.9153 40.8837 43.0595 41.103 43.1304 41.3331V41.3353H34.4646ZM41.7995 48.5352H35.7925L36.1599 46.3665H41.4321L41.7995 48.5352ZM48.5351 44.1552C48.5351 44.5668 48.2002 44.9013 47.7886 44.9013H29.8034C29.3918 44.9013 29.0569 44.5668 29.0569 44.1552V42.8002H48.5351V44.1552Z" fill="#C63E34"/>
<path d="M37.116 37.4825L37.9285 37.9776C38.1967 38.1413 38.4973 38.2229 38.7979 38.2229C39.0984 38.2229 39.399 38.1413 39.6672 37.9776L40.4798 37.4825C40.9745 37.1808 41.2816 36.6333 41.2816 36.0539V34.4323C41.2816 33.4309 40.4679 32.6161 39.4673 32.6161H38.128C37.1278 32.6161 36.3137 33.4309 36.3137 34.4323V36.0539C36.3141 36.6333 36.6212 37.1808 37.116 37.4825ZM37.7789 34.4319C37.7789 34.2385 37.9357 34.0809 38.1284 34.0809H39.4673C39.66 34.0809 39.8171 34.2385 39.8171 34.4319V36.0535C39.8171 36.126 39.779 36.1939 39.7172 36.2317L38.905 36.7268C38.8391 36.7672 38.7567 36.7672 38.691 36.7268L37.8785 36.2317C37.8171 36.1943 37.7789 36.126 37.7789 36.0535V34.4319Z" fill="#C63E34"/>
<path d="M16.0071 16.7927H20.8781L20.5108 18.9617H20.3376C19.9332 18.9617 19.6052 19.2894 19.6052 19.6941C19.6052 20.0985 19.9332 20.4266 20.3376 20.4266H29.6622C30.0666 20.4266 30.3947 20.0985 30.3947 19.6941C30.3947 19.2894 30.0666 18.9617 29.6622 18.9617H29.4894L29.1217 16.7927H33.9927C35.2119 16.7927 36.2041 15.8009 36.2041 14.5813V7.71484C36.2041 7.31049 35.876 6.98242 35.4716 6.98242C35.0669 6.98242 34.7392 7.31049 34.7392 7.71484V11.7615H30.7994V11.6627C30.7994 11.6058 30.7925 11.549 30.7796 11.4933C30.6506 10.952 30.3485 10.4504 29.9048 10.0422C29.3101 9.49669 28.5148 9.19609 27.6656 9.19609H22.3372C21.4873 9.19609 20.6924 9.49669 20.0995 10.0414C19.6509 10.4523 19.3465 10.9612 19.2191 11.5131C19.2069 11.5669 19.2004 11.6222 19.2004 11.6776V11.7615H15.261V2.21138C15.261 1.79977 15.5955 1.46484 16.0071 1.46484H33.9927C34.4043 1.46484 34.7388 1.79977 34.7388 2.21138V4.58984C34.7388 4.9942 35.0669 5.32227 35.4713 5.32227C35.876 5.32227 36.2037 4.9942 36.2037 4.58984V2.21138C36.2037 0.992203 35.2119 0 33.9927 0H16.0071C14.788 0 13.7961 0.992203 13.7961 2.21138V14.5813C13.7961 15.8009 14.788 16.7927 16.0071 16.7927ZM28.0036 18.9617H21.9962L22.364 16.7927H27.6359L28.0036 18.9617ZM21.0898 11.121C21.4126 10.8242 21.8555 10.6609 22.3372 10.6609H27.6652C28.147 10.6609 28.5907 10.8246 28.9134 11.1206C29.119 11.3102 29.2636 11.5295 29.3342 11.7596V11.7615H20.6687C20.7397 11.5295 20.8835 11.3098 21.0898 11.121ZM34.7388 13.2263V14.5813C34.7388 14.9929 34.4043 15.3278 33.9927 15.3278H16.0075C15.5959 15.3278 15.261 14.9929 15.261 14.5813V13.2263H34.7388Z" fill="#C63E34"/>
<path d="M24.3321 3.0426C23.3319 3.0426 22.5178 3.85704 22.5178 4.8584V6.48003C22.5178 7.05986 22.8249 7.60727 23.3197 7.90863L24.1322 8.40378C24.4004 8.56743 24.701 8.64906 25.0016 8.64906C25.3026 8.64906 25.6031 8.56743 25.8713 8.40378L26.6835 7.90863C27.1782 7.60727 27.4857 7.05986 27.4857 6.48003V4.8584C27.4857 3.85704 26.6716 3.0426 25.6711 3.0426H24.3321ZM26.0209 4.8584V6.48003C26.0209 6.55212 25.9827 6.62041 25.9213 6.65779L25.1088 7.15332C25.0428 7.19337 24.9608 7.19337 24.8948 7.15332L24.0822 6.65779C24.0208 6.62041 23.9827 6.55212 23.9827 6.48003V4.8584C23.9827 4.66499 24.1395 4.50745 24.3321 4.50745H25.6714C25.8641 4.50745 26.0209 4.66499 26.0209 4.8584Z" fill="#C63E34"/>
<path d="M20.1965 29.5735H2.21138C0.991821 29.5735 0 30.5657 0 31.7849V44.1552C0 45.3743 0.991821 46.3662 2.21138 46.3662H7.08237L6.71463 48.5352H6.54182C6.13708 48.5352 5.8094 48.8633 5.8094 49.2676C5.8094 49.672 6.13708 50 6.54182 50H15.8661C16.2708 50 16.5985 49.672 16.5985 49.2676C16.5985 48.8633 16.2708 48.5352 15.8661 48.5352H15.6933L15.3259 46.3665H20.1965C21.4161 46.3665 22.4079 45.3743 22.4079 44.1552V31.7849C22.4079 30.5657 21.4157 29.5735 20.1965 29.5735ZM2.21138 31.0383H20.1965C20.6081 31.0383 20.9431 31.3733 20.9431 31.7849V41.335H17.0033V41.2362C17.0033 41.1793 16.9968 41.1221 16.9834 41.0668C16.8545 40.5251 16.5524 40.0235 16.1087 39.6157C15.514 39.0702 14.7186 38.7696 13.8695 38.7696H8.54149C7.69157 38.7696 6.89621 39.0702 6.30341 39.6149C5.8548 40.0258 5.55038 40.5346 5.42336 41.0866C5.41077 41.1404 5.40466 41.1957 5.40466 41.251V41.3353H1.46484V31.7849C1.46484 31.3733 1.79977 31.0383 2.21138 31.0383ZM14.2075 48.5352H8.20045L8.56781 46.3665H13.8401L14.2075 48.5352ZM20.9431 44.1552C20.9431 44.5668 20.6081 44.9013 20.1965 44.9013H2.21138C1.79977 44.9013 1.46484 44.5668 1.46484 44.1552V42.8002H7.61719C8.02155 42.8002 8.34961 42.4721 8.34961 42.0678C8.34961 41.663 8.02155 41.3353 7.61719 41.3353H6.87256C6.94351 41.1034 7.08733 40.8837 7.2937 40.6945C7.61642 40.3977 8.05969 40.2344 8.54149 40.2344H13.8695C14.3509 40.2344 14.7945 40.3981 15.1176 40.6945C15.3233 40.8837 15.4675 41.103 15.5384 41.3331V41.3353H10.6812C10.2768 41.3353 9.94873 41.663 9.94873 42.0678C9.94873 42.4721 10.2768 42.8002 10.6812 42.8002H20.9431V44.1552Z" fill="#C63E34"/>
<path d="M9.52367 37.4825L10.3362 37.9776C10.6044 38.1413 10.9046 38.2229 11.2056 38.2229C11.5062 38.2229 11.8068 38.1413 12.0749 37.9776L12.8875 37.4825C13.3819 37.1808 13.6893 36.6333 13.6893 36.0539V34.4323C13.6893 33.4309 12.8753 32.6161 11.875 32.6161H10.5357C9.53549 32.6161 8.72144 33.4309 8.72144 34.4323V36.0539C8.72182 36.6333 9.0289 37.1808 9.52367 37.4825ZM10.1867 34.4319C10.1867 34.2385 10.3431 34.0809 10.5361 34.0809H11.875C12.0677 34.0809 12.2249 34.2385 12.2249 34.4319V36.0535C12.2249 36.126 12.1863 36.1939 12.1249 36.2317L11.3128 36.7268C11.2464 36.7672 11.1644 36.7672 11.0988 36.7268L10.2862 36.2317C10.2248 36.1943 10.1867 36.126 10.1867 36.0535V34.4319Z" fill="#C63E34"/>
</svg>
