<svg width="50" height="32" viewBox="0 0 50 32" fill="none" xmlns="http://www.w3.org/2000/svg">
<path d="M48.1537 0H1.83486C0.825688 0 0 0.847059 0 1.88235V3.76471C0 4.8 0.825688 5.64706 1.83486 5.64706H16.8349C17.2592 7.78824 19.117 9.41177 21.3303 9.41177H22.2477V13.1765H18.578V18.8235H24.0826V20.7059H25.9174V18.8235H31.422V13.1765H27.7523V9.41177H28.6697C30.883 9.41177 32.7408 7.78824 33.1651 5.64706H48.1651C49.1743 5.64706 50 4.8 50 3.76471V1.88235C49.9885 0.847059 49.1743 0 48.1537 0ZM29.5872 16.9412H20.4128V15.0588H29.5872V16.9412ZM25.9174 13.1765H24.0826V9.41177H25.9174V13.1765ZM28.6697 7.52941H21.3303C20.1376 7.52941 19.1284 6.74118 18.75 5.64706H31.25C30.8716 6.74118 29.8624 7.52941 28.6697 7.52941ZM1.83486 3.76471V1.88235H48.1537V3.76471H1.83486Z" fill="#C63E34"/>
<path d="M6.21535 23.5295L4.63278 22.5648C4.31168 23.1295 4.00204 23.7178 3.73828 24.3178L5.40113 25.106C5.65342 24.5648 5.92865 24.0354 6.21535 23.5295Z" fill="#C63E34"/>
<path d="M2.50024 28.0586L4.28924 28.4821C4.41538 27.9057 4.57593 27.3292 4.75942 26.7645L3.02777 26.1527C2.82135 26.7762 2.64933 27.4233 2.50024 28.0586Z" fill="#C63E34"/>
<path d="M2.06421 32H3.89907C3.89907 31.4117 3.93348 30.8235 4.00228 30.2352L2.17889 30.0117C2.09861 30.6823 2.06421 31.3411 2.06421 32Z" fill="#C63E34"/>
<path d="M17.0184 13.9176C16.3762 14.0117 15.734 14.1411 15.1147 14.3058L15.5849 16.1294C16.1354 15.9764 16.7088 15.8588 17.2822 15.7764L17.0184 13.9176Z" fill="#C63E34"/>
<path d="M5.71118 20.9177L7.17907 22.0354C7.52311 21.553 7.90155 21.0942 8.27999 20.6589L6.92678 19.3883C6.50247 19.8824 6.08962 20.3883 5.71118 20.9177Z" fill="#C63E34"/>
<path d="M11.5024 15.7529L12.3625 17.4117C12.8671 17.1294 13.3946 16.8823 13.9336 16.6705L13.2685 14.9176C12.6722 15.1647 12.0758 15.447 11.5024 15.7529Z" fill="#C63E34"/>
<path d="M8.32568 18.0119L9.52981 19.4237C9.96559 19.0354 10.4243 18.6707 10.8945 18.3296L9.85091 16.7766C9.32339 17.1648 8.80733 17.5766 8.32568 18.0119Z" fill="#C63E34"/>
<path d="M47.9356 32C47.9356 31.3411 47.9012 30.6823 47.821 30.0117L45.9976 30.2235C46.0664 30.8117 46.1008 31.4117 46.1008 31.9882H47.9356V32Z" fill="#C63E34"/>
<path d="M43.7729 23.5295C44.0711 24.0354 44.3349 24.5648 44.5757 25.106L46.2385 24.3178C45.9748 23.7178 45.6651 23.1295 45.344 22.5648L43.7729 23.5295Z" fill="#C63E34"/>
<path d="M43.0502 19.3883L41.697 20.6589C42.0869 21.0942 42.4539 21.553 42.7979 22.0354L44.2658 20.9177C43.8989 20.3883 43.486 19.8824 43.0502 19.3883Z" fill="#C63E34"/>
<path d="M39.0942 18.3412C39.5644 18.6706 40.0231 19.0471 40.4589 19.4353L41.663 18.0236C41.1814 17.5883 40.6653 17.1765 40.1378 16.8L39.0942 18.3412Z" fill="#C63E34"/>
<path d="M34.8855 14.3058C34.2662 14.1411 33.624 14.0117 32.9818 13.9176L32.7295 15.7764C33.3029 15.8588 33.8648 15.9764 34.4267 16.1294L34.8855 14.3058Z" fill="#C63E34"/>
<path d="M45.2295 26.7645C45.413 27.3292 45.5735 27.9057 45.6997 28.4821L47.4887 28.0586C47.3511 27.4233 47.1676 26.7762 46.9611 26.1527L45.2295 26.7645Z" fill="#C63E34"/>
<path d="M36.0549 16.6705C36.5939 16.8823 37.1214 17.1294 37.626 17.4117L38.4861 15.7529C37.9127 15.447 37.3279 15.1647 36.7201 14.9176L36.0549 16.6705Z" fill="#C63E34"/>
<path d="M25.9174 26.3531H24.0825V28.2355H25.9174V26.3531Z" fill="#C63E34"/>
<path d="M25.9174 30.1176H24.0825V31.9999H25.9174V30.1176Z" fill="#C63E34"/>
<path d="M25.9174 22.5883H24.0825V24.4706H25.9174V22.5883Z" fill="#C63E34"/>
<path d="M11.5022 23.5295L9.91964 22.5648C9.59854 23.1295 9.28891 23.7178 9.02515 24.3178L10.688 25.106C10.9403 24.5648 11.204 24.0354 11.5022 23.5295Z" fill="#C63E34"/>
<path d="M7.78687 28.0586L9.57586 28.4821C9.702 27.9057 9.86255 27.3292 10.046 26.7645L8.31439 26.1527C8.0965 26.7762 7.92448 27.4233 7.78687 28.0586Z" fill="#C63E34"/>
<path d="M7.33936 32H9.17422C9.17422 31.4117 9.20862 30.8235 9.27743 30.2352L7.45403 30.0117C7.38523 30.6823 7.33936 31.3411 7.33936 32Z" fill="#C63E34"/>
<path d="M10.9866 20.9177L12.4545 22.0354C12.7985 21.553 13.1769 21.0942 13.5554 20.6589L12.2022 19.3883C11.7893 19.8824 11.3765 20.3883 10.9866 20.9177Z" fill="#C63E34"/>
<path d="M13.6467 18.2351L14.7362 19.741C15.1949 19.3881 15.688 19.0586 16.1811 18.7645L15.2637 17.141C14.7132 17.4704 14.1628 17.8351 13.6467 18.2351Z" fill="#C63E34"/>
<path d="M16.7774 23.5295L15.1948 22.5648C14.8737 23.1295 14.5641 23.7178 14.3003 24.3178L15.9631 25.106C16.2154 24.5648 16.4907 24.0354 16.7774 23.5295Z" fill="#C63E34"/>
<path d="M13.062 28.0586L14.851 28.4821C14.9771 27.9057 15.1377 27.3292 15.3212 26.7645L13.5895 26.1527C13.3831 26.7762 13.1996 27.4233 13.062 28.0586Z" fill="#C63E34"/>
<path d="M12.626 31.9999H14.4608C14.4608 31.4117 14.4952 30.8234 14.5641 30.2352L12.7407 30.0234C12.6604 30.6823 12.626 31.3411 12.626 31.9999Z" fill="#C63E34"/>
<path d="M16.2729 20.9177L17.7408 22.0354C18.0849 21.553 18.4633 21.0942 18.8418 20.6589L17.4885 19.3883C17.0642 19.8824 16.6514 20.3883 16.2729 20.9177Z" fill="#C63E34"/>
<path d="M21.8692 23.7648L20.2866 22.8C19.9655 23.3648 19.6559 23.953 19.3921 24.553L21.0549 25.3412C21.3072 24.8 21.571 24.2706 21.8692 23.7648Z" fill="#C63E34"/>
<path d="M18.4519 28.0586L20.2409 28.4821C20.367 27.9057 20.5276 27.3292 20.7111 26.7645L18.9794 26.1527C18.773 26.7762 18.601 27.4233 18.4519 28.0586Z" fill="#C63E34"/>
<path d="M18.0161 31.9999H19.851C19.851 31.4117 19.8854 30.8234 19.9542 30.2352L18.1308 30.0234C18.0505 30.6823 18.0161 31.3411 18.0161 31.9999Z" fill="#C63E34"/>
<path d="M23.3374 21.2237L21.7548 20.259C21.4337 20.8237 21.1241 21.412 20.8604 22.012L22.5232 22.8002C22.764 22.2708 23.0393 21.7414 23.3374 21.2237Z" fill="#C63E34"/>
<path d="M39.2661 25.106L40.929 24.3178C40.6652 23.7178 40.3556 23.1295 40.0345 22.5648L38.4519 23.5295C38.7501 24.0354 39.0253 24.5648 39.2661 25.106Z" fill="#C63E34"/>
<path d="M41.6513 26.1527L39.9197 26.7645C40.1032 27.3292 40.2637 27.9057 40.3899 28.4821L42.1788 28.0586C42.0298 27.4233 41.8578 26.7762 41.6513 26.1527Z" fill="#C63E34"/>
<path d="M42.4999 30.0117L40.6765 30.2235C40.7453 30.8117 40.7797 31.4117 40.7797 31.9882H42.6146C42.6146 31.3411 42.5802 30.6823 42.4999 30.0117Z" fill="#C63E34"/>
<path d="M38.9682 20.9177C38.5898 20.3883 38.1655 19.8707 37.7412 19.3883L36.3879 20.6589C36.7778 21.0942 37.1448 21.553 37.4889 22.0354L38.9682 20.9177Z" fill="#C63E34"/>
<path d="M34.6904 17.141L33.7729 18.7645C34.2661 19.0586 34.7592 19.3881 35.2179 19.741L36.3074 18.2351C35.7913 17.8351 35.2408 17.4704 34.6904 17.141Z" fill="#C63E34"/>
<path d="M33.991 25.106L35.6538 24.3178C35.3901 23.7178 35.0804 23.1295 34.7593 22.5648L33.1768 23.5295C33.4749 24.0354 33.7387 24.5648 33.991 25.106Z" fill="#C63E34"/>
<path d="M36.3647 26.1527L34.6331 26.7645C34.8165 27.3292 34.9771 27.9057 35.1032 28.4821L36.8922 28.0586C36.7546 27.4233 36.5711 26.7762 36.3647 26.1527Z" fill="#C63E34"/>
<path d="M37.2248 30.0117L35.4014 30.2235C35.4702 30.8117 35.5046 31.4117 35.5046 31.9882H37.3394C37.3394 31.3411 37.2936 30.6823 37.2248 30.0117Z" fill="#C63E34"/>
<path d="M32.454 19.4L31.1008 20.6706C31.4907 21.1059 31.8577 21.5647 32.2017 22.0471L33.6696 20.9294C33.3027 20.3883 32.8898 19.8824 32.454 19.4Z" fill="#C63E34"/>
<path d="M28.8992 25.3412L30.562 24.553C30.2983 23.953 29.9886 23.3648 29.6675 22.8L28.085 23.7648C28.3831 24.2706 28.6584 24.8 28.8992 25.3412Z" fill="#C63E34"/>
<path d="M30.9748 26.1527L29.2432 26.7645C29.4267 27.3292 29.5872 27.9057 29.7133 28.4821L31.5023 28.0586C31.3533 27.4233 31.1812 26.7762 30.9748 26.1527Z" fill="#C63E34"/>
<path d="M31.8234 30.0117L30 30.2235C30.0688 30.8117 30.1032 31.4117 30.1032 31.9882H31.9381C31.9381 31.3411 31.9037 30.6823 31.8234 30.0117Z" fill="#C63E34"/>
<path d="M27.4312 22.8002L29.094 22.012C28.8303 21.412 28.5206 20.8237 28.1995 20.259L26.6169 21.2237C26.9151 21.7414 27.1903 22.2708 27.4312 22.8002Z" fill="#C63E34"/>
</svg>
