<svg width="46" height="50" viewBox="0 0 46 50" fill="none" xmlns="http://www.w3.org/2000/svg">
<path d="M13.8 38.5458C13.9 38.5458 14 38.5458 14.1 38.6454C14.4 38.745 14.8 38.8446 15.1 38.8446C15.5 38.9442 15.9 38.9442 16.3 39.0438C16.5 39.0438 16.6 39.0438 16.8 39.1434C17.3 39.1434 18.8 39.243 19.3 39.243V47.7092H18.2V50H20.5H25.4H27.7V47.7092H26.6V39.243C27.1 39.243 28.6 39.243 29.1 39.1434C29.3 39.1434 29.4 39.1434 29.6 39.0438C30 39.0438 30.4 38.9442 30.8 38.8446C31.1 38.745 31.5 38.745 31.8 38.6454C31.9 38.6454 34.4 37.8486 34.4 37.8486C41.2 34.9602 46 28.2869 46 20.5179V18.3267V25.5976V21.0159C46 16.5339 44.4 12.1514 41.4 8.76494V4.68127C41.4 3.48606 41.4 0 23 0C4.6 0 4.6 3.48606 4.6 4.68127V8.76494C1.6 12.1514 0 16.4343 0 21.0159V25.5976V18.3267V20.5179C0 28.2869 4.8 34.9602 11.5 37.749L13.8 38.5458ZM21.7 47.6096V39.1434H24.3V47.6096H21.7ZM43.7 26.6932V17.1315V26.6932ZM23 2.29084C37.8 2.29084 39.1 4.58167 39.1 4.58167V6.4741C37.2 5.67729 33.7 4.98008 27.2 4.68127C26.8 4.68127 26.4 4.68127 25.9 4.68127C25.7 4.68127 25.6 4.68127 25.4 4.68127C25.1 4.68127 24.8 4.68127 24.5 4.68127C24 4.68127 23.5 4.68127 23 4.68127C22.5 4.68127 22 4.68127 21.5 4.68127C21.2 4.68127 20.9 4.68127 20.6 4.68127C20.5 4.68127 20.3 4.68127 20.1 4.68127C12.8 4.88048 9 5.67729 6.9 6.5737V4.68127C6.9 4.68127 8.2 2.29084 23 2.29084ZM43.7 19.4223V20.5179C43.7 27.5896 39.2 33.6653 32.9 35.9562C32.5 36.0558 32.1 36.255 31.7 36.3546C31.6 36.3546 31.5 36.3546 31.5 36.4542C31.1 36.5538 30.8 36.6534 30.4 36.6534C30.2 36.6534 30 36.753 29.8 36.753C29.5 36.753 29.3 36.8526 29 36.8526C28.5 36.8526 27 36.9522 26.5 36.9522H25.4H20.5H19.4C18.9 36.9522 17.4 36.9522 16.9 36.8526C16.6 36.8526 16.4 36.753 16.1 36.753C15.9 36.753 15.7 36.6534 15.5 36.6534C15.1 36.5538 14.8 36.5538 14.4 36.4542C14.3 36.4542 14.2 36.4542 14.2 36.3546C13.8 36.255 13.4 36.1554 13 35.9562C6.8 33.6653 2.3 27.5896 2.3 20.5179V19.4223V17.1315V26.6932V24.4024V21.0159C2.3 17.1315 3.7 13.3466 6.2 10.3586C6.3 10.259 6.5 10.1594 6.6 10.0598C6.7 9.96016 6.8 9.86056 6.8 9.76096C6.8 9.76096 6.8 9.76096 6.8 9.66135C7.2 9.26295 7.5 8.96414 7.9 8.66534C8.1 8.56574 8.4 8.46614 8.8 8.36653H8.9C9 8.36653 9.1 8.36653 9.1 8.26693C9.2 8.26693 9.3 8.16733 9.4 8.16733H9.5C11 7.76892 13.2 7.37052 16.7 7.17131C17.5 7.07171 18.5 7.07171 19.5 7.07171C19.6 7.07171 19.7 7.07171 19.8 7.07171C20.2 7.07171 20.6 7.07171 21 7.07171C21.1 7.07171 21.3 7.07171 21.4 7.07171C21.9 7.07171 22.4 7.07171 23 7.07171C23.5 7.07171 24.1 7.07171 24.6 7.07171C24.7 7.07171 24.9 7.07171 25 7.07171C25.4 7.07171 25.8 7.07171 26.2 7.07171C26.3 7.07171 26.4 7.07171 26.5 7.07171C27.5 7.07171 28.4 7.17131 29.3 7.17131C32.8 7.37052 35 7.76892 36.5 8.16733H36.6C36.7 8.16733 36.8 8.26693 36.9 8.26693C37 8.26693 37.1 8.26693 37.1 8.36653H37.2C37.6 8.46614 37.8 8.56574 38.1 8.66534C38.4 8.96414 38.8 9.26295 39.2 9.66135C39.2 9.76096 39.3 9.76096 39.3 9.86056C39.3 9.96016 39.4 9.96016 39.4 10.0598C39.5 10.1594 39.5 10.1594 39.6 10.259L39.7 10.3586C42.2 13.3466 43.6 17.1315 43.6 21.0159V24.4024" fill="#C63E34"/>
</svg>
