<svg width="50" height="51" viewBox="0 0 50 51" fill="none" xmlns="http://www.w3.org/2000/svg">
<path d="M0.110076 4.58304L3.44216 10.4138C3.55455 10.6109 3.74267 10.7534 3.96267 10.8086L7.07133 11.5858L17.7334 22.2478L18.9115 21.0701L8.08254 10.2415C7.97597 10.1346 7.84233 10.0588 7.69601 10.0222L4.70899 9.27277L1.87206 4.30549L4.3043 1.87324L9.27364 4.71291L10.0234 7.69993C10.0597 7.84659 10.1358 7.98057 10.2424 8.08714L21.0713 18.9161L22.249 17.738L11.587 7.07594L10.8098 3.96899C10.7546 3.74865 10.6121 3.56019 10.4151 3.44745L4.58392 0.115712C4.25873 -0.0693272 3.84959 -0.0145006 3.58436 0.249695L0.252625 3.58178C-0.0153393 3.84529 -0.0735924 4.25511 0.110076 4.58304Z" fill="#C63E34"/>
<path d="M34.7415 16.4168L16.4161 34.7425L15.238 33.5644L33.5638 15.239L34.7415 16.4168Z" fill="#C63E34"/>
<path d="M13.2088 35.3908C13.058 35.14 12.7873 34.9868 12.4946 34.9868H7.49686C7.20457 34.9868 6.93352 35.14 6.78309 35.3908L4.28403 39.5556C4.12538 39.8194 4.12538 40.1494 4.28403 40.4136L6.78309 44.5784C6.93352 44.8289 7.20457 44.9824 7.49686 44.9824H12.4946C12.7873 44.9824 13.058 44.8289 13.2088 44.5784L15.7075 40.4136C15.8661 40.1494 15.8661 39.8194 15.7075 39.5556L13.2088 35.3908ZM12.0235 43.3163H7.96837L5.96926 39.9846L7.96837 36.6525H12.0235L14.0226 39.9846L12.0235 43.3163Z" fill="#C63E34"/>
<path d="M39.9829 19.9931C45.4844 20.0117 49.9596 15.5666 49.9781 10.0651C49.9809 9.22762 49.8781 8.39357 49.6721 7.5818C49.5611 7.13531 49.1091 6.86357 48.6626 6.9746C48.516 7.01126 48.3823 7.08699 48.2754 7.19356L43.0902 12.3753L38.9762 11.0043L37.6041 6.89133L42.7893 1.70509C43.1145 1.37955 43.1142 0.85219 42.7887 0.527001C42.6814 0.419746 42.5464 0.343674 42.3987 0.307352C37.0634 -1.04378 31.6435 2.18584 30.2923 7.52081C30.0871 8.33018 29.9846 9.16217 29.9874 9.99725C29.9894 10.6531 30.0569 11.3069 30.1899 11.9491L11.9474 30.1912C11.3052 30.0586 10.6514 29.9911 9.9959 29.9887C4.47521 29.9887 0 34.4639 0 39.9846C0 45.5049 4.47521 49.9802 9.9959 49.9802C15.5162 49.9802 19.9915 45.5049 19.9915 39.9846C19.9894 39.3287 19.9216 38.6749 19.7889 38.0328L24.1562 33.6655L26.0662 35.5755C26.3918 35.9007 26.9188 35.9007 27.2443 35.5755L27.6607 35.1588C28.0259 34.796 28.6164 34.796 28.9816 35.1588C29.3466 35.5228 29.3473 36.1135 28.9833 36.4785C28.983 36.4788 28.9823 36.4795 28.9816 36.4802L28.5653 36.8965C28.2401 37.2217 28.2401 37.7491 28.5653 38.0742L38.5019 48.0109C41.1154 50.6484 45.372 50.6675 48.0095 48.054C50.6467 45.4405 50.6659 41.1836 48.0523 38.5464C48.0383 38.532 48.0239 38.5177 48.0095 38.5033L38.0729 28.567C37.7477 28.2418 37.2203 28.2418 36.8952 28.567L36.4788 28.9833C36.1132 29.3465 35.5231 29.3465 35.1575 28.9833C34.7929 28.6194 34.7919 28.0287 35.1558 27.6641C35.1565 27.6634 35.1572 27.663 35.1575 27.6623L35.5742 27.2457C35.8994 26.9205 35.8994 26.3931 35.5742 26.0679L33.6642 24.1579L38.0314 19.7906C38.6736 19.9232 39.3274 19.9911 39.9829 19.9931ZM43.2557 48.3145C42.6506 48.3134 42.0506 48.2041 41.4841 47.9913L47.9896 41.4855C48.9714 44.0969 47.6504 47.0096 45.0389 47.9913C44.4691 48.2055 43.865 48.3151 43.2557 48.3145ZM33.819 26.6652C32.8966 27.7655 33.0412 29.4055 34.1415 30.3276C35.1085 31.138 36.5179 31.1373 37.4839 30.3252L46.8318 39.6813C46.9332 39.7831 47.0281 39.8904 47.12 39.9993L39.998 47.1213C39.8887 47.0298 39.7814 46.9349 39.6797 46.8331L30.3245 37.4773C31.247 36.377 31.1024 34.737 30.0021 33.8149C29.0351 33.0042 27.6254 33.0052 26.6594 33.817L25.3268 32.4843L32.4861 25.3356L33.819 26.6652ZM37.1826 18.2874L18.2864 37.1799C18.079 37.3869 17.9958 37.6874 18.0664 37.9714C19.2092 42.4593 16.4973 47.024 12.0091 48.1664C7.52117 49.3092 2.95652 46.5974 1.81373 42.1091C0.671282 37.6212 3.38314 33.0566 7.87137 31.9138C9.22901 31.5684 10.6514 31.5684 12.0091 31.9138C12.2931 31.9834 12.593 31.9001 12.8006 31.6942L31.6925 12.8013C31.8994 12.5943 31.9827 12.2938 31.9114 12.0101C30.7765 7.5746 33.452 3.05896 37.8875 1.92371C38.7257 1.70954 39.5926 1.6273 40.4561 1.6811L36.0621 6.07681C35.8391 6.29955 35.7609 6.62953 35.8606 6.92868L37.5263 11.9268C37.6096 12.1752 37.8049 12.3706 38.0537 12.4531L43.0518 14.1192C43.3506 14.2189 43.6806 14.1411 43.9037 13.9184L48.2977 9.52437C48.3076 9.68337 48.3128 9.84065 48.3128 9.99725C48.3361 14.5742 44.6449 18.3035 40.0679 18.3271C39.3603 18.3305 38.6551 18.2435 37.9698 18.0681C37.6857 17.9971 37.3852 18.08 37.1782 18.287H37.1826V18.2874Z" fill="#C63E34"/>
<path d="M43.0716 41.8942L41.8935 43.0723L33.564 34.7428L34.7417 33.5647L43.0716 41.8942Z" fill="#C63E34"/>
</svg>
