<svg width="38" height="50" viewBox="0 0 38 50" fill="none" xmlns="http://www.w3.org/2000/svg">
<path d="M36.3411 19.4062H1.05542L5.27764 5.78369H32.1189L36.3411 19.4062ZM3.9205 17.2753L33.7776 17.3514L30.611 7.91459L6.78558 7.83849L3.9205 17.2753Z" fill="#C63E34"/>
<path d="M26.012 7.30594H11.385V0H25.9366L26.012 7.30594ZM13.4961 5.78387H23.9009V2.1309H13.4961V5.78387Z" fill="#C63E34"/>
<path d="M17.1906 48.1735C14.8533 48.1735 12.7422 46.6514 11.9128 44.4444L11.6866 43.8356L11.0835 43.9878C10.5557 44.14 9.95251 44.14 9.42473 44.14C5.20251 44.14 1.73425 40.6392 1.73425 36.3774C1.73425 32.8005 4.14695 29.7564 7.53981 28.8432L8.06759 28.691L7.99219 28.006C7.99219 27.9299 7.99219 27.9299 7.99219 27.8538C7.99219 26.1034 9.27394 24.5814 11.0081 24.3531L11.6866 24.277L11.6112 23.592C11.5358 23.2876 11.5358 22.9832 11.5358 22.6788C11.5358 21.385 11.9882 20.1674 12.6668 19.2541C12.8176 19.1019 12.9684 18.9497 13.0438 18.7975C13.4962 18.1887 12.2144 17.8843 11.385 18.6453C11.2343 18.7975 11.1589 18.9497 11.0835 19.1019C10.4803 20.1674 10.1033 21.385 10.1033 22.6788C10.1033 22.831 10.1033 22.9832 10.1033 23.1354C8.14298 23.7442 6.71044 25.4946 6.55965 27.6255C2.78981 28.8432 0.226318 32.3439 0.226318 36.3774C0.226318 41.4763 4.29775 45.5859 9.34933 45.5859C9.80171 45.5859 10.2541 45.5859 10.7065 45.5098C11.8374 47.9451 14.3255 49.6194 17.0398 49.6194L17.1906 48.1735Z" fill="#C63E34"/>
<path d="M17.5675 49.9998H17.1905C14.4008 49.9998 11.9127 48.4017 10.631 45.9664C10.254 46.0425 9.87698 46.0425 9.5 46.0425C4.22222 45.9664 0 41.7046 0 36.3773C0 32.3438 2.56349 28.767 6.33333 27.3971C6.55952 25.3423 7.91667 23.5919 9.80159 22.907C9.80159 22.8309 9.80159 22.7548 9.80159 22.7548C9.80159 21.3849 10.1786 20.0912 10.8571 18.9496L10.9325 18.8735C11.0079 18.7213 11.0833 18.5691 11.2341 18.4169C11.9127 17.732 13.5714 18.1886 14.0238 18.5691C14.3254 18.7974 13.7222 18.7213 13.496 19.0257C13.4206 19.1018 13.3452 19.1779 13.2698 19.3301C13.1944 19.4062 13.119 19.4823 13.119 19.5584C12.4405 20.4717 12.0635 21.6132 12.0635 22.7548C12.0635 23.0592 12.0635 23.2875 12.1389 23.5919L12.2897 24.6574L11.2341 24.8096C9.72619 25.0379 8.59524 26.4078 8.59524 27.9298V28.0059L8.67063 28.9953L7.84127 29.2236C4.59921 30.0607 2.3373 33.0288 2.3373 36.3773C2.3373 40.4869 5.65476 43.7594 9.65079 43.7594C10.1786 43.7594 10.7063 43.6833 11.2341 43.6071L12.1389 43.3788L12.4405 44.2921C13.1944 46.3469 15.1548 47.7928 17.3413 47.7928H17.7183L17.5675 49.9998ZM11.0833 45.0531L11.2341 45.2814C12.2897 47.4884 14.4762 49.0105 16.8889 49.1627V48.4778C14.5516 48.3256 12.4405 46.8035 11.6111 44.5204L11.5357 44.2921L11.2341 44.3682C10.7063 44.5204 10.1032 44.5204 9.5 44.5204C5.05159 44.5204 1.43254 40.8674 1.43254 36.3773C1.43254 32.6482 3.92063 29.3758 7.53968 28.4626L7.76587 28.3864V28.082C7.76587 28.082 7.76587 28.0059 7.76587 27.9298C7.76587 26.0272 9.19841 24.353 11.0833 24.0485L11.3849 23.9724L11.3095 23.668C11.2341 23.3636 11.2341 23.0592 11.2341 22.7548C11.2341 21.3849 11.6865 20.1673 12.4405 19.1018C12.5159 19.0257 12.5913 18.9496 12.6667 18.8735C12.7421 18.7974 12.7421 18.7213 12.8175 18.7213C12.6667 18.6452 12.1389 18.6452 11.7619 19.0257C11.6865 19.1018 11.6865 19.1779 11.6111 19.254L11.5357 19.4062C10.9325 20.4717 10.631 21.6132 10.631 22.8309C10.631 22.9831 10.631 23.0592 10.631 23.2114V23.5158L10.3294 23.668C8.51984 24.2008 7.1627 25.875 7.0873 27.7776V28.0059H6.78571C3.16667 29.1475 0.753968 32.5721 0.753968 36.3773C0.753968 41.7046 5.35317 45.8903 10.7817 45.1292L11.0833 45.0531Z" fill="#C63E34"/>
<path d="M20.7341 49.6199C23.4484 49.6199 25.9365 48.0217 27.0674 45.5103C27.5198 45.5864 27.9722 45.5864 28.4246 45.5864C33.4762 45.5864 37.5476 41.4768 37.5476 36.3779C37.5476 32.3444 34.9841 28.8436 31.2142 27.626C31.1389 25.4951 29.7063 23.7447 27.6706 23.1358C27.6706 22.9836 27.6706 22.8314 27.6706 22.6792C27.6706 21.2333 27.2182 19.8634 26.4642 18.7218C26.3135 18.5696 26.2381 18.7218 26.0873 18.5696C25.3333 17.9608 24.4285 18.874 24.4285 18.874C24.5793 18.9502 24.6547 18.7218 24.7301 18.874C25.7103 19.8634 26.2381 21.2333 26.2381 22.7553C26.2381 23.0597 26.2381 23.2881 26.1627 23.6686V24.3535L26.8412 24.4296C28.5754 24.6579 29.8571 26.18 29.8571 27.9304C29.8571 28.0065 29.8571 28.0065 29.8571 28.0826L29.7817 28.7675L30.3095 28.9197C33.7023 29.833 36.115 32.8771 36.115 36.454C36.115 40.7158 32.6468 44.2165 28.4246 44.2165C27.8968 44.2165 27.2936 44.1404 26.7658 44.0643L26.1627 43.9121L25.9365 44.5209C25.1071 46.7279 22.996 48.25 20.6587 48.25L20.7341 49.6199Z" fill="#C63E34"/>
<path d="M20.7339 50.0001H20.3569V47.7931H20.7339C22.9204 47.7931 24.8807 46.4233 25.6347 44.2924L25.9363 43.3791L26.8411 43.6074C27.3688 43.6835 27.8966 43.7597 28.4244 43.7597C32.4958 43.7597 35.7379 40.4111 35.7379 36.3776C35.7379 33.0291 33.476 30.061 30.2339 29.2239L29.4046 28.9956L29.4799 28.0062C29.4799 27.9301 29.4799 27.9301 29.4799 27.854C29.4799 26.332 28.349 24.9621 26.8411 24.7338L25.7855 24.5816L25.9363 23.5161C26.0117 23.2117 26.0117 22.9834 26.0117 22.679C26.0117 21.3091 25.4839 20.0154 24.5792 19.1021C24.5038 19.026 24.353 18.8738 24.2776 18.7977L23.976 18.4933L24.2776 18.1889C24.6546 17.8084 25.1069 18.4933 26.4641 17.8845C26.6903 17.8084 26.7657 18.1889 26.8411 18.3411L26.9165 18.4933C27.7458 19.7109 28.1982 21.1569 28.1982 22.679C28.1982 22.7551 28.1982 22.8312 28.1982 22.8312C30.0831 23.5161 31.4403 25.2665 31.6665 27.3213C35.4363 28.6912 37.9998 32.268 37.9998 36.3776C37.9998 41.6288 33.7776 45.9667 28.4998 45.9667C28.1228 45.9667 27.7458 45.9667 27.3688 45.8906C26.0871 48.402 23.5236 50.0001 20.7339 50.0001ZM21.1109 48.5542V49.2391C23.5236 49.0869 25.7101 47.6409 26.7657 45.3578L26.9165 45.1295L27.218 45.2056C32.5712 45.9667 37.2458 41.781 37.2458 36.4537C37.2458 32.6485 34.8331 29.2239 31.2141 28.0823L30.9125 27.9301V27.7018C30.8371 25.7992 29.4799 24.125 27.6704 23.5922L27.3688 23.5161V23.2117C27.3688 23.0595 27.3688 22.9073 27.3688 22.7551C27.3688 21.3852 26.9919 20.0915 26.2379 19.026L26.1625 18.8738C26.0871 18.7216 26.0117 18.6455 25.9363 18.5694C25.6347 18.3411 25.3331 18.4172 25.1069 18.5694C25.1069 18.5694 25.1069 18.5694 25.1823 18.6455C26.2379 19.7871 26.8411 21.233 26.8411 22.7551C26.8411 23.0595 26.8411 23.3639 26.7657 23.7444L26.6903 24.0488L26.9919 24.125C28.8768 24.4294 30.3093 26.0275 30.3093 28.0062C30.3093 28.0823 30.3093 28.1584 30.3093 28.2345V28.539L30.5355 28.6151C34.0792 29.5283 36.6426 32.8007 36.6426 36.5298C36.6426 41.0199 33.0236 44.6729 28.5752 44.6729C27.972 44.6729 27.4442 44.5968 26.8411 44.5207L26.5395 44.4446L26.3887 44.5968C25.5593 46.8038 23.5236 48.402 21.1109 48.5542Z" fill="#C63E34"/>
<path d="M20.7343 48.1733H17.1907V49.6193H20.7343V48.1733Z" fill="#C63E34"/>
<path d="M21.1113 50H16.8137V47.793H21.1113V50ZM17.5677 49.2389H20.3574V48.554H17.5677V49.2389Z" fill="#C63E34"/>
<path d="M11.3096 35.7688C12.4339 35.7688 13.3454 34.8488 13.3454 33.714C13.3454 32.5791 12.4339 31.6592 11.3096 31.6592C10.1853 31.6592 9.27393 32.5791 9.27393 33.714C9.27393 34.8488 10.1853 35.7688 11.3096 35.7688Z" stroke="#C63E34" stroke-width="2.3" stroke-miterlimit="10"/>
<path d="M21.8651 31.811C22.9062 31.811 23.7501 30.9592 23.7501 29.9084C23.7501 28.8577 22.9062 28.0059 21.8651 28.0059C20.8241 28.0059 19.9802 28.8577 19.9802 29.9084C19.9802 30.9592 20.8241 31.811 21.8651 31.811Z" stroke="#C63E34" stroke-width="2.3" stroke-miterlimit="10"/>
<path d="M20.2817 43.3027C21.7807 43.3027 22.996 42.0761 22.996 40.563C22.996 39.0499 21.7807 37.8232 20.2817 37.8232C18.7826 37.8232 17.5674 39.0499 17.5674 40.563C17.5674 42.0761 18.7826 43.3027 20.2817 43.3027Z" stroke="#C63E34" stroke-width="2.3" stroke-miterlimit="10"/>
</svg>
