<svg width="48" height="50" viewBox="0 0 48 50" fill="none" xmlns="http://www.w3.org/2000/svg">
<path d="M19.9478 38.6313V47.5787H18.8049V49.9998H21.1945H26.2854H28.6751V47.5787H27.5322V38.6313C27.9478 38.6313 19.9478 38.6313 19.9478 38.6313ZM22.3374 47.5787V38.6313H25.0387V47.5787H22.3374Z" fill="#C63E34"/>
<path d="M24 40.3159C22.8571 40.3159 21.7143 40.0001 20.6753 39.4738L3.42857 29.4738C1.24675 28.2106 0 26.0001 0 23.4738C0 20.9475 1.24675 18.7369 3.42857 17.4738L20.6753 7.47377C22.7532 6.31587 25.3506 6.31587 27.3247 7.47377L44.5714 17.4738C46.7533 18.7369 48 20.9475 48 23.4738C48 26.0001 46.7533 28.2106 44.5714 29.4738L27.3247 39.4738C26.2857 40.0001 25.1429 40.3159 24 40.3159ZM24 9.05272C23.2727 9.05272 22.5455 9.26325 21.8182 9.57904L4.57143 19.5791C3.22078 20.4212 2.38961 21.7896 2.38961 23.4738C2.38961 25.158 3.22078 26.5264 4.57143 27.3685L21.8182 37.2633C23.1688 38.0001 24.8312 38.0001 26.1818 37.2633L43.4286 27.3685C44.7792 26.5264 45.6104 25.158 45.6104 23.4738C45.6104 21.7896 44.7792 20.4212 43.4286 19.5791L26.1818 9.6843C25.5584 9.26325 24.7273 9.05272 24 9.05272Z" fill="#C63E34"/>
<path d="M39.1689 0H9.45459V2.42106H39.1689V0Z" fill="#C63E34"/>
<path d="M19.0129 2H16.6233V11.2632H19.0129V2Z" fill="#C63E34"/>
<path d="M31.4807 2H29.0911V11.2632H31.4807V2Z" fill="#C63E34"/>
</svg>
