<svg width="43" height="50" viewBox="0 0 43 50" fill="none" xmlns="http://www.w3.org/2000/svg">
<path d="M42.1731 8.3332H38.0385V2.49996C38.0385 1.83693 37.7771 1.20106 37.3119 0.732222C36.8466 0.263388 36.2156 0 35.5577 0H14.0577C13.8384 4.71971e-05 13.6281 0.0878741 13.4731 0.244163L0.242289 13.5773C0.0871997 13.7335 4.68348e-05 13.9455 0 14.1664V44.166C0 44.829 0.261366 45.4649 0.726601 45.9337C1.19184 46.4026 1.82283 46.6659 2.48077 46.6659H21.8159L23.2365 49.5384C23.3051 49.6771 23.4107 49.7937 23.5414 49.8753C23.6722 49.9568 23.8229 50 23.9766 50C24.1304 50 24.2811 49.9568 24.4118 49.8753C24.5426 49.7937 24.6481 49.6771 24.7167 49.5384L26.1457 46.6659H31.4231V49.1659C31.4231 49.3869 31.5102 49.5989 31.6653 49.7551C31.8204 49.9114 32.0307 49.9992 32.25 49.9992H42.1731C42.3924 49.9992 42.6027 49.9114 42.7578 49.7551C42.9129 49.5989 43 49.3869 43 49.1659V9.16652C43 8.94551 42.9129 8.73356 42.7578 8.57728C42.6027 8.421 42.3924 8.3332 42.1731 8.3332ZM13.2308 2.84496V12.4998C13.2308 12.7208 13.1436 12.9328 12.9886 13.0891C12.8335 13.2453 12.6232 13.3331 12.4038 13.3331H2.82312L13.2308 2.84496ZM23.9808 47.3026L23.0067 45.3393C23.2942 45.143 23.6335 45.038 23.9808 45.038C24.3281 45.038 24.6674 45.143 24.9549 45.3393L23.9808 47.3026ZM25.6991 43.8393C25.1861 43.5085 24.5898 43.3326 23.9808 43.3326C23.3717 43.3326 22.7754 43.5085 22.2624 43.8393L21.6836 42.6635L23.9808 40.3444L26.2821 42.666L25.6991 43.8393ZM21.5 40.4877V21.6663H23.1538V38.8211L21.5 40.4877ZM26.4615 40.4877L24.8077 38.8211V21.6663H26.4615V40.4877ZM26.4615 19.9997H21.5V18.333H26.4615V19.9997ZM26.4615 16.6664H21.5V15.8331C21.5 15.1701 21.7614 14.5342 22.2266 14.0653C22.6918 13.5965 23.3228 13.3331 23.9808 13.3331C24.6387 13.3331 25.2697 13.5965 25.7349 14.0653C26.2002 14.5342 26.4615 15.1701 26.4615 15.8331V16.6664ZM31.4231 9.16652V44.9993H26.9726L28.0327 42.8718C28.0885 42.7558 28.1168 42.6283 28.1154 42.4993V15.8331C28.1154 14.728 27.6798 13.6682 26.9044 12.8869C26.129 12.1055 25.0773 11.6665 23.9808 11.6665C22.8842 11.6665 21.8325 12.1055 21.0572 12.8869C20.2818 13.6682 19.8462 14.728 19.8462 15.8331V42.4993C19.846 42.6286 19.8758 42.7561 19.933 42.8718L20.989 44.9993H2.48077C2.26146 44.9993 2.05112 44.9115 1.89605 44.7552C1.74097 44.5989 1.65385 44.387 1.65385 44.166V14.9998H12.4038C13.0618 14.9998 13.6928 14.7364 14.158 14.2675C14.6233 13.7987 14.8846 13.1628 14.8846 12.4998V1.66664H35.5577C35.777 1.66664 35.9873 1.75444 36.1424 1.91071C36.2975 2.06699 36.3846 2.27895 36.3846 2.49996V8.3332H32.25C32.0307 8.3332 31.8204 8.421 31.6653 8.57728C31.5102 8.73356 31.4231 8.94551 31.4231 9.16652ZM38.8654 19.9997H41.3462V23.333H38.8654C38.6461 23.333 38.4357 23.4208 38.2807 23.577C38.1256 23.7333 38.0385 23.9453 38.0385 24.1663C38.0385 24.3873 38.1256 24.5993 38.2807 24.7555C38.4357 24.9118 38.6461 24.9996 38.8654 24.9996H41.3462V28.3329H38.8654C38.6461 28.3329 38.4357 28.4207 38.2807 28.577C38.1256 28.7332 38.0385 28.9452 38.0385 29.1662C38.0385 29.3872 38.1256 29.5992 38.2807 29.7555C38.4357 29.9117 38.6461 29.9995 38.8654 29.9995H41.3462V33.3328H38.8654C38.6461 33.3328 38.4357 33.4206 38.2807 33.5769C38.1256 33.7332 38.0385 33.9451 38.0385 34.1661C38.0385 34.3871 38.1256 34.5991 38.2807 34.7554C38.4357 34.9117 38.6461 34.9995 38.8654 34.9995H41.3462V38.3327H38.8654C38.6461 38.3327 38.4357 38.4205 38.2807 38.5768C38.1256 38.7331 38.0385 38.945 38.0385 39.1661C38.0385 39.3871 38.1256 39.599 38.2807 39.7553C38.4357 39.9116 38.6461 39.9994 38.8654 39.9994H41.3462V43.3327H38.8654C38.6461 43.3327 38.4357 43.4205 38.2807 43.5767C38.1256 43.733 38.0385 43.945 38.0385 44.166C38.0385 44.387 38.1256 44.5989 38.2807 44.7552C38.4357 44.9115 38.6461 44.9993 38.8654 44.9993H41.3462V48.3326H33.0769V9.99984H41.3462V13.3331H38.8654C38.6461 13.3331 38.4357 13.4209 38.2807 13.5772C38.1256 13.7335 38.0385 13.9454 38.0385 14.1664C38.0385 14.3875 38.1256 14.5994 38.2807 14.7557C38.4357 14.912 38.6461 14.9998 38.8654 14.9998H41.3462V18.333H38.8654C38.6461 18.333 38.4357 18.4208 38.2807 18.5771C38.1256 18.7334 38.0385 18.9454 38.0385 19.1664C38.0385 19.3874 38.1256 19.5993 38.2807 19.7556C38.4357 19.9119 38.6461 19.9997 38.8654 19.9997Z" fill="#C63F35"/>
</svg>
