<svg width="50" height="50" viewBox="0 0 50 50" fill="none" xmlns="http://www.w3.org/2000/svg">
<path d="M48.3871 0H1.6129C0.723387 0 0 0.723387 0 1.6129V3.22581C0 4.11532 0.723387 4.83871 1.6129 4.83871H17.8234C18.1984 6.67661 19.8266 8.06452 21.7742 8.06452H22.5806V11.2903H19.3548V16.129H24.1935V17.7419H25.8065V16.129H30.6452V11.2903H27.4194V8.06452H28.2258C30.1726 8.06452 31.8016 6.67661 32.1766 4.83871H48.3871C49.2766 4.83871 50 4.11532 50 3.22581V1.6129C50 0.723387 49.2766 0 48.3871 0ZM29.0323 14.5161H20.9677V12.9032H29.0323V14.5161ZM25.8065 11.2903H24.1935V8.06452H25.8065V11.2903ZM28.2258 6.45161H21.7742C20.7242 6.45161 19.8371 5.775 19.5032 4.83871H30.496C30.1629 5.775 29.2758 6.45161 28.2258 6.45161ZM1.6129 3.22581V1.6129H48.3871L48.3879 3.22581H1.6129Z" fill="#C63E34"/>
<path d="M8.49514 20.1612L7.10724 19.3386C6.82014 19.8233 6.55482 20.3281 6.31934 20.8386L7.78385 21.5144C7.99756 21.0531 8.23627 20.5983 8.49514 20.1612Z" fill="#C63E34"/>
<path d="M5.22583 24.0436L6.79841 24.4024C6.91051 23.9097 7.05083 23.4153 7.21615 22.9347L5.69035 22.4121C5.50728 22.9468 5.35083 23.4968 5.22583 24.0436Z" fill="#C63E34"/>
<path d="M4.83887 27.4195H6.45177C6.45177 26.9203 6.48161 26.4098 6.53967 25.9034L4.93806 25.7179C4.87274 26.2864 4.83887 26.859 4.83887 27.4195Z" fill="#C63E34"/>
<path d="M17.983 11.9232C17.4193 12.0031 16.8572 12.1152 16.312 12.2579L16.7209 13.8192C17.2064 13.6918 17.7064 13.5918 18.2088 13.5208L17.983 11.9232Z" fill="#C63E34"/>
<path d="M8.04517 17.9268L9.34033 18.8873C9.64355 18.4776 9.97097 18.0825 10.3129 17.7115L9.12581 16.6188C8.74597 17.0317 8.38226 17.472 8.04517 17.9268Z" fill="#C63E34"/>
<path d="M13.1411 13.4975L13.8992 14.9217C14.3435 14.6846 14.8072 14.4709 15.2774 14.2878L14.6895 12.7854C14.1621 12.9919 13.6411 13.2314 13.1411 13.4975Z" fill="#C63E34"/>
<path d="M10.3428 15.4323L11.4033 16.6468C11.7855 16.3138 12.1887 15.9993 12.6033 15.713L11.6855 14.3864C11.2226 14.7065 10.7702 15.0589 10.3428 15.4323Z" fill="#C63E34"/>
<path d="M45.1613 27.4195C45.1613 26.859 45.1274 26.2864 45.0621 25.7179L43.4604 25.9034C43.5185 26.4098 43.5484 26.9203 43.5484 27.4195H45.1613Z" fill="#C63E34"/>
<path d="M41.5049 20.1611C41.7638 20.5982 42.0033 21.0531 42.2154 21.5152L43.6799 20.8394C43.4444 20.3281 43.1791 19.8232 42.892 19.3394L41.5049 20.1611Z" fill="#C63E34"/>
<path d="M40.8743 16.6176L39.6873 17.7103C40.0292 18.0813 40.3566 18.4764 40.6598 18.8861L41.955 17.9256C41.6179 17.4716 41.2542 17.0313 40.8743 16.6176Z" fill="#C63E34"/>
<path d="M37.3967 15.7122C37.8112 15.9985 38.2145 16.313 38.5967 16.6461L39.6572 15.4316C39.2298 15.0582 38.7782 14.7066 38.3137 14.3856L37.3967 15.7122Z" fill="#C63E34"/>
<path d="M33.688 12.2579C33.1428 12.1152 32.5807 12.0031 32.017 11.9232L31.792 13.52C32.2944 13.591 32.7944 13.691 33.2799 13.8184L33.688 12.2579Z" fill="#C63E34"/>
<path d="M42.7839 22.9347C42.9493 23.4161 43.0896 23.9097 43.2017 24.4024L44.7743 24.0436C44.6493 23.496 44.4928 22.9468 44.3089 22.4121L42.7839 22.9347Z" fill="#C63E34"/>
<path d="M34.7224 14.2878C35.1926 14.4716 35.6563 14.6845 36.1006 14.9216L36.8587 13.4974C36.3587 13.2313 35.8377 12.9918 35.3095 12.7845L34.7224 14.2878Z" fill="#C63E34"/>
<path d="M44.355 28.8418L41.4695 34.612C41.2469 35.0579 41.1292 35.5571 41.1292 36.0547V36.2902C41.1292 38.0692 42.5759 39.516 44.355 39.516C46.134 39.516 47.5808 38.0692 47.5808 36.2902V36.0547C47.5808 35.5571 47.463 35.0579 47.2404 34.612L44.355 28.8418ZM45.9679 36.2902C45.9679 37.1797 45.2445 37.9031 44.355 37.9031C43.4654 37.9031 42.7421 37.1797 42.7421 36.2902V36.0547C42.7421 35.8055 42.8009 35.5563 42.9122 35.3329L44.355 32.4482L45.7977 35.3329C45.909 35.5563 45.9679 35.8055 45.9679 36.0547V36.2902Z" fill="#C63E34"/>
<path d="M5.645 28.8418L2.75951 34.612C2.53693 35.0579 2.41919 35.5571 2.41919 36.0547V36.2902C2.41919 38.0692 3.86596 39.516 5.645 39.516C7.42403 39.516 8.8708 38.0692 8.8708 36.2902V36.0547C8.8708 35.5571 8.75306 35.0579 8.53048 34.612L5.645 28.8418ZM7.2579 36.2902C7.2579 37.1797 6.53451 37.9031 5.645 37.9031C4.75548 37.9031 4.03209 37.1797 4.03209 36.2902V36.0547C4.03209 35.8055 4.09096 35.5563 4.20225 35.3329L5.645 32.4482L7.08774 35.3329C7.19903 35.5563 7.2579 35.8055 7.2579 36.0547V36.2902Z" fill="#C63E34"/>
<path d="M25.8065 22.5807H24.1936V24.1936H25.8065V22.5807Z" fill="#C63E34"/>
<path d="M25.8065 25.8064H24.1936V27.4193H25.8065V25.8064Z" fill="#C63E34"/>
<path d="M25.8065 19.355H24.1936V20.9679H25.8065V19.355Z" fill="#C63E34"/>
<path d="M30.2846 25.0849C30.1346 25.1599 26.6128 26.9639 26.6128 30.6454H28.2257C28.2257 29.018 29.2451 27.8518 30.0491 27.1849C30.1975 27.7405 30.4071 28.322 30.6233 28.9204C31.3813 31.0196 32.1644 33.1889 30.8063 35.0002L32.0967 35.9672C33.9781 33.4599 32.9588 30.6389 32.141 28.3728C31.7862 27.3922 31.4515 26.4647 31.4515 25.8067V24.5018L30.2846 25.0849Z" fill="#C63E34"/>
<path d="M18.0445 36.1139L19.0517 34.8543C16.988 33.2034 17.7017 31.4365 19.0267 28.9284C19.3533 28.3099 19.6703 27.7107 19.8856 27.1317C20.6993 27.7897 21.7743 28.9752 21.7743 30.6454H23.3872C23.3872 26.9639 19.8654 25.1599 19.7154 25.0849L18.5485 24.5018V25.8067C18.5485 26.3825 18.0888 27.2534 17.6009 28.1752C16.4799 30.2978 14.7848 33.5059 18.0445 36.1139Z" fill="#C63E34"/>
<path d="M32.5814 36.0105L31.6765 37.4952C31.6693 37.5073 31.0241 38.5298 28.9959 39.2524C28.8056 37.0048 28.0306 36.271 27.0564 35.5831C26.3499 35.0847 25.7919 34.6911 25.7781 32.2532L25.7717 31.1024L24.6919 31.5016C24.5652 31.5484 21.5878 32.675 20.5225 35.3879C20.0814 36.5121 20.033 37.7234 20.3757 39.004C18.8927 38.3355 18.4459 37.5613 18.4451 37.5613L17.6346 35.9468L16.9741 37.6274C15.3644 41.7226 16.3572 44.5347 17.4733 46.1742C19.0822 48.5347 22.0096 50 25.1144 50C28.1394 50 30.8693 48.7185 32.4169 46.5734C33.5685 44.9766 34.6289 42.1314 33.1378 37.6492L32.5814 36.0105ZM31.1088 45.6298C29.8636 47.3564 27.6225 48.3871 25.1144 48.3871C22.5749 48.3871 20.0991 47.1621 18.808 45.2669C17.7233 43.675 17.4717 41.6944 18.0596 39.4823C18.7523 40.0435 19.854 40.679 21.5556 41.1048L23.2677 41.5331L22.4709 39.9589C21.7225 38.479 21.5709 37.1427 22.0217 35.9871C22.4773 34.8169 23.4685 34.0129 24.2338 33.5387C24.4556 35.5516 25.2007 36.2468 26.1281 36.9016C26.8475 37.4089 27.416 37.8097 27.4298 40.3274L27.4354 41.354L28.4322 41.104C30.1378 40.6782 31.2636 40.0379 31.9798 39.475C32.5402 41.9435 32.2467 44.0516 31.1088 45.6298Z" fill="#C63E34"/>
</svg>
