<svg width="50" height="32" viewBox="0 0 50 32" fill="none" xmlns="http://www.w3.org/2000/svg">
<path d="M48.1537 0H1.83486C0.825688 0 0 0.84706 0 1.88236V3.76471C0 4.80001 0.825688 5.64707 1.83486 5.64707H16.8349C17.2592 7.78824 19.117 9.41178 21.3303 9.41178H22.2477V13.1765H18.578V18.8236H24.0826V20.7059H25.9174V18.8236H31.422V13.1765H27.7523V9.41178H28.6697C30.883 9.41178 32.7408 7.78824 33.1651 5.64707H48.1651C49.1743 5.64707 50 4.80001 50 3.76471V1.88236C49.9885 0.84706 49.1743 0 48.1537 0ZM29.5872 16.9412H20.4128V15.0588H29.5872V16.9412ZM25.9174 13.1765H24.0826V9.41178H25.9174V13.1765ZM28.6697 7.52942H21.3303C20.1376 7.52942 19.1284 6.74118 18.75 5.64707H31.25C30.8716 6.74118 29.8624 7.52942 28.6697 7.52942ZM1.83486 3.76471V1.88236H48.1537V3.76471H1.83486Z" fill="#C63E34"/>
<path d="M6.21535 23.5298L4.63278 22.5651C4.31168 23.1298 4.00204 23.718 3.73828 24.318L5.40113 25.1062C5.65342 24.5651 5.92865 24.0357 6.21535 23.5298Z" fill="#C63E34"/>
<path d="M2.50024 28.0585L4.28924 28.482C4.41538 27.9055 4.57593 27.3291 4.75942 26.7644L3.02777 26.1526C2.82135 26.7761 2.64933 27.4232 2.50024 28.0585Z" fill="#C63E34"/>
<path d="M2.06421 31.9998H3.89907C3.89907 31.4116 3.93348 30.8234 4.00228 30.2351L2.17889 30.0116C2.09861 30.6822 2.06421 31.341 2.06421 31.9998Z" fill="#C63E34"/>
<path d="M17.0184 13.9175C16.3762 14.0116 15.734 14.141 15.1147 14.3057L15.5849 16.1292C16.1354 15.9763 16.7088 15.8587 17.2822 15.7763L17.0184 13.9175Z" fill="#C63E34"/>
<path d="M5.71118 20.918L7.17907 22.0356C7.52311 21.5533 7.90155 21.0944 8.27999 20.6591L6.92678 19.3885C6.50247 19.8827 6.08962 20.3886 5.71118 20.918Z" fill="#C63E34"/>
<path d="M11.5024 15.7528L12.3625 17.4116C12.8671 17.1292 13.3946 16.8822 13.9336 16.6704L13.2685 14.9175C12.6722 15.1645 12.0758 15.4469 11.5024 15.7528Z" fill="#C63E34"/>
<path d="M8.32568 18.0118L9.52981 19.4236C9.96559 19.0353 10.4243 18.6706 10.8945 18.3294L9.85091 16.7765C9.32339 17.1647 8.80733 17.5765 8.32568 18.0118Z" fill="#C63E34"/>
<path d="M47.9356 31.9998C47.9356 31.341 47.9012 30.6822 47.821 30.0116L45.9976 30.2234C46.0664 30.8116 46.1008 31.4116 46.1008 31.9881H47.9356V31.9998Z" fill="#C63E34"/>
<path d="M43.7729 23.5298C44.0711 24.0357 44.3349 24.5651 44.5757 25.1062L46.2385 24.318C45.9748 23.718 45.6651 23.1298 45.344 22.5651L43.7729 23.5298Z" fill="#C63E34"/>
<path d="M43.0502 19.3885L41.697 20.6591C42.0869 21.0944 42.4539 21.5533 42.7979 22.0356L44.2658 20.918C43.8989 20.3886 43.486 19.8827 43.0502 19.3885Z" fill="#C63E34"/>
<path d="M39.0942 18.3412C39.5644 18.6706 40.0231 19.0471 40.4589 19.4353L41.663 18.0236C41.1814 17.5883 40.6653 17.1765 40.1378 16.8L39.0942 18.3412Z" fill="#C63E34"/>
<path d="M34.8855 14.3057C34.2662 14.141 33.624 14.0116 32.9818 13.9175L32.7295 15.7763C33.3029 15.8587 33.8648 15.9763 34.4267 16.1292L34.8855 14.3057Z" fill="#C63E34"/>
<path d="M45.2295 26.7644C45.413 27.3291 45.5735 27.9055 45.6997 28.482L47.4887 28.0585C47.3511 27.4232 47.1676 26.7761 46.9611 26.1526L45.2295 26.7644Z" fill="#C63E34"/>
<path d="M36.0549 16.6704C36.5939 16.8822 37.1214 17.1292 37.626 17.4116L38.4861 15.7528C37.9127 15.4469 37.3279 15.1645 36.7201 14.9175L36.0549 16.6704Z" fill="#C63E34"/>
<path d="M25.9174 26.353H24.0825V28.2354H25.9174V26.353Z" fill="#C63E34"/>
<path d="M25.9174 30.1176H24.0825V31.9999H25.9174V30.1176Z" fill="#C63E34"/>
<path d="M25.9174 22.5885H24.0825V24.4709H25.9174V22.5885Z" fill="#C63E34"/>
<path d="M11.5022 23.5298L9.91964 22.5651C9.59854 23.1298 9.28891 23.718 9.02515 24.318L10.688 25.1062C10.9403 24.5651 11.204 24.0357 11.5022 23.5298Z" fill="#C63E34"/>
<path d="M7.78687 28.0585L9.57586 28.482C9.702 27.9055 9.86255 27.3291 10.046 26.7644L8.31439 26.1526C8.0965 26.7761 7.92448 27.4232 7.78687 28.0585Z" fill="#C63E34"/>
<path d="M7.33936 31.9998H9.17422C9.17422 31.4116 9.20862 30.8234 9.27743 30.2351L7.45403 30.0116C7.38523 30.6822 7.33936 31.341 7.33936 31.9998Z" fill="#C63E34"/>
<path d="M10.9866 20.918L12.4545 22.0356C12.7985 21.5533 13.1769 21.0944 13.5554 20.6591L12.2022 19.3885C11.7893 19.8827 11.3765 20.3886 10.9866 20.918Z" fill="#C63E34"/>
<path d="M13.6467 18.2351L14.7362 19.741C15.1949 19.3881 15.688 19.0586 16.1811 18.7645L15.2637 17.141C14.7132 17.4704 14.1628 17.8351 13.6467 18.2351Z" fill="#C63E34"/>
<path d="M16.7774 23.5298L15.1948 22.5651C14.8737 23.1298 14.5641 23.718 14.3003 24.318L15.9631 25.1062C16.2154 24.5651 16.4907 24.0357 16.7774 23.5298Z" fill="#C63E34"/>
<path d="M13.062 28.0585L14.851 28.482C14.9771 27.9055 15.1377 27.3291 15.3212 26.7644L13.5895 26.1526C13.3831 26.7761 13.1996 27.4232 13.062 28.0585Z" fill="#C63E34"/>
<path d="M12.626 32.0001H14.4608C14.4608 31.4118 14.4952 30.8236 14.5641 30.2353L12.7407 30.0236C12.6604 30.6824 12.626 31.3412 12.626 32.0001Z" fill="#C63E34"/>
<path d="M16.2729 20.918L17.7408 22.0356C18.0849 21.5533 18.4633 21.0944 18.8418 20.6591L17.4885 19.3885C17.0642 19.8827 16.6514 20.3886 16.2729 20.918Z" fill="#C63E34"/>
<path d="M21.8692 23.7648L20.2866 22.8C19.9655 23.3648 19.6559 23.953 19.3921 24.553L21.0549 25.3412C21.3072 24.8001 21.571 24.2706 21.8692 23.7648Z" fill="#C63E34"/>
<path d="M18.4519 28.0585L20.2409 28.482C20.367 27.9055 20.5276 27.3291 20.7111 26.7644L18.9794 26.1526C18.773 26.7761 18.601 27.4232 18.4519 28.0585Z" fill="#C63E34"/>
<path d="M18.0161 32.0001H19.851C19.851 31.4118 19.8854 30.8236 19.9542 30.2353L18.1308 30.0236C18.0505 30.6824 18.0161 31.3412 18.0161 32.0001Z" fill="#C63E34"/>
<path d="M23.3374 21.2237L21.7548 20.259C21.4337 20.8237 21.1241 21.412 20.8604 22.012L22.5232 22.8002C22.764 22.2708 23.0393 21.7414 23.3374 21.2237Z" fill="#C63E34"/>
<path d="M39.2661 25.1062L40.929 24.318C40.6652 23.718 40.3556 23.1298 40.0345 22.5651L38.4519 23.5298C38.7501 24.0357 39.0253 24.5651 39.2661 25.1062Z" fill="#C63E34"/>
<path d="M41.6513 26.1526L39.9197 26.7644C40.1032 27.3291 40.2637 27.9055 40.3899 28.482L42.1788 28.0585C42.0298 27.4232 41.8578 26.7761 41.6513 26.1526Z" fill="#C63E34"/>
<path d="M42.4999 30.0116L40.6765 30.2234C40.7453 30.8116 40.7797 31.4116 40.7797 31.9881H42.6146C42.6146 31.341 42.5802 30.6822 42.4999 30.0116Z" fill="#C63E34"/>
<path d="M38.9682 20.918C38.5898 20.3886 38.1655 19.8709 37.7412 19.3885L36.3879 20.6591C36.7778 21.0944 37.1448 21.5533 37.4889 22.0356L38.9682 20.918Z" fill="#C63E34"/>
<path d="M34.6904 17.141L33.7729 18.7645C34.2661 19.0586 34.7592 19.3881 35.2179 19.741L36.3074 18.2351C35.7913 17.8351 35.2408 17.4704 34.6904 17.141Z" fill="#C63E34"/>
<path d="M33.991 25.1062L35.6538 24.318C35.3901 23.718 35.0804 23.1298 34.7593 22.5651L33.1768 23.5298C33.4749 24.0357 33.7387 24.5651 33.991 25.1062Z" fill="#C63E34"/>
<path d="M36.3647 26.1526L34.6331 26.7644C34.8165 27.3291 34.9771 27.9055 35.1032 28.482L36.8922 28.0585C36.7546 27.4232 36.5711 26.7761 36.3647 26.1526Z" fill="#C63E34"/>
<path d="M37.2248 30.0116L35.4014 30.2234C35.4702 30.8116 35.5046 31.4116 35.5046 31.9881H37.3394C37.3394 31.341 37.2936 30.6822 37.2248 30.0116Z" fill="#C63E34"/>
<path d="M32.454 19.4L31.1008 20.6706C31.4907 21.1059 31.8577 21.5647 32.2017 22.0471L33.6696 20.9294C33.3027 20.3883 32.8898 19.8824 32.454 19.4Z" fill="#C63E34"/>
<path d="M28.8992 25.3412L30.562 24.553C30.2983 23.953 29.9886 23.3648 29.6675 22.8L28.085 23.7648C28.3831 24.2706 28.6584 24.8001 28.8992 25.3412Z" fill="#C63E34"/>
<path d="M30.9748 26.1526L29.2432 26.7644C29.4267 27.3291 29.5872 27.9055 29.7133 28.482L31.5023 28.0585C31.3533 27.4232 31.1812 26.7761 30.9748 26.1526Z" fill="#C63E34"/>
<path d="M31.8234 30.0116L30 30.2234C30.0688 30.8116 30.1032 31.4116 30.1032 31.9881H31.9381C31.9381 31.341 31.9037 30.6822 31.8234 30.0116Z" fill="#C63E34"/>
<path d="M27.4312 22.8002L29.094 22.012C28.8303 21.412 28.5206 20.8237 28.1995 20.259L26.6169 21.2237C26.9151 21.7414 27.1903 22.2708 27.4312 22.8002Z" fill="#C63E34"/>
<rect x="19.9956" y="8.80005" width="1.53811" height="4.80001" fill="#C63E34"/>
<rect x="28.4551" y="8.80005" width="1.53811" height="4.80001" fill="#C63E34"/>
<rect x="23.8408" y="8.80005" width="2.30716" height="4.80001" fill="#C63E34"/>
<rect x="21.0938" y="8.80005" width="2.34375" height="4.80001" fill="white"/>
<rect x="26.5625" y="8.80005" width="2.34375" height="4.80001" fill="white"/>
</svg>
