<svg width="50" height="40" viewBox="0 0 50 40" fill="none" xmlns="http://www.w3.org/2000/svg">
<path d="M48.0485 0H1.88434C0.87492 0 0.0673828 0.801327 0.0673828 1.80299V3.60597C0.0673828 4.60763 0.87492 5.40896 1.88434 5.40896H16.8238C17.2275 7.47905 19.1118 9.01493 21.3325 9.01493H22.2747V12.6877H18.6407V18.0966H24.0916V19.8996H25.9086V18.0966H31.3594V12.6877H27.7255V9.08171H28.6677C30.8884 9.08171 32.7053 7.54583 33.1764 5.47574H48.1158C49.1253 5.47574 49.9328 4.67441 49.9328 3.67275V1.80299C49.8655 0.801327 49.058 0 48.0485 0ZM29.5425 16.2937H20.3904V14.4907H29.5425V16.2937ZM25.9086 12.6877H24.0916V9.08171H25.9086V12.6877ZM28.6004 7.27872H21.3325C20.1212 7.27872 19.1118 6.54417 18.7753 5.47574H31.2249C30.8211 6.47739 29.8117 7.27872 28.6004 7.27872ZM1.88434 3.60597V1.80299H48.0485V3.60597H1.88434Z" fill="#C63E34"/>
<path d="M6.79677 34.2571C7.40242 34.2571 8.07537 34.1903 8.68102 33.99C10.6326 37.5959 15.074 39.065 18.7752 37.3288C20.3903 39.065 22.6783 39.9999 25.0336 39.9999C27.389 39.9999 29.677 39.065 31.2921 37.3288C34.9933 39.1318 39.502 37.6627 41.3863 34.0567C41.9919 34.2571 42.5976 34.3238 43.2705 34.3238C46.9717 34.3238 50 31.3189 50 27.6461C50 23.9734 46.9717 20.9684 43.2705 20.9684C42.7322 20.9684 42.3284 21.3691 42.3284 21.9033C42.3284 22.4375 42.7322 22.8382 43.2705 22.8382C45.2221 22.8382 46.9717 24.0401 47.712 25.8431C48.4522 27.6461 47.9812 29.7162 46.568 31.0518C45.1548 32.3873 43.0686 32.788 41.2517 31.9866C40.9825 31.8531 40.7133 31.8531 40.5114 31.9866C40.3096 32.1202 40.1077 32.2537 39.9731 32.5209C39.3674 34.1235 38.0888 35.3923 36.4065 35.9265C34.7914 36.4607 32.9744 36.2604 31.4939 35.3255C31.0902 35.0584 30.5518 35.1919 30.2153 35.5258C29.004 37.1285 27.0525 38.0634 25.0336 38.0634C23.0148 38.0634 20.996 37.1285 19.7174 35.5258C19.3809 35.1252 18.8425 35.0584 18.4388 35.3255C16.9583 36.2604 15.2086 36.4607 13.5262 35.9265C11.9112 35.3923 10.5653 34.1235 9.95962 32.5209C9.89233 32.2537 9.69044 32.0534 9.42127 31.9866C9.15209 31.8531 8.88291 31.9199 8.68102 31.9866C6.93136 32.7212 4.84522 32.3205 3.43203 30.985C2.01884 29.6494 1.54778 27.5793 2.28802 25.7764C3.02826 23.9734 4.77793 22.7714 6.72948 22.7714C7.26783 22.7714 7.6716 22.3707 7.6716 21.8365C7.6716 21.3023 7.26783 20.9016 6.72948 20.9016C3.02826 20.9016 0 23.9066 0 27.5793C0 31.2521 3.09556 34.2571 6.79677 34.2571Z" fill="#C63E34"/>
<path d="M18.1022 18.3643C17.7657 17.9636 17.1601 17.8969 16.7563 18.2307L6.19103 26.845C5.92185 27.0453 5.78726 27.3792 5.85455 27.7131C5.85455 28.047 6.12373 28.3809 6.4602 28.4477C6.79668 28.5812 7.13315 28.5144 7.40233 28.3141L17.9676 19.7666C18.3714 19.4327 18.4387 18.8317 18.1022 18.3643Z" fill="#C63E34"/>
<path d="M43.2705 28.5144C43.6742 28.5144 44.0107 28.2473 44.1453 27.9134C44.2799 27.5128 44.1453 27.1121 43.8761 26.845L33.3108 18.2307C32.9071 17.8969 32.3014 17.9636 31.9649 18.3643C31.6285 18.765 31.6958 19.366 32.0995 19.6998L42.6648 28.2473C42.7994 28.4477 43.0013 28.5144 43.2705 28.5144Z" fill="#C63E34"/>
<path d="M24.0916 19.0329V31.3867C24.0916 31.9209 24.4953 32.3216 25.0337 32.3216C25.572 32.3216 25.9758 31.9209 25.9758 31.3867V19.0329C25.9758 18.4987 25.572 18.098 25.0337 18.098C24.4953 18.098 24.0916 18.4987 24.0916 19.0329Z" fill="#C63E34"/>
<path d="M14.9395 32.1869C15.4105 32.454 16.0162 32.3204 16.2854 31.853L19.1791 27.1118C19.3809 26.8447 19.3809 26.444 19.1791 26.1769C19.0445 25.843 18.708 25.7095 18.3715 25.7095C18.035 25.7095 17.6986 25.9098 17.4967 26.1769L14.603 30.9181C14.3338 31.3188 14.4684 31.9198 14.9395 32.1869Z" fill="#C63E34"/>
<path d="M31.2246 25.7765C30.7536 26.0436 30.619 26.6446 30.8882 27.112L33.7818 31.8532C33.9837 32.1203 34.2529 32.3207 34.6567 32.3207C34.9932 32.3207 35.3296 32.1203 35.4642 31.8532C35.5988 31.5193 35.5988 31.1855 35.4642 30.9183L32.5705 26.1772C32.3014 25.7097 31.6957 25.5094 31.2246 25.7765Z" fill="#C63E34"/>
</svg>
