<svg width="50" height="47" viewBox="0 0 50 47" fill="none" xmlns="http://www.w3.org/2000/svg">
<path d="M11.7706 1.45359C11.3663 1.45359 11.0369 1.12933 11.0369 0.728203C11.0369 0.326974 11.3663 0 11.7706 0H46.6145C47.5474 0 48.3944 0.379224 49.0062 0.986544C49.6207 1.59658 50 2.43742 50 3.36338C50 4.28662 49.6207 5.12757 49.0062 5.7376C48.3943 6.34492 47.5474 6.72415 46.6145 6.72415H42.7694C42.3651 6.72415 42.0357 6.39717 42.0357 5.99594C42.0357 5.59471 42.3651 5.27045 42.7694 5.27045H46.6145C47.1432 5.27045 47.6221 5.05612 47.9709 4.70996C48.3197 4.36369 48.5356 3.88549 48.5356 3.36338C48.5356 2.83856 48.3197 2.36036 47.9709 2.01419C47.6222 1.66793 47.1432 1.45359 46.6145 1.45359H11.7706ZM24.2692 26.9239C24.2692 26.5227 24.5959 26.1984 25 26.1984C25.4041 26.1984 25.7336 26.5228 25.7336 26.9239V37.2918C25.7336 37.6929 25.4042 38.0171 25 38.0171C24.5958 38.0171 24.2692 37.6928 24.2692 37.2918V26.9239ZM30.2153 27.2648C30.0271 26.9129 30.1601 26.4733 30.5171 26.2864C30.8715 26.0967 31.3144 26.2315 31.5026 26.5831L37.0502 36.8548C37.2412 37.2092 37.1056 37.6462 36.7512 37.8358C36.3941 38.0226 35.9513 37.8907 35.763 37.5363L30.2153 27.2648ZM39.8295 45.0683C39.6385 44.7139 39.7741 44.277 40.1284 44.0873C40.4855 43.9005 40.9256 44.0324 41.1166 44.3868L41.8557 45.7581C42.0467 46.1098 41.911 46.5494 41.5567 46.7363C41.1997 46.9259 40.7596 46.7913 40.5686 46.4396L39.8295 45.0683ZM37.4267 40.6167C37.2356 40.2649 37.3713 39.8253 37.7256 39.6384C38.0826 39.4489 38.5229 39.5835 38.7138 39.9351L39.4529 41.3064C39.6439 41.6581 39.5083 42.0977 39.154 42.2873C38.797 42.4742 38.3567 42.3422 38.1657 41.9878L37.4267 40.6167ZM18.4974 26.5832C18.6856 26.2315 19.1285 26.0967 19.4856 26.2865C19.84 26.4733 19.9757 26.913 19.7847 27.2649L14.2371 37.5365C14.0488 37.8909 13.606 38.0228 13.2516 37.836C12.8945 37.6464 12.7615 37.2094 12.9498 36.855L18.4974 26.5832ZM8.88603 44.3868C9.07432 44.0324 9.51729 43.9005 9.87158 44.0873C10.2286 44.277 10.3616 44.7139 10.1733 45.0683L9.43145 46.4395C9.24316 46.7912 8.80029 46.9258 8.4459 46.7362C8.08887 46.5493 7.95596 46.1097 8.14414 45.758L8.88603 44.3868ZM11.289 39.9352C11.4771 39.5835 11.9201 39.4489 12.2745 39.6385C12.6315 39.8254 12.7645 40.265 12.5763 40.6168L11.8343 41.988C11.6461 42.3424 11.2031 42.4744 10.8487 42.2875C10.4917 42.0979 10.3588 41.6583 10.547 41.3066L11.289 39.9352ZM28.5185 31.4332C28.405 31.0485 28.6264 30.6474 29.014 30.5346C29.4015 30.4219 29.8084 30.6417 29.9219 31.0237L30.3178 32.3509C30.4313 32.7357 30.2099 33.1396 29.8223 33.2523C29.4376 33.3649 29.0307 33.1452 28.9171 32.7604L28.5185 31.4332ZM27.2284 27.1299C27.1149 26.7453 27.3363 26.3413 27.7239 26.2287C28.1115 26.116 28.5185 26.3358 28.6319 26.7205L29.0278 28.045C29.1413 28.4298 28.9199 28.8337 28.5323 28.9464C28.1476 29.059 27.7406 28.8392 27.6271 28.4545L27.2284 27.1299ZM20.0809 31.0237C20.1943 30.6418 20.6013 30.4219 20.9861 30.5346C21.3737 30.6473 21.5951 31.0485 21.4816 31.4332L21.0857 32.7604C20.9723 33.1452 20.5653 33.3649 20.1777 33.2523C19.7901 33.1396 19.5688 32.7357 19.6822 32.3509L20.0809 31.0237ZM21.3709 26.7206C21.4844 26.3359 21.8886 26.1161 22.2761 26.2288C22.6637 26.3414 22.8851 26.7454 22.7716 27.13L22.3757 28.4546C22.2594 28.8393 21.8553 29.0591 21.4678 28.9464C21.0802 28.8338 20.8588 28.4299 20.9723 28.0451L21.3709 26.7206ZM37.1442 30.4742C36.8453 30.2049 36.8231 29.7488 37.0917 29.452C37.3629 29.1552 37.8253 29.1332 38.1215 29.3997L39.1568 30.3286C39.4558 30.5978 39.4779 31.0539 39.2095 31.3508C38.9382 31.6475 38.4758 31.6695 38.1769 31.403L37.1442 30.4742ZM33.7892 27.4599C33.4901 27.1932 33.4681 26.7343 33.7366 26.4376C34.0078 26.1436 34.4674 26.1187 34.7664 26.388L35.8018 27.3168C36.1007 27.5835 36.1229 28.0423 35.8517 28.3391C35.5831 28.636 35.1209 28.6579 34.8218 28.3887L33.7892 27.4599ZM11.8786 29.3997C12.1776 29.1332 12.6371 29.1552 12.9084 29.452C13.1796 29.7487 13.1548 30.2049 12.8558 30.4742L11.8232 31.403C11.5242 31.6695 11.0646 31.6475 10.7935 31.3508C10.5222 31.054 10.5471 30.5978 10.846 30.3286L11.8786 29.3997ZM15.2336 26.388C15.5326 26.1187 15.9949 26.1436 16.2635 26.4376C16.5347 26.7343 16.5098 27.1932 16.2136 27.4599L15.1782 28.3887C14.8793 28.6579 14.4196 28.636 14.1484 28.3391C13.8771 28.0423 13.9021 27.5835 14.201 27.3168L15.2336 26.388ZM24.2692 44.8896C24.2692 44.4884 24.5959 44.1643 25 44.1643C25.4041 44.1643 25.7336 44.4885 25.7336 44.8896V46.2746C25.7336 46.6758 25.4042 47 25 47C24.5958 47 24.2692 46.6757 24.2692 46.2746V44.8896ZM24.2692 40.3996C24.2692 39.9984 24.5959 39.6713 25 39.6713C25.4041 39.6713 25.7336 39.9984 25.7336 40.3996V41.7818C25.7336 42.183 25.4042 42.5101 25 42.5101C24.5958 42.5101 24.2692 42.183 24.2692 41.7818V40.3996ZM21.4234 19.5485C21.4234 19.1445 21.7528 18.8203 22.157 18.8203C22.5612 18.8203 22.8878 19.1445 22.8878 19.5485V21.4282C22.8878 21.8321 22.5611 22.1564 22.157 22.1564C21.7529 22.1564 21.4234 21.8321 21.4234 21.4282V19.5485ZM27.1122 19.5485C27.1122 19.1445 27.4389 18.8203 27.8458 18.8203C28.25 18.8203 28.5766 19.1445 28.5766 19.5485V21.4282C28.5766 21.8321 28.2499 22.1564 27.8458 22.1564C27.4389 22.1564 27.1122 21.8321 27.1122 21.4282V19.5485ZM24.2692 19.5485C24.2692 19.1445 24.5959 18.8203 25 18.8203C25.4041 18.8203 25.7336 19.1445 25.7336 19.5485V21.4282C25.7336 21.8321 25.4042 22.1564 25 22.1564C24.5958 22.1564 24.2692 21.8321 24.2692 21.4282V19.5485ZM28.1974 11.7445L33.7061 9.01306V6.72415H28.1974V11.7445ZM35.1705 6.72415V9.4582C35.1705 9.72207 35.0211 9.9775 34.7636 10.1039L28.1974 13.3657V16.2785H33.1055C33.3407 16.2785 33.5483 16.3884 33.684 16.5588C33.8474 16.7676 33.8833 17.0506 33.7781 17.2953L31.4279 24.2007C31.3282 24.4947 31.0487 24.6981 30.7358 24.6981H26.6582C26.254 24.6981 25.9274 24.3711 25.9274 23.9699C25.9274 23.5687 26.2541 23.2417 26.6582 23.2417H30.2127L32.0868 17.7348C27.3643 17.7348 22.6388 17.7348 17.9134 17.7348L19.7874 23.2417H23.3418C23.746 23.2417 24.0754 23.5687 24.0754 23.9699C24.0754 24.3711 23.746 24.6981 23.3418 24.6981H19.2642C18.9208 24.6981 18.633 24.4618 18.5555 24.1458L16.2024 17.2375C16.1193 16.9874 16.1803 16.7237 16.3381 16.5368C16.4738 16.3773 16.6842 16.2785 16.8945 16.2785H21.8026V13.3657L15.2363 10.1039C14.99 9.98303 14.8294 9.73302 14.8294 9.4582V6.72415H3.38828C2.45537 6.72415 1.6083 6.34492 0.99375 5.7376C0.382031 5.12766 0 4.28672 0 3.36338C0 2.43733 0.382031 1.59658 0.993848 0.986544C1.6084 0.379224 2.45547 0 3.38838 0H8.45156C8.85576 0 9.18516 0.326974 9.18516 0.728203C9.18516 1.12943 8.85576 1.45359 8.45156 1.45359H3.38828C2.85957 1.45359 2.37783 1.66793 2.0291 2.01419C1.68037 2.36036 1.46445 2.83856 1.46445 3.36338C1.46445 3.88549 1.68037 4.36359 2.0291 4.70996C2.37783 5.05612 2.85957 5.27045 3.38828 5.27045H39.4502C39.8544 5.27045 40.1838 5.59481 40.1838 5.99594C40.1838 6.39717 39.8544 6.72415 39.4502 6.72415H35.1705ZM16.2967 6.72415V9.01306L21.8027 11.7445V6.72415H16.2967ZM23.2671 6.72415V16.2786H26.7329V6.72415H23.2671Z" fill="#C63F35"/>
</svg>
