<svg width="70" height="70" viewBox="0 0 70 70" fill="none" xmlns="http://www.w3.org/2000/svg">
<g clip-path="url(#clip0)">
<path d="M65.2379 6.31237V6.03885C65.2379 5.47268 64.779 5.01367 64.2127 5.01367C63.6464 5.01367 63.1875 5.47268 63.1875 6.03885V6.31237C63.1875 6.87854 63.6464 7.33754 64.2127 7.33754C64.779 7.33754 65.2379 6.87854 65.2379 6.31237Z" fill="#C63E34"/>
<path d="M63.1875 28.8015V29.0751C63.1875 29.6412 63.6464 30.1002 64.2127 30.1002C64.779 30.1002 65.2379 29.6412 65.2379 29.0751V28.8015C65.2379 28.2354 64.779 27.7764 64.2127 27.7764C63.6464 27.7764 63.1875 28.2354 63.1875 28.8015Z" fill="#C63E34"/>
<path d="M12.248 6.03885V6.31237C12.248 6.87854 12.7069 7.33754 13.2732 7.33754C13.8395 7.33754 14.2984 6.87854 14.2984 6.31237V6.03885C14.2984 5.47268 13.8395 5.01367 13.2732 5.01367C12.7069 5.01367 12.248 5.47268 12.248 6.03885Z" fill="#C63E34"/>
<path d="M67.572 35.1135C68.9072 35.1135 69.9935 34.0272 69.9935 32.692V2.42147C69.9935 1.08628 68.907 0 67.572 0H60.9927C60.4264 0 59.9675 0.459007 59.9675 1.02518C59.9675 1.59135 60.4264 2.05036 60.9927 2.05036H67.572C67.7766 2.05036 67.9431 2.21685 67.9431 2.42147V32.6921C67.9431 32.8967 67.7766 33.0632 67.572 33.0632H62.5084V25.535C63.2322 25.1506 64.0372 24.9464 64.8676 24.9464C65.4339 24.9464 65.8927 24.4874 65.8927 23.9212V11.1924C65.8927 10.6262 65.4339 10.1672 64.8676 10.1672C62.0877 10.1672 59.8261 7.90563 59.8261 5.12589C59.8261 4.55972 59.3673 4.10071 58.801 4.10071H18.6851C18.1188 4.10071 17.6599 4.55972 17.6599 5.12589C17.6599 7.90563 15.3983 10.1672 12.6186 10.1672C12.0523 10.1672 11.5934 10.6262 11.5934 11.1924V14.6877H9.54306V2.42147C9.54306 2.21685 9.70955 2.05036 9.91418 2.05036H56.8936C57.4599 2.05036 57.9188 1.59135 57.9188 1.02518C57.9188 0.459007 57.4599 0 56.8936 0H9.91418C8.57899 0 7.49271 1.08628 7.49271 2.42147V14.6878H2.42928C1.09409 14.6878 0.0078125 15.7741 0.0078125 17.1091V47.3798C0.0078125 48.715 1.09409 49.8013 2.42928 49.8013H4.08556C3.1372 51.6833 2.60206 53.8078 2.60206 56.0551C2.60206 63.7444 8.85784 70.0001 16.5471 70.0001C18.2222 70.0001 19.8293 69.703 21.3184 69.1591C21.8229 69.6874 22.5278 70.0001 23.2918 70.0001H36.4634C37.9707 70.0001 39.1971 68.7739 39.1971 67.2666V65.3121C39.1971 64.6658 38.9705 64.072 38.594 63.6036C38.9705 63.1351 39.1971 62.5415 39.1971 61.8952V59.9407C39.1971 59.69 39.1603 59.4482 39.0969 59.2173C40.3914 59.0026 41.3825 57.8782 41.3825 56.5237V54.5692C41.3825 53.0619 40.1563 51.8356 38.649 51.8356H29.8387C29.6148 51.1317 29.3363 50.4519 29.0083 49.8011H42.1413C42.6679 57.0135 48.7039 62.7208 56.0484 62.7208C59.1635 62.7208 62.1104 61.7156 64.5703 59.8137C65.0182 59.4675 65.1006 58.8235 64.7544 58.3756C64.408 57.9274 63.7641 57.8452 63.3163 58.1915C61.2186 59.8131 58.7056 60.6703 56.0484 60.6703C49.4898 60.6703 44.1538 55.3345 44.1538 48.7758C44.1538 42.2171 49.4896 36.8811 56.0484 36.8811C62.6073 36.8811 67.9431 42.217 67.9431 48.7758C67.9431 51.1656 67.2372 53.4702 65.9019 55.4403C65.5842 55.909 65.7066 56.5465 66.1753 56.8641C66.6439 57.1817 67.2812 57.0594 67.5991 56.5907C69.1655 54.2796 69.9935 51.5773 69.9935 48.7758C69.9935 43.4164 66.9539 38.7542 62.5084 36.4205V35.1132H67.572V35.1135ZM13.6439 12.1437C16.7357 11.6943 19.187 9.24287 19.6364 6.15121H57.8499C58.2993 9.24301 60.7507 11.6943 63.8425 12.1437V22.9697C63.3867 23.0358 62.9408 23.1485 62.5086 23.3009V17.1091C62.5086 15.7739 61.4223 14.6878 60.0871 14.6878H39.6941V12.6623C40.6239 12.7806 41.3349 13.1216 41.3545 13.1312C41.8598 13.3825 42.4738 13.1781 42.7273 12.6728C42.9811 12.1667 42.7766 11.5508 42.2706 11.2968C42.204 11.2634 41.1229 10.732 39.694 10.6023V10.0387C39.694 9.47251 39.2351 9.0135 38.6688 9.0135C38.1025 9.0135 37.6436 9.47251 37.6436 10.0387V10.7456C36.3971 11.0596 35.5442 11.8874 35.1362 12.9809C34.9262 13.5437 34.8557 14.1315 34.9173 14.6878H13.6439V12.1437ZM37.0009 14.6878C36.9145 14.3976 36.9315 14.0352 37.0574 13.6978C37.1344 13.4911 37.3048 13.1626 37.6438 12.9406V14.6878H37.0009ZM4.65228 56.0551C4.65228 49.4966 9.98813 44.1606 16.5469 44.1606C23.1058 44.1606 28.4416 49.4964 28.4416 56.0551C28.4416 62.6138 23.1058 67.9498 16.5469 67.9498C9.98813 67.9498 4.65228 62.6138 4.65228 56.0551ZM37.1467 59.9407V61.8952C37.1467 62.2719 36.8403 62.5784 36.4634 62.5784H28.8688C29.4198 61.5417 29.8441 60.428 30.1202 59.2574H36.4633C36.8403 59.2574 37.1467 59.5638 37.1467 59.9407ZM37.1467 67.2665C37.1467 67.6432 36.8403 67.9496 36.4634 67.9496H23.8182C25.2478 67.0725 26.508 65.9451 27.5373 64.6286H36.4634C36.8403 64.6286 37.1467 64.9351 37.1467 65.3119V67.2665ZM38.6488 53.8861C39.0256 53.8861 39.332 54.1926 39.332 54.5693V56.5238C39.332 56.9005 39.0256 57.207 38.6488 57.207H36.4634H30.444C30.4753 56.827 30.492 56.443 30.492 56.0551C30.492 55.3174 30.4339 54.5931 30.323 53.8861H38.6488ZM25.877 45.7005H42.446C42.2952 46.3673 42.1924 47.052 42.1413 47.7509H27.7427C27.1895 47.0072 26.5642 46.3203 25.877 45.7005ZM58.4077 35.0317V25.8801C58.4077 25.314 57.9488 24.855 57.3825 24.855C54.6028 24.855 52.3413 22.5934 52.3413 19.8137C52.3413 19.2475 51.8824 18.7885 51.3161 18.7885H11.2003C10.634 18.7885 10.1751 19.2475 10.1751 19.8137C10.1751 22.5934 7.91358 24.855 5.1337 24.855C4.5674 24.855 4.10853 25.314 4.10853 25.8801V30.1951C4.10853 30.7612 4.5674 31.2202 5.1337 31.2202C5.70001 31.2202 6.15888 30.7612 6.15888 30.1951V26.8315C9.25068 26.3821 11.7021 23.9307 12.1515 20.8389H50.365C50.8144 23.9307 53.2657 26.3821 56.3575 26.8315V34.8352C56.2547 34.833 56.1519 34.8312 56.0486 34.8312C50.1683 34.8312 45.1265 38.4898 43.0797 43.6503H22.9128C21.0033 42.6664 18.8388 42.1104 16.5469 42.1104C14.9523 42.1104 13.4197 42.3802 11.9915 42.8753C11.2756 40.1445 8.97443 38.0684 6.15888 37.6579V34.2941C6.15888 33.728 5.70001 33.269 5.1337 33.269C4.5674 33.269 4.10853 33.728 4.10853 34.2941V38.609C4.10853 39.1753 4.5674 39.6342 5.1337 39.6342C7.56734 39.6342 9.62426 41.3757 10.079 43.7042C8.21553 44.684 6.5993 46.0726 5.35118 47.7509H2.42928C2.22466 47.7509 2.05817 47.5844 2.05817 47.3798V17.1091C2.05817 16.9045 2.22466 16.7382 2.42928 16.7382H60.087C60.2916 16.7382 60.4581 16.9046 60.4581 17.1091V24.9501V24.9533V35.5461C59.7953 35.3246 59.1103 35.1519 58.4077 35.0317Z" fill="#C63E34"/>
<path d="M27.5315 38.0798C28.5585 38.7516 29.279 38.9803 30.1587 39.0508V39.7626C30.1587 40.3289 30.6176 40.7878 31.1839 40.7878C31.7502 40.7878 32.2091 40.3289 32.2091 39.7626V38.9547C33.9943 38.5187 35.1392 37.0014 35.3907 35.5052C35.7168 33.5658 34.7037 31.88 32.8097 31.2105C32.612 31.1407 32.4106 31.0681 32.2089 30.9929V27.3498C33.1372 27.4679 33.8476 27.8083 33.8692 27.8187C34.3747 28.0703 34.9887 27.8656 35.2421 27.3605C35.4959 26.8543 35.2915 26.2384 34.7854 25.9844C34.7189 25.9511 33.6378 25.4195 32.2089 25.2898V24.7264C32.2089 24.1602 31.7501 23.7012 31.1838 23.7012C30.6175 23.7012 30.1586 24.1602 30.1586 24.7264V25.4332C30.0803 25.4529 30.0019 25.4743 29.9235 25.498C28.6678 25.8762 27.7301 26.9484 27.4762 28.2964C27.2434 29.5318 27.6436 30.7265 28.5205 31.4142C28.9439 31.7464 29.4617 32.0508 30.1586 32.3683V36.9895C29.6397 36.9241 29.2577 36.7589 28.6538 36.3639C28.1797 36.054 27.5446 36.1867 27.2346 36.6607C26.9249 37.1344 27.0576 37.7698 27.5315 38.0798ZM33.3688 35.1653C33.2647 35.7839 32.8713 36.4363 32.2091 36.7811V33.1752C33.5078 33.6823 33.4264 34.822 33.3688 35.1653ZM29.7858 29.801C29.5178 29.5906 29.402 29.1491 29.4913 28.6762C29.56 28.3108 29.7704 27.8854 30.1587 27.6288V30.057C30.0231 29.9735 29.8972 29.8883 29.7858 29.801Z" fill="#C63E34"/>
<path d="M42.7371 33.2696H45.577C46.1433 33.2696 46.6022 32.8106 46.6022 32.2444C46.6022 31.6782 46.1433 31.2192 45.577 31.2192H42.7371C42.1708 31.2192 41.7119 31.6782 41.7119 32.2444C41.7119 32.8106 42.1709 33.2696 42.7371 33.2696Z" fill="#C63E34"/>
<path d="M16.9392 33.2696H19.7793C20.3456 33.2696 20.8044 32.8106 20.8044 32.2444C20.8044 31.6782 20.3456 31.2192 19.7793 31.2192H16.9392C16.3729 31.2192 15.9141 31.6782 15.9141 32.2444C15.9141 32.8106 16.3729 33.2696 16.9392 33.2696Z" fill="#C63E34"/>
<path d="M56.7283 19.7012C56.162 19.7012 55.7031 20.1602 55.7031 20.7264V20.9999C55.7031 21.566 56.162 22.025 56.7283 22.025C57.2946 22.025 57.7535 21.566 57.7535 20.9999V20.7264C57.7535 20.1602 57.2945 19.7012 56.7283 19.7012Z" fill="#C63E34"/>
<path d="M56.7283 44.7877C57.2946 44.7877 57.7535 44.3289 57.7535 43.7626V43.489C57.7535 42.9227 57.2946 42.4639 56.7283 42.4639C56.162 42.4639 55.7031 42.9227 55.7031 43.489V43.7626C55.7031 44.3289 56.162 44.7877 56.7283 44.7877Z" fill="#C63E34"/>
<path d="M5.78787 19.7012C5.22157 19.7012 4.7627 20.1602 4.7627 20.7264V20.9999C4.7627 21.566 5.22157 22.025 5.78787 22.025C6.35418 22.025 6.81305 21.566 6.81305 20.9999V20.7264C6.81305 20.1602 6.35405 19.7012 5.78787 19.7012Z" fill="#C63E34"/>
<path d="M5.78787 44.7877C6.35418 44.7877 6.81305 44.3289 6.81305 43.7626V43.489C6.81305 42.9227 6.35418 42.4639 5.78787 42.4639C5.22157 42.4639 4.7627 42.9227 4.7627 43.489V43.7626C4.7627 44.3289 5.22157 44.7877 5.78787 44.7877Z" fill="#C63E34"/>
<path d="M16.5467 46.4106C11.2289 46.4106 6.90234 50.7369 6.90234 56.0548C6.90234 61.3728 11.2287 65.6992 16.5467 65.6992C21.8646 65.6992 26.191 61.3728 26.191 56.0548C26.191 50.7369 21.8645 46.4106 16.5467 46.4106ZM16.5467 63.6488C12.3593 63.6488 8.9527 60.2422 8.9527 56.0548C8.9527 51.8676 12.3593 48.461 16.5467 48.461C20.734 48.461 24.1406 51.8676 24.1406 56.0548C24.1405 60.2422 20.734 63.6488 16.5467 63.6488Z" fill="#C63E34"/>
<path d="M56.0486 39.1318C50.7308 39.1318 46.4043 43.4582 46.4043 48.7762C46.4043 54.0941 50.7307 58.4204 56.0486 58.4204C61.3666 58.4204 65.6928 54.0941 65.6928 48.7762C65.6928 43.4582 61.3664 39.1318 56.0486 39.1318ZM56.0486 56.37C51.8613 56.37 48.4547 52.9634 48.4547 48.7762C48.4547 44.5888 51.8613 41.1822 56.0486 41.1822C60.2359 41.1822 63.6425 44.5888 63.6425 48.7762C63.6425 52.9634 60.2359 56.37 56.0486 56.37Z" fill="#C63E34"/>
<path d="M19.4417 55.0298H13.6521C13.0858 55.0298 12.627 55.4887 12.627 56.055C12.627 56.6213 13.0858 57.0802 13.6521 57.0802H19.4415C20.0078 57.0802 20.4667 56.6213 20.4667 56.055C20.4667 55.4887 20.0078 55.0298 19.4417 55.0298Z" fill="#C63E34"/>
<path d="M58.9435 47.751H53.1541C52.5878 47.751 52.1289 48.2098 52.1289 48.7762C52.1289 49.3425 52.5878 49.8013 53.1541 49.8013H58.9435C59.5098 49.8013 59.9687 49.3425 59.9687 48.7762C59.9687 48.2098 59.5096 47.751 58.9435 47.751Z" fill="#C63E34"/>
</g>
<defs>
<clipPath id="clip0">
<rect width="70" height="70" fill="white"/>
</clipPath>
</defs>
</svg>
