<svg width="70" height="70" viewBox="0 0 70 70" fill="none" xmlns="http://www.w3.org/2000/svg">
<g clip-path="url(#clip0)">
<path d="M20.0591 4.80518C11.7076 4.80518 4.9375 11.5753 4.9375 19.9273C4.9375 28.2788 11.7076 35.0489 20.0591 35.0489C28.4111 35.0489 35.1812 28.2788 35.1812 19.9273C35.1719 11.5791 28.4073 4.81453 20.0591 4.80518ZM20.0591 32.7225C12.9924 32.7225 7.2639 26.994 7.2639 19.9273C7.2639 12.8601 12.9924 7.13157 20.0591 7.13157C27.1263 7.13157 32.8548 12.8601 32.8548 19.9273C32.8466 26.9901 27.1225 32.7142 20.0591 32.7225Z" fill="#C63E34"/>
<path d="M25.8753 19.9272C25.3565 19.9289 24.8442 20.0483 24.3782 20.2761L24.371 20.2656L16.2286 12.1227C15.7741 11.6687 15.0379 11.6687 14.5839 12.1227L12.257 14.4491C11.8163 14.9058 11.8229 15.631 12.2713 16.08C12.7203 16.5284 13.4455 16.535 13.9022 16.0943L15.406 14.5921L17.2509 16.4371L15.7471 17.9414C15.4445 18.2336 15.3235 18.6661 15.4297 19.0727C15.5364 19.4793 15.8539 19.7968 16.2605 19.9036C16.6671 20.0098 17.0996 19.8887 17.3918 19.5861L18.8956 18.0823L22.7263 21.9125L22.7368 21.9196C22.5085 22.3857 22.3885 22.8974 22.3857 23.4168C22.3857 25.3438 23.9479 26.9064 25.8753 26.9064C27.8023 26.9064 29.3649 25.3438 29.3649 23.4168C29.3649 21.4894 27.8023 19.9272 25.8753 19.9272ZM25.8753 24.58C25.2327 24.58 24.7121 24.059 24.7121 23.4168C24.7121 22.7742 25.2327 22.2536 25.8753 22.2536C26.5175 22.2536 27.0385 22.7742 27.0385 23.4168C27.0385 24.059 26.5175 24.58 25.8753 24.58Z" fill="#C63E34"/>
<path d="M67.8941 61.1825L64.607 57.8954L46.507 39.7943C45.5985 38.8858 44.1255 38.8858 43.2171 39.7943L42.395 40.6163L34.8408 33.0627C34.8337 33.0544 34.8232 33.0533 34.815 33.0451C41.9521 25.0226 41.4162 12.7788 33.6056 5.41057C25.7944 -1.95709 13.5406 -1.77826 5.94792 5.81445C-1.64479 13.4072 -1.82362 25.6609 5.5446 33.4721C12.9123 41.2827 25.1561 41.8186 33.1786 34.6815C33.1868 34.6897 33.1879 34.7002 33.1962 34.7074L40.7498 42.2615L39.9278 43.0836C39.0193 43.992 39.0193 45.465 39.9278 46.3735L42.3939 48.8396L58.0206 64.4674L62.1304 68.5771C63.2985 69.7866 65.0285 70.2719 66.6555 69.846C68.282 69.4201 69.5525 68.1496 69.9784 66.5231C70.4043 64.8961 69.919 63.1661 68.7095 61.998L67.8941 61.1825ZM20.0593 37.376C10.423 37.376 2.61129 29.5637 2.61129 19.9275C2.61129 10.2906 10.423 2.47892 20.0593 2.47892C29.6961 2.47892 37.5078 10.2906 37.5078 19.9275C37.4974 29.5593 29.6917 37.365 20.0593 37.376ZM60.4901 63.6487L63.7811 60.3588L65.4257 62.0035L62.1359 65.2933L60.4901 63.6487ZM44.8623 48.0203L48.1527 44.7299L62.1359 58.7131L58.8455 62.0024L44.8623 48.0203ZM43.216 43.0858L44.8595 41.4422L46.5059 43.0874L43.2149 46.3779L41.5702 44.7321L43.216 43.0858ZM67.0704 66.938C66.1504 67.8173 64.7011 67.8173 63.7811 66.938L67.0704 63.6487C67.9788 64.5571 67.9788 66.0295 67.0704 66.938Z" fill="#C63E34"/>
<path d="M23.2074 43.7315C23.6481 43.2748 23.6421 42.5496 23.1931 42.1006C22.7446 41.6522 22.0189 41.6456 21.5627 42.0863L5.75995 57.8891L2.47063 61.179L1.64913 61.9999C0.43971 63.1681 -0.0455989 64.898 0.380284 66.5251C0.806167 68.1516 2.07666 69.4221 3.70371 69.8479C5.33021 70.2738 7.06015 69.7891 8.22831 68.5791L12.3369 64.4787L34.8399 41.9702C35.2807 41.5141 35.2746 40.7883 34.8256 40.3399C34.3772 39.8909 33.6514 39.8848 33.1953 40.3256L11.5171 62.0021L8.22611 58.7128L23.2074 43.7315ZM3.29159 66.9377C2.38369 66.0293 2.38369 64.5569 3.29159 63.6484L6.58145 66.9377C5.6609 67.817 4.21213 67.817 3.29159 66.9377ZM9.87241 63.6484L8.22611 65.2931L4.93679 62.0032L6.58145 60.3586L9.87241 63.6484Z" fill="#C63E34"/>
<path d="M40.1756 33.346C39.873 33.6381 39.7519 34.0706 39.8581 34.4773C39.9649 34.8839 40.2824 35.2019 40.689 35.3081C41.0956 35.4149 41.5281 35.2933 41.8203 34.9912L55.8502 20.9612L58.5942 23.7064C59.4746 24.6011 60.673 25.1111 61.9281 25.1243C62.9769 25.137 63.9876 24.7298 64.7349 23.9936L68.9436 19.7843C69.7514 18.9694 70.1624 17.8425 70.0694 16.6991C69.9863 15.5431 69.4834 14.4575 68.6564 13.6459L56.5853 1.57477C55.7049 0.680633 54.5082 0.169463 53.2536 0.151855H53.2421L44.8493 0.175516C43.2674 0.146903 41.8291 1.08946 41.2238 2.55199C40.5701 4.25992 41.0103 6.19345 42.3392 7.45019L49.2699 14.381L42.2208 21.4311C41.7796 21.8878 41.7862 22.6131 42.2346 23.062C42.6836 23.5105 43.4088 23.5165 43.8655 23.0758L50.9146 16.0256L54.2055 19.3166L40.1756 33.346ZM43.3747 3.43842C43.614 2.83921 44.2116 2.46175 44.8554 2.50192L53.2492 2.47881C53.8875 2.49421 54.4939 2.76053 54.9368 3.21942L67.0112 15.2883C67.8668 16.002 67.9945 17.2686 67.299 18.1391L63.0902 22.3489C62.2192 23.0428 60.9536 22.9146 60.2389 22.0606L57.0205 18.8428C56.9661 18.6805 56.8764 18.5325 56.7575 18.4093L51.8219 13.4736C51.702 13.3581 51.5573 13.2711 51.3982 13.22L43.9838 5.80553C43.3202 5.21293 43.0792 4.27808 43.3747 3.43842Z" fill="#C63E34"/>
</g>
<defs>
<clipPath id="clip0">
<rect width="70" height="70" fill="white"/>
</clipPath>
</defs>
</svg>
