<svg width="70" height="70" viewBox="0 0 70 70" fill="none" xmlns="http://www.w3.org/2000/svg">
<path d="M61.8333 2.33325H54.8333V6.99992H50.1667V2.33325H43.1667V6.99992H38.5V2.33325H31.5V6.99992H26.8333V2.33325H19.8333V6.99992H15.1667V2.33325H8.16667V6.99992H0V67.6666H70V6.99992H61.8333V2.33325ZM57.1667 4.66659H59.5V11.6666H57.1667V4.66659ZM45.5 4.66659H47.8333V11.6666H45.5V4.66659ZM33.8333 4.66659H36.1667V11.6666H33.8333V4.66659ZM22.1667 4.66659H24.5V11.6666H22.1667V4.66659ZM10.5 4.66659H12.8333V11.6666H10.5V4.66659ZM67.6667 65.3332H2.33333V25.6666H67.6667V65.3332ZM67.6667 9.33325V23.3333H2.33333V9.33325H8.16667V13.9999H15.1667V9.33325H19.8333V13.9999H26.8333V9.33325H31.5V13.9999H38.5V9.33325H43.1667V13.9999H50.1667V9.33325H54.8333V13.9999H61.8333V9.33325H67.6667Z" fill="#C63E34"/>
<path d="M24.4997 30.3333H12.833V41.9999H24.4997V30.3333ZM22.1663 39.6666H15.1663V32.6666H22.1663V39.6666Z" fill="#C63E34"/>
<path d="M40.8337 30.3333H29.167V41.9999H40.8337V30.3333ZM38.5003 39.6666H31.5003V32.6666H38.5003V39.6666Z" fill="#C63E34"/>
<path d="M57.1667 30.3333H45.5V41.9999H57.1667V30.3333ZM54.8333 39.6666H47.8333V32.6666H54.8333V39.6666Z" fill="#C63E34"/>
<path d="M40.8337 46.6667H29.167V58.3334H40.8337V46.6667ZM38.5003 56.0001H31.5003V49.0001H38.5003V56.0001Z" fill="#C63E34"/>
<path d="M57.1667 46.6667H45.5V58.3334H57.1667V46.6667ZM54.8333 56.0001H47.8333V49.0001H54.8333V56.0001Z" fill="#C63E34"/>
<path d="M17.5003 59.5001C22.6466 59.5001 26.8337 56.3607 26.8337 52.5001C26.7909 50.7968 26.0276 49.1915 24.7339 48.0829L27.6585 45.1583L26.0088 43.5085L22.7817 46.7345C21.1445 45.9091 19.3341 45.4858 17.5003 45.5001C12.354 45.5001 8.16699 48.6395 8.16699 52.5001C8.16699 56.3607 12.354 59.5001 17.5003 59.5001ZM17.5003 47.8334C18.7057 47.8294 19.9009 48.0539 21.0225 48.4948L17.5003 52.017L15.9919 50.5085L14.3421 52.1583L17.5003 55.3165L23.0841 49.7327C23.9335 50.4071 24.4502 51.4166 24.5003 52.5001C24.5003 55.0294 21.2943 57.1667 17.5003 57.1667C13.7064 57.1667 10.5003 55.0294 10.5003 52.5001C10.5003 49.9708 13.7064 47.8334 17.5003 47.8334Z" fill="#C63E34"/>
<path d="M7 18.6667H16.3333V21.0001H7V18.6667Z" fill="#C63E34"/>
<path d="M21 18.6667H23.3333V21.0001H21V18.6667Z" fill="#C63E34"/>
</svg>
