<svg width="70" height="56" viewBox="0 0 70 56" fill="none" xmlns="http://www.w3.org/2000/svg">
<path d="M0 0.4375V55.4375H69.8184V0.4375H0ZM65.7275 51.3471H54.4093V4.52842H65.7275V51.3471ZM36.976 51.3471C37.2295 47.8288 39.7299 44.9236 43.0458 44.0618V51.3471H36.976ZM45.0912 39.7104C38.5474 39.7104 33.1876 44.8778 32.8781 51.3466H29.8941V30.9831H13.6817V24.8925H50.3183V51.3471H47.1367V39.7104H45.0912ZM33.0757 4.52842V20.8016H4.09092V4.52842H33.0757ZM50.3183 20.8016H37.1667V4.52842H50.3183V20.8016ZM4.09092 30.9831V24.8925H9.59076V30.9831H4.09092ZM4.09092 35.074H25.8032V51.3466H4.09092V35.074Z" fill="#C63E34"/>
</svg>
