<svg width="64" height="61" viewBox="0 0 64 61" fill="none" xmlns="http://www.w3.org/2000/svg">
<path d="M62.125 0.1875C60.078 0.1875 4.04775 0.1875 1.875 0.1875C0.8395 0.1875 0 1.027 0 2.0625C0 3.098 0.8395 3.9375 1.875 3.9375H4.59113L19.0729 32.901C19.3906 33.5363 20.0397 33.9375 20.75 33.9375H43.25C43.9603 33.9375 44.6095 33.5363 44.927 32.901L59.4087 3.9375H62.125C63.1605 3.9375 64 3.098 64 2.0625C64 1.027 63.1605 0.1875 62.125 0.1875ZM18.1589 22.6875L14.4089 15.1875H19.4246L22.0784 22.6875H18.1589ZM42.0911 30.1875H21.9089L20.0339 26.4375H24.7181C24.7224 26.4375 24.7265 26.438 24.7307 26.438C24.7346 26.438 24.7385 26.4375 24.7424 26.4375H39.2578C39.2616 26.4375 39.2655 26.438 39.2694 26.438C39.2736 26.438 39.2778 26.4375 39.282 26.4375H43.9663L42.0911 30.1875ZM23.4024 15.1875H30.125V22.6875H26.0561L23.4024 15.1875ZM33.875 22.6875V15.1875H40.5976L37.9439 22.6875H33.875ZM45.8411 22.6875H41.9215L44.5752 15.1875H49.591L45.8411 22.6875ZM51.4661 11.4375H12.5339L8.78388 3.9375H55.2163L51.4661 11.4375Z" fill="#C63E34"/>
<path d="M43.926 51.4885C40.7345 54.6798 36.4991 56.4375 32 56.4375C27.5009 56.4375 23.2655 54.6798 20.074 51.4885C19.3419 50.7563 18.1546 50.7562 17.4224 51.4885C16.6903 52.2207 16.6903 53.4078 17.4224 54.1401C21.3221 58.0399 26.4992 60.1875 32 60.1875C37.5007 60.1875 42.6779 58.0399 46.5776 54.1401C47.3099 53.408 47.3099 52.2207 46.5776 51.4885C45.8456 50.7563 44.6584 50.7562 43.926 51.4885Z" fill="#C63E34"/>
<path d="M22.7229 46.188C21.9906 46.9203 21.9906 48.1074 22.7229 48.8397C25.2041 51.3211 28.4989 52.6876 32 52.6876C35.5011 52.6876 38.7959 51.321 41.2772 48.8398C42.0095 48.1075 42.0095 46.9204 41.2772 46.1882C40.5452 45.456 39.358 45.4559 38.6256 46.1882C36.8525 47.961 34.4995 48.9375 32 48.9375C29.5005 48.9375 27.1475 47.961 25.3745 46.188C24.6423 45.4558 23.455 45.4558 22.7229 46.188Z" fill="#C63E34"/>
<path d="M35.9774 43.54C36.7096 42.8077 36.7096 41.6206 35.9774 40.8884C35.2453 40.1561 34.058 40.1561 33.3258 40.8884C32.593 41.6211 31.4071 41.6211 30.674 40.8884C29.9419 40.1562 28.7546 40.1562 28.0224 40.8885C27.2901 41.6207 27.2903 42.8079 28.0225 43.5401C30.2209 45.7381 33.779 45.7385 35.9774 43.54Z" fill="#C63E34"/>
</svg>
