<svg width="60" height="60" viewBox="0 0 60 60" fill="none" xmlns="http://www.w3.org/2000/svg">
<g clip-path="url(#clip0)">
<path d="M51.6087 49.5071C49.6463 46.3669 46.2634 44.4919 42.5601 44.4919H37.3828V41.0156H37.8905C42.0909 41.0156 45.5077 37.5984 45.5077 33.3984V30.5077H48.6328V21.7639L51.2498 21.758V18.2423H49.183L45.6711 6.30798C45.1314 4.47281 44.0364 2.89719 42.5047 1.7514C40.9731 0.605621 39.1525 0 37.2395 0H22.7605C20.8475 0 19.0269 0.605621 17.4953 1.7514C15.9636 2.89719 14.8686 4.47281 14.3289 6.30798L10.817 18.2423H8.75015V21.758L10.7423 21.7639H11.3672V30.5077H14.4923V33.3984C14.4923 37.5984 17.9091 41.0156 22.1095 41.0156H22.6172V44.4923H17.4399C13.7366 44.4923 10.3537 46.3669 8.39127 49.5076L7.61719 50.7458V60H52.3828V50.7458L51.6087 49.5071ZM11.1328 51.7543L11.3727 51.3707C12.6883 49.265 14.957 48.008 17.4399 48.008H23.2603C24.1814 50.0633 26.0138 51.6234 28.2422 52.1695V56.4844H11.1328V51.7543ZM26.1328 45V37.5H22.1095C19.8477 37.5 18.008 35.6602 18.008 33.3984V26.992H14.8828V21.7639H23.1248V25.508H26.6405V21.7639H33.3595V25.508H36.8752V21.7639H45.1172V26.992H41.992V33.3984C41.992 35.6602 40.1523 37.5 37.8905 37.5H33.8672V45C33.8672 47.1323 32.1323 48.8672 30 48.8672C27.8677 48.8672 26.1328 47.1323 26.1328 45ZM22.7605 3.51562H23.242V10.5075H26.7577V3.51562H33.2423V10.5075H36.758V3.51562H37.2395C39.5627 3.51562 41.6428 5.07202 42.2987 7.30042L45.5182 18.2423H14.4818L17.7013 7.30042C18.3572 5.07202 20.4373 3.51562 22.7605 3.51562ZM48.6273 51.3707L48.8672 51.7538V56.4844H31.7578V52.1695C33.9857 51.6234 35.8186 50.0633 36.7397 48.008H42.5601C45.043 48.008 47.3117 49.265 48.6273 51.3707Z" fill="#C63E34"/>
<path d="M36.1702 30.3781L36.3222 30.0618L33.1535 28.5388L33.0016 28.8547C32.4504 30.0014 31.2721 30.7425 30 30.7425C28.7279 30.7425 27.5496 30.0014 26.9984 28.8551L26.8465 28.5388L23.6778 30.0618L23.8298 30.3781C24.9632 32.7351 27.3848 34.2581 30 34.2581C32.6152 34.2581 35.0368 32.7351 36.1702 30.3781Z" fill="#C63E34"/>
</g>
<defs>
<clipPath id="clip0">
<rect width="60" height="60" fill="white"/>
</clipPath>
</defs>
</svg>
