<svg width="53" height="50" viewBox="0 0 53 50" fill="none" xmlns="http://www.w3.org/2000/svg">
<path d="M46.4738 37.7034H45.8409C46.2025 36.2116 46.3834 34.6745 46.3834 33.0922C46.3834 22.0163 37.387 13.0199 26.3562 13.0199C15.3255 13.0199 6.32911 22.0163 6.32911 33.0922C6.32911 34.6745 6.50995 36.2116 6.87161 37.7034H6.2387C2.75769 37.7034 0 40.4611 0 43.8517C0 47.2423 2.75769 50 6.14828 50H46.4286C49.8192 50 52.5769 47.2423 52.5769 43.8517C52.6221 40.4611 49.8644 37.7034 46.4738 37.7034ZM6.14828 46.9259C4.43038 46.9259 3.07414 45.5244 3.07414 43.8517C3.07414 42.1338 4.47559 40.7776 6.14828 40.7776H7.77577C8.72514 43.038 10.0814 45.1628 11.7993 46.9259H6.14828ZM36.076 46.9259H16.5461C12.0253 43.7613 9.35805 38.6076 9.35805 33.047C9.35805 23.689 16.953 16.094 26.311 16.094C35.6691 16.094 43.264 23.689 43.264 33.047C43.264 38.6076 40.5967 43.7613 36.076 46.9259ZM46.4738 46.9259H40.7776C42.4955 45.1175 43.8517 43.038 44.8011 40.7776H46.4286C48.1465 40.7776 49.5027 42.179 49.5027 43.8517C49.5479 45.5696 48.1465 46.9259 46.4738 46.9259ZM26.311 28.4358C27.17 28.4358 27.8481 29.1139 27.8481 29.9729C27.8481 30.8318 28.5262 31.5099 29.3852 31.5099C30.2441 31.5099 30.9222 30.8318 30.9222 29.9729C30.9222 27.9837 29.6112 26.2658 27.8481 25.6329V23.8246C27.8481 22.9656 27.17 22.2875 26.311 22.2875C25.4521 22.2875 24.774 22.9656 24.774 23.8246V25.6329C22.9656 26.2658 21.6998 27.9837 21.6998 29.9729C21.6998 32.5045 23.7794 34.5841 26.311 34.5841C27.17 34.5841 27.8481 35.2622 27.8481 36.1212C27.8481 36.9801 27.17 37.6582 26.311 37.6582C25.4521 37.6582 24.774 36.9801 24.774 36.1212C24.774 35.2622 24.0958 34.5841 23.2369 34.5841C22.3779 34.5841 21.6998 35.2622 21.6998 36.1212C21.6998 38.1103 23.0108 39.8282 24.774 40.4611V42.2694C24.774 43.1284 25.4521 43.8065 26.311 43.8065C27.17 43.8065 27.8481 43.1284 27.8481 42.2694V40.4611C29.6564 39.8282 30.9222 38.1103 30.9222 36.1212C30.9222 33.5895 28.8427 31.5099 26.311 31.5099C25.4521 31.5099 24.774 30.8318 24.774 29.9729C24.774 29.1139 25.4521 28.4358 26.311 28.4358ZM26.311 9.71971C27.17 9.71971 27.8481 9.04159 27.8481 8.18264V4.65642C27.8481 3.79747 27.17 3.11935 26.311 3.11935C25.4521 3.11935 24.774 3.79747 24.774 4.65642V8.18264C24.774 8.99638 25.4521 9.71971 26.311 9.71971ZM32.4593 6.64557C33.3183 6.64557 33.9964 5.96745 33.9964 5.1085V1.53707C33.9964 0.678119 33.3183 0 32.4593 0C31.6004 0 30.9222 0.678119 30.9222 1.53707V5.06329C30.9222 5.92224 31.6456 6.64557 32.4593 6.64557ZM20.1627 6.64557C21.0217 6.64557 21.6998 5.96745 21.6998 5.1085V1.53707C21.6998 0.678119 20.9765 0 20.1627 0C19.3038 0 18.6257 0.678119 18.6257 1.53707V5.06329C18.6257 5.92224 19.3038 6.64557 20.1627 6.64557Z" fill="#C63E34"/>
</svg>
