<svg width="50" height="50" viewBox="0 0 50 50" fill="none" xmlns="http://www.w3.org/2000/svg">
<path d="M3.7123 30.4911C3.17092 28.4029 2.91957 26.6628 2.91957 25C2.91957 12.8384 12.819 2.9389 24.9807 2.9389C30.5104 2.9389 35.8275 5.08507 39.9072 8.89404H36.6783C35.8662 8.89404 35.2088 9.55143 35.2088 10.3635C35.2088 11.1756 35.8662 11.8329 36.6783 11.8329H42.5367C43.3488 11.8329 44.0062 11.1756 44.0062 10.3635V4.48569C44.0062 3.67363 43.3488 3.01624 42.5367 3.01624C41.7247 3.01624 41.0673 3.67363 41.0673 4.48569V5.99381C36.6009 2.16551 30.8971 0 25 0C11.2336 0 0 11.2336 0 25C0 26.9142 0.270688 28.8863 0.889404 31.2258C1.08275 32.0186 1.89482 32.4826 2.66821 32.2699C3.44161 32.0572 3.92498 31.2645 3.7123 30.4911ZM48.0858 15.6613C47.7765 14.9072 46.9258 14.5592 46.1717 14.8492C45.4176 15.1585 45.0696 16.0093 45.3596 16.7633C46.4811 19.5476 47.0611 22.3125 47.0611 25C47.0611 37.1616 37.1616 47.0611 25 47.0611C18.0974 47.0611 11.5623 43.7162 7.42459 38.1864H10.3635C11.1756 38.1864 11.8329 37.529 11.8329 36.7169C11.8329 35.9049 11.1756 35.2475 10.3635 35.2475H4.48569C3.67363 35.2475 3.01624 35.9049 3.01624 36.7169V42.5754C3.01624 43.3875 3.67363 44.0449 4.48569 44.0449C5.29776 44.0449 5.95514 43.3875 5.95514 42.5754V41.048C10.8469 46.8677 17.8461 50 25 50C38.7664 50 50 38.7664 50 25C49.9807 21.9258 49.3426 18.7742 48.0858 15.6613ZM25 8.87471C25.8121 8.87471 26.4694 8.21732 26.4694 7.40526C26.4694 6.59319 25.8121 5.93581 25 5.93581C24.1879 5.93581 23.5305 6.59319 23.5305 7.40526C23.5305 8.23666 24.1879 8.87471 25 8.87471ZM23.5305 42.5561C23.5305 43.3681 24.1879 44.0255 25 44.0255C25.8121 44.0255 26.4694 43.3681 26.4694 42.5561C26.4694 41.744 25.8121 41.0866 25 41.0866C24.1879 41.106 23.5305 41.7633 23.5305 42.5561ZM5.95514 25C5.95514 25.8121 6.61253 26.4694 7.42459 26.4694C8.23666 26.4694 8.89404 25.8121 8.89404 25C8.89404 24.1879 8.23666 23.5305 7.42459 23.5305C6.61253 23.5305 5.95514 24.1879 5.95514 25ZM41.106 25C41.106 25.8121 41.7633 26.4694 42.5754 26.4694C43.3875 26.4694 44.0449 25.8121 44.0449 25C44.0449 24.1879 43.3875 23.5305 42.5754 23.5305C41.7633 23.5305 41.106 24.1879 41.106 25ZM29.1377 26.4501H33.778C34.5901 26.4501 35.2475 25.7927 35.2475 24.9807C35.2475 24.1686 34.5901 23.5112 33.778 23.5112H29.1377C28.693 22.2738 27.7069 21.2684 26.4694 20.843V13.2831C26.4694 12.471 25.8121 11.8136 25 11.8136C24.1879 11.8136 23.5305 12.471 23.5305 13.2831V20.8623C21.8291 21.4617 20.611 23.0858 20.611 25C20.611 25.6767 20.7657 26.3148 21.0364 26.8948L15.1779 32.7533C14.5978 33.3333 14.5978 34.2614 15.1779 34.8221C15.7579 35.4022 16.686 35.4022 17.2467 34.8221L23.1052 28.9636C23.6852 29.2343 24.3233 29.389 25 29.389C26.8948 29.389 28.5383 28.1516 29.1377 26.4501ZM25 26.4501C24.1879 26.4501 23.5305 25.7927 23.5305 24.9807C23.5305 24.1686 24.1879 23.5112 25 23.5112C25.8121 23.5112 26.4694 24.1686 26.4694 24.9807C26.4501 25.7927 25.7927 26.4501 25 26.4501Z" fill="#C63E34"/>
</svg>
