<svg width="58" height="60" viewBox="0 0 58 60" fill="none" xmlns="http://www.w3.org/2000/svg">
<path d="M34.9974 22.6964C35.9732 19.8881 36.3703 16.8184 36.9699 13.8938C37.234 12.6251 37.4701 11.3734 37.7342 10.1047C37.91 9.19534 38.3597 8.04371 37.7897 7.16541C36.8131 5.61569 33.6421 6.50346 32.1673 6.59354C29.3076 6.79577 26.4199 7.01494 23.5491 7.26208C22.0633 7.39707 22.0895 9.71343 23.5753 9.57844C25.7171 9.39032 27.8869 9.18526 30.0457 9.02512C31.0662 8.94248 32.0867 8.85985 33.1241 8.80518C33.7801 8.75206 35.7415 8.3291 36.2872 8.72513C36.1067 8.49028 35.9263 8.25543 35.7628 8.04856C36.115 9.13527 35.3878 11.0284 35.2128 12.1284C34.9987 13.2903 34.8296 14.4633 34.6604 15.6362C34.2883 17.9261 33.7703 20.2279 33.7066 22.5221C33.6707 23.3468 34.7869 23.3591 34.9974 22.6964Z" fill="#C63E34"/>
<path d="M37.3482 7.5109C35.1844 7.78885 33.1776 9.46273 31.4439 10.7036C29.3804 12.2207 27.3846 13.8497 25.5354 15.6575C21.9821 19.0707 18.8175 22.9367 16.3164 27.2038C14.2385 30.7176 12.6062 34.841 12.735 38.9685C12.8417 43.1858 14.9709 46.8285 18.4075 49.2208C22.8396 52.3102 28.5127 52.966 33.7969 53.169C35.3283 53.2358 35.2462 50.9533 33.7538 50.8248C28.2832 50.314 22.3312 50.0183 18.1308 45.9857C14.3413 42.3161 14.5105 36.9759 16.3092 32.3695C18.2241 27.3868 21.6669 22.9701 25.1959 19.0746C27.0553 17.0311 29.0834 15.0767 31.1962 13.2622C32.3645 12.2872 33.5387 11.3851 34.7409 10.466C35.7362 9.71041 36.8382 9.00488 37.5913 7.97545C37.7363 7.77295 37.55 7.46522 37.3482 7.5109Z" fill="#C63E34"/>
</svg>
