<svg width="44" height="75" viewBox="0 0 44 75" fill="none" xmlns="http://www.w3.org/2000/svg">
<path d="M35.2805 71.7105L30.9 67.9496L29.8332 73.6236L35.2805 71.7105ZM14.1871 60.9859L14.5527 60.6448L14.5527 60.6448L14.1871 60.9859ZM4.95077 39.1997L4.45143 39.2253L4.45143 39.2253L4.95077 39.1997ZM11.9087 16.5826L12.3073 16.8844L12.3073 16.8844L11.9087 16.5826ZM30.982 70.3946C24.7168 68.7877 19.0066 65.4189 14.5527 60.6448L13.8215 61.3269C18.4063 66.2414 24.2842 69.7092 30.7335 71.3633L30.982 70.3946ZM14.5527 60.6448C9.08451 54.7833 5.8609 47.1797 5.45012 39.1741L4.45143 39.2253C4.87429 47.4662 8.19262 55.2932 13.8215 61.3269L14.5527 60.6448ZM5.45012 39.1741C5.03933 31.1685 7.46774 23.2748 12.3073 16.8844L11.5101 16.2807C6.52834 22.8589 4.02858 30.9845 4.45143 39.2253L5.45012 39.1741ZM12.3073 16.8844C17.1469 10.494 24.0869 6.01714 31.9042 4.24282L31.6829 3.26763C23.6359 5.09408 16.4919 9.70252 11.5101 16.2807L12.3073 16.8844Z" fill="#C63E34"/>
</svg>
