<svg width="50" height="50" viewBox="0 0 50 50" fill="none" xmlns="http://www.w3.org/2000/svg">
<path d="M11.8164 25V41.4648C10.1074 42.0703 8.88672 43.7012 8.88672 45.6055V50H41.1133V45.6055C41.1133 43.6914 39.8926 42.0703 38.1836 41.4648V25C38.1836 17.7344 32.2656 11.8164 25 11.8164C17.7344 11.8164 11.8164 17.7344 11.8164 25ZM38.1836 47.0703H11.8164V45.6055C11.8164 44.7949 12.4707 44.1406 13.2812 44.1406H36.7188C37.5293 44.1406 38.1836 44.7949 38.1836 45.6055V47.0703ZM25 14.7461C30.6543 14.7461 35.2539 19.3457 35.2539 25V41.2109H14.7461V25C14.7461 19.3457 19.3457 14.7461 25 14.7461Z" fill="#C63E34"/>
<path d="M23.5352 20.6055H26.4648V29.3945H23.5352V20.6055Z" fill="#C63E34"/>
<path d="M23.5352 32.3242H26.4648V35.2539H23.5352V32.3242Z" fill="#C63E34"/>
<path d="M0 23.5352H5.95703V26.4648H0V23.5352Z" fill="#C63E34"/>
<path d="M44.043 23.5352H50V26.4648H44.043V23.5352Z" fill="#C63E34"/>
<path d="M41.5723 6.35742L43.6426 8.42773L39.502 12.5684L37.4316 10.498L41.5723 6.35742Z" fill="#C63E34"/>
<path d="M10.498 12.5684L6.35742 8.42773L8.42773 6.35742L12.5683 10.498L10.498 12.5684Z" fill="#C63E34"/>
<path d="M23.5352 0H26.4648V5.95703H23.5352V0Z" fill="#C63E34"/>
</svg>
