<svg width="44" height="50" viewBox="0 0 44 50" fill="none" xmlns="http://www.w3.org/2000/svg">
<g clip-path="url(#clip0)">
<path d="M5.85938 0C2.62695 0 0 2.62695 0 5.85938V50H38.0859V8.78906H43.9453V5.85938C43.9453 2.62695 41.3184 0 38.0859 0H5.85938ZM35.1562 47.0703H2.92969V5.85938C2.92969 4.24805 4.24805 2.92969 5.85938 2.92969C7.4707 2.92969 8.78906 4.24805 8.78906 5.85938V8.78906H35.1562V47.0703ZM41.0156 5.85938H11.7188C11.7188 4.79492 11.4355 3.78906 10.9277 2.92969H38.0859C39.6973 2.92969 41.0156 4.24805 41.0156 5.85938Z" fill="#C63E34"/>
<path d="M5.85937 26.4648H20.5078V11.7188H5.85937V26.4648ZM8.78906 14.6484H11.7187V17.5781H14.6484V14.6484H17.5781V23.5352H8.78906V14.6484Z" fill="#C63E34"/>
<path d="M5.85937 44.1406H20.5078V29.3945H5.85937V44.1406ZM8.78906 32.3242H11.7187V35.2539H14.6484V32.3242H17.5781V41.2109H8.78906V32.3242Z" fill="#C63E34"/>
<path d="M23.4375 11.7188H32.2266V14.6484H23.4375V11.7188Z" fill="#C63E34"/>
<path d="M23.4375 17.5781H29.2969V20.5078H23.4375V17.5781Z" fill="#C63E34"/>
<path d="M23.4375 29.3945H32.2266V32.3242H23.4375V29.3945Z" fill="#C63E34"/>
<path d="M23.4375 35.2539H29.2969V38.1836H23.4375V35.2539Z" fill="#C63E34"/>
</g>
<defs>
<clipPath id="clip0">
<rect width="43.9453" height="50" fill="white"/>
</clipPath>
</defs>
</svg>
