<svg width="60" height="60" viewBox="0 0 60 60" fill="none" xmlns="http://www.w3.org/2000/svg">
<path d="M23.7881 24.77C24.8701 22.693 26.9641 21.227 29.4151 21.024" stroke="#222222" stroke-width="2" stroke-miterlimit="10"/>
<path d="M20.498 25.175C17.986 25.891 16 28.258 16 31C16 34.314 18.687 37 22 37H39C41.761 37 44 34.761 44 32C44 29.239 41.761 27 39 27C38.274 27 37.589 27.162 36.966 27.44C36.801 25.37 35.748 23.551 34.174 22.38" stroke="#222222" stroke-width="2" stroke-miterlimit="10"/>
<path d="M30 53C42.7025 53 53 42.7025 53 30C53 17.2975 42.7025 7 30 7C17.2975 7 7 17.2975 7 30C7 42.7025 17.2975 53 30 53Z" stroke="#222222" stroke-width="2" stroke-miterlimit="10"/>
<path d="M38.751 41.1373C37.046 48.2123 33.766 53.0003 30 53.0003C26.041 53.0003 22.62 47.7093 20.999 40.0343" stroke="#222222" stroke-width="2" stroke-miterlimit="10"/>
<path d="M21.8193 16.7691C23.6293 10.8601 26.6193 7.00012 30.0003 7.00012C33.3923 7.00012 36.3903 10.8851 38.1983 16.8271" stroke="#222222" stroke-width="2" stroke-miterlimit="10"/>
<path d="M43.0029 21.75C49.0399 23.552 52.9999 26.575 52.9999 30C52.9999 33.031 49.8989 35.747 44.9999 37.581" stroke="#222222" stroke-width="2" stroke-miterlimit="10"/>
<path d="M14.812 37.51C10.022 35.677 7 32.992 7 30C7 27.024 9.99 24.352 14.734 22.52" stroke="#222222" stroke-width="2" stroke-miterlimit="10"/>
<path d="M40.8314 54.7399C40.2674 54.9869 39.6934 55.2159 39.1094 55.4249" stroke="#222222" stroke-width="2" stroke-miterlimit="10"/>
<path d="M55.3687 39.2628C53.1297 45.3928 48.7327 50.4838 43.0967 53.6158" stroke="#222222" stroke-width="2" stroke-miterlimit="10"/>
<path d="M19.0977 5.29106C19.6847 5.03206 20.2027 4.82506 20.8097 4.60706" stroke="#222222" stroke-width="2" stroke-miterlimit="10"/>
<path d="M6.45898 16.7689C8.90398 12.4289 12.514 8.83191 16.866 6.40491" stroke="#222222" stroke-width="2" stroke-miterlimit="10"/>
<path d="M20.511 28.7772C20.792 28.3202 21 27.7792 21 27.0002C21 24.5002 19 24.5002 19 22.0002C19 20.5432 19.783 19.8122 20.376 19.1022" stroke="#222222" stroke-width="2" stroke-miterlimit="10"/>
<path d="M40.518 23.9021C40.18 23.4081 40 22.8251 40 22.0001C40 20.5431 40.766 19.8381 41.337 19.1101" stroke="#222222" stroke-width="2" stroke-miterlimit="10"/>
<path d="M29 31C29 28 31 28 31 25C31 22 29 22 29 19C29 16 31 16 31 13" stroke="#222222" stroke-width="2" stroke-miterlimit="10"/>
</svg>
