<svg width="60" height="60" viewBox="0 0 60 60" fill="none" xmlns="http://www.w3.org/2000/svg">
<path d="M4.18848 39.879C5.18848 34.263 10.0965 30 16.0005 30C22.6275 30 28.0005 35.373 28.0005 42C28.0005 48.627 22.6275 54 16.0005 54C10.8405 54 6.44048 50.743 4.74548 46.173" stroke="#222222" stroke-width="2" stroke-miterlimit="10"/>
<path d="M4.139 43.832C4.047 43.234 4 42.623 4 42" stroke="#222222" stroke-width="2" stroke-miterlimit="10"/>
<path d="M45 57H44C42.896 57 42 56.104 42 55V32L44.5 28.708L47 32V55C47 56.104 46.104 57 45 57Z" stroke="#222222" stroke-width="2" stroke-miterlimit="10"/>
<path d="M42 52H47" stroke="#222222" stroke-width="2" stroke-miterlimit="10"/>
<path d="M41.9997 49.9081L26.7677 54.0921L25.4707 49.3691" stroke="#222222" stroke-width="2" stroke-miterlimit="10"/>
<path d="M20.3775 30.8248L18.1035 22.5468L23.7555 12.6098L44.9115 6.80078L55.7165 46.1408L46.9995 48.5348" stroke="#222222" stroke-width="2" stroke-miterlimit="10"/>
<path d="M29.291 32.167L38.693 29.584" stroke="#222222" stroke-width="2" stroke-miterlimit="10"/>
<path d="M38.6926 33.7329L30.3516 36.0239" stroke="#222222" stroke-width="2" stroke-miterlimit="10"/>
<path d="M35.7371 38.6929L31.4111 39.8819" stroke="#222222" stroke-width="2" stroke-miterlimit="10"/>
<path d="M23.7555 12.6108L25.8955 20.4038L18.1035 22.5438" stroke="#222222" stroke-width="2" stroke-miterlimit="10"/>
<path d="M36.375 15L41 14L42.166 18.158" stroke="#222222" stroke-width="2" stroke-miterlimit="10"/>
<path d="M7 26V5H35V9.522" stroke="#222222" stroke-width="2" stroke-miterlimit="10"/>
<path d="M7 28V30" stroke="#222222" stroke-width="2" stroke-miterlimit="10"/>
<path d="M51 10H49V12H51V10Z" fill="white"/>
<path d="M52 14H50V16H52V14Z" fill="white"/>
<path d="M53 18H51V20H53V18Z" fill="white"/>
<path d="M54 22H52V24H54V22Z" fill="white"/>
<path d="M55 26H53V28H55V26Z" fill="white"/>
</svg>
